%TF.GenerationSoftware,KiCad,Pcbnew,10.0.1*%
%TF.CreationDate,2026-04-26T21:51:14+02:00*%
%TF.ProjectId,sao_laser_tag,73616f5f-6c61-4736-9572-5f7461672e6b,rev?*%
%TF.SameCoordinates,Original*%
%TF.FileFunction,Soldermask,Top*%
%TF.FilePolarity,Negative*%
%FSLAX46Y46*%
G04 Gerber Fmt 4.6, Leading zero omitted, Abs format (unit mm)*
G04 Created by KiCad (PCBNEW 10.0.1) date 2026-04-26 21:51:14*
%MOMM*%
%LPD*%
G01*
G04 APERTURE LIST*
G04 Aperture macros list*
%AMRoundRect*
0 Rectangle with rounded corners*
0 $1 Rounding radius*
0 $2 $3 $4 $5 $6 $7 $8 $9 X,Y pos of 4 corners*
0 Add a 4 corners polygon primitive as box body*
4,1,4,$2,$3,$4,$5,$6,$7,$8,$9,$2,$3,0*
0 Add four circle primitives for the rounded corners*
1,1,$1+$1,$2,$3*
1,1,$1+$1,$4,$5*
1,1,$1+$1,$6,$7*
1,1,$1+$1,$8,$9*
0 Add four rect primitives between the rounded corners*
20,1,$1+$1,$2,$3,$4,$5,0*
20,1,$1+$1,$4,$5,$6,$7,0*
20,1,$1+$1,$6,$7,$8,$9,0*
20,1,$1+$1,$8,$9,$2,$3,0*%
%AMFreePoly0*
4,1,14,0.500354,1.425354,2.350354,-0.424646,2.350500,-0.425000,2.350500,-1.425000,2.350354,-1.425354,2.350000,-1.425500,-0.500000,-1.425500,-0.500354,-1.425354,-0.500500,-1.425000,-0.500500,1.425000,-0.500354,1.425354,-0.500000,1.425500,0.500000,1.425500,0.500354,1.425354,0.500354,1.425354,$1*%
%AMFreePoly1*
4,1,14,0.500354,1.425354,0.500500,1.425000,0.500500,-1.425000,0.500354,-1.425354,0.500000,-1.425500,-2.350000,-1.425500,-2.350354,-1.425354,-2.350500,-1.425000,-2.350500,-0.425000,-2.350354,-0.424646,-0.500354,1.425354,-0.500000,1.425500,0.500000,1.425500,0.500354,1.425354,0.500354,1.425354,$1*%
G04 Aperture macros list end*
%ADD10C,0.001000*%
%ADD11RoundRect,0.200000X0.200000X-0.750000X0.200000X0.750000X-0.200000X0.750000X-0.200000X-0.750000X0*%
%ADD12O,2.500000X1.600000*%
%ADD13RoundRect,0.137500X-0.137500X0.612500X-0.137500X-0.612500X0.137500X-0.612500X0.137500X0.612500X0*%
%ADD14RoundRect,0.250000X0.337500X0.475000X-0.337500X0.475000X-0.337500X-0.475000X0.337500X-0.475000X0*%
%ADD15FreePoly0,0.000000*%
%ADD16FreePoly1,0.000000*%
%ADD17RoundRect,0.250000X0.375000X0.625000X-0.375000X0.625000X-0.375000X-0.625000X0.375000X-0.625000X0*%
%ADD18RoundRect,0.237500X0.237500X-0.250000X0.237500X0.250000X-0.237500X0.250000X-0.237500X-0.250000X0*%
%ADD19RoundRect,0.237500X-0.237500X0.300000X-0.237500X-0.300000X0.237500X-0.300000X0.237500X0.300000X0*%
%ADD20RoundRect,0.237500X-0.250000X-0.237500X0.250000X-0.237500X0.250000X0.237500X-0.250000X0.237500X0*%
%ADD21RoundRect,0.237500X0.250000X0.237500X-0.250000X0.237500X-0.250000X-0.237500X0.250000X-0.237500X0*%
%ADD22RoundRect,0.200000X-0.200000X0.750000X-0.200000X-0.750000X0.200000X-0.750000X0.200000X0.750000X0*%
%ADD23RoundRect,0.237500X0.300000X0.237500X-0.300000X0.237500X-0.300000X-0.237500X0.300000X-0.237500X0*%
%ADD24RoundRect,0.250000X-0.375000X-0.625000X0.375000X-0.625000X0.375000X0.625000X-0.375000X0.625000X0*%
%ADD25RoundRect,0.250200X0.649800X0.649800X-0.649800X0.649800X-0.649800X-0.649800X0.649800X-0.649800X0*%
%ADD26C,1.800000*%
%ADD27R,1.727200X1.727200*%
%ADD28C,1.727200*%
%ADD29O,1.727200X1.727200*%
G04 APERTURE END LIST*
D10*
%TO.C,BZ1*%
X168650000Y-85650000D02*
X166800000Y-87500000D01*
X165800000Y-87500000D01*
X165800000Y-84650000D01*
X168650000Y-84650000D01*
X168650000Y-85650000D01*
G36*
X168650000Y-85650000D02*
G01*
X166800000Y-87500000D01*
X165800000Y-87500000D01*
X165800000Y-84650000D01*
X168650000Y-84650000D01*
X168650000Y-85650000D01*
G37*
X175300000Y-87500000D02*
X174300000Y-87500000D01*
X172450000Y-85650000D01*
X172450000Y-84650000D01*
X175300000Y-84650000D01*
X175300000Y-87500000D01*
G36*
X175300000Y-87500000D02*
G01*
X174300000Y-87500000D01*
X172450000Y-85650000D01*
X172450000Y-84650000D01*
X175300000Y-84650000D01*
X175300000Y-87500000D01*
G37*
%TD*%
D11*
%TO.C,Q6*%
X180340000Y-87000000D03*
X182240000Y-87000000D03*
X181290000Y-84000000D03*
%TD*%
D12*
%TO.C,J2*%
X174000000Y-113200000D03*
%TD*%
D13*
%TO.C,U1*%
X184450000Y-92950000D03*
X183180000Y-92950000D03*
X181910000Y-92950000D03*
X180640000Y-92950000D03*
X180640000Y-98250000D03*
X181910000Y-98250000D03*
X183180000Y-98250000D03*
X184450000Y-98250000D03*
%TD*%
D14*
%TO.C,C3*%
X170087500Y-97700000D03*
X168012500Y-97700000D03*
%TD*%
D15*
%TO.C,BZ1*%
X166300000Y-92725000D03*
D16*
X174800000Y-92725000D03*
%TD*%
D17*
%TO.C,D3*%
X169698316Y-80949999D03*
X166898316Y-80950001D03*
%TD*%
D14*
%TO.C,C2*%
X170087500Y-99800000D03*
X168012500Y-99800000D03*
%TD*%
D18*
%TO.C,R10*%
X178570000Y-86172500D03*
X178570000Y-84347500D03*
%TD*%
D19*
%TO.C,C1*%
X178900000Y-93737500D03*
X178900000Y-95462500D03*
%TD*%
D12*
%TO.C,J3*%
X174079238Y-115250000D03*
%TD*%
D20*
%TO.C,R5*%
X164012500Y-108550000D03*
X165837500Y-108550000D03*
%TD*%
D21*
%TO.C,R9*%
X165812500Y-110150000D03*
X163987500Y-110150000D03*
%TD*%
D22*
%TO.C,Q5*%
X165850000Y-103300000D03*
X163950000Y-103300000D03*
X164900000Y-106300000D03*
%TD*%
D18*
%TO.C,R1*%
X177200000Y-95512500D03*
X177200000Y-93687500D03*
%TD*%
D23*
%TO.C,C4*%
X178900000Y-91540000D03*
X177175000Y-91540000D03*
%TD*%
D24*
%TO.C,D4*%
X185350000Y-81500000D03*
X188150000Y-81500000D03*
%TD*%
D20*
%TO.C,R6*%
X166987500Y-83200000D03*
X168812500Y-83200000D03*
%TD*%
D21*
%TO.C,R7*%
X188212500Y-84600000D03*
X186387500Y-84600000D03*
%TD*%
D12*
%TO.C,J1*%
X174079238Y-117271479D03*
%TD*%
D25*
%TO.C,U2*%
X177600000Y-100500000D03*
D26*
X175060000Y-100500000D03*
X172520000Y-100500000D03*
%TD*%
D27*
%TO.C,X1*%
X177580000Y-105350000D03*
D28*
X177580000Y-107890000D03*
D29*
X175040000Y-105350000D03*
X175040000Y-107890000D03*
D28*
X172500000Y-105350000D03*
X172500000Y-107890000D03*
%TD*%
G36*
X169528900Y-79832317D02*
G01*
X169579845Y-79880133D01*
X169596852Y-79947901D01*
X169590841Y-79981420D01*
X168927715Y-82015007D01*
X168888216Y-82072640D01*
X168823829Y-82099771D01*
X168810604Y-82100562D01*
X167158889Y-82110950D01*
X167155671Y-82110928D01*
X166761620Y-82103178D01*
X166694980Y-82082179D01*
X166650273Y-82028486D01*
X166641691Y-81959145D01*
X166644948Y-81944723D01*
X167129907Y-80269411D01*
X167167456Y-80210489D01*
X167220296Y-80183262D01*
X168192107Y-79951879D01*
X168208068Y-79949165D01*
X169460190Y-79819635D01*
X169528900Y-79832317D01*
G37*
G36*
X186379072Y-79612403D02*
G01*
X188843211Y-79998935D01*
X188856621Y-80001806D01*
X189249333Y-80108909D01*
X189308831Y-80145539D01*
X189339080Y-80208522D01*
X189330477Y-80277860D01*
X189325830Y-80287432D01*
X187740300Y-83225324D01*
X187691138Y-83274971D01*
X187622938Y-83290158D01*
X187615797Y-83289474D01*
X184667968Y-82920996D01*
X184603888Y-82893149D01*
X184565035Y-82835077D01*
X184563747Y-82765219D01*
X184570672Y-82746184D01*
X185346128Y-81058425D01*
X185355083Y-81042240D01*
X186256135Y-79666950D01*
X186309340Y-79621661D01*
X186378583Y-79612327D01*
X186379072Y-79612403D01*
G37*
M02*
