%TF.GenerationSoftware,KiCad,Pcbnew,10.0.1*%
%TF.CreationDate,2026-04-26T21:51:14+02:00*%
%TF.ProjectId,sao_laser_tag,73616f5f-6c61-4736-9572-5f7461672e6b,rev?*%
%TF.SameCoordinates,Original*%
%TF.FileFunction,Soldermask,Bot*%
%TF.FilePolarity,Negative*%
%FSLAX46Y46*%
G04 Gerber Fmt 4.6, Leading zero omitted, Abs format (unit mm)*
G04 Created by KiCad (PCBNEW 10.0.1) date 2026-04-26 21:51:14*
%MOMM*%
%LPD*%
G01*
G04 APERTURE LIST*
G04 Aperture macros list*
%AMRoundRect*
0 Rectangle with rounded corners*
0 $1 Rounding radius*
0 $2 $3 $4 $5 $6 $7 $8 $9 X,Y pos of 4 corners*
0 Add a 4 corners polygon primitive as box body*
4,1,4,$2,$3,$4,$5,$6,$7,$8,$9,$2,$3,0*
0 Add four circle primitives for the rounded corners*
1,1,$1+$1,$2,$3*
1,1,$1+$1,$4,$5*
1,1,$1+$1,$6,$7*
1,1,$1+$1,$8,$9*
0 Add four rect primitives between the rounded corners*
20,1,$1+$1,$2,$3,$4,$5,0*
20,1,$1+$1,$4,$5,$6,$7,0*
20,1,$1+$1,$6,$7,$8,$9,0*
20,1,$1+$1,$8,$9,$2,$3,0*%
G04 Aperture macros list end*
%ADD10RoundRect,0.237500X-0.291601X-0.232446X0.283311X-0.242481X0.291601X0.232446X-0.283311X0.242481X0*%
%ADD11RoundRect,0.250200X0.649800X0.649800X-0.649800X0.649800X-0.649800X-0.649800X0.649800X-0.649800X0*%
%ADD12C,1.800000*%
%ADD13R,1.727200X1.727200*%
%ADD14C,1.727200*%
%ADD15O,1.727200X1.727200*%
G04 APERTURE END LIST*
D10*
%TO.C,D5*%
X173245133Y-87354728D03*
X174994867Y-87385272D03*
%TD*%
D11*
%TO.C,U2*%
X177600000Y-100500000D03*
D12*
X175060000Y-100500000D03*
X172520000Y-100500000D03*
%TD*%
D13*
%TO.C,X1*%
X177580000Y-105350000D03*
D14*
X177580000Y-107890000D03*
D15*
X175040000Y-105350000D03*
X175040000Y-107890000D03*
D14*
X172500000Y-105350000D03*
X172500000Y-107890000D03*
%TD*%
G36*
X169528900Y-79832317D02*
G01*
X169579845Y-79880133D01*
X169596852Y-79947901D01*
X169590841Y-79981420D01*
X168927715Y-82015007D01*
X168888216Y-82072640D01*
X168823829Y-82099771D01*
X168810604Y-82100562D01*
X167158889Y-82110950D01*
X167155671Y-82110928D01*
X166761620Y-82103178D01*
X166694980Y-82082179D01*
X166650273Y-82028486D01*
X166641691Y-81959145D01*
X166644948Y-81944723D01*
X167129907Y-80269411D01*
X167167456Y-80210489D01*
X167220296Y-80183262D01*
X168192107Y-79951879D01*
X168208068Y-79949165D01*
X169460190Y-79819635D01*
X169528900Y-79832317D01*
G37*
G36*
X186379072Y-79612403D02*
G01*
X188843211Y-79998935D01*
X188856621Y-80001806D01*
X189249333Y-80108909D01*
X189308831Y-80145539D01*
X189339080Y-80208522D01*
X189330477Y-80277860D01*
X189325830Y-80287432D01*
X187740300Y-83225324D01*
X187691138Y-83274971D01*
X187622938Y-83290158D01*
X187615797Y-83289474D01*
X184667968Y-82920996D01*
X184603888Y-82893149D01*
X184565035Y-82835077D01*
X184563747Y-82765219D01*
X184570672Y-82746184D01*
X185346128Y-81058425D01*
X185355083Y-81042240D01*
X186256135Y-79666950D01*
X186309340Y-79621661D01*
X186378583Y-79612327D01*
X186379072Y-79612403D01*
G37*
M02*
