M48
; DRILL file KiCad 10.0.1 date 2026-04-26T21:51:11
; FORMAT={-:-/ absolute / metric / decimal}
; #@! TF.CreationDate,2026-04-26T21:51:11+02:00
; #@! TF.GenerationSoftware,Kicad,Pcbnew,10.0.1
; #@! TF.FileFunction,Plated,1,2,PTH
FMAT,2
METRIC
; #@! TA.AperFunction,Plated,PTH,ViaDrill
T1C0.300
; #@! TA.AperFunction,Plated,PTH,ComponentDrill
T2C0.900
; #@! TA.AperFunction,Plated,PTH,ComponentDrill
T3C1.016
%
G90
G05
T1
X163.92Y-111.38
X166.66Y-98.62
X166.94Y-109.45
X168.43Y-107.42
X170.0Y-106.52
X170.55Y-94.71
X170.6Y-93.2
X171.3Y-98.8
X171.5Y-81.6
X171.89Y-117.26
X175.2Y-103.7
X176.0Y-87.35
X177.16Y-90.44
X179.5Y-104.2
X180.2Y-91.5
X180.34Y-88.36
X181.9Y-94.2
X182.67Y-82.56
X183.2Y-91.5
X183.2Y-94.6
X183.63Y-87.57
X183.83Y-100.78
X183.91Y-108.39
X184.44Y-99.35
T2
X172.52Y-100.5
X175.06Y-100.5
X177.6Y-100.5
T3
X172.5Y-105.35
X172.5Y-107.89
X175.04Y-105.35
X175.04Y-107.89
X177.58Y-105.35
X177.58Y-107.89
M30
