%TF.GenerationSoftware,KiCad,Pcbnew,10.0.1*%
%TF.CreationDate,2026-04-26T21:51:14+02:00*%
%TF.ProjectId,sao_laser_tag,73616f5f-6c61-4736-9572-5f7461672e6b,rev?*%
%TF.SameCoordinates,Original*%
%TF.FileFunction,Legend,Bot*%
%TF.FilePolarity,Positive*%
%FSLAX46Y46*%
G04 Gerber Fmt 4.6, Leading zero omitted, Abs format (unit mm)*
G04 Created by KiCad (PCBNEW 10.0.1) date 2026-04-26 21:51:14*
%MOMM*%
%LPD*%
G01*
G04 APERTURE LIST*
%ADD10C,0.500000*%
%ADD11C,0.300000*%
%ADD12C,0.100000*%
%ADD13C,0.400000*%
%ADD14C,0.200000*%
G04 APERTURE END LIST*
D10*
X162000000Y-98000000D02*
X162000000Y-114000000D01*
X162000000Y-114000000D02*
X162000000Y-115000000D01*
X162000000Y-115000000D02*
X162044362Y-115026570D01*
X162088744Y-115053060D01*
X162133147Y-115079469D01*
X162177572Y-115105797D01*
X162222017Y-115132045D01*
X162266483Y-115158213D01*
X162310970Y-115184300D01*
X162355479Y-115210307D01*
X162400008Y-115236233D01*
X162444558Y-115262079D01*
X162489129Y-115287845D01*
X162533721Y-115313531D01*
X162578335Y-115339136D01*
X162622969Y-115364662D01*
X162667624Y-115390107D01*
X162712301Y-115415472D01*
X162756998Y-115440758D01*
X162801717Y-115465963D01*
X162846456Y-115491089D01*
X162891217Y-115516135D01*
X162935999Y-115541101D01*
X162980802Y-115565987D01*
X163025626Y-115590793D01*
X163070471Y-115615520D01*
X163115337Y-115640167D01*
X163160225Y-115664735D01*
X163205133Y-115689223D01*
X163250063Y-115713631D01*
X163295014Y-115737961D01*
X163339986Y-115762210D01*
X163384980Y-115786380D01*
X163429995Y-115810471D01*
X163475030Y-115834483D01*
X163520087Y-115858415D01*
X163565166Y-115882268D01*
X163610265Y-115906042D01*
X163655386Y-115929737D01*
X163700528Y-115953353D01*
X163745692Y-115976889D01*
X163790877Y-116000347D01*
X163836083Y-116023725D01*
X163881310Y-116047024D01*
X163926559Y-116070245D01*
X163971829Y-116093387D01*
X164017120Y-116116449D01*
X164062433Y-116139433D01*
X164107767Y-116162338D01*
X164153123Y-116185165D01*
X164198500Y-116207913D01*
X164243898Y-116230581D01*
X164289318Y-116253172D01*
X164334759Y-116275683D01*
X164380221Y-116298117D01*
X164425705Y-116320471D01*
X164471211Y-116342747D01*
X164516738Y-116364944D01*
X164562286Y-116387063D01*
X164607856Y-116409104D01*
X164653447Y-116431066D01*
X164699060Y-116452950D01*
X164744695Y-116474755D01*
X164790351Y-116496483D01*
X164836028Y-116518131D01*
X164881727Y-116539702D01*
X164927448Y-116561194D01*
X164973190Y-116582609D01*
X165018954Y-116603945D01*
X165064739Y-116625203D01*
X165110546Y-116646382D01*
X165156374Y-116667484D01*
X165202224Y-116688508D01*
X165248096Y-116709453D01*
X165293990Y-116730321D01*
X165339905Y-116751111D01*
X165385841Y-116771822D01*
X165431800Y-116792456D01*
X165477780Y-116813012D01*
X165523782Y-116833490D01*
X165569805Y-116853890D01*
X165615850Y-116874212D01*
X165661917Y-116894457D01*
X165708006Y-116914624D01*
X165754116Y-116934713D01*
X165800248Y-116954724D01*
X165846402Y-116974658D01*
X165892578Y-116994514D01*
X165938775Y-117014292D01*
X165984994Y-117033992D01*
X166031235Y-117053615D01*
X166077498Y-117073161D01*
X166123783Y-117092629D01*
X166170089Y-117112019D01*
X166216417Y-117131332D01*
X166262767Y-117150567D01*
X166309139Y-117169725D01*
X166355533Y-117188805D01*
X166401949Y-117207808D01*
X166448386Y-117226734D01*
X166494846Y-117245582D01*
X166541327Y-117264353D01*
X166587830Y-117283046D01*
X166634355Y-117301662D01*
X166680902Y-117320201D01*
X166727471Y-117338662D01*
X166774062Y-117357046D01*
X166820675Y-117375353D01*
X166867310Y-117393582D01*
X166913966Y-117411734D01*
X166960645Y-117429809D01*
X167007346Y-117447807D01*
X167054068Y-117465728D01*
X167100813Y-117483571D01*
X167147580Y-117501338D01*
X167194368Y-117519027D01*
X167241179Y-117536639D01*
X167288012Y-117554174D01*
X167334866Y-117571631D01*
X167381743Y-117589012D01*
X167428642Y-117606315D01*
X167475563Y-117623542D01*
X167522506Y-117640691D01*
X167569470Y-117657764D01*
X167616457Y-117674759D01*
X167663467Y-117691677D01*
X167710498Y-117708519D01*
X167757551Y-117725283D01*
X167804626Y-117741970D01*
X167851724Y-117758581D01*
X167898843Y-117775114D01*
X167945985Y-117791570D01*
X167993148Y-117807950D01*
X168040334Y-117824252D01*
X168087542Y-117840478D01*
X168134772Y-117856627D01*
X168182024Y-117872698D01*
X168229299Y-117888693D01*
X168276595Y-117904611D01*
X168323914Y-117920452D01*
X168371255Y-117936216D01*
X168418618Y-117951904D01*
X168466003Y-117967514D01*
X168513410Y-117983047D01*
X168560839Y-117998504D01*
X168608291Y-118013884D01*
X168655765Y-118029187D01*
X168703261Y-118044413D01*
X168750779Y-118059563D01*
X168798319Y-118074635D01*
X168845881Y-118089631D01*
X168893466Y-118104550D01*
X168941073Y-118119392D01*
X168988702Y-118134157D01*
X169036353Y-118148845D01*
X169084026Y-118163457D01*
X169131722Y-118177992D01*
X169179439Y-118192450D01*
X169227179Y-118206831D01*
X169274941Y-118221135D01*
X169322726Y-118235363D01*
X169370532Y-118249514D01*
X169418361Y-118263588D01*
X169466212Y-118277585D01*
X169514085Y-118291505D01*
X169561980Y-118305349D01*
X169609898Y-118319116D01*
X169657837Y-118332806D01*
X169705799Y-118346419D01*
X169753783Y-118359955D01*
X169801789Y-118373415D01*
X169849818Y-118386798D01*
X169897868Y-118400104D01*
X169945941Y-118413333D01*
X169994036Y-118426486D01*
X170042153Y-118439561D01*
X170090292Y-118452560D01*
X170138453Y-118465482D01*
X170186637Y-118478327D01*
X170234843Y-118491096D01*
X170283070Y-118503787D01*
X170331320Y-118516402D01*
X170379593Y-118528940D01*
X170427887Y-118541401D01*
X170476203Y-118553785D01*
X170524542Y-118566093D01*
X170572902Y-118578323D01*
X170621285Y-118590477D01*
X170669690Y-118602554D01*
X170718117Y-118614554D01*
X170766566Y-118626477D01*
X170815037Y-118638323D01*
X170863530Y-118650092D01*
X170912046Y-118661785D01*
X170960583Y-118673400D01*
X171009142Y-118684939D01*
X171057724Y-118696401D01*
X171106327Y-118707785D01*
X171154953Y-118719093D01*
X171203600Y-118730324D01*
X171252270Y-118741478D01*
X171300961Y-118752555D01*
X171349674Y-118763555D01*
X171398410Y-118774478D01*
X171447167Y-118785324D01*
X171495946Y-118796093D01*
X171544748Y-118806785D01*
X171593571Y-118817400D01*
X171642416Y-118827938D01*
X171691283Y-118838399D01*
X171740172Y-118848782D01*
X171789082Y-118859089D01*
X171838015Y-118869319D01*
X171886969Y-118879471D01*
X171935945Y-118889547D01*
X171984943Y-118899545D01*
X172033963Y-118909466D01*
X172083004Y-118919310D01*
X172132068Y-118929077D01*
X172181152Y-118938767D01*
X172230259Y-118948380D01*
X172279388Y-118957915D01*
X172328538Y-118967373D01*
X172377709Y-118976754D01*
X172426903Y-118986058D01*
X172476117Y-118995284D01*
X172525354Y-119004433D01*
X172574612Y-119013505D01*
X172623892Y-119022500D01*
X172673193Y-119031417D01*
X172722515Y-119040257D01*
X172771860Y-119049019D01*
X172821225Y-119057704D01*
X172870612Y-119066312D01*
X172920021Y-119074843D01*
X172969450Y-119083296D01*
X173018901Y-119091671D01*
X173068374Y-119099969D01*
X173117868Y-119108190D01*
X173167383Y-119116333D01*
X173216919Y-119124399D01*
X173266477Y-119132387D01*
X173316055Y-119140297D01*
X173365655Y-119148130D01*
X173415276Y-119155886D01*
X173464918Y-119163564D01*
X173514581Y-119171164D01*
X173564266Y-119178686D01*
X173613971Y-119186131D01*
X173663697Y-119193499D01*
X173713444Y-119200788D01*
X173763212Y-119208000D01*
X173813001Y-119215134D01*
X173862811Y-119222190D01*
X173912641Y-119229169D01*
X173962492Y-119236070D01*
X174012364Y-119242893D01*
X174062257Y-119249638D01*
X174112170Y-119256305D01*
X174162104Y-119262895D01*
X174212059Y-119269406D01*
X174262034Y-119275840D01*
X174312029Y-119282195D01*
X174362045Y-119288473D01*
X174412082Y-119294673D01*
X174462139Y-119300794D01*
X174512216Y-119306838D01*
X174562313Y-119312803D01*
X174612430Y-119318691D01*
X174662568Y-119324500D01*
X174712726Y-119330232D01*
X174762904Y-119335885D01*
X174813102Y-119341460D01*
X174863320Y-119346957D01*
X174913558Y-119352375D01*
X174963816Y-119357715D01*
X175014093Y-119362978D01*
X175064391Y-119368161D01*
X175114708Y-119373267D01*
X175165045Y-119378294D01*
X175215402Y-119383243D01*
X175265778Y-119388113D01*
X175316173Y-119392905D01*
X175366588Y-119397619D01*
X175417023Y-119402254D01*
X175467477Y-119406811D01*
X175517950Y-119411289D01*
X175568442Y-119415688D01*
X175618953Y-119420009D01*
X175669484Y-119424252D01*
X175720034Y-119428416D01*
X175770602Y-119432501D01*
X175821190Y-119436508D01*
X175871796Y-119440436D01*
X175922421Y-119444285D01*
X175973065Y-119448056D01*
X176023728Y-119451747D01*
X176074409Y-119455360D01*
X176125109Y-119458895D01*
X176175827Y-119462350D01*
X176226563Y-119465727D01*
X176277318Y-119469024D01*
X176328091Y-119472243D01*
X176378882Y-119475383D01*
X176429691Y-119478444D01*
X176480518Y-119481426D01*
X176531363Y-119484329D01*
X176582226Y-119487153D01*
X176633107Y-119489897D01*
X176684005Y-119492563D01*
X176734921Y-119495150D01*
X176785854Y-119497658D01*
X176836805Y-119500086D01*
X176887773Y-119502435D01*
X176938759Y-119504705D01*
X176989762Y-119506896D01*
X177040781Y-119509008D01*
X177091818Y-119511040D01*
X177142871Y-119512993D01*
X177193942Y-119514867D01*
X177245029Y-119516661D01*
X177296132Y-119518376D01*
X177347253Y-119520011D01*
X177398389Y-119521568D01*
X177449542Y-119523044D01*
X177500711Y-119524442D01*
X177551897Y-119525759D01*
X177603098Y-119526997D01*
X177654315Y-119528156D01*
X177705548Y-119529235D01*
X177756797Y-119530235D01*
X177808061Y-119531154D01*
X177859341Y-119531995D01*
X177910636Y-119532755D01*
X177961946Y-119533436D01*
X178013272Y-119534037D01*
X178064612Y-119534559D01*
X178115968Y-119535000D01*
X178167338Y-119535362D01*
X178218723Y-119535644D01*
X178270122Y-119535847D01*
X178321536Y-119535969D01*
X178372964Y-119536012D01*
X178424407Y-119535974D01*
X178475863Y-119535857D01*
X178527334Y-119535660D01*
X178578818Y-119535383D01*
X178630316Y-119535026D01*
X178681827Y-119534589D01*
X178733352Y-119534071D01*
X178784890Y-119533474D01*
X178836441Y-119532797D01*
X178888005Y-119532040D01*
X178939582Y-119531202D01*
X178991172Y-119530285D01*
X179042774Y-119529287D01*
X179094389Y-119528210D01*
X179146016Y-119527052D01*
X179197655Y-119525813D01*
X179249305Y-119524495D01*
X179300968Y-119523097D01*
X179352643Y-119521618D01*
X179404328Y-119520059D01*
X179456026Y-119518419D01*
X179507734Y-119516700D01*
X179559453Y-119514900D01*
X179611183Y-119513019D01*
X179662924Y-119511059D01*
X179714675Y-119509018D01*
X179766437Y-119506897D01*
X179818209Y-119504695D01*
X179869990Y-119502413D01*
X179921782Y-119500050D01*
X179973583Y-119497608D01*
X180025394Y-119495084D01*
X180077213Y-119492481D01*
X180129042Y-119489796D01*
X180180880Y-119487032D01*
X180232726Y-119484187D01*
X180284581Y-119481261D01*
X180336444Y-119478255D01*
X180388315Y-119475168D01*
X180440194Y-119472001D01*
X180492081Y-119468754D01*
X180543975Y-119465426D01*
X180595877Y-119462017D01*
X180647785Y-119458528D01*
X180699701Y-119454959D01*
X180751622Y-119451308D01*
X180803551Y-119447578D01*
X180855485Y-119443766D01*
X180907426Y-119439875D01*
X180959372Y-119435902D01*
X181011324Y-119431850D01*
X181063281Y-119427716D01*
X181115242Y-119423502D01*
X181167209Y-119419208D01*
X181219181Y-119414833D01*
X181271156Y-119410378D01*
X181323136Y-119405842D01*
X181375119Y-119401225D01*
X181427106Y-119396528D01*
X181479096Y-119391751D01*
X181531090Y-119386893D01*
X181583086Y-119381954D01*
X181635084Y-119376935D01*
X181687085Y-119371836D01*
X181739088Y-119366656D01*
X181791092Y-119361395D01*
X181843098Y-119356055D01*
X181895105Y-119350634D01*
X181947113Y-119345132D01*
X181999122Y-119339550D01*
X182051130Y-119333888D01*
X182103139Y-119328145D01*
X182155147Y-119322322D01*
X182207155Y-119316419D01*
X182259161Y-119310435D01*
X182311167Y-119304372D01*
X182363171Y-119298228D01*
X182415173Y-119292003D01*
X182467172Y-119285699D01*
X182519170Y-119279315D01*
X182571164Y-119272850D01*
X182623155Y-119266305D01*
X182675143Y-119259680D01*
X182727126Y-119252976D01*
X182779106Y-119246191D01*
X182831081Y-119239326D01*
X182883051Y-119232382D01*
X182935015Y-119225357D01*
X182986974Y-119218253D01*
X183038927Y-119211069D01*
X183090874Y-119203805D01*
X183142814Y-119196461D01*
X183194746Y-119189038D01*
X183246671Y-119181536D01*
X183298588Y-119173953D01*
X183350497Y-119166292D01*
X183402397Y-119158550D01*
X183454288Y-119150730D01*
X183506169Y-119142830D01*
X183558040Y-119134851D01*
X183609901Y-119126793D01*
X183661751Y-119118655D01*
X183713590Y-119110439D01*
X183765417Y-119102143D01*
X183817232Y-119093769D01*
X183869034Y-119085315D01*
X183920823Y-119076783D01*
X183972599Y-119068173D01*
X184024360Y-119059483D01*
X184076107Y-119050715D01*
X184127840Y-119041869D01*
X184179557Y-119032944D01*
X184231257Y-119023941D01*
X184282942Y-119014860D01*
X184334609Y-119005701D01*
X184386259Y-118996464D01*
X184437892Y-118987148D01*
X184489505Y-118977755D01*
X184541100Y-118968285D01*
X184592675Y-118958737D01*
X184644230Y-118949111D01*
X184695764Y-118939408D01*
X184747277Y-118929627D01*
X184798769Y-118919770D01*
X184850237Y-118909836D01*
X184901683Y-118899824D01*
X184953106Y-118889736D01*
X185004504Y-118879571D01*
X185055878Y-118869330D01*
X185107226Y-118859013D01*
X185158549Y-118848619D01*
X185209844Y-118838149D01*
X185261113Y-118827603D01*
X185312353Y-118816982D01*
X185363566Y-118806285D01*
X185414748Y-118795512D01*
X185465901Y-118784664D01*
X185517024Y-118773741D01*
X185568115Y-118762743D01*
X185619174Y-118751671D01*
X185670201Y-118740523D01*
X185721194Y-118729302D01*
X185772153Y-118718006D01*
X185823078Y-118706636D01*
X185873966Y-118695192D01*
X185924819Y-118683675D01*
X185975634Y-118672084D01*
X186026411Y-118660420D01*
X186077150Y-118648683D01*
X186127849Y-118636873D01*
X186178507Y-118624990D01*
X186229125Y-118613036D01*
X186279701Y-118601009D01*
X186330234Y-118588910D01*
X186380723Y-118576740D01*
X186431167Y-118564498D01*
X186481566Y-118552186D01*
X186531919Y-118539802D01*
X186582224Y-118527348D01*
X186632482Y-118514824D01*
X186682690Y-118502229D01*
X186732848Y-118489565D01*
X186782955Y-118476832D01*
X186833010Y-118464029D01*
X186883012Y-118451158D01*
X186932961Y-118438218D01*
X186982854Y-118425210D01*
X187032691Y-118412134D01*
X187082471Y-118398990D01*
X187132192Y-118385780D01*
X187181855Y-118372502D01*
X187231457Y-118359158D01*
X187280998Y-118345748D01*
X187330476Y-118332273D01*
X187379890Y-118318732D01*
X187429239Y-118305126D01*
X187478523Y-118291455D01*
X187527739Y-118277721D01*
X187576887Y-118263922D01*
X187625964Y-118250061D01*
X187674971Y-118236136D01*
X187723906Y-118222149D01*
X187772767Y-118208100D01*
X187821553Y-118193990D01*
X187870264Y-118179819D01*
X187918896Y-118165587D01*
X187967450Y-118151295D01*
X188015923Y-118136944D01*
X188064315Y-118122533D01*
X188112624Y-118108065D01*
X188160848Y-118093538D01*
X188208986Y-118078954D01*
X188257036Y-118064313D01*
X188304998Y-118049616D01*
X188352868Y-118034863D01*
X188400647Y-118020055D01*
X188448332Y-118005193D01*
X188495921Y-117990277D01*
X188543413Y-117975307D01*
X188590807Y-117960286D01*
X188638100Y-117945212D01*
X188685291Y-117930087D01*
X188732379Y-117914912D01*
X188779360Y-117899687D01*
X188826234Y-117884414D01*
X188872999Y-117869092D01*
X188919652Y-117853722D01*
X188966193Y-117838306D01*
X189012618Y-117822844D01*
X189058927Y-117807336D01*
X189105117Y-117791785D01*
X189151185Y-117776190D01*
X189197131Y-117760553D01*
X189242952Y-117744873D01*
X189288646Y-117729154D01*
X189334210Y-117713394D01*
X189379643Y-117697595D01*
X189424942Y-117681759D01*
X189470105Y-117665886D01*
X189515130Y-117649977D01*
X189560014Y-117634032D01*
X189604756Y-117618055D01*
X189649352Y-117602044D01*
X189693800Y-117586002D01*
X189738099Y-117569929D01*
X189782244Y-117553827D01*
X189826235Y-117537696D01*
X189870067Y-117521539D01*
X189913739Y-117505356D01*
X189957248Y-117489148D01*
X190000591Y-117472917D01*
X190043765Y-117456664D01*
X190086768Y-117440391D01*
X190129597Y-117424098D01*
X190172248Y-117407788D01*
X190214720Y-117391461D01*
X190257008Y-117375119D01*
X190299111Y-117358763D01*
X190341024Y-117342396D01*
X190382746Y-117326018D01*
X190424271Y-117309631D01*
X190465599Y-117293237D01*
X190506724Y-117276837D01*
X190547644Y-117260433D01*
X190588356Y-117244027D01*
X190628856Y-117227621D01*
X190669141Y-117211216D01*
X190709207Y-117194814D01*
X190749051Y-117178416D01*
X190788669Y-117162026D01*
X190828058Y-117145644D01*
X190867213Y-117129274D01*
X190906131Y-117112915D01*
X190944809Y-117096572D01*
X190983243Y-117080246D01*
X191021428Y-117063938D01*
X191040435Y-117055788D01*
X191059361Y-117047652D01*
X191078241Y-117039513D01*
X191097038Y-117031388D01*
X191115788Y-117023263D01*
X191134455Y-117015151D01*
X191153073Y-117007039D01*
X191171607Y-116998941D01*
X191190092Y-116990844D01*
X191208492Y-116982762D01*
X191226840Y-116974681D01*
X191245104Y-116966615D01*
X191263314Y-116958551D01*
X191281440Y-116950503D01*
X191299510Y-116942457D01*
X191317495Y-116934428D01*
X191335422Y-116926402D01*
X191353265Y-116918393D01*
X191371048Y-116910389D01*
X191388746Y-116902401D01*
X191406383Y-116894419D01*
X191423933Y-116886454D01*
X191441422Y-116878495D01*
X191458823Y-116870554D01*
X191476161Y-116862620D01*
X191493410Y-116854704D01*
X191510595Y-116846796D01*
X191527692Y-116838907D01*
X191544721Y-116831027D01*
X191561662Y-116823166D01*
X191578534Y-116815315D01*
X191595317Y-116807484D01*
X191612029Y-116799663D01*
X191628652Y-116791862D01*
X191645203Y-116784073D01*
X191661663Y-116776305D01*
X191678050Y-116768549D01*
X191694346Y-116760814D01*
X191710566Y-116753093D01*
X191726695Y-116745393D01*
X191742747Y-116737709D01*
X191758707Y-116730045D01*
X191774588Y-116722398D01*
X191790377Y-116714773D01*
X191806085Y-116707165D01*
X191821701Y-116699580D01*
X191837233Y-116692012D01*
X191852674Y-116684468D01*
X191868029Y-116676943D01*
X191883291Y-116669441D01*
X191898466Y-116661960D01*
X191913549Y-116654502D01*
X191928542Y-116647066D01*
X191943443Y-116639654D01*
X191958252Y-116632265D01*
X191972968Y-116624900D01*
X191987591Y-116617560D01*
X192002121Y-116610244D01*
X192016556Y-116602953D01*
X192030897Y-116595688D01*
X192045141Y-116588449D01*
X192059292Y-116581235D01*
X192073344Y-116574049D01*
X192087302Y-116566890D01*
X192101159Y-116559759D01*
X192114922Y-116552654D01*
X192128583Y-116545579D01*
X192142150Y-116538531D01*
X192155612Y-116531515D01*
X192168980Y-116524525D01*
X192182242Y-116517568D01*
X192195410Y-116510638D01*
X192208470Y-116503743D01*
X192221435Y-116496874D01*
X192234291Y-116490041D01*
X192247052Y-116483236D01*
X192259702Y-116476468D01*
X192272258Y-116469727D01*
X192284701Y-116463024D01*
X192297048Y-116456350D01*
X192309282Y-116449715D01*
X192321421Y-116443108D01*
X192333445Y-116436542D01*
X192345373Y-116430005D01*
X192357185Y-116423509D01*
X192368901Y-116417042D01*
X192380499Y-116410619D01*
X192392003Y-116404224D01*
X192403386Y-116397874D01*
X192414675Y-116391553D01*
X192425843Y-116385278D01*
X192436916Y-116379032D01*
X192447867Y-116372833D01*
X192458724Y-116366664D01*
X192469457Y-116360543D01*
X192480096Y-116354452D01*
X192490611Y-116348409D01*
X192501031Y-116342397D01*
X192511326Y-116336435D01*
X192521528Y-116330504D01*
X192531603Y-116324623D01*
X192541585Y-116318773D01*
X192551439Y-116312976D01*
X192561201Y-116307209D01*
X192570834Y-116301495D01*
X192580375Y-116295812D01*
X192589787Y-116290184D01*
X192599107Y-116284586D01*
X192608298Y-116279044D01*
X192617397Y-116273533D01*
X192626366Y-116268077D01*
X192635245Y-116262653D01*
X192643993Y-116257286D01*
X192652651Y-116251950D01*
X192661178Y-116246672D01*
X192669616Y-116241425D01*
X192677922Y-116236237D01*
X192686140Y-116231080D01*
X192694226Y-116225982D01*
X192702225Y-116220916D01*
X192710092Y-116215909D01*
X192717872Y-116210934D01*
X192725521Y-116206020D01*
X192733084Y-116201137D01*
X192740515Y-116196315D01*
X192747861Y-116191524D01*
X192755076Y-116186795D01*
X192762208Y-116182097D01*
X192769208Y-116177461D01*
X192776125Y-116172856D01*
X192782912Y-116168314D01*
X192789617Y-116163803D01*
X192796192Y-116159355D01*
X192802687Y-116154938D01*
X192809052Y-116150584D01*
X192815338Y-116146260D01*
X192821495Y-116142001D01*
X192827574Y-116137771D01*
X192833525Y-116133606D01*
X192839399Y-116129470D01*
X192845147Y-116125399D01*
X192850818Y-116121357D01*
X192856365Y-116117380D01*
X192861836Y-116113432D01*
X192867184Y-116109549D01*
X192872458Y-116105694D01*
X192877609Y-116101904D01*
X192882688Y-116098143D01*
X192887647Y-116094446D01*
X192892533Y-116090777D01*
X192897301Y-116087173D01*
X192901998Y-116083597D01*
X192906579Y-116080084D01*
X192911090Y-116076600D01*
X192915486Y-116073179D01*
X192919814Y-116069786D01*
X192924029Y-116066456D01*
X192928178Y-116063152D01*
X192932215Y-116059912D01*
X192936187Y-116056699D01*
X192940049Y-116053548D01*
X192943848Y-116050423D01*
X192947540Y-116047361D01*
X192951170Y-116044324D01*
X192954694Y-116041348D01*
X192958158Y-116038398D01*
X192961519Y-116035509D01*
X192964821Y-116032645D01*
X192968022Y-116029841D01*
X192971165Y-116027062D01*
X192974210Y-116024342D01*
X192977199Y-116021646D01*
X192980092Y-116019009D01*
X192982930Y-116016396D01*
X192985675Y-116013840D01*
X192988366Y-116011308D01*
X192990966Y-116008832D01*
X192993514Y-116006380D01*
X192995975Y-116003984D01*
X192998384Y-116001609D01*
X193000000Y-116000000D01*
X164000000Y-96000000D02*
X163988439Y-96005791D01*
X163976923Y-96011583D01*
X163965443Y-96017379D01*
X163954007Y-96023174D01*
X163942607Y-96028974D01*
X163931251Y-96034774D01*
X163919931Y-96040579D01*
X163908655Y-96046383D01*
X163897414Y-96052191D01*
X163886217Y-96057999D01*
X163875055Y-96063811D01*
X163863937Y-96069623D01*
X163852855Y-96075439D01*
X163841816Y-96081254D01*
X163830812Y-96087074D01*
X163819852Y-96092893D01*
X163808926Y-96098716D01*
X163798044Y-96104539D01*
X163787197Y-96110366D01*
X163776393Y-96116192D01*
X163765624Y-96122022D01*
X163754898Y-96127851D01*
X163744206Y-96133685D01*
X163733558Y-96139517D01*
X163722943Y-96145354D01*
X163712373Y-96151189D01*
X163701835Y-96157029D01*
X163691342Y-96162868D01*
X163680881Y-96168710D01*
X163670464Y-96174552D01*
X163660081Y-96180397D01*
X163649740Y-96186241D01*
X163639433Y-96192090D01*
X163629169Y-96197936D01*
X163618938Y-96203787D01*
X163608750Y-96209636D01*
X163598595Y-96215490D01*
X163588482Y-96221342D01*
X163578403Y-96227197D01*
X163568366Y-96233051D01*
X163558362Y-96238909D01*
X163548401Y-96244766D01*
X163538472Y-96250626D01*
X163528585Y-96256484D01*
X163518731Y-96262347D01*
X163508920Y-96268207D01*
X163499140Y-96274071D01*
X163489403Y-96279933D01*
X163479698Y-96285799D01*
X163470035Y-96291663D01*
X163460404Y-96297531D01*
X163450816Y-96303397D01*
X163441259Y-96309267D01*
X163431744Y-96315134D01*
X163422261Y-96321005D01*
X163412819Y-96326873D01*
X163403409Y-96332746D01*
X163394041Y-96338616D01*
X163384704Y-96344490D01*
X163375409Y-96350361D01*
X163366146Y-96356236D01*
X163356923Y-96362108D01*
X163347732Y-96367985D01*
X163338583Y-96373858D01*
X163329464Y-96379735D01*
X163320387Y-96385609D01*
X163311340Y-96391487D01*
X163302335Y-96397362D01*
X163293360Y-96403241D01*
X163284427Y-96409117D01*
X163275524Y-96414996D01*
X163266662Y-96420873D01*
X163257831Y-96426753D01*
X163249040Y-96432630D01*
X163240280Y-96438510D01*
X163231561Y-96444387D01*
X163222871Y-96450268D01*
X163214223Y-96456146D01*
X163205604Y-96462027D01*
X163197026Y-96467904D01*
X163188478Y-96473786D01*
X163179971Y-96479663D01*
X163171493Y-96485545D01*
X163163056Y-96491422D01*
X163154648Y-96497303D01*
X163146281Y-96503181D01*
X163137943Y-96509062D01*
X163129645Y-96514939D01*
X163121376Y-96520820D01*
X163113148Y-96526696D01*
X163104949Y-96532577D01*
X163096790Y-96538453D01*
X163088660Y-96544333D01*
X163080570Y-96550208D01*
X163072509Y-96556087D01*
X163064488Y-96561962D01*
X163056495Y-96567841D01*
X163048542Y-96573714D01*
X163040618Y-96579592D01*
X163032734Y-96585465D01*
X163024878Y-96591342D01*
X163017061Y-96597214D01*
X163009273Y-96603090D01*
X163001525Y-96608960D01*
X162993804Y-96614835D01*
X162986123Y-96620704D01*
X162978470Y-96626578D01*
X162970857Y-96632446D01*
X162963271Y-96638318D01*
X162955725Y-96644184D01*
X162948206Y-96650055D01*
X162940726Y-96655920D01*
X162933274Y-96661788D01*
X162925862Y-96667652D01*
X162918476Y-96673519D01*
X162911130Y-96679380D01*
X162903811Y-96685245D01*
X162896531Y-96691105D01*
X162889278Y-96696968D01*
X162882064Y-96702826D01*
X162874877Y-96708687D01*
X162867729Y-96714542D01*
X162860608Y-96720401D01*
X162853525Y-96726254D01*
X162846469Y-96732111D01*
X162839452Y-96737961D01*
X162832461Y-96743816D01*
X162825510Y-96749664D01*
X162818584Y-96755516D01*
X162811697Y-96761361D01*
X162798014Y-96773053D01*
X162784460Y-96784739D01*
X162771035Y-96796420D01*
X162757738Y-96808094D01*
X162744569Y-96819762D01*
X162731527Y-96831424D01*
X162718612Y-96843079D01*
X162705824Y-96854727D01*
X162693162Y-96866367D01*
X162680626Y-96878000D01*
X162668215Y-96889625D01*
X162655930Y-96901243D01*
X162643769Y-96912851D01*
X162631732Y-96924452D01*
X162619818Y-96936044D01*
X162608029Y-96947626D01*
X162596362Y-96959200D01*
X162584818Y-96970764D01*
X162573396Y-96982318D01*
X162562095Y-96993862D01*
X162550917Y-97005395D01*
X162539859Y-97016918D01*
X162528922Y-97028431D01*
X162518106Y-97039932D01*
X162507409Y-97051421D01*
X162496832Y-97062899D01*
X162486375Y-97074365D01*
X162476036Y-97085818D01*
X162465816Y-97097259D01*
X162455714Y-97108687D01*
X162445730Y-97120102D01*
X162435863Y-97131503D01*
X162426113Y-97142890D01*
X162416481Y-97154263D01*
X162406964Y-97165622D01*
X162397564Y-97176966D01*
X162388280Y-97188294D01*
X162379112Y-97199607D01*
X162370058Y-97210904D01*
X162361120Y-97222185D01*
X162352295Y-97233450D01*
X162343586Y-97244697D01*
X162334990Y-97255927D01*
X162326508Y-97267139D01*
X162318139Y-97278333D01*
X162309883Y-97289509D01*
X162301741Y-97300665D01*
X162293710Y-97311802D01*
X162285792Y-97322919D01*
X162277986Y-97334016D01*
X162270292Y-97345093D01*
X162262709Y-97356148D01*
X162255237Y-97367181D01*
X162247876Y-97378192D01*
X162240626Y-97389180D01*
X162233486Y-97400146D01*
X162226457Y-97411087D01*
X162219537Y-97422004D01*
X162212727Y-97432896D01*
X162206027Y-97443763D01*
X162199436Y-97454603D01*
X162192954Y-97465417D01*
X162186581Y-97476204D01*
X162180317Y-97486962D01*
X162174161Y-97497692D01*
X162168114Y-97508392D01*
X162162174Y-97519062D01*
X162156343Y-97529701D01*
X162150619Y-97540308D01*
X162145003Y-97550883D01*
X162139495Y-97561424D01*
X162134094Y-97571931D01*
X162128800Y-97582403D01*
X162123613Y-97592838D01*
X162118533Y-97603237D01*
X162113559Y-97613597D01*
X162108693Y-97623917D01*
X162103933Y-97634197D01*
X162099279Y-97644436D01*
X162094732Y-97654631D01*
X162090291Y-97664782D01*
X162085957Y-97674888D01*
X162081728Y-97684946D01*
X162077606Y-97694956D01*
X162073590Y-97704916D01*
X162069680Y-97714823D01*
X162065876Y-97724678D01*
X162062177Y-97734476D01*
X162058585Y-97744218D01*
X162055099Y-97753899D01*
X162051718Y-97763519D01*
X162048444Y-97773075D01*
X162045276Y-97782565D01*
X162042213Y-97791985D01*
X162039257Y-97801332D01*
X162036407Y-97810605D01*
X162033663Y-97819800D01*
X162031025Y-97828912D01*
X162028494Y-97837938D01*
X162026070Y-97846875D01*
X162023752Y-97855718D01*
X162021541Y-97864461D01*
X162019436Y-97873100D01*
X162017439Y-97881628D01*
X162015549Y-97890040D01*
X162013766Y-97898328D01*
X162012092Y-97906485D01*
X162010524Y-97914501D01*
X162009065Y-97922367D01*
X162007715Y-97930071D01*
X162006472Y-97937600D01*
X162005339Y-97944940D01*
X162004314Y-97952071D01*
X162003399Y-97958974D01*
X162002593Y-97965622D01*
X162001897Y-97971983D01*
X162001311Y-97978016D01*
X162000835Y-97983664D01*
X162000468Y-97988848D01*
X162000209Y-97993447D01*
X162000057Y-97997243D01*
X162000000Y-98000000D01*
X164000000Y-96000000D02*
X164006484Y-96058721D01*
X164012941Y-96117924D01*
X164019371Y-96177609D01*
X164025772Y-96237780D01*
X164032144Y-96298437D01*
X164038488Y-96359584D01*
X164044802Y-96421222D01*
X164051086Y-96483353D01*
X164057340Y-96545980D01*
X164063563Y-96609104D01*
X164069755Y-96672727D01*
X164075916Y-96736852D01*
X164082044Y-96801480D01*
X164088140Y-96866613D01*
X164094204Y-96932253D01*
X164100234Y-96998402D01*
X164106230Y-97065061D01*
X164112192Y-97132234D01*
X164118119Y-97199921D01*
X164124012Y-97268124D01*
X164129869Y-97336846D01*
X164135690Y-97406087D01*
X164141475Y-97475851D01*
X164147222Y-97546137D01*
X164152933Y-97616949D01*
X164158606Y-97688287D01*
X164164240Y-97760154D01*
X164169836Y-97832551D01*
X164175393Y-97905480D01*
X164180911Y-97978941D01*
X164186388Y-98052938D01*
X164191825Y-98127470D01*
X164197221Y-98202541D01*
X164202575Y-98278150D01*
X164207888Y-98354301D01*
X164213158Y-98430993D01*
X164218386Y-98508228D01*
X164223570Y-98586008D01*
X164228711Y-98664333D01*
X164233807Y-98743206D01*
X164238859Y-98822627D01*
X164243866Y-98902597D01*
X164248827Y-98983117D01*
X164253742Y-99064189D01*
X164258610Y-99145814D01*
X164263431Y-99227992D01*
X164268205Y-99310724D01*
X164272930Y-99394011D01*
X164277608Y-99477855D01*
X164282236Y-99562255D01*
X164286815Y-99647212D01*
X164291343Y-99732728D01*
X164295822Y-99818802D01*
X164300249Y-99905435D01*
X164304625Y-99992628D01*
X164308949Y-100080381D01*
X164313221Y-100168695D01*
X164317440Y-100257569D01*
X164321605Y-100347003D01*
X164325717Y-100436999D01*
X164329774Y-100527556D01*
X164333777Y-100618674D01*
X164337724Y-100710352D01*
X164341615Y-100802592D01*
X164345450Y-100895391D01*
X164349228Y-100988751D01*
X164352949Y-101082671D01*
X164356612Y-101177150D01*
X164360217Y-101272187D01*
X164363763Y-101367782D01*
X164367250Y-101463934D01*
X164370677Y-101560643D01*
X164374044Y-101657906D01*
X164377350Y-101755724D01*
X164380595Y-101854094D01*
X164383778Y-101953016D01*
X164386898Y-102052488D01*
X164389957Y-102152509D01*
X164392952Y-102253076D01*
X164395883Y-102354189D01*
X164398750Y-102455844D01*
X164401553Y-102558041D01*
X164404290Y-102660776D01*
X164406962Y-102764048D01*
X164409568Y-102867855D01*
X164412107Y-102972192D01*
X164414579Y-103077058D01*
X164416984Y-103182450D01*
X164419321Y-103288365D01*
X164421589Y-103394799D01*
X164423789Y-103501748D01*
X164425919Y-103609211D01*
X164427980Y-103717181D01*
X164429970Y-103825657D01*
X164431890Y-103934632D01*
X164433738Y-104044104D01*
X164435515Y-104154068D01*
X164437220Y-104264518D01*
X164438853Y-104375450D01*
X164440413Y-104486859D01*
X164441900Y-104598739D01*
X164443313Y-104711085D01*
X164444651Y-104823890D01*
X164445916Y-104937150D01*
X164447106Y-105050856D01*
X164448220Y-105165003D01*
X164449259Y-105279584D01*
X164450222Y-105394592D01*
X164451109Y-105510019D01*
X164451919Y-105625858D01*
X164452652Y-105742100D01*
X164453308Y-105858737D01*
X164453887Y-105975761D01*
X164454387Y-106093163D01*
X164454809Y-106210933D01*
X164455153Y-106329063D01*
X164455418Y-106447541D01*
X164455604Y-106566358D01*
X164455710Y-106685503D01*
X164455737Y-106804966D01*
X164455685Y-106924734D01*
X164455552Y-107044797D01*
X164455340Y-107165141D01*
X164455047Y-107285755D01*
X164454674Y-107406626D01*
X164454221Y-107527739D01*
X164453686Y-107649082D01*
X164453072Y-107770640D01*
X164452376Y-107892399D01*
X164451600Y-108014343D01*
X164450742Y-108136456D01*
X164449804Y-108258723D01*
X164448786Y-108381127D01*
X164447686Y-108503652D01*
X164446506Y-108626278D01*
X164445245Y-108748989D01*
X164443904Y-108871766D01*
X164442483Y-108994589D01*
X164440982Y-109117439D01*
X164439400Y-109240296D01*
X164437740Y-109363139D01*
X164436000Y-109485946D01*
X164434181Y-109608697D01*
X164432284Y-109731368D01*
X164430308Y-109853936D01*
X164428255Y-109976378D01*
X164426125Y-110098669D01*
X164423918Y-110220786D01*
X164421635Y-110342702D01*
X164419277Y-110464392D01*
X164416844Y-110585829D01*
X164414337Y-110706986D01*
X164411756Y-110827835D01*
X164409103Y-110948349D01*
X164406378Y-111068499D01*
X164403583Y-111188255D01*
X164400718Y-111307587D01*
X164397784Y-111426466D01*
X164394782Y-111544860D01*
X164391713Y-111662738D01*
X164388580Y-111780069D01*
X164385382Y-111896819D01*
X164382121Y-112012957D01*
X164380467Y-112070810D01*
X164378799Y-112128448D01*
X164377114Y-112185965D01*
X164375416Y-112243261D01*
X164373702Y-112300423D01*
X164371975Y-112357361D01*
X164370232Y-112414152D01*
X164368477Y-112470713D01*
X164366706Y-112527116D01*
X164364923Y-112583285D01*
X164363125Y-112639281D01*
X164361315Y-112695041D01*
X164359491Y-112750614D01*
X164357655Y-112805946D01*
X164355806Y-112861078D01*
X164353945Y-112915965D01*
X164352071Y-112970640D01*
X164350186Y-113025065D01*
X164348289Y-113079264D01*
X164346380Y-113133210D01*
X164344460Y-113186916D01*
X164342530Y-113240364D01*
X164340588Y-113293560D01*
X164338636Y-113346494D01*
X164336674Y-113399162D01*
X164334702Y-113451564D01*
X164332721Y-113503687D01*
X164330729Y-113555541D01*
X164328729Y-113607102D01*
X164326720Y-113658390D01*
X164324702Y-113709371D01*
X164322676Y-113760078D01*
X164320642Y-113810463D01*
X164318600Y-113860570D01*
X164316551Y-113910343D01*
X164314494Y-113959835D01*
X164312431Y-114008980D01*
X164310361Y-114057840D01*
X164308285Y-114106341D01*
X164306202Y-114154554D01*
X164304115Y-114202395D01*
X164302021Y-114249945D01*
X164299923Y-114297111D01*
X164297819Y-114343985D01*
X164295712Y-114390461D01*
X164293599Y-114436643D01*
X164291485Y-114482415D01*
X164289364Y-114527891D01*
X164287243Y-114572946D01*
X164285116Y-114617702D01*
X164282989Y-114662027D01*
X164280857Y-114706051D01*
X164278726Y-114749633D01*
X164276590Y-114792913D01*
X164274457Y-114835739D01*
X164272318Y-114878263D01*
X164270183Y-114920323D01*
X164268043Y-114962079D01*
X164265907Y-115003363D01*
X164263767Y-115044342D01*
X164261633Y-115084839D01*
X164259494Y-115125031D01*
X164257362Y-115164732D01*
X164255225Y-115204128D01*
X164253096Y-115243026D01*
X164250964Y-115281618D01*
X164248839Y-115319704D01*
X164246711Y-115357484D01*
X164244593Y-115394753D01*
X164242471Y-115431715D01*
X164240360Y-115468160D01*
X164238246Y-115504299D01*
X164236142Y-115539916D01*
X164234037Y-115575227D01*
X164231942Y-115610010D01*
X164229847Y-115644490D01*
X164227763Y-115678437D01*
X164225678Y-115712082D01*
X164223606Y-115745191D01*
X164221533Y-115777999D01*
X164219474Y-115810269D01*
X164217414Y-115842239D01*
X164215368Y-115873669D01*
X164213322Y-115904801D01*
X164211292Y-115935391D01*
X164209261Y-115965685D01*
X164207246Y-115995437D01*
X164205232Y-116024896D01*
X164203234Y-116053812D01*
X164201236Y-116082437D01*
X164200000Y-116100000D01*
X166000000Y-79000000D02*
X165983415Y-79074816D01*
X165966884Y-79149760D01*
X165950405Y-79224834D01*
X165933981Y-79300035D01*
X165917610Y-79375365D01*
X165901293Y-79450822D01*
X165885031Y-79526408D01*
X165868822Y-79602120D01*
X165852668Y-79677960D01*
X165836569Y-79753927D01*
X165820524Y-79830020D01*
X165804534Y-79906240D01*
X165788600Y-79982586D01*
X165772721Y-80059058D01*
X165756897Y-80135655D01*
X165741129Y-80212378D01*
X165725417Y-80289225D01*
X165709761Y-80366197D01*
X165694161Y-80443294D01*
X165678617Y-80520514D01*
X165663130Y-80597858D01*
X165647700Y-80675326D01*
X165632327Y-80752916D01*
X165617011Y-80830630D01*
X165601752Y-80908465D01*
X165586550Y-80986422D01*
X165571406Y-81064501D01*
X165556320Y-81142702D01*
X165541292Y-81221022D01*
X165526323Y-81299464D01*
X165511411Y-81378025D01*
X165496558Y-81456706D01*
X165481764Y-81535506D01*
X165467029Y-81614425D01*
X165452353Y-81693462D01*
X165437737Y-81772616D01*
X165423180Y-81851889D01*
X165408682Y-81931278D01*
X165394245Y-82010783D01*
X165379867Y-82090405D01*
X165365550Y-82170142D01*
X165351293Y-82249993D01*
X165337097Y-82329960D01*
X165322962Y-82410040D01*
X165308888Y-82490233D01*
X165294875Y-82570539D01*
X165280924Y-82650958D01*
X165267034Y-82731488D01*
X165253206Y-82812129D01*
X165239440Y-82892881D01*
X165225736Y-82973743D01*
X165212095Y-83054714D01*
X165198517Y-83135793D01*
X165185001Y-83216981D01*
X165171548Y-83298275D01*
X165158159Y-83379677D01*
X165144833Y-83461185D01*
X165131570Y-83542797D01*
X165118372Y-83624515D01*
X165105237Y-83706336D01*
X165092167Y-83788260D01*
X165079162Y-83870287D01*
X165066221Y-83952416D01*
X165053344Y-84034645D01*
X165040533Y-84116974D01*
X165027788Y-84199403D01*
X165015108Y-84281930D01*
X165002493Y-84364554D01*
X164989945Y-84447275D01*
X164977462Y-84530092D01*
X164965047Y-84613004D01*
X164952697Y-84696010D01*
X164940415Y-84779109D01*
X164928199Y-84862301D01*
X164916051Y-84945583D01*
X164903970Y-85028956D01*
X164891957Y-85112417D01*
X164880012Y-85195967D01*
X164868135Y-85279604D01*
X164856326Y-85363328D01*
X164844586Y-85447136D01*
X164832915Y-85531028D01*
X164821312Y-85615002D01*
X164809779Y-85699059D01*
X164798316Y-85783195D01*
X164786922Y-85867411D01*
X164775598Y-85951705D01*
X164764344Y-86036076D01*
X164753160Y-86120522D01*
X164742048Y-86205043D01*
X164731006Y-86289636D01*
X164720035Y-86374300D01*
X164709135Y-86459035D01*
X164698307Y-86543839D01*
X164687551Y-86628710D01*
X164676867Y-86713646D01*
X164666255Y-86798647D01*
X164655715Y-86883711D01*
X164645249Y-86968836D01*
X164634855Y-87054021D01*
X164624535Y-87139263D01*
X164614288Y-87224562D01*
X164604114Y-87309916D01*
X164594015Y-87395323D01*
X164583990Y-87480780D01*
X164574039Y-87566288D01*
X164564163Y-87651842D01*
X164554363Y-87737443D01*
X164544637Y-87823087D01*
X164534986Y-87908773D01*
X164525412Y-87994498D01*
X164515913Y-88080261D01*
X164506491Y-88166060D01*
X164497145Y-88251893D01*
X164487876Y-88337756D01*
X164478684Y-88423649D01*
X164469569Y-88509568D01*
X164460531Y-88595512D01*
X164451572Y-88681478D01*
X164442690Y-88767463D01*
X164433887Y-88853465D01*
X164425162Y-88939482D01*
X164416516Y-89025510D01*
X164407950Y-89111548D01*
X164399462Y-89197592D01*
X164391054Y-89283640D01*
X164382727Y-89369688D01*
X164374479Y-89455734D01*
X164366312Y-89541775D01*
X164358226Y-89627807D01*
X164350221Y-89713827D01*
X164342297Y-89799833D01*
X164334454Y-89885820D01*
X164326694Y-89971786D01*
X164319016Y-90057726D01*
X164311420Y-90143638D01*
X164303907Y-90229517D01*
X164296477Y-90315360D01*
X164289130Y-90401162D01*
X164281867Y-90486921D01*
X164274688Y-90572630D01*
X164267593Y-90658288D01*
X164260583Y-90743888D01*
X164253657Y-90829426D01*
X164246817Y-90914899D01*
X164240062Y-91000301D01*
X164233392Y-91085627D01*
X164226809Y-91170872D01*
X164220312Y-91256032D01*
X164213902Y-91341100D01*
X164207579Y-91426071D01*
X164201343Y-91510940D01*
X164195194Y-91595701D01*
X164189134Y-91680348D01*
X164183162Y-91764874D01*
X164177278Y-91849274D01*
X164171483Y-91933540D01*
X164165777Y-92017665D01*
X164160161Y-92101643D01*
X164154635Y-92185467D01*
X164149199Y-92269128D01*
X164143854Y-92352619D01*
X164138599Y-92435932D01*
X164133436Y-92519058D01*
X164128365Y-92601989D01*
X164123385Y-92684715D01*
X164118497Y-92767228D01*
X164113702Y-92849516D01*
X164109001Y-92931571D01*
X164104392Y-93013381D01*
X164099877Y-93094936D01*
X164095456Y-93176224D01*
X164091130Y-93257232D01*
X164086899Y-93337950D01*
X164082762Y-93418362D01*
X164078721Y-93498456D01*
X164074777Y-93578218D01*
X164070928Y-93657632D01*
X164067176Y-93736682D01*
X164063521Y-93815352D01*
X164059964Y-93893625D01*
X164056505Y-93971482D01*
X164053144Y-94048903D01*
X164049881Y-94125868D01*
X164046718Y-94202356D01*
X164043654Y-94278343D01*
X164040690Y-94353805D01*
X164037826Y-94428717D01*
X164035063Y-94503049D01*
X164032402Y-94576773D01*
X164029842Y-94649856D01*
X164027384Y-94722265D01*
X164025028Y-94793963D01*
X164022776Y-94864909D01*
X164020627Y-94935061D01*
X164018581Y-95004372D01*
X164016641Y-95072789D01*
X164014804Y-95140257D01*
X164013073Y-95206713D01*
X164011448Y-95272088D01*
X164009929Y-95336302D01*
X164008517Y-95399271D01*
X164007212Y-95460892D01*
X164006014Y-95521053D01*
X164004924Y-95579619D01*
X164003943Y-95636436D01*
X164003071Y-95691313D01*
X164002308Y-95744023D01*
X164001655Y-95794275D01*
X164001111Y-95841694D01*
X164000677Y-95885766D01*
X164000353Y-95925743D01*
X164000136Y-95960416D01*
X164000024Y-95987440D01*
X164000000Y-96000000D01*
X166193561Y-82413003D02*
X166199082Y-82385449D01*
X166204583Y-82358098D01*
X166210064Y-82330946D01*
X166215524Y-82303995D01*
X166220965Y-82277242D01*
X166226386Y-82250688D01*
X166231787Y-82224331D01*
X166237167Y-82198172D01*
X166242528Y-82172208D01*
X166247869Y-82146441D01*
X166253190Y-82120866D01*
X166258490Y-82095488D01*
X166263771Y-82070301D01*
X166269032Y-82045308D01*
X166274273Y-82020505D01*
X166279493Y-81995895D01*
X166284694Y-81971474D01*
X166289875Y-81947244D01*
X166295035Y-81923201D01*
X166300176Y-81899348D01*
X166305297Y-81875680D01*
X166310397Y-81852201D01*
X166315478Y-81828906D01*
X166320539Y-81805798D01*
X166325579Y-81782873D01*
X166330600Y-81760133D01*
X166335601Y-81737574D01*
X166340581Y-81715200D01*
X166345542Y-81693005D01*
X166350482Y-81670993D01*
X166355403Y-81649159D01*
X166360304Y-81627507D01*
X166365184Y-81606031D01*
X166370045Y-81584735D01*
X166374886Y-81563614D01*
X166379706Y-81542672D01*
X166384507Y-81521903D01*
X166389287Y-81501312D01*
X166394048Y-81480892D01*
X166398788Y-81460648D01*
X166403509Y-81440575D01*
X166408209Y-81420676D01*
X166412890Y-81400946D01*
X166417550Y-81381389D01*
X166422191Y-81362000D01*
X166426811Y-81342782D01*
X166431412Y-81323730D01*
X166435992Y-81304848D01*
X166440553Y-81286131D01*
X166445093Y-81267582D01*
X166449613Y-81249196D01*
X166454114Y-81230978D01*
X166458594Y-81212921D01*
X166463054Y-81195030D01*
X166467495Y-81177299D01*
X166471915Y-81159733D01*
X166476316Y-81142325D01*
X166480696Y-81125079D01*
X166485056Y-81107991D01*
X166489396Y-81091065D01*
X166493717Y-81074294D01*
X166498017Y-81057683D01*
X166502298Y-81041226D01*
X166506557Y-81024928D01*
X166510798Y-81008783D01*
X166515018Y-80992794D01*
X166519218Y-80976957D01*
X166523398Y-80961276D01*
X166527559Y-80945744D01*
X166531699Y-80930367D01*
X166535819Y-80915138D01*
X166539919Y-80900061D01*
X166543999Y-80885132D01*
X166548059Y-80870353D01*
X166552100Y-80855721D01*
X166556119Y-80841238D01*
X166560120Y-80826898D01*
X166564099Y-80812708D01*
X166568060Y-80798659D01*
X166571999Y-80784758D01*
X166575920Y-80770998D01*
X166579819Y-80757383D01*
X166583700Y-80743907D01*
X166587559Y-80730576D01*
X166591399Y-80717383D01*
X166595219Y-80704332D01*
X166599019Y-80691418D01*
X166602799Y-80678645D01*
X166606559Y-80666007D01*
X166610298Y-80653509D01*
X166614018Y-80641144D01*
X166617718Y-80628918D01*
X166621398Y-80616824D01*
X166625057Y-80604866D01*
X166628697Y-80593040D01*
X166632316Y-80581348D01*
X166635916Y-80569786D01*
X166639496Y-80558358D01*
X166643056Y-80547058D01*
X166646595Y-80535890D01*
X166650115Y-80524848D01*
X166653614Y-80513937D01*
X166657093Y-80503151D01*
X166660552Y-80492495D01*
X166663992Y-80481962D01*
X166667411Y-80471557D01*
X166670811Y-80461274D01*
X166674190Y-80451118D01*
X166677550Y-80441082D01*
X166680888Y-80431171D01*
X166684208Y-80421379D01*
X166687507Y-80411711D01*
X166690786Y-80402161D01*
X166694045Y-80392733D01*
X166697284Y-80383420D01*
X166700503Y-80374229D01*
X166703702Y-80365152D01*
X166706881Y-80356195D01*
X166710040Y-80347350D01*
X166713178Y-80338624D01*
X166716298Y-80330009D01*
X166719396Y-80321511D01*
X166722475Y-80313123D01*
X166725533Y-80304850D01*
X166728572Y-80296685D01*
X166731590Y-80288635D01*
X166734589Y-80280691D01*
X166737567Y-80272860D01*
X166740526Y-80265134D01*
X166743464Y-80257520D01*
X166746383Y-80250009D01*
X166749280Y-80242608D01*
X166752159Y-80235309D01*
X166755016Y-80228118D01*
X166757855Y-80221029D01*
X166760672Y-80214046D01*
X166763471Y-80207163D01*
X166766248Y-80200385D01*
X166769006Y-80193705D01*
X166771743Y-80187129D01*
X166774462Y-80180649D01*
X166777158Y-80174272D01*
X166779837Y-80167990D01*
X166782493Y-80161809D01*
X166785131Y-80155722D01*
X166787747Y-80149734D01*
X166790345Y-80143838D01*
X166792922Y-80138041D01*
X166795479Y-80132334D01*
X166798015Y-80126724D01*
X166800533Y-80121203D01*
X166803028Y-80115778D01*
X166805506Y-80110439D01*
X166807961Y-80105196D01*
X166810398Y-80100037D01*
X166812814Y-80094972D01*
X166815211Y-80089991D01*
X166817585Y-80085102D01*
X166819942Y-80080295D01*
X166822277Y-80075578D01*
X166824593Y-80070943D01*
X166826887Y-80066396D01*
X166829164Y-80061929D01*
X166831418Y-80057550D01*
X166833654Y-80053248D01*
X166835867Y-80049033D01*
X166838063Y-80044894D01*
X166840236Y-80040840D01*
X166842391Y-80036861D01*
X166844524Y-80032965D01*
X166846639Y-80029143D01*
X166848731Y-80025403D01*
X166850806Y-80021734D01*
X166852858Y-80018147D01*
X166854892Y-80014629D01*
X166856903Y-80011191D01*
X166858897Y-80007822D01*
X166860868Y-80004531D01*
X166862821Y-80001307D01*
X166864751Y-79998160D01*
X166866664Y-79995078D01*
X166868553Y-79992072D01*
X166870426Y-79989130D01*
X166872274Y-79986262D01*
X166874106Y-79983457D01*
X166875914Y-79980724D01*
X166877705Y-79978052D01*
X166879472Y-79975452D01*
X166881222Y-79972911D01*
X166882948Y-79970440D01*
X166884658Y-79968028D01*
X166886343Y-79965684D01*
X166888011Y-79963396D01*
X166889655Y-79961176D01*
X166891283Y-79959010D01*
X166892886Y-79956911D01*
X166894472Y-79954865D01*
X166896034Y-79952884D01*
X166897579Y-79950954D01*
X166899099Y-79949088D01*
X166900603Y-79947273D01*
X166902082Y-79945519D01*
X166903544Y-79943814D01*
X166904981Y-79942170D01*
X166906402Y-79940574D01*
X166907796Y-79939037D01*
X166909175Y-79937545D01*
X166910528Y-79936112D01*
X166911865Y-79934723D01*
X166913174Y-79933391D01*
X166914469Y-79932102D01*
X166915736Y-79930868D01*
X166916988Y-79929676D01*
X166918212Y-79928538D01*
X166919421Y-79927439D01*
X166920601Y-79926394D01*
X166921766Y-79925387D01*
X166922902Y-79924432D01*
X166924024Y-79923514D01*
X166925114Y-79922646D01*
X166926192Y-79921814D01*
X166927237Y-79921031D01*
X166928269Y-79920282D01*
X166929267Y-79919581D01*
X166931203Y-79918291D01*
X166933042Y-79917155D01*
X166934781Y-79916170D01*
X166936415Y-79915328D01*
X166937939Y-79914626D01*
X166939343Y-79914058D01*
X166940615Y-79913618D01*
X166941737Y-79913303D01*
X166942674Y-79913105D01*
X166943353Y-79913015D01*
X166943561Y-79913003D01*
X166943561Y-79913003D02*
X166947079Y-79911674D01*
X166951465Y-79910043D01*
X166957590Y-79907794D01*
X166965447Y-79904949D01*
X166975027Y-79901527D01*
X166986321Y-79897550D01*
X166999322Y-79893036D01*
X167014022Y-79888007D01*
X167022005Y-79885306D01*
X167030410Y-79882483D01*
X167039236Y-79879542D01*
X167048481Y-79876484D01*
X167058144Y-79873313D01*
X167068224Y-79870031D01*
X167078720Y-79866640D01*
X167089632Y-79863144D01*
X167100958Y-79859543D01*
X167112696Y-79855842D01*
X167124847Y-79852043D01*
X167137409Y-79848148D01*
X167150380Y-79844160D01*
X167163761Y-79840081D01*
X167177549Y-79835913D01*
X167191744Y-79831661D01*
X167206345Y-79827325D01*
X167221351Y-79822908D01*
X167236760Y-79818414D01*
X167252572Y-79813844D01*
X167268786Y-79809201D01*
X167285400Y-79804488D01*
X167302414Y-79799707D01*
X167319826Y-79794861D01*
X167337635Y-79789952D01*
X167355841Y-79784983D01*
X167374442Y-79779956D01*
X167393438Y-79774874D01*
X167412827Y-79769739D01*
X167432608Y-79764555D01*
X167452780Y-79759323D01*
X167473342Y-79754046D01*
X167494294Y-79748727D01*
X167515633Y-79743368D01*
X167537359Y-79737971D01*
X167559472Y-79732540D01*
X167581969Y-79727077D01*
X167604850Y-79721584D01*
X167628114Y-79716064D01*
X167651760Y-79710519D01*
X167675787Y-79704952D01*
X167700193Y-79699366D01*
X167724978Y-79693763D01*
X167750140Y-79688145D01*
X167775679Y-79682516D01*
X167801594Y-79676877D01*
X167827883Y-79671231D01*
X167854546Y-79665582D01*
X167881581Y-79659930D01*
X167908987Y-79654279D01*
X167936764Y-79648632D01*
X167964910Y-79642991D01*
X167979121Y-79640173D01*
X167993424Y-79637358D01*
X168007819Y-79634546D01*
X168022306Y-79631736D01*
X168036884Y-79628930D01*
X168051553Y-79626128D01*
X168066314Y-79623330D01*
X168081166Y-79620536D01*
X168096109Y-79617747D01*
X168111143Y-79614963D01*
X168126267Y-79612184D01*
X168141483Y-79609410D01*
X168156788Y-79606643D01*
X168172184Y-79603882D01*
X168187671Y-79601128D01*
X168203247Y-79598380D01*
X168218914Y-79595639D01*
X168234670Y-79592907D01*
X168250516Y-79590181D01*
X168266451Y-79587465D01*
X168282476Y-79584756D01*
X168298591Y-79582057D01*
X168314794Y-79579366D01*
X168331087Y-79576685D01*
X168347468Y-79574014D01*
X168363939Y-79571352D01*
X168380498Y-79568702D01*
X168397145Y-79566061D01*
X168413881Y-79563432D01*
X168430705Y-79560814D01*
X168447618Y-79558208D01*
X168464618Y-79555614D01*
X168481707Y-79553032D01*
X168498883Y-79550463D01*
X168516146Y-79547907D01*
X168533498Y-79545364D01*
X168550936Y-79542834D01*
X168568462Y-79540319D01*
X168586075Y-79537817D01*
X168603775Y-79535330D01*
X168621562Y-79532858D01*
X168639435Y-79530401D01*
X168657395Y-79527960D01*
X168675442Y-79525534D01*
X168693575Y-79523125D01*
X168711794Y-79520732D01*
X168730099Y-79518355D01*
X168748490Y-79515996D01*
X168766967Y-79513654D01*
X168785529Y-79511330D01*
X168804177Y-79509024D01*
X168822911Y-79506736D01*
X168841730Y-79504467D01*
X168860634Y-79502217D01*
X168879622Y-79499986D01*
X168898696Y-79497775D01*
X168917855Y-79495583D01*
X168937098Y-79493412D01*
X168956426Y-79491261D01*
X168975838Y-79489132D01*
X168995335Y-79487023D01*
X169014915Y-79484936D01*
X169034580Y-79482871D01*
X169054328Y-79480828D01*
X169074160Y-79478808D01*
X169094076Y-79476810D01*
X169114075Y-79474835D01*
X169134157Y-79472884D01*
X169154323Y-79470956D01*
X169174572Y-79469053D01*
X169194903Y-79467174D01*
X169215318Y-79465320D01*
X169235815Y-79463490D01*
X169256395Y-79461686D01*
X169277057Y-79459908D01*
X169297801Y-79458156D01*
X169318628Y-79456430D01*
X169339537Y-79454730D01*
X169360527Y-79453057D01*
X169381599Y-79451412D01*
X169402753Y-79449794D01*
X169423989Y-79448204D01*
X169445305Y-79446643D01*
X169466704Y-79445110D01*
X169488183Y-79443605D01*
X169509743Y-79442130D01*
X169531384Y-79440684D01*
X169553106Y-79439268D01*
X169574908Y-79437882D01*
X169596791Y-79436527D01*
X169618754Y-79435202D01*
X169640797Y-79433908D01*
X169662921Y-79432646D01*
X169685124Y-79431416D01*
X169707407Y-79430217D01*
X169729770Y-79429051D01*
X169752213Y-79427917D01*
X169774735Y-79426816D01*
X169797336Y-79425749D01*
X169820016Y-79424715D01*
X169842775Y-79423715D01*
X169865614Y-79422750D01*
X169888531Y-79421819D01*
X169911526Y-79420922D01*
X169934600Y-79420061D01*
X169957753Y-79419236D01*
X169980984Y-79418446D01*
X170004293Y-79417692D01*
X170027680Y-79416975D01*
X170051144Y-79416295D01*
X170074687Y-79415652D01*
X170098307Y-79415046D01*
X170122005Y-79414478D01*
X170145780Y-79413948D01*
X170169632Y-79413456D01*
X170193561Y-79413003D01*
D11*
X168200000Y-110296560D02*
X168200000Y-110296560D01*
G75*
G02*
X168300000Y-110196560I100000J-40D01*
G01*
X182100000Y-110196560D01*
G75*
G02*
X182200000Y-110296560I0J-100040D01*
G01*
X182200000Y-112496560D01*
G75*
G02*
X182100000Y-112596560I-100000J-40D01*
G01*
X168300000Y-112596560D01*
G75*
G02*
X168200000Y-112496560I0J99960D01*
G01*
X168200000Y-110296560D01*
X168400000Y-113500000D02*
X168400000Y-113500000D01*
G75*
G02*
X168500000Y-113400000I100000J0D01*
G01*
X175300000Y-113400000D01*
G75*
G02*
X175400000Y-113500000I0J-100000D01*
G01*
X175400000Y-115700000D01*
G75*
G02*
X175300000Y-115800000I-100000J0D01*
G01*
X168500000Y-115800000D01*
G75*
G02*
X168400000Y-115700000I0J100000D01*
G01*
X168400000Y-113500000D01*
D12*
X168750000Y-82000000D02*
X168750000Y-82000000D01*
D10*
X168900000Y-102600000D02*
X168897144Y-102654240D01*
X168894370Y-102708424D01*
X168891680Y-102762551D01*
X168889072Y-102816622D01*
X168886546Y-102870638D01*
X168884103Y-102924599D01*
X168881742Y-102978507D01*
X168879463Y-103032361D01*
X168877266Y-103086163D01*
X168875152Y-103139912D01*
X168873119Y-103193610D01*
X168871167Y-103247257D01*
X168869298Y-103300854D01*
X168867509Y-103354402D01*
X168865803Y-103407902D01*
X168864177Y-103461353D01*
X168862633Y-103514758D01*
X168861170Y-103568117D01*
X168859787Y-103621430D01*
X168858486Y-103674699D01*
X168857265Y-103727924D01*
X168856126Y-103781107D01*
X168855066Y-103834248D01*
X168854088Y-103887348D01*
X168853189Y-103940409D01*
X168852371Y-103993431D01*
X168851634Y-104046416D01*
X168850976Y-104099364D01*
X168850399Y-104152277D01*
X168849902Y-104205156D01*
X168849485Y-104258002D01*
X168849147Y-104310817D01*
X168848890Y-104363601D01*
X168848712Y-104416357D01*
X168848615Y-104469085D01*
X168848596Y-104521787D01*
X168848658Y-104574465D01*
X168848799Y-104627119D01*
X168849020Y-104679753D01*
X168849320Y-104732367D01*
X168849700Y-104784964D01*
X168850159Y-104837544D01*
X168850698Y-104890111D01*
X168851317Y-104942666D01*
X168852015Y-104995210D01*
X168852792Y-105047748D01*
X168853649Y-105100280D01*
X168854586Y-105152809D01*
X168855602Y-105205337D01*
X168856698Y-105257867D01*
X168857874Y-105310403D01*
X168859129Y-105362946D01*
X168860464Y-105415499D01*
X168861879Y-105468067D01*
X168863375Y-105520651D01*
X168864950Y-105573256D01*
X168866606Y-105625885D01*
X168868342Y-105678542D01*
X168870159Y-105731231D01*
X168872057Y-105783957D01*
X168874035Y-105836722D01*
X168876095Y-105889534D01*
X168878237Y-105942395D01*
X168880460Y-105995313D01*
X168882766Y-106048292D01*
X168885154Y-106101338D01*
X168887625Y-106154458D01*
X168890179Y-106207658D01*
X168892817Y-106260946D01*
X168895539Y-106314329D01*
X168898346Y-106367816D01*
X168901239Y-106421416D01*
X168904217Y-106475137D01*
X168907283Y-106528991D01*
X168910436Y-106582987D01*
X168913677Y-106637139D01*
X168917008Y-106691459D01*
X168920430Y-106745961D01*
X168923944Y-106800660D01*
X168927551Y-106855572D01*
X168931252Y-106910716D01*
X168935050Y-106966113D01*
X168938946Y-107021783D01*
X168942942Y-107077751D01*
X168947041Y-107134045D01*
X168951245Y-107190693D01*
X168955557Y-107247731D01*
X168959980Y-107305195D01*
X168964519Y-107363130D01*
X168969178Y-107421584D01*
X168973962Y-107480613D01*
X168978877Y-107540283D01*
X168983930Y-107600670D01*
X168989130Y-107661864D01*
X168994486Y-107723971D01*
X169000011Y-107787122D01*
X169005719Y-107851476D01*
X169011631Y-107917231D01*
X169017770Y-107984642D01*
X169024168Y-108054043D01*
X169030869Y-108125887D01*
X169037936Y-108200817D01*
X169045462Y-108279803D01*
X169053600Y-108364421D01*
X169062637Y-108457596D01*
X169073226Y-108566049D01*
X169083383Y-108669691D01*
X169094384Y-108781946D01*
X169099761Y-108836994D01*
X169105049Y-108891325D01*
X169110239Y-108944940D01*
X169115327Y-108997842D01*
X169120305Y-109050033D01*
X169125167Y-109101513D01*
X169129906Y-109152284D01*
X169134516Y-109202349D01*
X169138991Y-109251709D01*
X169141176Y-109276126D01*
X169143324Y-109300366D01*
X169145435Y-109324432D01*
X169147509Y-109348322D01*
X169149543Y-109372037D01*
X169151538Y-109395578D01*
X169153493Y-109418944D01*
X169155407Y-109442136D01*
X169157279Y-109465154D01*
X169159108Y-109487999D01*
X169160893Y-109510669D01*
X169162634Y-109533167D01*
X169164330Y-109555491D01*
X169165980Y-109577642D01*
X169167583Y-109599620D01*
X169169138Y-109621426D01*
X169170645Y-109643060D01*
X169172103Y-109664522D01*
X169173511Y-109685812D01*
X169174868Y-109706930D01*
X169176174Y-109727877D01*
X169177427Y-109748653D01*
X169178626Y-109769257D01*
X169179772Y-109789691D01*
X169180863Y-109809955D01*
X169181898Y-109830048D01*
X169182877Y-109849971D01*
X169183798Y-109869724D01*
X169184661Y-109889308D01*
X169185466Y-109908722D01*
X169186210Y-109927967D01*
X169186895Y-109947044D01*
X169187517Y-109965951D01*
X169188078Y-109984690D01*
X169188576Y-110003260D01*
X169189010Y-110021663D01*
X169189379Y-110039897D01*
X169189683Y-110057964D01*
X169189921Y-110075863D01*
X169190092Y-110093595D01*
X169190195Y-110111161D01*
X169190230Y-110128559D01*
X169193561Y-82413003D02*
X169193551Y-82413792D01*
X169193521Y-82414577D01*
X169193471Y-82415359D01*
X169193402Y-82416136D01*
X169193203Y-82417682D01*
X169192926Y-82419216D01*
X169192569Y-82420740D01*
X169192131Y-82422258D01*
X169191612Y-82423769D01*
X169191010Y-82425276D01*
X169190322Y-82426782D01*
X169189546Y-82428286D01*
X169188679Y-82429791D01*
X169187719Y-82431299D01*
X169186662Y-82432809D01*
X169185504Y-82434323D01*
X169184241Y-82435843D01*
X169182868Y-82437368D01*
X169181381Y-82438900D01*
X169179776Y-82440438D01*
X169178046Y-82441985D01*
X169176187Y-82443539D01*
X169174193Y-82445101D01*
X169172059Y-82446671D01*
X169169777Y-82448249D01*
X169167343Y-82449835D01*
X169164749Y-82451429D01*
X169161989Y-82453030D01*
X169159057Y-82454639D01*
X169155944Y-82456254D01*
X169152645Y-82457876D01*
X169149152Y-82459504D01*
X169145457Y-82461136D01*
X169141552Y-82462774D01*
X169137431Y-82464415D01*
X169133085Y-82466059D01*
X169128505Y-82467706D01*
X169123684Y-82469353D01*
X169118613Y-82471001D01*
X169113283Y-82472649D01*
X169107687Y-82474295D01*
X169101814Y-82475939D01*
X169095656Y-82477579D01*
X169089204Y-82479214D01*
X169082449Y-82480843D01*
X169075380Y-82482465D01*
X169067989Y-82484078D01*
X169060265Y-82485682D01*
X169052199Y-82487275D01*
X169043781Y-82488856D01*
X169035001Y-82490423D01*
X169025847Y-82491975D01*
X169016311Y-82493510D01*
X169006381Y-82495028D01*
X168996047Y-82496526D01*
X168985298Y-82498003D01*
X168974122Y-82499458D01*
X168962510Y-82500889D01*
X168950450Y-82502295D01*
X168937930Y-82503673D01*
X168924939Y-82505022D01*
X168911466Y-82506341D01*
X168897499Y-82507628D01*
X168883027Y-82508880D01*
X168868038Y-82510098D01*
X168852519Y-82511277D01*
X168836459Y-82512418D01*
X168819846Y-82513517D01*
X168802667Y-82514574D01*
X168784911Y-82515586D01*
X168766566Y-82516552D01*
X168747618Y-82517469D01*
X168728056Y-82518336D01*
X168707867Y-82519150D01*
X168687039Y-82519910D01*
X168665559Y-82520614D01*
X168643415Y-82521260D01*
X168620594Y-82521845D01*
X168597084Y-82522368D01*
X168572872Y-82522827D01*
X168547946Y-82523220D01*
X168522294Y-82523544D01*
X168495902Y-82523797D01*
X168468760Y-82523978D01*
X168440855Y-82524084D01*
X168412174Y-82524114D01*
X168382706Y-82524064D01*
X168352439Y-82523933D01*
X168321361Y-82523719D01*
X168289462Y-82523420D01*
X168256729Y-82523033D01*
X168223153Y-82522556D01*
X168188723Y-82521988D01*
X168153428Y-82521326D01*
X168117259Y-82520568D01*
X168080207Y-82519711D01*
X168042263Y-82518755D01*
X168003419Y-82517696D01*
X167963667Y-82516533D01*
X167923000Y-82515264D01*
X167881413Y-82513887D01*
X167838901Y-82512400D01*
X167795460Y-82510800D01*
X167751086Y-82509088D01*
X167705779Y-82507259D01*
X167659538Y-82505314D01*
X167612365Y-82503251D01*
X167564263Y-82501067D01*
X167515239Y-82498763D01*
X167465300Y-82496336D01*
X167414457Y-82493787D01*
X167362724Y-82491114D01*
X167310118Y-82488318D01*
X167256663Y-82485397D01*
X167202383Y-82482352D01*
X167147312Y-82479185D01*
X167091489Y-82475896D01*
X167034960Y-82472487D01*
X166977782Y-82468961D01*
X166920021Y-82465321D01*
X166861760Y-82461571D01*
X166803097Y-82457718D01*
X166744149Y-82453769D01*
X166685064Y-82449734D01*
X166626021Y-82445625D01*
X166567248Y-82441458D01*
X166509034Y-82437256D01*
X166451758Y-82433047D01*
X166395933Y-82428871D01*
X166342284Y-82424785D01*
X166291905Y-82420879D01*
X166246625Y-82417302D01*
X166210128Y-82414363D01*
X166193561Y-82413003D01*
X169600000Y-102500000D02*
X169593880Y-102499122D01*
X169587655Y-102498310D01*
X169581324Y-102497565D01*
X169574883Y-102496886D01*
X169568329Y-102496277D01*
X169561660Y-102495736D01*
X169554873Y-102495266D01*
X169547963Y-102494868D01*
X169540928Y-102494542D01*
X169533765Y-102494290D01*
X169526469Y-102494114D01*
X169519036Y-102494013D01*
X169511462Y-102493991D01*
X169503743Y-102494048D01*
X169495874Y-102494185D01*
X169487850Y-102494405D01*
X169479665Y-102494709D01*
X169471314Y-102495099D01*
X169462789Y-102495577D01*
X169454086Y-102496144D01*
X169445196Y-102496804D01*
X169436110Y-102497558D01*
X169426822Y-102498408D01*
X169417320Y-102499358D01*
X169407594Y-102500410D01*
X169397633Y-102501567D01*
X169387424Y-102502833D01*
X169376951Y-102504212D01*
X169366199Y-102505707D01*
X169355148Y-102507324D01*
X169343776Y-102509068D01*
X169332058Y-102510946D01*
X169319963Y-102512963D01*
X169307457Y-102515129D01*
X169294497Y-102517454D01*
X169281028Y-102519950D01*
X169266986Y-102522633D01*
X169252282Y-102525521D01*
X169236805Y-102528641D01*
X169220394Y-102532028D01*
X169202821Y-102535734D01*
X169183722Y-102539841D01*
X169162466Y-102544488D01*
X169137737Y-102549969D01*
X169101888Y-102557992D01*
X169076113Y-102563766D01*
X169050435Y-102569480D01*
X169037640Y-102572301D01*
X169024881Y-102575090D01*
X169012160Y-102577842D01*
X168999481Y-102580550D01*
X168986848Y-102583210D01*
X168974264Y-102585816D01*
X168961733Y-102588362D01*
X168949259Y-102590843D01*
X168936845Y-102593253D01*
X168924494Y-102595586D01*
X168912212Y-102597837D01*
X168900000Y-102600000D01*
X169900000Y-89000000D02*
X169893306Y-89014039D01*
X169886625Y-89028234D01*
X169879959Y-89042588D01*
X169873307Y-89057101D01*
X169866670Y-89071774D01*
X169860047Y-89086608D01*
X169853439Y-89101606D01*
X169846847Y-89116768D01*
X169840270Y-89132095D01*
X169833708Y-89147589D01*
X169827162Y-89163250D01*
X169820632Y-89179081D01*
X169814119Y-89195082D01*
X169807622Y-89211254D01*
X169801142Y-89227600D01*
X169794679Y-89244120D01*
X169788233Y-89260815D01*
X169781805Y-89277688D01*
X169775394Y-89294738D01*
X169769002Y-89311968D01*
X169762627Y-89329379D01*
X169756272Y-89346971D01*
X169749935Y-89364748D01*
X169743617Y-89382709D01*
X169737319Y-89400856D01*
X169731040Y-89419191D01*
X169724781Y-89437714D01*
X169718543Y-89456428D01*
X169712324Y-89475333D01*
X169706127Y-89494431D01*
X169699951Y-89513724D01*
X169693796Y-89533213D01*
X169687662Y-89552898D01*
X169681551Y-89572782D01*
X169675462Y-89592867D01*
X169669395Y-89613152D01*
X169663351Y-89633641D01*
X169657331Y-89654333D01*
X169651334Y-89675232D01*
X169645361Y-89696338D01*
X169639411Y-89717652D01*
X169633487Y-89739176D01*
X169627587Y-89760912D01*
X169621712Y-89782861D01*
X169615863Y-89805024D01*
X169610039Y-89827404D01*
X169604241Y-89850001D01*
X169598470Y-89872816D01*
X169592726Y-89895853D01*
X169587008Y-89919111D01*
X169581318Y-89942593D01*
X169575656Y-89966300D01*
X169570022Y-89990234D01*
X169564417Y-90014396D01*
X169558840Y-90038787D01*
X169553293Y-90063410D01*
X169547775Y-90088266D01*
X169542287Y-90113356D01*
X169536829Y-90138682D01*
X169531402Y-90164246D01*
X169526006Y-90190049D01*
X169520641Y-90216093D01*
X169515308Y-90242379D01*
X169510008Y-90268909D01*
X169504739Y-90295685D01*
X169499504Y-90322709D01*
X169494302Y-90349981D01*
X169489133Y-90377504D01*
X169483998Y-90405279D01*
X169478898Y-90433308D01*
X169473833Y-90461593D01*
X169468803Y-90490135D01*
X169463808Y-90518936D01*
X169458849Y-90547998D01*
X169453927Y-90577322D01*
X169449042Y-90606911D01*
X169444193Y-90636765D01*
X169439382Y-90666887D01*
X169434610Y-90697278D01*
X169429875Y-90727941D01*
X169425180Y-90758876D01*
X169420523Y-90790087D01*
X169415906Y-90821573D01*
X169411330Y-90853338D01*
X169406793Y-90885383D01*
X169402298Y-90917710D01*
X169397844Y-90950321D01*
X169393431Y-90983217D01*
X169389061Y-91016401D01*
X169384733Y-91049874D01*
X169380448Y-91083639D01*
X169376207Y-91117696D01*
X169372009Y-91152049D01*
X169367856Y-91186698D01*
X169363747Y-91221646D01*
X169359684Y-91256895D01*
X169355666Y-91292446D01*
X169351694Y-91328303D01*
X169347769Y-91364466D01*
X169343891Y-91400937D01*
X169340060Y-91437719D01*
X169336277Y-91474814D01*
X169332542Y-91512223D01*
X169328856Y-91549949D01*
X169325219Y-91587994D01*
X169321632Y-91626360D01*
X169318095Y-91665048D01*
X169314608Y-91704062D01*
X169311172Y-91743403D01*
X169307788Y-91783073D01*
X169304456Y-91823074D01*
X169301176Y-91863410D01*
X169297950Y-91904081D01*
X169294776Y-91945090D01*
X169291657Y-91986439D01*
X169288591Y-92028130D01*
X169285581Y-92070167D01*
X169282626Y-92112551D01*
X169279726Y-92155283D01*
X169276883Y-92198368D01*
X169274097Y-92241807D01*
X169271367Y-92285602D01*
X169268696Y-92329756D01*
X169266083Y-92374271D01*
X169263528Y-92419150D01*
X169261033Y-92464395D01*
X169258597Y-92510009D01*
X169256222Y-92555994D01*
X169253907Y-92602353D01*
X169251653Y-92649088D01*
X169249461Y-92696202D01*
X169247332Y-92743698D01*
X169245265Y-92791578D01*
X169243261Y-92839846D01*
X169241321Y-92888503D01*
X169239446Y-92937553D01*
X169237635Y-92986998D01*
X169235890Y-93036841D01*
X169234211Y-93087086D01*
X169232597Y-93137735D01*
X169231051Y-93188792D01*
X169229573Y-93240258D01*
X169228162Y-93292138D01*
X169226820Y-93344435D01*
X169225548Y-93397151D01*
X169224344Y-93450290D01*
X169223211Y-93503855D01*
X169222149Y-93557850D01*
X169221159Y-93612278D01*
X169220240Y-93667143D01*
X169219393Y-93722448D01*
X169218620Y-93778196D01*
X169217920Y-93834392D01*
X169217295Y-93891039D01*
X169216745Y-93948141D01*
X169216269Y-94005702D01*
X169215870Y-94063726D01*
X169215548Y-94122217D01*
X169215302Y-94181180D01*
X169215135Y-94240618D01*
X169215046Y-94300537D01*
X169215036Y-94360940D01*
X169215106Y-94421832D01*
X169215256Y-94483218D01*
X169215487Y-94545104D01*
X169215800Y-94607493D01*
X169216196Y-94670392D01*
X169216674Y-94733805D01*
X169217236Y-94797738D01*
X169217882Y-94862197D01*
X169218614Y-94927188D01*
X169219431Y-94992716D01*
X169220335Y-95058789D01*
X169221326Y-95125411D01*
X169222406Y-95192591D01*
X169223574Y-95260335D01*
X169224831Y-95328650D01*
X169226179Y-95397544D01*
X169227619Y-95467024D01*
X169229150Y-95537099D01*
X169230774Y-95607777D01*
X169232492Y-95679067D01*
X169234305Y-95750979D01*
X169236214Y-95823521D01*
X169238219Y-95896703D01*
X169240321Y-95970538D01*
X169242522Y-96045034D01*
X169244823Y-96120205D01*
X169247224Y-96196062D01*
X169249727Y-96272618D01*
X169252334Y-96349888D01*
X169255044Y-96427884D01*
X169257860Y-96506624D01*
X169260782Y-96586122D01*
X169263813Y-96666395D01*
X169266954Y-96747464D01*
X169270205Y-96829346D01*
X169273570Y-96912063D01*
X169277048Y-96995637D01*
X169280644Y-97080092D01*
X169284357Y-97165455D01*
X169288190Y-97251752D01*
X169292146Y-97339015D01*
X169296227Y-97427275D01*
X169300435Y-97516569D01*
X169304773Y-97606936D01*
X169309244Y-97698418D01*
X169313851Y-97791062D01*
X169318598Y-97884919D01*
X169323489Y-97980047D01*
X169328528Y-98076510D01*
X169333719Y-98174379D01*
X169339069Y-98273734D01*
X169344582Y-98374667D01*
X169350267Y-98477279D01*
X169356131Y-98581691D01*
X169362182Y-98688039D01*
X169368432Y-98796483D01*
X169374892Y-98907212D01*
X169381578Y-99020451D01*
X169388507Y-99136473D01*
X169395700Y-99255611D01*
X169403186Y-99378285D01*
X169410998Y-99505030D01*
X169419183Y-99636552D01*
X169427802Y-99773811D01*
X169436945Y-99918176D01*
X169446747Y-100071718D01*
X169457428Y-100237855D01*
X169469406Y-100423020D01*
X169483677Y-100642533D01*
X169495266Y-100820339D01*
X169510182Y-101049263D01*
X169517504Y-101161909D01*
X169524724Y-101273300D01*
X169531831Y-101383403D01*
X169538817Y-101492184D01*
X169545673Y-101599610D01*
X169552390Y-101705649D01*
X169558958Y-101810266D01*
X169565368Y-101913428D01*
X169568511Y-101964454D01*
X169571611Y-102015103D01*
X169574667Y-102065373D01*
X169577677Y-102115257D01*
X169580642Y-102164754D01*
X169583559Y-102213857D01*
X169586427Y-102262564D01*
X169589246Y-102310870D01*
X169592014Y-102358770D01*
X169594729Y-102406262D01*
X169597392Y-102453340D01*
X169600000Y-102500000D01*
X170000000Y-85000000D02*
X170000040Y-84969036D01*
X170000160Y-84938053D01*
X170000360Y-84907049D01*
X170000639Y-84876026D01*
X170000999Y-84844983D01*
X170001439Y-84813921D01*
X170001959Y-84782839D01*
X170002559Y-84751737D01*
X170003240Y-84720616D01*
X170004001Y-84689475D01*
X170004842Y-84658315D01*
X170005764Y-84627135D01*
X170006766Y-84595936D01*
X170007848Y-84564718D01*
X170009012Y-84533480D01*
X170010255Y-84502223D01*
X170011580Y-84470947D01*
X170012985Y-84439652D01*
X170014471Y-84408338D01*
X170016038Y-84377004D01*
X170017686Y-84345652D01*
X170019415Y-84314281D01*
X170021225Y-84282891D01*
X170023116Y-84251482D01*
X170025088Y-84220054D01*
X170027141Y-84188608D01*
X170029275Y-84157144D01*
X170031491Y-84125660D01*
X170033788Y-84094159D01*
X170036166Y-84062639D01*
X170038626Y-84031100D01*
X170041168Y-83999544D01*
X170043791Y-83967969D01*
X170046495Y-83936377D01*
X170049282Y-83904766D01*
X170052150Y-83873138D01*
X170055100Y-83841492D01*
X170058131Y-83809828D01*
X170061245Y-83778146D01*
X170064440Y-83746448D01*
X170067718Y-83714732D01*
X170071077Y-83682998D01*
X170074519Y-83651248D01*
X170078043Y-83619480D01*
X170081649Y-83587696D01*
X170085337Y-83555894D01*
X170089108Y-83524077D01*
X170092960Y-83492242D01*
X170096896Y-83460391D01*
X170100914Y-83428524D01*
X170105014Y-83396641D01*
X170109197Y-83364741D01*
X170113462Y-83332826D01*
X170117810Y-83300895D01*
X170122241Y-83268949D01*
X170126754Y-83236987D01*
X170131351Y-83205009D01*
X170136030Y-83173017D01*
X170140792Y-83141009D01*
X170145637Y-83108987D01*
X170150564Y-83076950D01*
X170155575Y-83044899D01*
X170160669Y-83012833D01*
X170165846Y-82980753D01*
X170171106Y-82948659D01*
X170176449Y-82916551D01*
X170181875Y-82884430D01*
X170187385Y-82852295D01*
X170192978Y-82820148D01*
X170198654Y-82787987D01*
X170204413Y-82755813D01*
X170210256Y-82723627D01*
X170216182Y-82691428D01*
X170222191Y-82659218D01*
X170228284Y-82626995D01*
X170234460Y-82594761D01*
X170240720Y-82562515D01*
X170247063Y-82530258D01*
X170253490Y-82497990D01*
X170260000Y-82465712D01*
X170266593Y-82433423D01*
X170273270Y-82401123D01*
X170280031Y-82368814D01*
X170286875Y-82336495D01*
X170293803Y-82304167D01*
X170300815Y-82271829D01*
X170307909Y-82239483D01*
X170315088Y-82207128D01*
X170322350Y-82174765D01*
X170329695Y-82142394D01*
X170337124Y-82110016D01*
X170344637Y-82077630D01*
X170352233Y-82045237D01*
X170359913Y-82012838D01*
X170367676Y-81980432D01*
X170375522Y-81948021D01*
X170383452Y-81915604D01*
X170391466Y-81883181D01*
X170399562Y-81850754D01*
X170407742Y-81818323D01*
X170416005Y-81785887D01*
X170424352Y-81753447D01*
X170432782Y-81721005D01*
X170441295Y-81688559D01*
X170449891Y-81656111D01*
X170458570Y-81623661D01*
X170467332Y-81591209D01*
X170476176Y-81558757D01*
X170485104Y-81526303D01*
X170494115Y-81493850D01*
X170503208Y-81461396D01*
X170512384Y-81428944D01*
X170521642Y-81396492D01*
X170530982Y-81364043D01*
X170540405Y-81331596D01*
X170549911Y-81299151D01*
X170559498Y-81266710D01*
X170569167Y-81234273D01*
X170578918Y-81201840D01*
X170588751Y-81169412D01*
X170598665Y-81136990D01*
X170608661Y-81104574D01*
X170618738Y-81072165D01*
X170628896Y-81039764D01*
X170639136Y-81007371D01*
X170649456Y-80974986D01*
X170659856Y-80942611D01*
X170670337Y-80910246D01*
X170680899Y-80877892D01*
X170691540Y-80845550D01*
X170702261Y-80813219D01*
X170713062Y-80780902D01*
X170723942Y-80748599D01*
X170734901Y-80716311D01*
X170745940Y-80684038D01*
X170757056Y-80651781D01*
X170768252Y-80619541D01*
X170779525Y-80587319D01*
X170790876Y-80555117D01*
X170802304Y-80522934D01*
X170813810Y-80490771D01*
X170825392Y-80458631D01*
X170837051Y-80426513D01*
X170848786Y-80394418D01*
X170860597Y-80362349D01*
X170872483Y-80330305D01*
X170884444Y-80298288D01*
X170896479Y-80266299D01*
X170908589Y-80234339D01*
X170920772Y-80202409D01*
X170933029Y-80170511D01*
X170945358Y-80138645D01*
X170957760Y-80106813D01*
X170970233Y-80075017D01*
X170982777Y-80043257D01*
X170995392Y-80011534D01*
X171008077Y-79979852D01*
X171020831Y-79948209D01*
X171033654Y-79916609D01*
X171046545Y-79885053D01*
X171059503Y-79853542D01*
X171072528Y-79822079D01*
X171085619Y-79790663D01*
X171098775Y-79759298D01*
X171111996Y-79727985D01*
X171125280Y-79696726D01*
X171138627Y-79665522D01*
X171152035Y-79634377D01*
X171165505Y-79603290D01*
X171179034Y-79572266D01*
X171192622Y-79541305D01*
X171206268Y-79510410D01*
X171219970Y-79479584D01*
X171233728Y-79448828D01*
X171247540Y-79418145D01*
X171261406Y-79387537D01*
X171275323Y-79357007D01*
X171289291Y-79326558D01*
X171303308Y-79296193D01*
X171317372Y-79265913D01*
X171331482Y-79235724D01*
X171345636Y-79205626D01*
X171359834Y-79175624D01*
X171374072Y-79145721D01*
X171388349Y-79115920D01*
X171402663Y-79086225D01*
X171417013Y-79056639D01*
X171431395Y-79027168D01*
X171445808Y-78997814D01*
X171460249Y-78968581D01*
X171474716Y-78939475D01*
X171489207Y-78910500D01*
X171503718Y-78881661D01*
X171518246Y-78852962D01*
X171532790Y-78824410D01*
X171547344Y-78796010D01*
X171561906Y-78767767D01*
X171576473Y-78739688D01*
X171591040Y-78711780D01*
X171605604Y-78684049D01*
X171620159Y-78656502D01*
X171634702Y-78629148D01*
X171649228Y-78601994D01*
X171663731Y-78575050D01*
X171678205Y-78548324D01*
X171692646Y-78521827D01*
X171707045Y-78495568D01*
X171721397Y-78469560D01*
X171735693Y-78443815D01*
X171749925Y-78418346D01*
X171764085Y-78393167D01*
X171778163Y-78368293D01*
X171792147Y-78343743D01*
X171806027Y-78319533D01*
X171819789Y-78295685D01*
X171833419Y-78272222D01*
X171846901Y-78249167D01*
X171860217Y-78226551D01*
X171873345Y-78204405D01*
X171886262Y-78182764D01*
X171898942Y-78161672D01*
X171911351Y-78141176D01*
X171923453Y-78121336D01*
X171935200Y-78102222D01*
X171946535Y-78083919D01*
X171957387Y-78066538D01*
X171967657Y-78050224D01*
X171977213Y-78035179D01*
X171985851Y-78021705D01*
X171993226Y-78010318D01*
X171998600Y-78002115D01*
X172000000Y-78000000D01*
X170193561Y-79413003D02*
X170173115Y-79464532D01*
X170152849Y-79515821D01*
X170132765Y-79566867D01*
X170112862Y-79617670D01*
X170093140Y-79668227D01*
X170073601Y-79718537D01*
X170054243Y-79768597D01*
X170035068Y-79818405D01*
X170016076Y-79867959D01*
X169997267Y-79917258D01*
X169978641Y-79966298D01*
X169960200Y-80015078D01*
X169941942Y-80063596D01*
X169923869Y-80111848D01*
X169905981Y-80159833D01*
X169888278Y-80207549D01*
X169870760Y-80254991D01*
X169853429Y-80302159D01*
X169836285Y-80349049D01*
X169819327Y-80395658D01*
X169802557Y-80441984D01*
X169785975Y-80488024D01*
X169769582Y-80533774D01*
X169753377Y-80579232D01*
X169737362Y-80624394D01*
X169721537Y-80669256D01*
X169705903Y-80713817D01*
X169690460Y-80758071D01*
X169675209Y-80802016D01*
X169660151Y-80845647D01*
X169645286Y-80888960D01*
X169630615Y-80931952D01*
X169616139Y-80974619D01*
X169601858Y-81016955D01*
X169587774Y-81058957D01*
X169573887Y-81100619D01*
X169560198Y-81141937D01*
X169546708Y-81182906D01*
X169533418Y-81223520D01*
X169520328Y-81263774D01*
X169507441Y-81303662D01*
X169494757Y-81343177D01*
X169482278Y-81382315D01*
X169470003Y-81421067D01*
X169457936Y-81459428D01*
X169446077Y-81497389D01*
X169434427Y-81534943D01*
X169422989Y-81572082D01*
X169411764Y-81608798D01*
X169400752Y-81645081D01*
X169389958Y-81680921D01*
X169379381Y-81716310D01*
X169369025Y-81751236D01*
X169358891Y-81785686D01*
X169348982Y-81819651D01*
X169339301Y-81853115D01*
X169329850Y-81886065D01*
X169320631Y-81918486D01*
X169311649Y-81950361D01*
X169302907Y-81981672D01*
X169294409Y-82012400D01*
X169286158Y-82042524D01*
X169278160Y-82072021D01*
X169270419Y-82100863D01*
X169262941Y-82129023D01*
X169255734Y-82156468D01*
X169248802Y-82183160D01*
X169242157Y-82209060D01*
X169235805Y-82234117D01*
X169229760Y-82258275D01*
X169224035Y-82281467D01*
X169218645Y-82303611D01*
X169213612Y-82324605D01*
X169208961Y-82344318D01*
X169204727Y-82362577D01*
X169200959Y-82379131D01*
X169197736Y-82393594D01*
X169195195Y-82405271D01*
X169193561Y-82413003D01*
X172000000Y-78000000D02*
X171956262Y-78000040D01*
X171912605Y-78000160D01*
X171869028Y-78000359D01*
X171825532Y-78000637D01*
X171782117Y-78000995D01*
X171738783Y-78001432D01*
X171695530Y-78001948D01*
X171652360Y-78002543D01*
X171609271Y-78003216D01*
X171566264Y-78003968D01*
X171523340Y-78004798D01*
X171480499Y-78005706D01*
X171437740Y-78006693D01*
X171395065Y-78007757D01*
X171352474Y-78008899D01*
X171309966Y-78010119D01*
X171267542Y-78011415D01*
X171225202Y-78012790D01*
X171182947Y-78014241D01*
X171140777Y-78015769D01*
X171098692Y-78017374D01*
X171056692Y-78019055D01*
X171014778Y-78020813D01*
X170972950Y-78022647D01*
X170931208Y-78024557D01*
X170889553Y-78026543D01*
X170847985Y-78028604D01*
X170806504Y-78030741D01*
X170765111Y-78032954D01*
X170723805Y-78035241D01*
X170682588Y-78037604D01*
X170641459Y-78040041D01*
X170600419Y-78042553D01*
X170559469Y-78045139D01*
X170518608Y-78047800D01*
X170477836Y-78050535D01*
X170437155Y-78053343D01*
X170396565Y-78056225D01*
X170356065Y-78059181D01*
X170315657Y-78062210D01*
X170275341Y-78065312D01*
X170235117Y-78068487D01*
X170194985Y-78071734D01*
X170154946Y-78075054D01*
X170115001Y-78078446D01*
X170075149Y-78081911D01*
X170035391Y-78085447D01*
X169995728Y-78089055D01*
X169956159Y-78092734D01*
X169916687Y-78096484D01*
X169877310Y-78100305D01*
X169838029Y-78104197D01*
X169798845Y-78108160D01*
X169759758Y-78112192D01*
X169720768Y-78116295D01*
X169681877Y-78120468D01*
X169643085Y-78124710D01*
X169604391Y-78129022D01*
X169565797Y-78133402D01*
X169527304Y-78137852D01*
X169488911Y-78142370D01*
X169450619Y-78146956D01*
X169412428Y-78151610D01*
X169374340Y-78156333D01*
X169336355Y-78161122D01*
X169298472Y-78165979D01*
X169260694Y-78170903D01*
X169223020Y-78175894D01*
X169185452Y-78180951D01*
X169147989Y-78186074D01*
X169110632Y-78191264D01*
X169073382Y-78196518D01*
X169036239Y-78201838D01*
X168999205Y-78207223D01*
X168962279Y-78212673D01*
X168925463Y-78218187D01*
X168888757Y-78223765D01*
X168852162Y-78229406D01*
X168815679Y-78235111D01*
X168779307Y-78240880D01*
X168743049Y-78246710D01*
X168706905Y-78252603D01*
X168670874Y-78258559D01*
X168634960Y-78264575D01*
X168599161Y-78270653D01*
X168563479Y-78276792D01*
X168527914Y-78282992D01*
X168492469Y-78289251D01*
X168457142Y-78295570D01*
X168421936Y-78301949D01*
X168386851Y-78308387D01*
X168351888Y-78314883D01*
X168317048Y-78321437D01*
X168282331Y-78328049D01*
X168247740Y-78334718D01*
X168213275Y-78341443D01*
X168178936Y-78348225D01*
X168144725Y-78355063D01*
X168110643Y-78361956D01*
X168076691Y-78368904D01*
X168042871Y-78375907D01*
X168009182Y-78382963D01*
X167975627Y-78390072D01*
X167942207Y-78397234D01*
X167908922Y-78404449D01*
X167875775Y-78411715D01*
X167842765Y-78419032D01*
X167809896Y-78426399D01*
X167777167Y-78433817D01*
X167744581Y-78441283D01*
X167712138Y-78448799D01*
X167679840Y-78456362D01*
X167647689Y-78463972D01*
X167615686Y-78471629D01*
X167583833Y-78479332D01*
X167552131Y-78487080D01*
X167520582Y-78494872D01*
X167489188Y-78502708D01*
X167457950Y-78510586D01*
X167426870Y-78518507D01*
X167395950Y-78526469D01*
X167365192Y-78534471D01*
X167334598Y-78542512D01*
X167304170Y-78550592D01*
X167273909Y-78558709D01*
X167243819Y-78566863D01*
X167213901Y-78575052D01*
X167184157Y-78583276D01*
X167154590Y-78591533D01*
X167125203Y-78599822D01*
X167095997Y-78608143D01*
X167066976Y-78616493D01*
X167038142Y-78624871D01*
X167009498Y-78633277D01*
X166981047Y-78641709D01*
X166952791Y-78650165D01*
X166924735Y-78658645D01*
X166896881Y-78667146D01*
X166869233Y-78675666D01*
X166841793Y-78684205D01*
X166814567Y-78692761D01*
X166787557Y-78701331D01*
X166760769Y-78709915D01*
X166734205Y-78718509D01*
X166707870Y-78727111D01*
X166681769Y-78735721D01*
X166655907Y-78744334D01*
X166630289Y-78752950D01*
X166604920Y-78761565D01*
X166579806Y-78770177D01*
X166554953Y-78778782D01*
X166530367Y-78787378D01*
X166506054Y-78795962D01*
X166482023Y-78804530D01*
X166458279Y-78813078D01*
X166434832Y-78821604D01*
X166411690Y-78830102D01*
X166388862Y-78838568D01*
X166366358Y-78846997D01*
X166344189Y-78855385D01*
X166322365Y-78863725D01*
X166300901Y-78872011D01*
X166279808Y-78880238D01*
X166259103Y-78888396D01*
X166238801Y-78896480D01*
X166218921Y-78904479D01*
X166199482Y-78912383D01*
X166180509Y-78920182D01*
X166162025Y-78927863D01*
X166144061Y-78935410D01*
X166126650Y-78942809D01*
X166109832Y-78950038D01*
X166093653Y-78957074D01*
X166078171Y-78963889D01*
X166063455Y-78970448D01*
X166049597Y-78976705D01*
X166036716Y-78982599D01*
X166024982Y-78988046D01*
X166014656Y-78992913D01*
X166006198Y-78996967D01*
X166000000Y-79000000D01*
X173000000Y-86000000D02*
X172983598Y-85999990D01*
X172967257Y-85999960D01*
X172950974Y-85999910D01*
X172934752Y-85999841D01*
X172918589Y-85999752D01*
X172902486Y-85999643D01*
X172886442Y-85999514D01*
X172870457Y-85999366D01*
X172854531Y-85999199D01*
X172838664Y-85999012D01*
X172822855Y-85998806D01*
X172807106Y-85998581D01*
X172791415Y-85998337D01*
X172775782Y-85998073D01*
X172760208Y-85997791D01*
X172744692Y-85997490D01*
X172729234Y-85997170D01*
X172713834Y-85996831D01*
X172698491Y-85996473D01*
X172683207Y-85996097D01*
X172667980Y-85995702D01*
X172652810Y-85995289D01*
X172637698Y-85994857D01*
X172622643Y-85994408D01*
X172607645Y-85993939D01*
X172592705Y-85993453D01*
X172577821Y-85992948D01*
X172562994Y-85992426D01*
X172548223Y-85991885D01*
X172533509Y-85991327D01*
X172518851Y-85990750D01*
X172504250Y-85990156D01*
X172489704Y-85989545D01*
X172475215Y-85988915D01*
X172460782Y-85988268D01*
X172446404Y-85987604D01*
X172432082Y-85986922D01*
X172417816Y-85986223D01*
X172403605Y-85985507D01*
X172389449Y-85984773D01*
X172375348Y-85984022D01*
X172361303Y-85983254D01*
X172347312Y-85982470D01*
X172333377Y-85981668D01*
X172319496Y-85980849D01*
X172305670Y-85980014D01*
X172291897Y-85979162D01*
X172278180Y-85978293D01*
X172264516Y-85977408D01*
X172250908Y-85976506D01*
X172237352Y-85975588D01*
X172223851Y-85974654D01*
X172210403Y-85973703D01*
X172197009Y-85972736D01*
X172183668Y-85971753D01*
X172170382Y-85970753D01*
X172157147Y-85969738D01*
X172143967Y-85968707D01*
X172130839Y-85967660D01*
X172117765Y-85966597D01*
X172104742Y-85965518D01*
X172091774Y-85964424D01*
X172078856Y-85963314D01*
X172065993Y-85962189D01*
X172053180Y-85961048D01*
X172040421Y-85959892D01*
X172027713Y-85958720D01*
X172015058Y-85957533D01*
X172002453Y-85956331D01*
X171989902Y-85955114D01*
X171977401Y-85953882D01*
X171964952Y-85952635D01*
X171952554Y-85951373D01*
X171940208Y-85950096D01*
X171927913Y-85948805D01*
X171915669Y-85947498D01*
X171903475Y-85946177D01*
X171891333Y-85944842D01*
X171879241Y-85943492D01*
X171867200Y-85942127D01*
X171855209Y-85940748D01*
X171843269Y-85939355D01*
X171831378Y-85937948D01*
X171819538Y-85936526D01*
X171807748Y-85935090D01*
X171796008Y-85933641D01*
X171784317Y-85932177D01*
X171772676Y-85930700D01*
X171761084Y-85929208D01*
X171749543Y-85927703D01*
X171738049Y-85926184D01*
X171726606Y-85924652D01*
X171715211Y-85923105D01*
X171703866Y-85921546D01*
X171692568Y-85919973D01*
X171681320Y-85918387D01*
X171670120Y-85916787D01*
X171658969Y-85915174D01*
X171647866Y-85913548D01*
X171636812Y-85911909D01*
X171625805Y-85910257D01*
X171614847Y-85908591D01*
X171603935Y-85906913D01*
X171593073Y-85905222D01*
X171582257Y-85903519D01*
X171571490Y-85901802D01*
X171560769Y-85900073D01*
X171550097Y-85898332D01*
X171539470Y-85896577D01*
X171528892Y-85894811D01*
X171518359Y-85893032D01*
X171507875Y-85891240D01*
X171497436Y-85889437D01*
X171487045Y-85887621D01*
X171476699Y-85885793D01*
X171466401Y-85883953D01*
X171456147Y-85882101D01*
X171445942Y-85880237D01*
X171435781Y-85878361D01*
X171425667Y-85876474D01*
X171415597Y-85874574D01*
X171405575Y-85872663D01*
X171395597Y-85870740D01*
X171385666Y-85868806D01*
X171375779Y-85866861D01*
X171365938Y-85864904D01*
X171356141Y-85862935D01*
X171346391Y-85860955D01*
X171336683Y-85858964D01*
X171327023Y-85856962D01*
X171317405Y-85854948D01*
X171307834Y-85852924D01*
X171298305Y-85850889D01*
X171288822Y-85848842D01*
X171279382Y-85846785D01*
X171269988Y-85844717D01*
X171260636Y-85842638D01*
X171251329Y-85840549D01*
X171242065Y-85838449D01*
X171232846Y-85836338D01*
X171223668Y-85834217D01*
X171214536Y-85832086D01*
X171205446Y-85829944D01*
X171196400Y-85827792D01*
X171187396Y-85825629D01*
X171178437Y-85823457D01*
X171169518Y-85821274D01*
X171160644Y-85819081D01*
X171151811Y-85816878D01*
X171143023Y-85814665D01*
X171134274Y-85812442D01*
X171125571Y-85810210D01*
X171116907Y-85807967D01*
X171108288Y-85805716D01*
X171099708Y-85803454D01*
X171091173Y-85801183D01*
X171082676Y-85798902D01*
X171074224Y-85796612D01*
X171065811Y-85794312D01*
X171057442Y-85792003D01*
X171049112Y-85789684D01*
X171040826Y-85787357D01*
X171032578Y-85785020D01*
X171024373Y-85782675D01*
X171016207Y-85780320D01*
X171008085Y-85777956D01*
X171000000Y-85775583D01*
X170991958Y-85773202D01*
X170983955Y-85770811D01*
X170975994Y-85768412D01*
X170968071Y-85766003D01*
X170960191Y-85763587D01*
X170952347Y-85761162D01*
X170944547Y-85758728D01*
X170936784Y-85756286D01*
X170929063Y-85753835D01*
X170921379Y-85751376D01*
X170913737Y-85748909D01*
X170906131Y-85746433D01*
X170898568Y-85743950D01*
X170891041Y-85741457D01*
X170883556Y-85738958D01*
X170876107Y-85736449D01*
X170868700Y-85733934D01*
X170861329Y-85731410D01*
X170853999Y-85728878D01*
X170846704Y-85726338D01*
X170839452Y-85723792D01*
X170832234Y-85721236D01*
X170825058Y-85718674D01*
X170817916Y-85716103D01*
X170810816Y-85713526D01*
X170803750Y-85710941D01*
X170796725Y-85708349D01*
X170789735Y-85705748D01*
X170782786Y-85703142D01*
X170775870Y-85700527D01*
X170768996Y-85697906D01*
X170762155Y-85695276D01*
X170755355Y-85692641D01*
X170748588Y-85689998D01*
X170741862Y-85687348D01*
X170735169Y-85684691D01*
X170728517Y-85682028D01*
X170721897Y-85679357D01*
X170715318Y-85676680D01*
X170708771Y-85673996D01*
X170702265Y-85671306D01*
X170695790Y-85668608D01*
X170689356Y-85665905D01*
X170682954Y-85663194D01*
X170676592Y-85660478D01*
X170670261Y-85657754D01*
X170663970Y-85655026D01*
X170657711Y-85652289D01*
X170651491Y-85649548D01*
X170645303Y-85646799D01*
X170639154Y-85644046D01*
X170633036Y-85641285D01*
X170626958Y-85638519D01*
X170620910Y-85635746D01*
X170614901Y-85632969D01*
X170608923Y-85630184D01*
X170602984Y-85627395D01*
X170597075Y-85624598D01*
X170591205Y-85621798D01*
X170585365Y-85618990D01*
X170579563Y-85616178D01*
X170573792Y-85613359D01*
X170568059Y-85610536D01*
X170562355Y-85607706D01*
X170556690Y-85604872D01*
X170551054Y-85602031D01*
X170545457Y-85599187D01*
X170539888Y-85596335D01*
X170534358Y-85593481D01*
X170528856Y-85590618D01*
X170523393Y-85587754D01*
X170517958Y-85584881D01*
X170512560Y-85582006D01*
X170507191Y-85579124D01*
X170501860Y-85576239D01*
X170496557Y-85573347D01*
X170491291Y-85570452D01*
X170486054Y-85567550D01*
X170480853Y-85564646D01*
X170475681Y-85561735D01*
X170470545Y-85558822D01*
X170465437Y-85555901D01*
X170460366Y-85552979D01*
X170455322Y-85550049D01*
X170450315Y-85547118D01*
X170445336Y-85544179D01*
X170440392Y-85541239D01*
X170435476Y-85538292D01*
X170430596Y-85535344D01*
X170425743Y-85532388D01*
X170420927Y-85529431D01*
X170416136Y-85526467D01*
X170411382Y-85523502D01*
X170406654Y-85520530D01*
X170401963Y-85517558D01*
X170397297Y-85514577D01*
X170392667Y-85511597D01*
X170388063Y-85508609D01*
X170383495Y-85505621D01*
X170378952Y-85502626D01*
X170374446Y-85499630D01*
X170369964Y-85496627D01*
X170365518Y-85493625D01*
X170361097Y-85490615D01*
X170356712Y-85487605D01*
X170352351Y-85484588D01*
X170348026Y-85481572D01*
X170343726Y-85478548D01*
X170339460Y-85475525D01*
X170335219Y-85472495D01*
X170331014Y-85469465D01*
X170326832Y-85466428D01*
X170322686Y-85463393D01*
X170314476Y-85457308D01*
X170306383Y-85451211D01*
X170298407Y-85445103D01*
X170290547Y-85438983D01*
X170282803Y-85432853D01*
X170275173Y-85426712D01*
X170267657Y-85420561D01*
X170260254Y-85414400D01*
X170252965Y-85408230D01*
X170245788Y-85402052D01*
X170238723Y-85395864D01*
X170231768Y-85389669D01*
X170224925Y-85383465D01*
X170218191Y-85377255D01*
X170211567Y-85371037D01*
X170205052Y-85364813D01*
X170198646Y-85358583D01*
X170192347Y-85352347D01*
X170186156Y-85346106D01*
X170180071Y-85339859D01*
X170174093Y-85333609D01*
X170168221Y-85327354D01*
X170162454Y-85321096D01*
X170156793Y-85314835D01*
X170151236Y-85308572D01*
X170145783Y-85302306D01*
X170140433Y-85296039D01*
X170135187Y-85289771D01*
X170130044Y-85283502D01*
X170125003Y-85277233D01*
X170120065Y-85270965D01*
X170115228Y-85264698D01*
X170110492Y-85258433D01*
X170105858Y-85252170D01*
X170101324Y-85245911D01*
X170096891Y-85239655D01*
X170092558Y-85233404D01*
X170088325Y-85227158D01*
X170084191Y-85220919D01*
X170080157Y-85214686D01*
X170076222Y-85208461D01*
X170072386Y-85202244D01*
X170068649Y-85196038D01*
X170065010Y-85189842D01*
X170061470Y-85183657D01*
X170058028Y-85177486D01*
X170054684Y-85171329D01*
X170051438Y-85165187D01*
X170048290Y-85159062D01*
X170045241Y-85152956D01*
X170042289Y-85146869D01*
X170039435Y-85140804D01*
X170036678Y-85134762D01*
X170034020Y-85128745D01*
X170031460Y-85122756D01*
X170028998Y-85116797D01*
X170026634Y-85110871D01*
X170024368Y-85104979D01*
X170022201Y-85099125D01*
X170020132Y-85093313D01*
X170018163Y-85087546D01*
X170016292Y-85081828D01*
X170014521Y-85076163D01*
X170012850Y-85070557D01*
X170011278Y-85065015D01*
X170009807Y-85059543D01*
X170008437Y-85054149D01*
X170007168Y-85048841D01*
X170006001Y-85043628D01*
X170004937Y-85038523D01*
X170003974Y-85033538D01*
X170003116Y-85028690D01*
X170002361Y-85023998D01*
X170001711Y-85019488D01*
X170001165Y-85015194D01*
X170000725Y-85011160D01*
X170000391Y-85007452D01*
X170000162Y-85004175D01*
X170000035Y-85001526D01*
X170000000Y-85000000D01*
X174300000Y-86300000D02*
X174294198Y-86323372D01*
X174288477Y-86346750D01*
X174282837Y-86370131D01*
X174277277Y-86393518D01*
X174271799Y-86416910D01*
X174266401Y-86440306D01*
X174261083Y-86463709D01*
X174255846Y-86487116D01*
X174250689Y-86510530D01*
X174245613Y-86533949D01*
X174240617Y-86557375D01*
X174235701Y-86580807D01*
X174230865Y-86604245D01*
X174226109Y-86627690D01*
X174221432Y-86651143D01*
X174216836Y-86674602D01*
X174212319Y-86698069D01*
X174207882Y-86721544D01*
X174203524Y-86745027D01*
X174199246Y-86768518D01*
X174195047Y-86792018D01*
X174190927Y-86815527D01*
X174186887Y-86839045D01*
X174182926Y-86862573D01*
X174179043Y-86886111D01*
X174175240Y-86909660D01*
X174171515Y-86933219D01*
X174167870Y-86956790D01*
X174164303Y-86980373D01*
X174160814Y-87003968D01*
X174157405Y-87027576D01*
X174154073Y-87051197D01*
X174150820Y-87074833D01*
X174147646Y-87098482D01*
X174144549Y-87122147D01*
X174141531Y-87145828D01*
X174138591Y-87169526D01*
X174135729Y-87193241D01*
X174132944Y-87216974D01*
X174130238Y-87240726D01*
X174127609Y-87264499D01*
X174125058Y-87288292D01*
X174122585Y-87312108D01*
X174120189Y-87335946D01*
X174117870Y-87359809D01*
X174115629Y-87383698D01*
X174113465Y-87407614D01*
X174111378Y-87431558D01*
X174109369Y-87455532D01*
X174107436Y-87479538D01*
X174105580Y-87503578D01*
X174103802Y-87527654D01*
X174102100Y-87551767D01*
X174100474Y-87575920D01*
X174098926Y-87600116D01*
X174097454Y-87624357D01*
X174096058Y-87648647D01*
X174094739Y-87672988D01*
X174093497Y-87697384D01*
X174092331Y-87721839D01*
X174091241Y-87746357D01*
X174090227Y-87770942D01*
X174089290Y-87795601D01*
X174088429Y-87820339D01*
X174087644Y-87845161D01*
X174086935Y-87870075D01*
X174086303Y-87895090D01*
X174085747Y-87920213D01*
X174085267Y-87945455D01*
X174084864Y-87970827D01*
X174084538Y-87996342D01*
X174084288Y-88022016D01*
X174084115Y-88047864D01*
X174084020Y-88073907D01*
X174084003Y-88100169D01*
X174084064Y-88126677D01*
X174084205Y-88153464D01*
X174084425Y-88180571D01*
X174084727Y-88208046D01*
X174085111Y-88235952D01*
X174085581Y-88264367D01*
X174086138Y-88293393D01*
X174086788Y-88323170D01*
X174087535Y-88353890D01*
X174088388Y-88385838D01*
X174089362Y-88419464D01*
X174090483Y-88455550D01*
X174091802Y-88495710D01*
X174093471Y-88544508D01*
X174093923Y-88557569D01*
X174095122Y-88592292D01*
X174096250Y-88625774D01*
X174097281Y-88658005D01*
X174097751Y-88673648D01*
X174098186Y-88688973D01*
X174098583Y-88703981D01*
X174098938Y-88718668D01*
X174099248Y-88733034D01*
X174099510Y-88747078D01*
X174099719Y-88760798D01*
X174099873Y-88774192D01*
X174099968Y-88787260D01*
X174100000Y-88800000D01*
X180000000Y-85000000D02*
X179992479Y-85007507D01*
X179984958Y-85014986D01*
X179977441Y-85022432D01*
X179969924Y-85029850D01*
X179962412Y-85037235D01*
X179954900Y-85044593D01*
X179947392Y-85051918D01*
X179939884Y-85059215D01*
X179932381Y-85066481D01*
X179924877Y-85073718D01*
X179917377Y-85080924D01*
X179909877Y-85088102D01*
X179902381Y-85095249D01*
X179894885Y-85102369D01*
X179887393Y-85109457D01*
X179879901Y-85116518D01*
X179872412Y-85123548D01*
X179864923Y-85130550D01*
X179857438Y-85137523D01*
X179849952Y-85144467D01*
X179842470Y-85151382D01*
X179834987Y-85158270D01*
X179827508Y-85165127D01*
X179820028Y-85171958D01*
X179812552Y-85178758D01*
X179805075Y-85185532D01*
X179797601Y-85192276D01*
X179790127Y-85198994D01*
X179782656Y-85205682D01*
X179775184Y-85212344D01*
X179767715Y-85218977D01*
X179760246Y-85225583D01*
X179752779Y-85232160D01*
X179745311Y-85238711D01*
X179737846Y-85245233D01*
X179730381Y-85251729D01*
X179722918Y-85258197D01*
X179715454Y-85264639D01*
X179707993Y-85271052D01*
X179700531Y-85277440D01*
X179693071Y-85283800D01*
X179685610Y-85290133D01*
X179678151Y-85296439D01*
X179670692Y-85302720D01*
X179663234Y-85308973D01*
X179655776Y-85315200D01*
X179648319Y-85321400D01*
X179640861Y-85327574D01*
X179633405Y-85333722D01*
X179625948Y-85339844D01*
X179618493Y-85345939D01*
X179611037Y-85352009D01*
X179603581Y-85358052D01*
X179596125Y-85364070D01*
X179588670Y-85370062D01*
X179581214Y-85376029D01*
X179573759Y-85381969D01*
X179566303Y-85387885D01*
X179558848Y-85393775D01*
X179551392Y-85399640D01*
X179543936Y-85405479D01*
X179536480Y-85411293D01*
X179529024Y-85417082D01*
X179521567Y-85422846D01*
X179514109Y-85428585D01*
X179506652Y-85434299D01*
X179499193Y-85439988D01*
X179491735Y-85445653D01*
X179484275Y-85451293D01*
X179476815Y-85456908D01*
X179469355Y-85462499D01*
X179461893Y-85468066D01*
X179454431Y-85473608D01*
X179446968Y-85479126D01*
X179439504Y-85484619D01*
X179432040Y-85490089D01*
X179424574Y-85495534D01*
X179417107Y-85500956D01*
X179409639Y-85506353D01*
X179402170Y-85511727D01*
X179394700Y-85517077D01*
X179387228Y-85522403D01*
X179379755Y-85527706D01*
X179372282Y-85532985D01*
X179364806Y-85538240D01*
X179357329Y-85543472D01*
X179349851Y-85548681D01*
X179342371Y-85553867D01*
X179334889Y-85559029D01*
X179327406Y-85564168D01*
X179319921Y-85569285D01*
X179312435Y-85574377D01*
X179304946Y-85579448D01*
X179297456Y-85584495D01*
X179289963Y-85589520D01*
X179282469Y-85594521D01*
X179274973Y-85599500D01*
X179267475Y-85604457D01*
X179259974Y-85609391D01*
X179252472Y-85614302D01*
X179244966Y-85619191D01*
X179237460Y-85624058D01*
X179229950Y-85628903D01*
X179222438Y-85633724D01*
X179214923Y-85638525D01*
X179207407Y-85643302D01*
X179199887Y-85648059D01*
X179192365Y-85652792D01*
X179184840Y-85657504D01*
X179177313Y-85662194D01*
X179169782Y-85666863D01*
X179162249Y-85671509D01*
X179154712Y-85676135D01*
X179147174Y-85680737D01*
X179139631Y-85685320D01*
X179132086Y-85689879D01*
X179124537Y-85694419D01*
X179116986Y-85698936D01*
X179109430Y-85703432D01*
X179101873Y-85707907D01*
X179094310Y-85712361D01*
X179086746Y-85716793D01*
X179071605Y-85725595D01*
X179056449Y-85734313D01*
X179041279Y-85742947D01*
X179026092Y-85751498D01*
X179010890Y-85759967D01*
X178995671Y-85768354D01*
X178980435Y-85776658D01*
X178965181Y-85784882D01*
X178949910Y-85793024D01*
X178934619Y-85801086D01*
X178919309Y-85809068D01*
X178903980Y-85816970D01*
X178888630Y-85824792D01*
X178873259Y-85832536D01*
X178857867Y-85840201D01*
X178842453Y-85847787D01*
X178827016Y-85855296D01*
X178811556Y-85862727D01*
X178796072Y-85870081D01*
X178780564Y-85877358D01*
X178765031Y-85884558D01*
X178749472Y-85891682D01*
X178733888Y-85898731D01*
X178718276Y-85905703D01*
X178702637Y-85912601D01*
X178686970Y-85919424D01*
X178671274Y-85926172D01*
X178655549Y-85932845D01*
X178639793Y-85939445D01*
X178624007Y-85945971D01*
X178608190Y-85952423D01*
X178592341Y-85958803D01*
X178576458Y-85965109D01*
X178560543Y-85971343D01*
X178544593Y-85977504D01*
X178528608Y-85983593D01*
X178512587Y-85989610D01*
X178496530Y-85995556D01*
X178480436Y-86001430D01*
X178464304Y-86007233D01*
X178448133Y-86012965D01*
X178431923Y-86018626D01*
X178415672Y-86024216D01*
X178399381Y-86029737D01*
X178383047Y-86035187D01*
X178366670Y-86040567D01*
X178350250Y-86045878D01*
X178333786Y-86051119D01*
X178317275Y-86056290D01*
X178300719Y-86061393D01*
X178284115Y-86066426D01*
X178267464Y-86071390D01*
X178250763Y-86076286D01*
X178234012Y-86081113D01*
X178217210Y-86085872D01*
X178200356Y-86090562D01*
X178183450Y-86095184D01*
X178166489Y-86099739D01*
X178149473Y-86104225D01*
X178132401Y-86108643D01*
X178115272Y-86112994D01*
X178098085Y-86117277D01*
X178080838Y-86121492D01*
X178063530Y-86125640D01*
X178046161Y-86129721D01*
X178028729Y-86133735D01*
X178011233Y-86137681D01*
X177993672Y-86141560D01*
X177976044Y-86145372D01*
X177958348Y-86149117D01*
X177940583Y-86152795D01*
X177922747Y-86156406D01*
X177904840Y-86159950D01*
X177886859Y-86163427D01*
X177868804Y-86166837D01*
X177850672Y-86170181D01*
X177832463Y-86173457D01*
X177814174Y-86176667D01*
X177795805Y-86179809D01*
X177777353Y-86182885D01*
X177758818Y-86185893D01*
X177740196Y-86188835D01*
X177721487Y-86191710D01*
X177702689Y-86194517D01*
X177683801Y-86197258D01*
X177664819Y-86199931D01*
X177645742Y-86202537D01*
X177626569Y-86205075D01*
X177607297Y-86207546D01*
X177587925Y-86209950D01*
X177568449Y-86212285D01*
X177548869Y-86214553D01*
X177529181Y-86216753D01*
X177509383Y-86218885D01*
X177489474Y-86220948D01*
X177469450Y-86222943D01*
X177449309Y-86224870D01*
X177429049Y-86226728D01*
X177408666Y-86228516D01*
X177388158Y-86230236D01*
X177367522Y-86231886D01*
X177346756Y-86233467D01*
X177325855Y-86234978D01*
X177304818Y-86236418D01*
X177283640Y-86237789D01*
X177262318Y-86239088D01*
X177240849Y-86240317D01*
X177219229Y-86241474D01*
X177197454Y-86242559D01*
X177175520Y-86243573D01*
X177153424Y-86244514D01*
X177131160Y-86245383D01*
X177108725Y-86246178D01*
X177086114Y-86246900D01*
X177063322Y-86247548D01*
X177040344Y-86248121D01*
X177017174Y-86248619D01*
X176993808Y-86249041D01*
X176970238Y-86249388D01*
X176946461Y-86249657D01*
X176922468Y-86249850D01*
X176898254Y-86249964D01*
X176873810Y-86250000D01*
X176849131Y-86249956D01*
X176824208Y-86249832D01*
X176799033Y-86249628D01*
X176773597Y-86249341D01*
X176747892Y-86248971D01*
X176721906Y-86248518D01*
X176695631Y-86247980D01*
X176669055Y-86247357D01*
X176642166Y-86246646D01*
X176614951Y-86245847D01*
X176587399Y-86244958D01*
X176559493Y-86243978D01*
X176531219Y-86242906D01*
X176502560Y-86241739D01*
X176473498Y-86240476D01*
X176444014Y-86239115D01*
X176414087Y-86237655D01*
X176383693Y-86236091D01*
X176352809Y-86234423D01*
X176321406Y-86232647D01*
X176289453Y-86230761D01*
X176256919Y-86228760D01*
X176223765Y-86226642D01*
X176189950Y-86224402D01*
X176155427Y-86222036D01*
X176120145Y-86219538D01*
X176084043Y-86216902D01*
X176047052Y-86214123D01*
X176009094Y-86211191D01*
X175970076Y-86208098D01*
X175929889Y-86204833D01*
X175888402Y-86201383D01*
X175845457Y-86197733D01*
X175800858Y-86193863D01*
X175754359Y-86189750D01*
X175705640Y-86185361D01*
X175654274Y-86180656D01*
X175599665Y-86175575D01*
X175540937Y-86170034D01*
X175476695Y-86163895D01*
X175404445Y-86156916D01*
X175318764Y-86148567D01*
X175215390Y-86138439D01*
X175087365Y-86125902D01*
X175022882Y-86119623D01*
X174958080Y-86113357D01*
X174892956Y-86107116D01*
X174860272Y-86104010D01*
X174827506Y-86100916D01*
X174794658Y-86097836D01*
X174761727Y-86094770D01*
X174728713Y-86091722D01*
X174695616Y-86088693D01*
X174662434Y-86085685D01*
X174629169Y-86082698D01*
X174595818Y-86079736D01*
X174562381Y-86076800D01*
X174528859Y-86073892D01*
X174495251Y-86071013D01*
X174461556Y-86068165D01*
X174427774Y-86065350D01*
X174393904Y-86062570D01*
X174359947Y-86059826D01*
X174325901Y-86057121D01*
X174291766Y-86054455D01*
X174257542Y-86051831D01*
X174223228Y-86049251D01*
X174188823Y-86046716D01*
X174154329Y-86044229D01*
X174119743Y-86041790D01*
X174085065Y-86039401D01*
X174050296Y-86037065D01*
X174015434Y-86034783D01*
X173980479Y-86032557D01*
X173945431Y-86030388D01*
X173910290Y-86028279D01*
X173875054Y-86026231D01*
X173839723Y-86024246D01*
X173804298Y-86022326D01*
X173768777Y-86020472D01*
X173733160Y-86018686D01*
X173697447Y-86016970D01*
X173661637Y-86015326D01*
X173625729Y-86013755D01*
X173607739Y-86012998D01*
X173589724Y-86012260D01*
X173571685Y-86011541D01*
X173553621Y-86010841D01*
X173535533Y-86010161D01*
X173517420Y-86009501D01*
X173499282Y-86008861D01*
X173481119Y-86008242D01*
X173462931Y-86007643D01*
X173444719Y-86007065D01*
X173426481Y-86006508D01*
X173408219Y-86005972D01*
X173389931Y-86005458D01*
X173371618Y-86004965D01*
X173353280Y-86004494D01*
X173334917Y-86004045D01*
X173316529Y-86003619D01*
X173298115Y-86003215D01*
X173279676Y-86002834D01*
X173261211Y-86002476D01*
X173242721Y-86002141D01*
X173224205Y-86001830D01*
X173205663Y-86001542D01*
X173187096Y-86001278D01*
X173168503Y-86001038D01*
X173149885Y-86000823D01*
X173131240Y-86000632D01*
X173112570Y-86000465D01*
X173093873Y-86000324D01*
X173075151Y-86000208D01*
X173056402Y-86000117D01*
X173037628Y-86000052D01*
X173018827Y-86000013D01*
X173000000Y-86000000D01*
X180200000Y-89100000D02*
X180103084Y-89093284D01*
X180006303Y-89086658D01*
X179909660Y-89080121D01*
X179813156Y-89073673D01*
X179716794Y-89067315D01*
X179620576Y-89061046D01*
X179524504Y-89054866D01*
X179428582Y-89048776D01*
X179332812Y-89042775D01*
X179237195Y-89036864D01*
X179141735Y-89031043D01*
X179046435Y-89025311D01*
X178951296Y-89019669D01*
X178856322Y-89014116D01*
X178761516Y-89008653D01*
X178666879Y-89003279D01*
X178572415Y-88997996D01*
X178478128Y-88992802D01*
X178384019Y-88987697D01*
X178290092Y-88982682D01*
X178196349Y-88977757D01*
X178102795Y-88972922D01*
X178009431Y-88968176D01*
X177916262Y-88963520D01*
X177823290Y-88958953D01*
X177730519Y-88954476D01*
X177637952Y-88950089D01*
X177545593Y-88945791D01*
X177453445Y-88941583D01*
X177361511Y-88937465D01*
X177269796Y-88933436D01*
X177178302Y-88929496D01*
X177087035Y-88925646D01*
X176995997Y-88921886D01*
X176905192Y-88918214D01*
X176814625Y-88914632D01*
X176724299Y-88911140D01*
X176634219Y-88907736D01*
X176544389Y-88904422D01*
X176454813Y-88901196D01*
X176365496Y-88898060D01*
X176276442Y-88895013D01*
X176187655Y-88892054D01*
X176099140Y-88889184D01*
X176010903Y-88886403D01*
X175922947Y-88883710D01*
X175835278Y-88881106D01*
X175747901Y-88878590D01*
X175660822Y-88876162D01*
X175574044Y-88873823D01*
X175487574Y-88871571D01*
X175401417Y-88869407D01*
X175315579Y-88867330D01*
X175230065Y-88865341D01*
X175144882Y-88863440D01*
X175060035Y-88861625D01*
X174975530Y-88859897D01*
X174891374Y-88858256D01*
X174807573Y-88856702D01*
X174724133Y-88855234D01*
X174641062Y-88853852D01*
X174558365Y-88852555D01*
X174476051Y-88851344D01*
X174394125Y-88850219D01*
X174312596Y-88849178D01*
X174231471Y-88848222D01*
X174150757Y-88847351D01*
X174070463Y-88846563D01*
X173990596Y-88845859D01*
X173911164Y-88845239D01*
X173832175Y-88844702D01*
X173753639Y-88844247D01*
X173675564Y-88843874D01*
X173597959Y-88843583D01*
X173520833Y-88843373D01*
X173444195Y-88843244D01*
X173368055Y-88843195D01*
X173292423Y-88843227D01*
X173217309Y-88843337D01*
X173142723Y-88843526D01*
X173068676Y-88843793D01*
X172995178Y-88844137D01*
X172922240Y-88844559D01*
X172849874Y-88845056D01*
X172778091Y-88845629D01*
X172706903Y-88846277D01*
X172636323Y-88846998D01*
X172566361Y-88847792D01*
X172497031Y-88848659D01*
X172428346Y-88849597D01*
X172394222Y-88850093D01*
X172360318Y-88850605D01*
X172326529Y-88851136D01*
X172292962Y-88851683D01*
X172259514Y-88852248D01*
X172226290Y-88852829D01*
X172193191Y-88853428D01*
X172160318Y-88854043D01*
X172127574Y-88854675D01*
X172095058Y-88855322D01*
X172062678Y-88855987D01*
X172030526Y-88856667D01*
X171998516Y-88857364D01*
X171966737Y-88858076D01*
X171935104Y-88858804D01*
X171903704Y-88859547D01*
X171872457Y-88860306D01*
X171841444Y-88861080D01*
X171810590Y-88861869D01*
X171779973Y-88862672D01*
X171749520Y-88863491D01*
X171719305Y-88864323D01*
X171689261Y-88865170D01*
X171659458Y-88866031D01*
X171629830Y-88866906D01*
X171600446Y-88867794D01*
X171571244Y-88868697D01*
X171542287Y-88869611D01*
X171513519Y-88870540D01*
X171484997Y-88871481D01*
X171456671Y-88872435D01*
X171428592Y-88873400D01*
X171400717Y-88874379D01*
X171373090Y-88875369D01*
X171345674Y-88876371D01*
X171318508Y-88877384D01*
X171291559Y-88878408D01*
X171264862Y-88879443D01*
X171238389Y-88880489D01*
X171212169Y-88881545D01*
X171186181Y-88882612D01*
X171160447Y-88883688D01*
X171134952Y-88884774D01*
X171109712Y-88885869D01*
X171084718Y-88886974D01*
X171059980Y-88888087D01*
X171035496Y-88889208D01*
X171011269Y-88890338D01*
X170987303Y-88891475D01*
X170963594Y-88892620D01*
X170940154Y-88893772D01*
X170916972Y-88894931D01*
X170894066Y-88896097D01*
X170871418Y-88897269D01*
X170849053Y-88898446D01*
X170826947Y-88899630D01*
X170805131Y-88900818D01*
X170783573Y-88902012D01*
X170762313Y-88903210D01*
X170741311Y-88904412D01*
X170720613Y-88905618D01*
X170700172Y-88906828D01*
X170680043Y-88908040D01*
X170660171Y-88909256D01*
X170640616Y-88910473D01*
X170621317Y-88911694D01*
X170602341Y-88912915D01*
X170583621Y-88914139D01*
X170565229Y-88915361D01*
X170547091Y-88916586D01*
X170529288Y-88917809D01*
X170511737Y-88919035D01*
X170494525Y-88920257D01*
X170477563Y-88921481D01*
X170460945Y-88922700D01*
X170444575Y-88923921D01*
X170428552Y-88925136D01*
X170412776Y-88926353D01*
X170397350Y-88927562D01*
X170382167Y-88928773D01*
X170367338Y-88929975D01*
X170352749Y-88931178D01*
X170338515Y-88932371D01*
X170324518Y-88933565D01*
X170310878Y-88934748D01*
X170297471Y-88935931D01*
X170284421Y-88937103D01*
X170271602Y-88938274D01*
X170259139Y-88939433D01*
X170246902Y-88940590D01*
X170235021Y-88941734D01*
X170223360Y-88942877D01*
X170212055Y-88944005D01*
X170200966Y-88945132D01*
X170190229Y-88946243D01*
X170179703Y-88947352D01*
X170169526Y-88948445D01*
X170159555Y-88949535D01*
X170149928Y-88950608D01*
X170140503Y-88951679D01*
X170131416Y-88952731D01*
X170122525Y-88953781D01*
X170113968Y-88954812D01*
X170105600Y-88955840D01*
X170097559Y-88956848D01*
X170089702Y-88957853D01*
X170082164Y-88958838D01*
X170074804Y-88959819D01*
X170067755Y-88960779D01*
X170060878Y-88961737D01*
X170054304Y-88962672D01*
X170047894Y-88963604D01*
X170041778Y-88964513D01*
X170035821Y-88965420D01*
X170030147Y-88966303D01*
X170024625Y-88967184D01*
X170019377Y-88968040D01*
X170014274Y-88968894D01*
X170009434Y-88969724D01*
X170004733Y-88970550D01*
X170000283Y-88971353D01*
X169995965Y-88972152D01*
X169991888Y-88972928D01*
X169987936Y-88973700D01*
X169984213Y-88974447D01*
X169980608Y-88975192D01*
X169977221Y-88975912D01*
X169973946Y-88976629D01*
X169970876Y-88977321D01*
X169967912Y-88978010D01*
X169963076Y-88979185D01*
X180200000Y-89100000D02*
X180194014Y-89120237D01*
X180188039Y-89140716D01*
X180182077Y-89161440D01*
X180176126Y-89182411D01*
X180170189Y-89203630D01*
X180164264Y-89225100D01*
X180158353Y-89246823D01*
X180152455Y-89268800D01*
X180146572Y-89291034D01*
X180140702Y-89313527D01*
X180134848Y-89336280D01*
X180129008Y-89359295D01*
X180123184Y-89382576D01*
X180117376Y-89406123D01*
X180111584Y-89429938D01*
X180105809Y-89454025D01*
X180100050Y-89478385D01*
X180094308Y-89503019D01*
X180088585Y-89527930D01*
X180082879Y-89553121D01*
X180077191Y-89578593D01*
X180071522Y-89604348D01*
X180065873Y-89630388D01*
X180060243Y-89656716D01*
X180054633Y-89683334D01*
X180049043Y-89710243D01*
X180043473Y-89737446D01*
X180037925Y-89764945D01*
X180032399Y-89792743D01*
X180026894Y-89820841D01*
X180021411Y-89849241D01*
X180015951Y-89877946D01*
X180010515Y-89906957D01*
X180005101Y-89936278D01*
X179999712Y-89965910D01*
X179994347Y-89995855D01*
X179989007Y-90026116D01*
X179983692Y-90056694D01*
X179978402Y-90087593D01*
X179973139Y-90118814D01*
X179967902Y-90150359D01*
X179962692Y-90182231D01*
X179957509Y-90214432D01*
X179952354Y-90246964D01*
X179947227Y-90279829D01*
X179942128Y-90313030D01*
X179937059Y-90346569D01*
X179932019Y-90380449D01*
X179927009Y-90414670D01*
X179922030Y-90449237D01*
X179917081Y-90484150D01*
X179912164Y-90519413D01*
X179907278Y-90555027D01*
X179902425Y-90590996D01*
X179897604Y-90627320D01*
X179892816Y-90664003D01*
X179888062Y-90701047D01*
X179883342Y-90738454D01*
X179878656Y-90776227D01*
X179874005Y-90814368D01*
X179869390Y-90852879D01*
X179864811Y-90891762D01*
X179860268Y-90931020D01*
X179855762Y-90970656D01*
X179851293Y-91010671D01*
X179846862Y-91051068D01*
X179842469Y-91091850D01*
X179838115Y-91133018D01*
X179833800Y-91174575D01*
X179829526Y-91216524D01*
X179825291Y-91258867D01*
X179821097Y-91301606D01*
X179816944Y-91344744D01*
X179812833Y-91388283D01*
X179808764Y-91432226D01*
X179804738Y-91476574D01*
X179800755Y-91521331D01*
X179796816Y-91566499D01*
X179792921Y-91612080D01*
X179789071Y-91658076D01*
X179785266Y-91704491D01*
X179781507Y-91751326D01*
X179777794Y-91798584D01*
X179774127Y-91846268D01*
X179770508Y-91894379D01*
X179766937Y-91942921D01*
X179763414Y-91991895D01*
X179759940Y-92041305D01*
X179756516Y-92091153D01*
X179753141Y-92141440D01*
X179749816Y-92192171D01*
X179746543Y-92243346D01*
X179743321Y-92294969D01*
X179740151Y-92347043D01*
X179737033Y-92399569D01*
X179733969Y-92452550D01*
X179730958Y-92505988D01*
X179728001Y-92559887D01*
X179725099Y-92614248D01*
X179722252Y-92669075D01*
X179719461Y-92724369D01*
X179716726Y-92780133D01*
X179714048Y-92836370D01*
X179711427Y-92893082D01*
X179708864Y-92950272D01*
X179706360Y-93007942D01*
X179703915Y-93066094D01*
X179701529Y-93124732D01*
X179699203Y-93183858D01*
X179696938Y-93243474D01*
X179694734Y-93303583D01*
X179692592Y-93364188D01*
X179690512Y-93425290D01*
X179688496Y-93486893D01*
X179686542Y-93548999D01*
X179684653Y-93611611D01*
X179682828Y-93674731D01*
X179681068Y-93738362D01*
X179679374Y-93802506D01*
X179677746Y-93867166D01*
X179676185Y-93932345D01*
X179674692Y-93998045D01*
X179673266Y-94064268D01*
X179671909Y-94131018D01*
X179670621Y-94198297D01*
X179669403Y-94266107D01*
X179668255Y-94334452D01*
X179667178Y-94403333D01*
X179666172Y-94472753D01*
X179665238Y-94542716D01*
X179664377Y-94613223D01*
X179663589Y-94684278D01*
X179662874Y-94755883D01*
X179662234Y-94828040D01*
X179661669Y-94900753D01*
X179661179Y-94974023D01*
X179660766Y-95047855D01*
X179660429Y-95122250D01*
X179660169Y-95197211D01*
X179659987Y-95272741D01*
X179659883Y-95348844D01*
X179659858Y-95425520D01*
X179659913Y-95502774D01*
X179660048Y-95580608D01*
X179660264Y-95659026D01*
X179660562Y-95738029D01*
X179660941Y-95817621D01*
X179661403Y-95897805D01*
X179661948Y-95978583D01*
X179662576Y-96059960D01*
X179663289Y-96141937D01*
X179664087Y-96224519D01*
X179664971Y-96307707D01*
X179665941Y-96391506D01*
X179666998Y-96475918D01*
X179668142Y-96560947D01*
X179669374Y-96646597D01*
X179670695Y-96732870D01*
X179672105Y-96819770D01*
X179673605Y-96907301D01*
X179675195Y-96995467D01*
X179676877Y-97084271D01*
X179678650Y-97173717D01*
X179680516Y-97263809D01*
X179682475Y-97354552D01*
X179684528Y-97445950D01*
X179686676Y-97538007D01*
X179688918Y-97630727D01*
X179691256Y-97724117D01*
X179693691Y-97818180D01*
X179696223Y-97912923D01*
X179698853Y-98008350D01*
X179701581Y-98104468D01*
X179704409Y-98201282D01*
X179707336Y-98298800D01*
X179710365Y-98397028D01*
X179713495Y-98495973D01*
X179716728Y-98595644D01*
X179720064Y-98696048D01*
X179723504Y-98797195D01*
X179727049Y-98899094D01*
X179730701Y-99001756D01*
X179734459Y-99105192D01*
X179738325Y-99209414D01*
X179742300Y-99314436D01*
X179746386Y-99420272D01*
X179750583Y-99526937D01*
X179754892Y-99634451D01*
X179759316Y-99742831D01*
X179763855Y-99852100D01*
X179768511Y-99962282D01*
X179773287Y-100073403D01*
X179778183Y-100185494D01*
X179783202Y-100298588D01*
X179788346Y-100412724D01*
X179793619Y-100527946D01*
X179799022Y-100644305D01*
X179804561Y-100761859D01*
X179810237Y-100880677D01*
X179816056Y-101000836D01*
X179822024Y-101122433D01*
X179828147Y-101245579D01*
X179834432Y-101370410D01*
X179840888Y-101497092D01*
X179847528Y-101625831D01*
X179854366Y-101756887D01*
X179861420Y-101890595D01*
X179868714Y-102027396D01*
X179876284Y-102167892D01*
X179884175Y-102312935D01*
X179892459Y-102463791D01*
X179900000Y-102600000D01*
X181300000Y-102700000D02*
X181275094Y-102695696D01*
X181250225Y-102691480D01*
X181225394Y-102687350D01*
X181200605Y-102683308D01*
X181175857Y-102679353D01*
X181151152Y-102675485D01*
X181126493Y-102671705D01*
X181101881Y-102668012D01*
X181077317Y-102664407D01*
X181052804Y-102660890D01*
X181028344Y-102657460D01*
X181003938Y-102654118D01*
X180979589Y-102650864D01*
X180955299Y-102647697D01*
X180931069Y-102644619D01*
X180906903Y-102641629D01*
X180882803Y-102638726D01*
X180858770Y-102635912D01*
X180834809Y-102633186D01*
X180810921Y-102630548D01*
X180787109Y-102627998D01*
X180763376Y-102625536D01*
X180739726Y-102623162D01*
X180716161Y-102620876D01*
X180692685Y-102618679D01*
X180669301Y-102616569D01*
X180646012Y-102614548D01*
X180622823Y-102612615D01*
X180599738Y-102610769D01*
X180576761Y-102609012D01*
X180553895Y-102607342D01*
X180531147Y-102605760D01*
X180508519Y-102604265D01*
X180486019Y-102602858D01*
X180463651Y-102601538D01*
X180441420Y-102600305D01*
X180419333Y-102599160D01*
X180397397Y-102598100D01*
X180375617Y-102597127D01*
X180354002Y-102596240D01*
X180332559Y-102595439D01*
X180311297Y-102594723D01*
X180290224Y-102594093D01*
X180269349Y-102593546D01*
X180248684Y-102593083D01*
X180228240Y-102592704D01*
X180208027Y-102592407D01*
X180188061Y-102592191D01*
X180168354Y-102592056D01*
X180148924Y-102592002D01*
X180129787Y-102592025D01*
X180110963Y-102592126D01*
X180092475Y-102592302D01*
X180074345Y-102592552D01*
X180056603Y-102592874D01*
X180039280Y-102593264D01*
X180022415Y-102593721D01*
X180006049Y-102594240D01*
X179990237Y-102594817D01*
X179975042Y-102595447D01*
X179960544Y-102596122D01*
X179946848Y-102596832D01*
X179934095Y-102597566D01*
X179922489Y-102598303D01*
X179912358Y-102599012D01*
X179904314Y-102599632D01*
X179900000Y-102600000D01*
X181300000Y-102700000D02*
X181292579Y-102741879D01*
X181285248Y-102783705D01*
X181278006Y-102825480D01*
X181270855Y-102867206D01*
X181263793Y-102908884D01*
X181256819Y-102950516D01*
X181249935Y-102992103D01*
X181243138Y-103033646D01*
X181236429Y-103075148D01*
X181229807Y-103116609D01*
X181223273Y-103158032D01*
X181216825Y-103199417D01*
X181210464Y-103240767D01*
X181204188Y-103282083D01*
X181197998Y-103323367D01*
X181191894Y-103364621D01*
X181185874Y-103405845D01*
X181179940Y-103447042D01*
X181174089Y-103488214D01*
X181168323Y-103529361D01*
X181162640Y-103570486D01*
X181157041Y-103611591D01*
X181151525Y-103652678D01*
X181146092Y-103693747D01*
X181140741Y-103734802D01*
X181135473Y-103775843D01*
X181130286Y-103816873D01*
X181125182Y-103857893D01*
X181120158Y-103898905D01*
X181115216Y-103939912D01*
X181110355Y-103980916D01*
X181105574Y-104021917D01*
X181100874Y-104062919D01*
X181096253Y-104103922D01*
X181091713Y-104144930D01*
X181087252Y-104185945D01*
X181082871Y-104226968D01*
X181078569Y-104268002D01*
X181074345Y-104309048D01*
X181070201Y-104350110D01*
X181066135Y-104391188D01*
X181062147Y-104432287D01*
X181058237Y-104473407D01*
X181054406Y-104514552D01*
X181050651Y-104555723D01*
X181046975Y-104596924D01*
X181043376Y-104638156D01*
X181039853Y-104679422D01*
X181036408Y-104720725D01*
X181033040Y-104762068D01*
X181029748Y-104803453D01*
X181026533Y-104844882D01*
X181023394Y-104886360D01*
X181020332Y-104927888D01*
X181017345Y-104969469D01*
X181014435Y-105011107D01*
X181011600Y-105052804D01*
X181008841Y-105094564D01*
X181006158Y-105136390D01*
X181003551Y-105178285D01*
X181001018Y-105220252D01*
X180998561Y-105262296D01*
X180996180Y-105304418D01*
X180993874Y-105346624D01*
X180991643Y-105388917D01*
X180989487Y-105431299D01*
X180987406Y-105473777D01*
X180985400Y-105516352D01*
X180983469Y-105559030D01*
X180981614Y-105601815D01*
X180979833Y-105644711D01*
X180978128Y-105687722D01*
X180976497Y-105730854D01*
X180974942Y-105774110D01*
X180973462Y-105817496D01*
X180972057Y-105861017D01*
X180970727Y-105904678D01*
X180969473Y-105948484D01*
X180968294Y-105992441D01*
X180967191Y-106036555D01*
X180966164Y-106080831D01*
X180965213Y-106125276D01*
X180964337Y-106169896D01*
X180963538Y-106214698D01*
X180962815Y-106259688D01*
X180962169Y-106304875D01*
X180961600Y-106350264D01*
X180961107Y-106395864D01*
X180960693Y-106441683D01*
X180960355Y-106487730D01*
X180960096Y-106534012D01*
X180959916Y-106580539D01*
X180959814Y-106627321D01*
X180959791Y-106674367D01*
X180959847Y-106721689D01*
X180959984Y-106769296D01*
X180960202Y-106817200D01*
X180960500Y-106865414D01*
X180960880Y-106913949D01*
X180961343Y-106962820D01*
X180961888Y-107012041D01*
X180962517Y-107061625D01*
X180963231Y-107111589D01*
X180964030Y-107161950D01*
X180964915Y-107212725D01*
X180965888Y-107263932D01*
X180966948Y-107315593D01*
X180968098Y-107367727D01*
X180969339Y-107420358D01*
X180970672Y-107473510D01*
X180972097Y-107527210D01*
X180973618Y-107581484D01*
X180975236Y-107636364D01*
X180976951Y-107691882D01*
X180978767Y-107748073D01*
X180980686Y-107804976D01*
X180982710Y-107862634D01*
X180984841Y-107921091D01*
X180987083Y-107980399D01*
X180989438Y-108040613D01*
X180991911Y-108101795D01*
X180994505Y-108164014D01*
X180997225Y-108227346D01*
X181000076Y-108291879D01*
X181003063Y-108357710D01*
X181006194Y-108424952D01*
X181009476Y-108493733D01*
X181012918Y-108564203D01*
X181016530Y-108636537D01*
X181020324Y-108710945D01*
X181024316Y-108787675D01*
X181028523Y-108867036D01*
X181032969Y-108949409D01*
X181037682Y-109035281D01*
X181042701Y-109125292D01*
X181048077Y-109220311D01*
X181053884Y-109321575D01*
X181060234Y-109430966D01*
X181067314Y-109551606D01*
X181075480Y-109689492D01*
X181085622Y-109859570D01*
X181091937Y-109965157D01*
X181100000Y-110100000D01*
X182000000Y-82100000D02*
X181980450Y-82100039D01*
X181957464Y-82100166D01*
X181930339Y-82100396D01*
X181898098Y-82100748D01*
X181859281Y-82101252D01*
X181811462Y-82101951D01*
X181749884Y-82102927D01*
X181661610Y-82104396D01*
X181636345Y-82104822D01*
X181542249Y-82106401D01*
X181440437Y-82108061D01*
X181386720Y-82108903D01*
X181331173Y-82109746D01*
X181273828Y-82110581D01*
X181214718Y-82111402D01*
X181153876Y-82112202D01*
X181091335Y-82112975D01*
X181027128Y-82113714D01*
X180961287Y-82114411D01*
X180893845Y-82115060D01*
X180824836Y-82115655D01*
X180754292Y-82116188D01*
X180718454Y-82116429D01*
X180682245Y-82116652D01*
X180645669Y-82116857D01*
X180608729Y-82117042D01*
X180571430Y-82117206D01*
X180533776Y-82117349D01*
X180495772Y-82117470D01*
X180457420Y-82117568D01*
X180418726Y-82117641D01*
X180379693Y-82117690D01*
X180340325Y-82117714D01*
X180300628Y-82117711D01*
X180260603Y-82117681D01*
X180220257Y-82117622D01*
X180179592Y-82117535D01*
X180138614Y-82117418D01*
X180097326Y-82117270D01*
X180055731Y-82117090D01*
X180013835Y-82116878D01*
X179971642Y-82116633D01*
X179929155Y-82116354D01*
X179886379Y-82116039D01*
X179843317Y-82115689D01*
X179799974Y-82115302D01*
X179756354Y-82114878D01*
X179712461Y-82114416D01*
X179668299Y-82113914D01*
X179623873Y-82113372D01*
X179579186Y-82112789D01*
X179534242Y-82112165D01*
X179489046Y-82111497D01*
X179443601Y-82110787D01*
X179397912Y-82110032D01*
X179351983Y-82109232D01*
X179305818Y-82108386D01*
X179259421Y-82107493D01*
X179212796Y-82106552D01*
X179165947Y-82105563D01*
X179118879Y-82104524D01*
X179071595Y-82103435D01*
X179024100Y-82102295D01*
X178976398Y-82101103D01*
X178928492Y-82099859D01*
X178880387Y-82098560D01*
X178832087Y-82097207D01*
X178783596Y-82095799D01*
X178734919Y-82094334D01*
X178686058Y-82092813D01*
X178637019Y-82091233D01*
X178587806Y-82089595D01*
X178538422Y-82087897D01*
X178488872Y-82086138D01*
X178439159Y-82084319D01*
X178389289Y-82082437D01*
X178339264Y-82080492D01*
X178289090Y-82078483D01*
X178238770Y-82076410D01*
X178188308Y-82074271D01*
X178137709Y-82072065D01*
X178086976Y-82069792D01*
X178036114Y-82067451D01*
X177985126Y-82065042D01*
X177934017Y-82062562D01*
X177882792Y-82060012D01*
X177831453Y-82057390D01*
X177780005Y-82054696D01*
X177728453Y-82051928D01*
X177676800Y-82049087D01*
X177625051Y-82046170D01*
X177573209Y-82043178D01*
X177521278Y-82040109D01*
X177469264Y-82036963D01*
X177417169Y-82033738D01*
X177364998Y-82030434D01*
X177312756Y-82027050D01*
X177260445Y-82023586D01*
X177208071Y-82020039D01*
X177155637Y-82016410D01*
X177129399Y-82014564D01*
X177103148Y-82012698D01*
X177076884Y-82010810D01*
X177050607Y-82008901D01*
X177024319Y-82006971D01*
X176998019Y-82005019D01*
X176971709Y-82003046D01*
X176945388Y-82001051D01*
X176919057Y-81999035D01*
X176892717Y-81996996D01*
X176866369Y-81994936D01*
X176840012Y-81992854D01*
X176813647Y-81990750D01*
X176787276Y-81988623D01*
X176760897Y-81986474D01*
X176734513Y-81984303D01*
X176708122Y-81982109D01*
X176681727Y-81979892D01*
X176655327Y-81977653D01*
X176628922Y-81975391D01*
X176602514Y-81973106D01*
X176576103Y-81970797D01*
X176549690Y-81968466D01*
X176523274Y-81966111D01*
X176496857Y-81963733D01*
X176470439Y-81961331D01*
X176444020Y-81958906D01*
X176417601Y-81956457D01*
X176391182Y-81953984D01*
X176364765Y-81951487D01*
X176338349Y-81948966D01*
X176311935Y-81946421D01*
X176285524Y-81943852D01*
X176259116Y-81941258D01*
X176232711Y-81938640D01*
X176206310Y-81935997D01*
X176179914Y-81933330D01*
X176153523Y-81930638D01*
X176127138Y-81927920D01*
X176100758Y-81925178D01*
X176074386Y-81922411D01*
X176048020Y-81919619D01*
X176021662Y-81916801D01*
X175995313Y-81913958D01*
X175968972Y-81911089D01*
X175942640Y-81908195D01*
X175916318Y-81905275D01*
X175890006Y-81902329D01*
X175863705Y-81899357D01*
X175837415Y-81896359D01*
X175811137Y-81893335D01*
X175784871Y-81890284D01*
X175758618Y-81887208D01*
X175732379Y-81884104D01*
X175706153Y-81880974D01*
X175679941Y-81877818D01*
X175653744Y-81874634D01*
X175627563Y-81871424D01*
X175601398Y-81868187D01*
X175575248Y-81864922D01*
X175549116Y-81861631D01*
X175523001Y-81858312D01*
X175496904Y-81854965D01*
X175470826Y-81851591D01*
X175444766Y-81848189D01*
X175418726Y-81844760D01*
X175392706Y-81841303D01*
X175366707Y-81837817D01*
X175340728Y-81834304D01*
X175314771Y-81830762D01*
X175288836Y-81827192D01*
X175262923Y-81823594D01*
X175237034Y-81819967D01*
X175211168Y-81816312D01*
X175185326Y-81812628D01*
X175159509Y-81808915D01*
X175133716Y-81805173D01*
X175107950Y-81801402D01*
X175082209Y-81797602D01*
X175056495Y-81793772D01*
X175030809Y-81789914D01*
X175005150Y-81786026D01*
X174979519Y-81782108D01*
X174953917Y-81778160D01*
X174928344Y-81774183D01*
X174902801Y-81770176D01*
X174877288Y-81766139D01*
X174851805Y-81762072D01*
X174826354Y-81757974D01*
X174800935Y-81753847D01*
X174775548Y-81749688D01*
X174750194Y-81745500D01*
X174724873Y-81741280D01*
X174699586Y-81737030D01*
X174674333Y-81732749D01*
X174649115Y-81728437D01*
X174623933Y-81724095D01*
X174598786Y-81719720D01*
X174573676Y-81715315D01*
X174548602Y-81710878D01*
X174523566Y-81706410D01*
X174498568Y-81701910D01*
X174473609Y-81697379D01*
X174448688Y-81692815D01*
X174423807Y-81688220D01*
X174398966Y-81683593D01*
X174374165Y-81678933D01*
X174349405Y-81674242D01*
X174324687Y-81669518D01*
X174300011Y-81664761D01*
X174275377Y-81659972D01*
X174250786Y-81655151D01*
X174226239Y-81650296D01*
X174201736Y-81645409D01*
X174177278Y-81640489D01*
X174152864Y-81635536D01*
X174128497Y-81630549D01*
X174104175Y-81625529D01*
X174079900Y-81620476D01*
X174055672Y-81615389D01*
X174031492Y-81610269D01*
X174007360Y-81605115D01*
X173983277Y-81599927D01*
X173959243Y-81594705D01*
X173935258Y-81589450D01*
X173911324Y-81584160D01*
X173887441Y-81578835D01*
X173863609Y-81573477D01*
X173839829Y-81568084D01*
X173816100Y-81562656D01*
X173792425Y-81557194D01*
X173768803Y-81551697D01*
X173745235Y-81546165D01*
X173721721Y-81540598D01*
X173698262Y-81534996D01*
X173674859Y-81529359D01*
X173651511Y-81523686D01*
X173628220Y-81517978D01*
X173604985Y-81512235D01*
X173581808Y-81506456D01*
X173558689Y-81500641D01*
X173535628Y-81494790D01*
X173512626Y-81488903D01*
X173489684Y-81482980D01*
X173466802Y-81477022D01*
X173443980Y-81471026D01*
X173421219Y-81464995D01*
X173398520Y-81458927D01*
X173375882Y-81452822D01*
X173353308Y-81446681D01*
X173330796Y-81440503D01*
X173308348Y-81434288D01*
X173285964Y-81428036D01*
X173263644Y-81421747D01*
X173241390Y-81415420D01*
X173219201Y-81409057D01*
X173197079Y-81402655D01*
X173175023Y-81396217D01*
X173153034Y-81389740D01*
X173131113Y-81383226D01*
X173109260Y-81376674D01*
X173087475Y-81370084D01*
X173065760Y-81363456D01*
X173044115Y-81356790D01*
X173022540Y-81350086D01*
X173001035Y-81343343D01*
X172979602Y-81336561D01*
X172958241Y-81329741D01*
X172936952Y-81322883D01*
X172915735Y-81315985D01*
X172894592Y-81309049D01*
X172873523Y-81302073D01*
X172852528Y-81295058D01*
X172831608Y-81288005D01*
X172810764Y-81280911D01*
X172789995Y-81273779D01*
X172769303Y-81266606D01*
X172748687Y-81259394D01*
X172728149Y-81252143D01*
X172707689Y-81244851D01*
X172687307Y-81237519D01*
X172667004Y-81230148D01*
X172646781Y-81222736D01*
X172626638Y-81215284D01*
X172606575Y-81207791D01*
X172586593Y-81200258D01*
X172566693Y-81192684D01*
X172546875Y-81185070D01*
X172527139Y-81177414D01*
X172507486Y-81169718D01*
X172487917Y-81161981D01*
X172468432Y-81154202D01*
X172449032Y-81146383D01*
X172429716Y-81138521D01*
X172410487Y-81130619D01*
X172391343Y-81122675D01*
X172372286Y-81114689D01*
X172353316Y-81106661D01*
X172334434Y-81098591D01*
X172315640Y-81090480D01*
X172296935Y-81082326D01*
X172278319Y-81074130D01*
X172259792Y-81065892D01*
X172241356Y-81057611D01*
X172223011Y-81049288D01*
X172204757Y-81040922D01*
X172186595Y-81032513D01*
X172168525Y-81024062D01*
X172150547Y-81015567D01*
X172132663Y-81007030D01*
X172114873Y-80998449D01*
X172106014Y-80994143D01*
X172097178Y-80989825D01*
X172088365Y-80985497D01*
X172079577Y-80981158D01*
X172070812Y-80976808D01*
X172062071Y-80972447D01*
X172053354Y-80968075D01*
X172044661Y-80963692D01*
X172035993Y-80959299D01*
X172027348Y-80954894D01*
X172018728Y-80950479D01*
X172010132Y-80946052D01*
X172001560Y-80941615D01*
X171993013Y-80937166D01*
X171984490Y-80932707D01*
X171975992Y-80928236D01*
X171967518Y-80923755D01*
X171959069Y-80919262D01*
X171950645Y-80914758D01*
X171942245Y-80910244D01*
X171933871Y-80905718D01*
X171925521Y-80901181D01*
X171917197Y-80896633D01*
X171908897Y-80892074D01*
X171900623Y-80887503D01*
X171892373Y-80882922D01*
X171884149Y-80878329D01*
X171875951Y-80873726D01*
X171867777Y-80869111D01*
X171859629Y-80864484D01*
X171851507Y-80859847D01*
X171843410Y-80855198D01*
X171835339Y-80850538D01*
X171827293Y-80845867D01*
X171819274Y-80841185D01*
X171811280Y-80836491D01*
X171803312Y-80831786D01*
X171795370Y-80827070D01*
X171787454Y-80822342D01*
X171779564Y-80817603D01*
X171771700Y-80812853D01*
X171763863Y-80808091D01*
X171756051Y-80803318D01*
X171748266Y-80798534D01*
X171740508Y-80793738D01*
X171732776Y-80788930D01*
X171725070Y-80784112D01*
X171717391Y-80779282D01*
X171709739Y-80774440D01*
X171702113Y-80769587D01*
X171694515Y-80764722D01*
X171686943Y-80759846D01*
X171679398Y-80754958D01*
X171671880Y-80750059D01*
X171664389Y-80745149D01*
X171656925Y-80740226D01*
X171649488Y-80735293D01*
X171642079Y-80730347D01*
X171634697Y-80725390D01*
X171627342Y-80720422D01*
X171620015Y-80715442D01*
X171612715Y-80710450D01*
X171605442Y-80705446D01*
X171598198Y-80700431D01*
X171590981Y-80695404D01*
X171583791Y-80690366D01*
X171576630Y-80685316D01*
X171569497Y-80680254D01*
X171562391Y-80675180D01*
X171555313Y-80670095D01*
X171548264Y-80664998D01*
X171541242Y-80659889D01*
X171534249Y-80654768D01*
X171527284Y-80649636D01*
X171520348Y-80644491D01*
X171513440Y-80639335D01*
X171506560Y-80634168D01*
X171499709Y-80628988D01*
X171492886Y-80623796D01*
X171486092Y-80618593D01*
X171479327Y-80613377D01*
X171472590Y-80608150D01*
X171465883Y-80602911D01*
X171459204Y-80597660D01*
X171452554Y-80592397D01*
X171445933Y-80587122D01*
X171439342Y-80581835D01*
X171432779Y-80576536D01*
X171426246Y-80571225D01*
X171419742Y-80565902D01*
X171413267Y-80560567D01*
X171406822Y-80555220D01*
X171400406Y-80549861D01*
X171394020Y-80544490D01*
X171387664Y-80539107D01*
X171381337Y-80533712D01*
X171375040Y-80528305D01*
X171368772Y-80522885D01*
X171362535Y-80517454D01*
X171356327Y-80512010D01*
X171350150Y-80506554D01*
X171344002Y-80501086D01*
X171337885Y-80495606D01*
X171331798Y-80490114D01*
X171325741Y-80484609D01*
X171319714Y-80479092D01*
X171313718Y-80473563D01*
X171307752Y-80468022D01*
X171301817Y-80462469D01*
X171295912Y-80456903D01*
X171290038Y-80451325D01*
X171284194Y-80445734D01*
X171278382Y-80440132D01*
X171272600Y-80434517D01*
X171266849Y-80428889D01*
X171261129Y-80423250D01*
X171255440Y-80417598D01*
X171249782Y-80411933D01*
X171244156Y-80406256D01*
X171238560Y-80400567D01*
X171232996Y-80394866D01*
X171227463Y-80389152D01*
X171221962Y-80383425D01*
X171216492Y-80377686D01*
X171211053Y-80371935D01*
X171205647Y-80366171D01*
X171200271Y-80360394D01*
X171194928Y-80354605D01*
X171189616Y-80348804D01*
X171184336Y-80342990D01*
X171179088Y-80337164D01*
X171173873Y-80331325D01*
X171168689Y-80325473D01*
X171163537Y-80319609D01*
X171158417Y-80313732D01*
X171153330Y-80307842D01*
X171148275Y-80301940D01*
X171143252Y-80296026D01*
X171138262Y-80290098D01*
X171133304Y-80284158D01*
X171128379Y-80278205D01*
X171123487Y-80272240D01*
X171118627Y-80266262D01*
X171113800Y-80260271D01*
X171109005Y-80254267D01*
X171104244Y-80248251D01*
X171099515Y-80242222D01*
X171094820Y-80236180D01*
X171090157Y-80230125D01*
X171085528Y-80224058D01*
X171080932Y-80217978D01*
X171076369Y-80211885D01*
X171071840Y-80205779D01*
X171067344Y-80199660D01*
X171062881Y-80193528D01*
X171058452Y-80187384D01*
X171054056Y-80181226D01*
X171049695Y-80175056D01*
X171045366Y-80168873D01*
X171041072Y-80162676D01*
X171036811Y-80156467D01*
X171032585Y-80150245D01*
X171028392Y-80144010D01*
X171024234Y-80137762D01*
X171020109Y-80131501D01*
X171016019Y-80125227D01*
X171011962Y-80118940D01*
X171007941Y-80112639D01*
X171003953Y-80106326D01*
X171000000Y-80100000D01*
X184000000Y-83250000D02*
X184005602Y-83227757D01*
X184011309Y-83205421D01*
X184017123Y-83182994D01*
X184023043Y-83160475D01*
X184029069Y-83137864D01*
X184035203Y-83115159D01*
X184041445Y-83092363D01*
X184047795Y-83069473D01*
X184054253Y-83046490D01*
X184060821Y-83023414D01*
X184067498Y-83000245D01*
X184074286Y-82976983D01*
X184081184Y-82953626D01*
X184088192Y-82930176D01*
X184095312Y-82906632D01*
X184102544Y-82882995D01*
X184109889Y-82859263D01*
X184117346Y-82835436D01*
X184124916Y-82811516D01*
X184132600Y-82787501D01*
X184140398Y-82763392D01*
X184148310Y-82739188D01*
X184156337Y-82714889D01*
X184164480Y-82690496D01*
X184172738Y-82666008D01*
X184181113Y-82641425D01*
X184189604Y-82616748D01*
X184198212Y-82591976D01*
X184206938Y-82567108D01*
X184215781Y-82542146D01*
X184224743Y-82517090D01*
X184233824Y-82491938D01*
X184243023Y-82466692D01*
X184252342Y-82441351D01*
X184261781Y-82415915D01*
X184271340Y-82390384D01*
X184281020Y-82364759D01*
X184290820Y-82339040D01*
X184300742Y-82313226D01*
X184310786Y-82287318D01*
X184320951Y-82261316D01*
X184331239Y-82235220D01*
X184341650Y-82209031D01*
X184352184Y-82182747D01*
X184362841Y-82156371D01*
X184373622Y-82129900D01*
X184384527Y-82103337D01*
X184395556Y-82076682D01*
X184406710Y-82049934D01*
X184417989Y-82023093D01*
X184429392Y-81996161D01*
X184440921Y-81969137D01*
X184452576Y-81942021D01*
X184464357Y-81914815D01*
X184476263Y-81887519D01*
X184488296Y-81860132D01*
X184500456Y-81832655D01*
X184512742Y-81805089D01*
X184525155Y-81777435D01*
X184537695Y-81749692D01*
X184550362Y-81721861D01*
X184563157Y-81693943D01*
X184576079Y-81665939D01*
X184589128Y-81637848D01*
X184602305Y-81609672D01*
X184615609Y-81581412D01*
X184629041Y-81553067D01*
X184642600Y-81524639D01*
X184656288Y-81496129D01*
X184670102Y-81467536D01*
X184684045Y-81438863D01*
X184698115Y-81410110D01*
X184712312Y-81381278D01*
X184726636Y-81352368D01*
X184741087Y-81323381D01*
X184755665Y-81294318D01*
X184770370Y-81265180D01*
X184785201Y-81235968D01*
X184800159Y-81206684D01*
X184815242Y-81177329D01*
X184830450Y-81147903D01*
X184845783Y-81118409D01*
X184861241Y-81088848D01*
X184876823Y-81059221D01*
X184892529Y-81029531D01*
X184908358Y-80999777D01*
X184924308Y-80969964D01*
X184940381Y-80940091D01*
X184956575Y-80910161D01*
X184972888Y-80880177D01*
X184989321Y-80850139D01*
X185005873Y-80820051D01*
X185022541Y-80789914D01*
X185039327Y-80759730D01*
X185056227Y-80729503D01*
X185073241Y-80699235D01*
X185090369Y-80668928D01*
X185107607Y-80638586D01*
X185124956Y-80608210D01*
X185142413Y-80577805D01*
X185159976Y-80547374D01*
X185177644Y-80516920D01*
X185195416Y-80486446D01*
X185213288Y-80455956D01*
X185231259Y-80425455D01*
X185249326Y-80394946D01*
X185267488Y-80364434D01*
X185285741Y-80333924D01*
X185304082Y-80303419D01*
X185322509Y-80272926D01*
X185341018Y-80242450D01*
X185359606Y-80211997D01*
X185378270Y-80181571D01*
X185397004Y-80151181D01*
X185415806Y-80120832D01*
X185434671Y-80090533D01*
X185453593Y-80060290D01*
X185472568Y-80030111D01*
X185491590Y-80000006D01*
X185510653Y-79969983D01*
X185529751Y-79940053D01*
X185548876Y-79910226D01*
X185568021Y-79880514D01*
X185587178Y-79850928D01*
X185606339Y-79821482D01*
X185625492Y-79792190D01*
X185644628Y-79763068D01*
X185663736Y-79734133D01*
X185682802Y-79705403D01*
X185701812Y-79676897D01*
X185720751Y-79648639D01*
X185739602Y-79620652D01*
X185758346Y-79592964D01*
X185776960Y-79565606D01*
X185795421Y-79538610D01*
X185813701Y-79512016D01*
X185831768Y-79485869D01*
X185849585Y-79460217D01*
X185867109Y-79435122D01*
X185884288Y-79410653D01*
X185901060Y-79386895D01*
X185917349Y-79363952D01*
X185933058Y-79341955D01*
X185948059Y-79321074D01*
X185962177Y-79301544D01*
X185975157Y-79283707D01*
X185986584Y-79268116D01*
X185995648Y-79255844D01*
X186000000Y-79250000D01*
X185000000Y-78000000D02*
X180000000Y-85000000D01*
X186000000Y-79250000D02*
X186010056Y-79250732D01*
X186039429Y-79252930D01*
X186060987Y-79254578D01*
X186086929Y-79256592D01*
X186117105Y-79258972D01*
X186151367Y-79261719D01*
X186189566Y-79264832D01*
X186231552Y-79268311D01*
X186277178Y-79272156D01*
X186326294Y-79276367D01*
X186352114Y-79278610D01*
X186378752Y-79280945D01*
X186406187Y-79283371D01*
X186434402Y-79285889D01*
X186463379Y-79288498D01*
X186493097Y-79291199D01*
X186523540Y-79293991D01*
X186554688Y-79296875D01*
X186586522Y-79299850D01*
X186619024Y-79302917D01*
X186652176Y-79306076D01*
X186685959Y-79309326D01*
X186720354Y-79312668D01*
X186755342Y-79316101D01*
X186790906Y-79319626D01*
X186827026Y-79323242D01*
X186863684Y-79326950D01*
X186900862Y-79330750D01*
X186938540Y-79334641D01*
X186976700Y-79338623D01*
X187015323Y-79342697D01*
X187054392Y-79346863D01*
X187093887Y-79351120D01*
X187133789Y-79355469D01*
X187174081Y-79359909D01*
X187214743Y-79364441D01*
X187255757Y-79369064D01*
X187297104Y-79373779D01*
X187338766Y-79378586D01*
X187380724Y-79383484D01*
X187422960Y-79388474D01*
X187465454Y-79393555D01*
X187508189Y-79398727D01*
X187551146Y-79403992D01*
X187594305Y-79409348D01*
X187637650Y-79414795D01*
X187681160Y-79420334D01*
X187724817Y-79425964D01*
X187768604Y-79431686D01*
X187812500Y-79437500D01*
X187834484Y-79440441D01*
X187856488Y-79443405D01*
X187878511Y-79446392D01*
X187900549Y-79449402D01*
X187922601Y-79452435D01*
X187944664Y-79455490D01*
X187966736Y-79458569D01*
X187988815Y-79461670D01*
X188010898Y-79464794D01*
X188032984Y-79467941D01*
X188055068Y-79471111D01*
X188077150Y-79474304D01*
X188099227Y-79477520D01*
X188121297Y-79480759D01*
X188143357Y-79484020D01*
X188165405Y-79487305D01*
X188187439Y-79490612D01*
X188209456Y-79493942D01*
X188231454Y-79497295D01*
X188253431Y-79500671D01*
X188275385Y-79504070D01*
X188297312Y-79507492D01*
X188319211Y-79510937D01*
X188341080Y-79514404D01*
X188362915Y-79517895D01*
X188384716Y-79521408D01*
X188406479Y-79524944D01*
X188428202Y-79528503D01*
X188449882Y-79532085D01*
X188471519Y-79535690D01*
X188493108Y-79539318D01*
X188514648Y-79542969D01*
X188536137Y-79546642D01*
X188557572Y-79550339D01*
X188578951Y-79554058D01*
X188600271Y-79557800D01*
X188621531Y-79561565D01*
X188642727Y-79565353D01*
X188663858Y-79569164D01*
X188684921Y-79572998D01*
X188705914Y-79576855D01*
X188726835Y-79580734D01*
X188747681Y-79584637D01*
X188768450Y-79588562D01*
X188789139Y-79592510D01*
X188809747Y-79596481D01*
X188830271Y-79600475D01*
X188850708Y-79604492D01*
X188871057Y-79608532D01*
X188891314Y-79612595D01*
X188911479Y-79616680D01*
X188931547Y-79620789D01*
X188951518Y-79624920D01*
X188971388Y-79629074D01*
X188991156Y-79633251D01*
X189010818Y-79637451D01*
X189030374Y-79641674D01*
X189049820Y-79645920D01*
X189069154Y-79650188D01*
X189088373Y-79654480D01*
X189107476Y-79658794D01*
X189126460Y-79663132D01*
X189145323Y-79667492D01*
X189164063Y-79671875D01*
X189182676Y-79676281D01*
X189201161Y-79680710D01*
X189219516Y-79685162D01*
X189237738Y-79689636D01*
X189255824Y-79694134D01*
X189273773Y-79698654D01*
X189291583Y-79703197D01*
X189309250Y-79707764D01*
X189326773Y-79712353D01*
X189344148Y-79716965D01*
X189361375Y-79721600D01*
X189378450Y-79726257D01*
X189395372Y-79730938D01*
X189412137Y-79735641D01*
X189428744Y-79740368D01*
X189445190Y-79745117D01*
X189461474Y-79749889D01*
X189477591Y-79754684D01*
X189493541Y-79759502D01*
X189509321Y-79764343D01*
X189524929Y-79769207D01*
X189540362Y-79774094D01*
X189555617Y-79779003D01*
X189570694Y-79783936D01*
X189585589Y-79788891D01*
X189592967Y-79791377D01*
X189600300Y-79793869D01*
X189607585Y-79796367D01*
X189614824Y-79798870D01*
X189622016Y-79801379D01*
X189629160Y-79803894D01*
X189636256Y-79806415D01*
X189643305Y-79808941D01*
X189650305Y-79811473D01*
X189657256Y-79814011D01*
X189664159Y-79816554D01*
X189671012Y-79819103D01*
X189677816Y-79821658D01*
X189684570Y-79824219D01*
X189691274Y-79826785D01*
X189697928Y-79829357D01*
X189704531Y-79831935D01*
X189711083Y-79834518D01*
X189717584Y-79837108D01*
X189724033Y-79839703D01*
X189730431Y-79842303D01*
X189736776Y-79844910D01*
X189743069Y-79847522D01*
X189749310Y-79850140D01*
X189755497Y-79852763D01*
X189761631Y-79855392D01*
X189767712Y-79858027D01*
X189773739Y-79860668D01*
X189779711Y-79863315D01*
X189785629Y-79865967D01*
X189791493Y-79868625D01*
X189797301Y-79871288D01*
X189803054Y-79873958D01*
X189808752Y-79876633D01*
X189814393Y-79879313D01*
X189819979Y-79882000D01*
X189825508Y-79884692D01*
X189830980Y-79887390D01*
X189836396Y-79890094D01*
X189841753Y-79892803D01*
X189847054Y-79895518D01*
X189852296Y-79898239D01*
X189857480Y-79900966D01*
X189862606Y-79903698D01*
X189867673Y-79906436D01*
X189872681Y-79909180D01*
X189877629Y-79911929D01*
X189882518Y-79914684D01*
X189887347Y-79917445D01*
X189892115Y-79920212D01*
X189896823Y-79922984D01*
X189901471Y-79925762D01*
X189906057Y-79928546D01*
X189910582Y-79931335D01*
X189915045Y-79934131D01*
X189919446Y-79936932D01*
X189923785Y-79939738D01*
X189928061Y-79942551D01*
X189932274Y-79945369D01*
X189936424Y-79948193D01*
X189940511Y-79951022D01*
X189944534Y-79953857D01*
X189948493Y-79956698D01*
X189952388Y-79959545D01*
X189956218Y-79962398D01*
X189959984Y-79965256D01*
X189963684Y-79968120D01*
X189967318Y-79970989D01*
X189970887Y-79973865D01*
X189974390Y-79976746D01*
X189977827Y-79979632D01*
X189981196Y-79982525D01*
X189984499Y-79985423D01*
X189987735Y-79988327D01*
X189990903Y-79991237D01*
X189994004Y-79994152D01*
X189997036Y-79997073D01*
X190000000Y-80000000D01*
X187500000Y-94800000D02*
X187484455Y-94883433D01*
X187468980Y-94966599D01*
X187453674Y-95048969D01*
X187438436Y-95131078D01*
X187423363Y-95212411D01*
X187408358Y-95293489D01*
X187393512Y-95373810D01*
X187378734Y-95453881D01*
X187364112Y-95533216D01*
X187349556Y-95612304D01*
X187335152Y-95690675D01*
X187320813Y-95768804D01*
X187306623Y-95846234D01*
X187292496Y-95923427D01*
X187278515Y-95999937D01*
X187264597Y-96076215D01*
X187250821Y-96151827D01*
X187237106Y-96227211D01*
X187223531Y-96301944D01*
X187210016Y-96376455D01*
X187196636Y-96450330D01*
X187183317Y-96523987D01*
X187170130Y-96597023D01*
X187157003Y-96669845D01*
X187144005Y-96742061D01*
X187131065Y-96814065D01*
X187118252Y-96885479D01*
X187105497Y-96956685D01*
X187092865Y-97027313D01*
X187080291Y-97097737D01*
X187067837Y-97167597D01*
X187055440Y-97237256D01*
X187043161Y-97306364D01*
X187030937Y-97375275D01*
X187018830Y-97443647D01*
X187006777Y-97511825D01*
X186994838Y-97579475D01*
X186982952Y-97646936D01*
X186971178Y-97713881D01*
X186959457Y-97780639D01*
X186947845Y-97846892D01*
X186936285Y-97912962D01*
X186924833Y-97978538D01*
X186913432Y-98043934D01*
X186902135Y-98108846D01*
X186890890Y-98173582D01*
X186879747Y-98237844D01*
X186868655Y-98301932D01*
X186857664Y-98365557D01*
X186846722Y-98429011D01*
X186835879Y-98492012D01*
X186825085Y-98554844D01*
X186814387Y-98617232D01*
X186803739Y-98679455D01*
X186793185Y-98741243D01*
X186782679Y-98802868D01*
X186772266Y-98864067D01*
X186761901Y-98925106D01*
X186751627Y-98985729D01*
X186741400Y-99046193D01*
X186731262Y-99106249D01*
X186721171Y-99166150D01*
X186711168Y-99225651D01*
X186701210Y-99284999D01*
X186691339Y-99343955D01*
X186681513Y-99402761D01*
X186671772Y-99461182D01*
X186662075Y-99519456D01*
X186652462Y-99577353D01*
X186642893Y-99635104D01*
X186633405Y-99692487D01*
X186623962Y-99749726D01*
X186614598Y-99806603D01*
X186605278Y-99863339D01*
X186596037Y-99919721D01*
X186586839Y-99975964D01*
X186577717Y-100031859D01*
X186568639Y-100087617D01*
X186559636Y-100143034D01*
X186550675Y-100198317D01*
X186541789Y-100253265D01*
X186532945Y-100308081D01*
X186524174Y-100362569D01*
X186515444Y-100416926D01*
X186506786Y-100470962D01*
X186498169Y-100524869D01*
X186489622Y-100578461D01*
X186481116Y-100631926D01*
X186472680Y-100685082D01*
X186464284Y-100738113D01*
X186455956Y-100790841D01*
X186447667Y-100843446D01*
X186439446Y-100895753D01*
X186431264Y-100947940D01*
X186423148Y-100999834D01*
X186415071Y-101051609D01*
X186407059Y-101103097D01*
X186399086Y-101154469D01*
X186391176Y-101205558D01*
X186383305Y-101256533D01*
X186375497Y-101307231D01*
X186367726Y-101357816D01*
X186360017Y-101408130D01*
X186352346Y-101458332D01*
X186344735Y-101508268D01*
X186337162Y-101558093D01*
X186329648Y-101607658D01*
X186322171Y-101657114D01*
X186314753Y-101706314D01*
X186307372Y-101755407D01*
X186300048Y-101804249D01*
X186292761Y-101852985D01*
X186285530Y-101901475D01*
X186278336Y-101949860D01*
X186271198Y-101998004D01*
X186264095Y-102046045D01*
X186257047Y-102093849D01*
X186250035Y-102141552D01*
X186243077Y-102189021D01*
X186236154Y-102236392D01*
X186229284Y-102283533D01*
X186222449Y-102330576D01*
X186215667Y-102377395D01*
X186208919Y-102424118D01*
X186202224Y-102470620D01*
X186195562Y-102517026D01*
X186188951Y-102563217D01*
X186182374Y-102609313D01*
X186175848Y-102655198D01*
X186169355Y-102700990D01*
X186162911Y-102746574D01*
X186156501Y-102792066D01*
X186150140Y-102837354D01*
X186143811Y-102882553D01*
X186137531Y-102927550D01*
X186131284Y-102972460D01*
X186125084Y-103017172D01*
X186118916Y-103061797D01*
X186112795Y-103106229D01*
X186106707Y-103150575D01*
X186100664Y-103194732D01*
X186094654Y-103238803D01*
X186088689Y-103282689D01*
X186082755Y-103326491D01*
X186076866Y-103370111D01*
X186071009Y-103413649D01*
X186065196Y-103457007D01*
X186059414Y-103500284D01*
X186053676Y-103543386D01*
X186047968Y-103586408D01*
X186042304Y-103629257D01*
X186036670Y-103672028D01*
X186031079Y-103714629D01*
X186025518Y-103757153D01*
X186019999Y-103799511D01*
X186014510Y-103841793D01*
X186009062Y-103883912D01*
X186003644Y-103925955D01*
X185998267Y-103967839D01*
X185992920Y-104009649D01*
X185987613Y-104051303D01*
X185982335Y-104092883D01*
X185977097Y-104134310D01*
X185971888Y-104175664D01*
X185966719Y-104216869D01*
X185961578Y-104258002D01*
X185956476Y-104298988D01*
X185951403Y-104339903D01*
X185946368Y-104380675D01*
X185941362Y-104421377D01*
X185936393Y-104461937D01*
X185931453Y-104502430D01*
X185926550Y-104542784D01*
X185921675Y-104583071D01*
X185916837Y-104623222D01*
X185912027Y-104663307D01*
X185907253Y-104703258D01*
X185902507Y-104743145D01*
X185897796Y-104782901D01*
X185893114Y-104822593D01*
X185888466Y-104862158D01*
X185883846Y-104901659D01*
X185879261Y-104941035D01*
X185874704Y-104980349D01*
X185870180Y-105019540D01*
X185865684Y-105058671D01*
X185861222Y-105097681D01*
X185856787Y-105136631D01*
X185852385Y-105175464D01*
X185848010Y-105214237D01*
X185843668Y-105252896D01*
X185839353Y-105291496D01*
X185835071Y-105329984D01*
X185830815Y-105368414D01*
X185826592Y-105406734D01*
X185822394Y-105444998D01*
X185818229Y-105483154D01*
X185814090Y-105521255D01*
X185809983Y-105559251D01*
X185805901Y-105597191D01*
X185801851Y-105635029D01*
X185797826Y-105672814D01*
X185793833Y-105710498D01*
X185789865Y-105748128D01*
X185785927Y-105785661D01*
X185782015Y-105823142D01*
X185778134Y-105860527D01*
X185774277Y-105897860D01*
X185770451Y-105935101D01*
X185766649Y-105972291D01*
X185762878Y-106009389D01*
X185759131Y-106046438D01*
X185755413Y-106083399D01*
X185751721Y-106120310D01*
X185748057Y-106157135D01*
X185744418Y-106193911D01*
X185740807Y-106230604D01*
X185737222Y-106267249D01*
X185733664Y-106303812D01*
X185730131Y-106340329D01*
X185726626Y-106376765D01*
X185723145Y-106413156D01*
X185719692Y-106449469D01*
X185716263Y-106485738D01*
X185712861Y-106521930D01*
X185709484Y-106558079D01*
X185706134Y-106594154D01*
X185702807Y-106630186D01*
X185699508Y-106666147D01*
X185696232Y-106702064D01*
X185692983Y-106737913D01*
X185689758Y-106773720D01*
X185686558Y-106809460D01*
X185683383Y-106845159D01*
X185680233Y-106880792D01*
X185677107Y-106916386D01*
X185674007Y-106951916D01*
X185670930Y-106987407D01*
X185667879Y-107022837D01*
X185664850Y-107058228D01*
X185661847Y-107093561D01*
X185658868Y-107128855D01*
X185655913Y-107164092D01*
X185652981Y-107199293D01*
X185650074Y-107234438D01*
X185647190Y-107269547D01*
X185644331Y-107304603D01*
X185641494Y-107339623D01*
X185638682Y-107374593D01*
X185635893Y-107409527D01*
X185633127Y-107444413D01*
X185630384Y-107479264D01*
X185627665Y-107514068D01*
X185624969Y-107548839D01*
X185622296Y-107583565D01*
X185619646Y-107618258D01*
X185617019Y-107652908D01*
X185614415Y-107687526D01*
X185611833Y-107722103D01*
X185609275Y-107756649D01*
X185606739Y-107791156D01*
X185604225Y-107825632D01*
X185601734Y-107860071D01*
X185599266Y-107894480D01*
X185596819Y-107928855D01*
X185594395Y-107963199D01*
X185591994Y-107997511D01*
X185589614Y-108031794D01*
X185587257Y-108066047D01*
X185584921Y-108100271D01*
X185582608Y-108134466D01*
X185580317Y-108168634D01*
X185578047Y-108202775D01*
X185575799Y-108236889D01*
X185573573Y-108270978D01*
X185571368Y-108305041D01*
X185569185Y-108339082D01*
X185567024Y-108373097D01*
X185564884Y-108407091D01*
X185562766Y-108441060D01*
X185560669Y-108475010D01*
X185558593Y-108508936D01*
X185556539Y-108542846D01*
X185554506Y-108576732D01*
X185552493Y-108610603D01*
X185550503Y-108644451D01*
X185548533Y-108678286D01*
X185546584Y-108712099D01*
X185542749Y-108779682D01*
X185538998Y-108847206D01*
X185535329Y-108914674D01*
X185531744Y-108982094D01*
X185528240Y-109049469D01*
X185524819Y-109116807D01*
X185521480Y-109184111D01*
X185518222Y-109251388D01*
X185515045Y-109318643D01*
X185511948Y-109385882D01*
X185508933Y-109453109D01*
X185505997Y-109520332D01*
X185503142Y-109587555D01*
X185500366Y-109654784D01*
X185497670Y-109722024D01*
X185495053Y-109789282D01*
X185492515Y-109856564D01*
X185490056Y-109923874D01*
X185487676Y-109991219D01*
X185485374Y-110058606D01*
X185483151Y-110126039D01*
X185481006Y-110193525D01*
X185478939Y-110261070D01*
X185476950Y-110328680D01*
X185475039Y-110396361D01*
X185473205Y-110464121D01*
X185471450Y-110531964D01*
X185469771Y-110599898D01*
X185468171Y-110667928D01*
X185466648Y-110736063D01*
X185465202Y-110804308D01*
X185463834Y-110872670D01*
X185462543Y-110941156D01*
X185461330Y-111009772D01*
X185460195Y-111078528D01*
X185459136Y-111147428D01*
X185458156Y-111216481D01*
X185457253Y-111285694D01*
X185456428Y-111355074D01*
X185455680Y-111424630D01*
X185455011Y-111494369D01*
X185454420Y-111564299D01*
X185453907Y-111634428D01*
X185453472Y-111704764D01*
X185453116Y-111775316D01*
X185452839Y-111846092D01*
X185452641Y-111917102D01*
X185452522Y-111988354D01*
X185452482Y-112059856D01*
X185452522Y-112131620D01*
X185452643Y-112203653D01*
X185452843Y-112275966D01*
X185453125Y-112348568D01*
X185453487Y-112421471D01*
X185453931Y-112494684D01*
X185454457Y-112568218D01*
X185455065Y-112642084D01*
X185455756Y-112716294D01*
X185456530Y-112790858D01*
X185457388Y-112865789D01*
X185458330Y-112941099D01*
X185459357Y-113016800D01*
X185460469Y-113092906D01*
X185461667Y-113169429D01*
X185462952Y-113246384D01*
X185464324Y-113323784D01*
X185465785Y-113401643D01*
X185467334Y-113479978D01*
X185468972Y-113558802D01*
X185470702Y-113638133D01*
X185472522Y-113717987D01*
X185474435Y-113798380D01*
X185476440Y-113879330D01*
X185478540Y-113960856D01*
X185480736Y-114042977D01*
X185483027Y-114125711D01*
X185485416Y-114209080D01*
X185487904Y-114293105D01*
X185490491Y-114377808D01*
X185493180Y-114463211D01*
X185495972Y-114549339D01*
X185498868Y-114636215D01*
X185501869Y-114723867D01*
X185504978Y-114812322D01*
X185508196Y-114901606D01*
X185511525Y-114991751D01*
X185514967Y-115082787D01*
X185518524Y-115174746D01*
X185522197Y-115267663D01*
X185525990Y-115361574D01*
X185529904Y-115456515D01*
X185533942Y-115552528D01*
X185538107Y-115649653D01*
X185542401Y-115747934D01*
X185546828Y-115847420D01*
X185551391Y-115948158D01*
X185556092Y-116050203D01*
X185560936Y-116153609D01*
X185565927Y-116258435D01*
X185571068Y-116364747D01*
X185576364Y-116472611D01*
X185581819Y-116582099D01*
X185587439Y-116693291D01*
X185593230Y-116806269D01*
X185599196Y-116921124D01*
X185605345Y-117037955D01*
X185611683Y-117156866D01*
X185618218Y-117277974D01*
X185624958Y-117401405D01*
X185631912Y-117527296D01*
X185639090Y-117655800D01*
X185646503Y-117787084D01*
X185654163Y-117921334D01*
X185662084Y-118058758D01*
X185670281Y-118199589D01*
X185678771Y-118344088D01*
X185687574Y-118492554D01*
X185696711Y-118645328D01*
X185700000Y-118700000D01*
X188000000Y-83750000D02*
X184000000Y-83250000D01*
X190000000Y-80000000D02*
X189987603Y-80015559D01*
X189975125Y-80031350D01*
X189962564Y-80047375D01*
X189949920Y-80063634D01*
X189937193Y-80080130D01*
X189924382Y-80096866D01*
X189911488Y-80113843D01*
X189898509Y-80131062D01*
X189885446Y-80148526D01*
X189872298Y-80166237D01*
X189859065Y-80184197D01*
X189845747Y-80202407D01*
X189832344Y-80220869D01*
X189818854Y-80239586D01*
X189805278Y-80258559D01*
X189791616Y-80277790D01*
X189777867Y-80297281D01*
X189764031Y-80317034D01*
X189750108Y-80337050D01*
X189736098Y-80357332D01*
X189722000Y-80377881D01*
X189707815Y-80398699D01*
X189693541Y-80419789D01*
X189679179Y-80441151D01*
X189664729Y-80462787D01*
X189650190Y-80484700D01*
X189635562Y-80506891D01*
X189620846Y-80529362D01*
X189606041Y-80552115D01*
X189591146Y-80575150D01*
X189576163Y-80598471D01*
X189561090Y-80622078D01*
X189545928Y-80645974D01*
X189530676Y-80670159D01*
X189515336Y-80694636D01*
X189499905Y-80719406D01*
X189484385Y-80744470D01*
X189468776Y-80769830D01*
X189453077Y-80795488D01*
X189437289Y-80821445D01*
X189421411Y-80847703D01*
X189405444Y-80874262D01*
X189389388Y-80901124D01*
X189373243Y-80928290D01*
X189357009Y-80955762D01*
X189340687Y-80983541D01*
X189324276Y-81011628D01*
X189307777Y-81040024D01*
X189291189Y-81068730D01*
X189274514Y-81097747D01*
X189257752Y-81127076D01*
X189240903Y-81156718D01*
X189223967Y-81186674D01*
X189206945Y-81216944D01*
X189189837Y-81247529D01*
X189172644Y-81278430D01*
X189155366Y-81309647D01*
X189138004Y-81341180D01*
X189120558Y-81373030D01*
X189103030Y-81405197D01*
X189085419Y-81437681D01*
X189067727Y-81470482D01*
X189049955Y-81503600D01*
X189032103Y-81537035D01*
X189014173Y-81570786D01*
X188996164Y-81604853D01*
X188978079Y-81639235D01*
X188959919Y-81673932D01*
X188941684Y-81708941D01*
X188923377Y-81744263D01*
X188904998Y-81779895D01*
X188886549Y-81815837D01*
X188868031Y-81852086D01*
X188849447Y-81888641D01*
X188830797Y-81925498D01*
X188812084Y-81962657D01*
X188793311Y-82000113D01*
X188774478Y-82037865D01*
X188755588Y-82075908D01*
X188736644Y-82114238D01*
X188717649Y-82152853D01*
X188698604Y-82191747D01*
X188679513Y-82230915D01*
X188660380Y-82270352D01*
X188641206Y-82310052D01*
X188621997Y-82350009D01*
X188602755Y-82390216D01*
X188583485Y-82430665D01*
X188564191Y-82471349D01*
X188544878Y-82512257D01*
X188525550Y-82553382D01*
X188506214Y-82594710D01*
X188486874Y-82636232D01*
X188467537Y-82677935D01*
X188448210Y-82719804D01*
X188428900Y-82761824D01*
X188409614Y-82803980D01*
X188390361Y-82846252D01*
X188371151Y-82888621D01*
X188351994Y-82931064D01*
X188332899Y-82973558D01*
X188313880Y-83016075D01*
X188294950Y-83058585D01*
X188276123Y-83101056D01*
X188257415Y-83143450D01*
X188238846Y-83185724D01*
X188220434Y-83227832D01*
X188202203Y-83269721D01*
X188184179Y-83311327D01*
X188166392Y-83352581D01*
X188148876Y-83393400D01*
X188131672Y-83433687D01*
X188114828Y-83473326D01*
X188098400Y-83512178D01*
X188082460Y-83550069D01*
X188067098Y-83586780D01*
X188052428Y-83622024D01*
X188038610Y-83655412D01*
X188025870Y-83686374D01*
X188014573Y-83714005D01*
X188005398Y-83736603D01*
X188000000Y-83750000D01*
X191000000Y-87000000D02*
X192000000Y-79000000D01*
X192000000Y-79000000D02*
X191970715Y-78985402D01*
X191941431Y-78970894D01*
X191912146Y-78956475D01*
X191882862Y-78942144D01*
X191853578Y-78927903D01*
X191824294Y-78913751D01*
X191795011Y-78899688D01*
X191765728Y-78885714D01*
X191736446Y-78871828D01*
X191707164Y-78858031D01*
X191677883Y-78844322D01*
X191648603Y-78830702D01*
X191619323Y-78817170D01*
X191590043Y-78803727D01*
X191560765Y-78790372D01*
X191531488Y-78777104D01*
X191502211Y-78763925D01*
X191472935Y-78750834D01*
X191443660Y-78737831D01*
X191414387Y-78724916D01*
X191385114Y-78712088D01*
X191355843Y-78699349D01*
X191326573Y-78686696D01*
X191297304Y-78674132D01*
X191268036Y-78661654D01*
X191238770Y-78649265D01*
X191209505Y-78636962D01*
X191180242Y-78624747D01*
X191150981Y-78612619D01*
X191121721Y-78600578D01*
X191092462Y-78588624D01*
X191063206Y-78576757D01*
X191033951Y-78564977D01*
X191004699Y-78553283D01*
X190975448Y-78541677D01*
X190946199Y-78530157D01*
X190916953Y-78518724D01*
X190887708Y-78507377D01*
X190858466Y-78496117D01*
X190829226Y-78484944D01*
X190799989Y-78473856D01*
X190770754Y-78462856D01*
X190741521Y-78451941D01*
X190712292Y-78441112D01*
X190683065Y-78430370D01*
X190653840Y-78419714D01*
X190624619Y-78409144D01*
X190595400Y-78398659D01*
X190566185Y-78388261D01*
X190536973Y-78377948D01*
X190507764Y-78367722D01*
X190478558Y-78357581D01*
X190449355Y-78347525D01*
X190420156Y-78337555D01*
X190390961Y-78327671D01*
X190361769Y-78317873D01*
X190332581Y-78308159D01*
X190303397Y-78298532D01*
X190274216Y-78288989D01*
X190245040Y-78279532D01*
X190215868Y-78270160D01*
X190186700Y-78260873D01*
X190157537Y-78251672D01*
X190128377Y-78242555D01*
X190099223Y-78233524D01*
X190070073Y-78224577D01*
X190040928Y-78215716D01*
X190011787Y-78206939D01*
X189982652Y-78198247D01*
X189953522Y-78189640D01*
X189924397Y-78181118D01*
X189895277Y-78172681D01*
X189866163Y-78164328D01*
X189837054Y-78156060D01*
X189807951Y-78147876D01*
X189778854Y-78139777D01*
X189749763Y-78131763D01*
X189720678Y-78123833D01*
X189691599Y-78115987D01*
X189662526Y-78108226D01*
X189633460Y-78100549D01*
X189604401Y-78092956D01*
X189575348Y-78085448D01*
X189546302Y-78078023D01*
X189517264Y-78070683D01*
X189488232Y-78063427D01*
X189459208Y-78056255D01*
X189430191Y-78049168D01*
X189401182Y-78042164D01*
X189372181Y-78035244D01*
X189343188Y-78028408D01*
X189314203Y-78021656D01*
X189285226Y-78014988D01*
X189256258Y-78008404D01*
X189227299Y-78001903D01*
X189198348Y-77995487D01*
X189169406Y-77989153D01*
X189140474Y-77982904D01*
X189111551Y-77976738D01*
X189082637Y-77970656D01*
X189053733Y-77964658D01*
X189024839Y-77958743D01*
X188995956Y-77952911D01*
X188967082Y-77947163D01*
X188938219Y-77941499D01*
X188909367Y-77935918D01*
X188880526Y-77930420D01*
X188851696Y-77925005D01*
X188822878Y-77919674D01*
X188794071Y-77914426D01*
X188765276Y-77909262D01*
X188736493Y-77904180D01*
X188707722Y-77899182D01*
X188678964Y-77894267D01*
X188650219Y-77889435D01*
X188621487Y-77884686D01*
X188592768Y-77880020D01*
X188564063Y-77875437D01*
X188535371Y-77870937D01*
X188506694Y-77866520D01*
X188478031Y-77862186D01*
X188449383Y-77857935D01*
X188420749Y-77853767D01*
X188392131Y-77849681D01*
X188363529Y-77845678D01*
X188334942Y-77841758D01*
X188306371Y-77837921D01*
X188277817Y-77834166D01*
X188249279Y-77830494D01*
X188220758Y-77826904D01*
X188192255Y-77823397D01*
X188163770Y-77819973D01*
X188135302Y-77816631D01*
X188106854Y-77813371D01*
X188078423Y-77810194D01*
X188050012Y-77807099D01*
X188021620Y-77804087D01*
X187993249Y-77801156D01*
X187964897Y-77798308D01*
X187936566Y-77795543D01*
X187908256Y-77792859D01*
X187879968Y-77790257D01*
X187851701Y-77787738D01*
X187823457Y-77785300D01*
X187795235Y-77782944D01*
X187767036Y-77780671D01*
X187738861Y-77778479D01*
X187710710Y-77776369D01*
X187682584Y-77774340D01*
X187654482Y-77772394D01*
X187626406Y-77770529D01*
X187598356Y-77768745D01*
X187570332Y-77767043D01*
X187542335Y-77765423D01*
X187514366Y-77763884D01*
X187486425Y-77762426D01*
X187458512Y-77761050D01*
X187430629Y-77759755D01*
X187402775Y-77758540D01*
X187374951Y-77757407D01*
X187347158Y-77756355D01*
X187319397Y-77755384D01*
X187291668Y-77754493D01*
X187263972Y-77753684D01*
X187236309Y-77752955D01*
X187208680Y-77752306D01*
X187181086Y-77751738D01*
X187153527Y-77751251D01*
X187126005Y-77750843D01*
X187098519Y-77750516D01*
X187071072Y-77750269D01*
X187043662Y-77750102D01*
X187016292Y-77750014D01*
X186988962Y-77750007D01*
X186961672Y-77750078D01*
X186934424Y-77750230D01*
X186907219Y-77750461D01*
X186880057Y-77750771D01*
X186852940Y-77751160D01*
X186825868Y-77751628D01*
X186798842Y-77752174D01*
X186771863Y-77752800D01*
X186744932Y-77753504D01*
X186718051Y-77754286D01*
X186691219Y-77755146D01*
X186664439Y-77756084D01*
X186637712Y-77757100D01*
X186611038Y-77758193D01*
X186584419Y-77759364D01*
X186557856Y-77760612D01*
X186531350Y-77761937D01*
X186504903Y-77763338D01*
X186478515Y-77764816D01*
X186452189Y-77766370D01*
X186425925Y-77768000D01*
X186399725Y-77769705D01*
X186373591Y-77771486D01*
X186347523Y-77773342D01*
X186321524Y-77775273D01*
X186295596Y-77777278D01*
X186269739Y-77779357D01*
X186243955Y-77781510D01*
X186218247Y-77783736D01*
X186192616Y-77786036D01*
X186167064Y-77788408D01*
X186141593Y-77790852D01*
X186116204Y-77793368D01*
X186090901Y-77795955D01*
X186065685Y-77798613D01*
X186040559Y-77801341D01*
X186015525Y-77804139D01*
X185990584Y-77807006D01*
X185965741Y-77809942D01*
X185940996Y-77812946D01*
X185916354Y-77816017D01*
X185891817Y-77819155D01*
X185867387Y-77822360D01*
X185843068Y-77825629D01*
X185818863Y-77828963D01*
X185794775Y-77832361D01*
X185770808Y-77835822D01*
X185746965Y-77839344D01*
X185723251Y-77842928D01*
X185699668Y-77846571D01*
X185676222Y-77850274D01*
X185652916Y-77854034D01*
X185629755Y-77857851D01*
X185606744Y-77861723D01*
X185583888Y-77865649D01*
X185561193Y-77869627D01*
X185538663Y-77873657D01*
X185516305Y-77877735D01*
X185494126Y-77881861D01*
X185472131Y-77886033D01*
X185450329Y-77890248D01*
X185428726Y-77894505D01*
X185407331Y-77898801D01*
X185386152Y-77903133D01*
X185365200Y-77907499D01*
X185344484Y-77911896D01*
X185324014Y-77916321D01*
X185303804Y-77920769D01*
X185283865Y-77925238D01*
X185264212Y-77929722D01*
X185244861Y-77934218D01*
X185225827Y-77938719D01*
X185207132Y-77943220D01*
X185188794Y-77947714D01*
X185170839Y-77952194D01*
X185153294Y-77956651D01*
X185136190Y-77961075D01*
X185119562Y-77965455D01*
X185103454Y-77969777D01*
X185087916Y-77974023D01*
X185073011Y-77978174D01*
X185058815Y-77982205D01*
X185045431Y-77986081D01*
X185032994Y-77989757D01*
X185021703Y-77993167D01*
X185011874Y-77996204D01*
X185004103Y-77998665D01*
X185000000Y-78000000D01*
X192000000Y-79000000D02*
X191971492Y-79053748D01*
X191943070Y-79107502D01*
X191914736Y-79161263D01*
X191886489Y-79215030D01*
X191858328Y-79268803D01*
X191830255Y-79322583D01*
X191802269Y-79376368D01*
X191774370Y-79430159D01*
X191746558Y-79483955D01*
X191718833Y-79537757D01*
X191691195Y-79591564D01*
X191663644Y-79645377D01*
X191636181Y-79699194D01*
X191608805Y-79753016D01*
X191581516Y-79806843D01*
X191554314Y-79860675D01*
X191527200Y-79914510D01*
X191500173Y-79968350D01*
X191473233Y-80022194D01*
X191446381Y-80076042D01*
X191419616Y-80129894D01*
X191392939Y-80183749D01*
X191366349Y-80237608D01*
X191339847Y-80291470D01*
X191313432Y-80345335D01*
X191287104Y-80399203D01*
X191260865Y-80453073D01*
X191234712Y-80506947D01*
X191208648Y-80560822D01*
X191182671Y-80614700D01*
X191156782Y-80668580D01*
X191130981Y-80722462D01*
X191105267Y-80776345D01*
X191079641Y-80830230D01*
X191054103Y-80884116D01*
X191028653Y-80938004D01*
X191003291Y-80991892D01*
X190978016Y-81045781D01*
X190952830Y-81099671D01*
X190927732Y-81153561D01*
X190902721Y-81207452D01*
X190877799Y-81261342D01*
X190852965Y-81315232D01*
X190828219Y-81369122D01*
X190803561Y-81423012D01*
X190778991Y-81476900D01*
X190754509Y-81530788D01*
X190730116Y-81584675D01*
X190705811Y-81638560D01*
X190681595Y-81692443D01*
X190657467Y-81746325D01*
X190633427Y-81800205D01*
X190609475Y-81854083D01*
X190585613Y-81907958D01*
X190561838Y-81961831D01*
X190538152Y-82015701D01*
X190514555Y-82069567D01*
X190491047Y-82123431D01*
X190467627Y-82177291D01*
X190444296Y-82231147D01*
X190421053Y-82285000D01*
X190397900Y-82338848D01*
X190374835Y-82392692D01*
X190351859Y-82446531D01*
X190328972Y-82500366D01*
X190306174Y-82554195D01*
X190283465Y-82608019D01*
X190260845Y-82661837D01*
X190238314Y-82715650D01*
X190215872Y-82769457D01*
X190193520Y-82823257D01*
X190171256Y-82877051D01*
X190149082Y-82930838D01*
X190126998Y-82984618D01*
X190105002Y-83038390D01*
X190083096Y-83092156D01*
X190061279Y-83145913D01*
X190039552Y-83199662D01*
X190017915Y-83253403D01*
X189996366Y-83307135D01*
X189974908Y-83360859D01*
X189953539Y-83414573D01*
X189932260Y-83468278D01*
X189911071Y-83521973D01*
X189889971Y-83575658D01*
X189868961Y-83629333D01*
X189848042Y-83682997D01*
X189827212Y-83736651D01*
X189806472Y-83790294D01*
X189785822Y-83843925D01*
X189765262Y-83897544D01*
X189744793Y-83951151D01*
X189724413Y-84004746D01*
X189704124Y-84058329D01*
X189683925Y-84111899D01*
X189663817Y-84165455D01*
X189643798Y-84218998D01*
X189623871Y-84272527D01*
X189604033Y-84326042D01*
X189584287Y-84379542D01*
X189564631Y-84433028D01*
X189545065Y-84486498D01*
X189525590Y-84539953D01*
X189506206Y-84593392D01*
X189486913Y-84646815D01*
X189467711Y-84700222D01*
X189448599Y-84753612D01*
X189429579Y-84806985D01*
X189410649Y-84860340D01*
X189391811Y-84913677D01*
X189373064Y-84966996D01*
X189354407Y-85020297D01*
X189335843Y-85073579D01*
X189317369Y-85126841D01*
X189298987Y-85180083D01*
X189280696Y-85233306D01*
X189262496Y-85286508D01*
X189244389Y-85339690D01*
X189226372Y-85392850D01*
X189208448Y-85445989D01*
X189190615Y-85499105D01*
X189172873Y-85552200D01*
X189155224Y-85605271D01*
X189137666Y-85658319D01*
X189120201Y-85711344D01*
X189102827Y-85764345D01*
X189085545Y-85817321D01*
X189068356Y-85870273D01*
X189051258Y-85923199D01*
X189034253Y-85976100D01*
X189017340Y-86028974D01*
X189000520Y-86081822D01*
X188983791Y-86134643D01*
X188967156Y-86187437D01*
X188950612Y-86240202D01*
X188934162Y-86292939D01*
X188917804Y-86345648D01*
X188901538Y-86398327D01*
X188885366Y-86450976D01*
X188869286Y-86503595D01*
X188853299Y-86556184D01*
X188837405Y-86608741D01*
X188821604Y-86661266D01*
X188805896Y-86713759D01*
X188790281Y-86766220D01*
X188774759Y-86818647D01*
X188759331Y-86871041D01*
X188743996Y-86923400D01*
X188728754Y-86975725D01*
X188713606Y-87028014D01*
X188698551Y-87080268D01*
X188683590Y-87132485D01*
X188668723Y-87184665D01*
X188653949Y-87236808D01*
X188639268Y-87288912D01*
X188624682Y-87340978D01*
X188610190Y-87393005D01*
X188595791Y-87444992D01*
X188581487Y-87496939D01*
X188567276Y-87548845D01*
X188553160Y-87600710D01*
X188539138Y-87652532D01*
X188525210Y-87704312D01*
X188511376Y-87756048D01*
X188497637Y-87807740D01*
X188483993Y-87859388D01*
X188470442Y-87910990D01*
X188456987Y-87962547D01*
X188443626Y-88014057D01*
X188430360Y-88065520D01*
X188417188Y-88116935D01*
X188404111Y-88168301D01*
X188391130Y-88219619D01*
X188378243Y-88270886D01*
X188365451Y-88322103D01*
X188352754Y-88373268D01*
X188340153Y-88424382D01*
X188327646Y-88475443D01*
X188315235Y-88526450D01*
X188302919Y-88577403D01*
X188290699Y-88628301D01*
X188278574Y-88679144D01*
X188266545Y-88729930D01*
X188254611Y-88780658D01*
X188242773Y-88831329D01*
X188231030Y-88881941D01*
X188219383Y-88932493D01*
X188207832Y-88982985D01*
X188196377Y-89033416D01*
X188185018Y-89083784D01*
X188173755Y-89134090D01*
X188162588Y-89184332D01*
X188151517Y-89234510D01*
X188140542Y-89284621D01*
X188129664Y-89334667D01*
X188118881Y-89384645D01*
X188108195Y-89434555D01*
X188097606Y-89484397D01*
X188087113Y-89534168D01*
X188076716Y-89583868D01*
X188066416Y-89633497D01*
X188056212Y-89683052D01*
X188046106Y-89732534D01*
X188036095Y-89781941D01*
X188026182Y-89831273D01*
X188016365Y-89880527D01*
X188006646Y-89929704D01*
X187997023Y-89978803D01*
X187987497Y-90027821D01*
X187978068Y-90076759D01*
X187968736Y-90125614D01*
X187959501Y-90174387D01*
X187950364Y-90223076D01*
X187941323Y-90271679D01*
X187932380Y-90320196D01*
X187923534Y-90368626D01*
X187914785Y-90416967D01*
X187906133Y-90465219D01*
X187897579Y-90513379D01*
X187889122Y-90561448D01*
X187880763Y-90609423D01*
X187872501Y-90657304D01*
X187864337Y-90705089D01*
X187856270Y-90752777D01*
X187848300Y-90800367D01*
X187840428Y-90847857D01*
X187832654Y-90895247D01*
X187824977Y-90942534D01*
X187817398Y-90989718D01*
X187809916Y-91036798D01*
X187802532Y-91083771D01*
X187795246Y-91130637D01*
X187788057Y-91177393D01*
X187780966Y-91224040D01*
X187773973Y-91270575D01*
X187767077Y-91316996D01*
X187760279Y-91363303D01*
X187753579Y-91409494D01*
X187746976Y-91455568D01*
X187740471Y-91501522D01*
X187734063Y-91547356D01*
X187727753Y-91593067D01*
X187721541Y-91638655D01*
X187715426Y-91684117D01*
X187709409Y-91729452D01*
X187703489Y-91774659D01*
X187697667Y-91819736D01*
X187691942Y-91864680D01*
X187686315Y-91909491D01*
X187680785Y-91954167D01*
X187675352Y-91998705D01*
X187670017Y-92043105D01*
X187664778Y-92087365D01*
X187659637Y-92131481D01*
X187654593Y-92175454D01*
X187649646Y-92219281D01*
X187644796Y-92262960D01*
X187640042Y-92306489D01*
X187635386Y-92349866D01*
X187630826Y-92393090D01*
X187626363Y-92436159D01*
X187621996Y-92479069D01*
X187617725Y-92521821D01*
X187613551Y-92564411D01*
X187609473Y-92606837D01*
X187605491Y-92649098D01*
X187601604Y-92691191D01*
X187597814Y-92733114D01*
X187594119Y-92774865D01*
X187590519Y-92816443D01*
X187587015Y-92857844D01*
X187585298Y-92878485D01*
X187583606Y-92899066D01*
X187581936Y-92919618D01*
X187580291Y-92940108D01*
X187578669Y-92960568D01*
X187577072Y-92980967D01*
X187575497Y-93001335D01*
X187573947Y-93021641D01*
X187572419Y-93041915D01*
X187570916Y-93062128D01*
X187569435Y-93082307D01*
X187567979Y-93102425D01*
X187566546Y-93122508D01*
X187565137Y-93142529D01*
X187563750Y-93162516D01*
X187562388Y-93182439D01*
X187561048Y-93202327D01*
X187559732Y-93222153D01*
X187558439Y-93241941D01*
X187557170Y-93261667D01*
X187555923Y-93281355D01*
X187554700Y-93300979D01*
X187553500Y-93320566D01*
X187552323Y-93340088D01*
X187551169Y-93359571D01*
X187550039Y-93378990D01*
X187548931Y-93398368D01*
X187547846Y-93417683D01*
X187546784Y-93436956D01*
X187545746Y-93456164D01*
X187544730Y-93475330D01*
X187543737Y-93494431D01*
X187542766Y-93513489D01*
X187541819Y-93532482D01*
X187540894Y-93551430D01*
X187539992Y-93570313D01*
X187539112Y-93589151D01*
X187538255Y-93607923D01*
X187537420Y-93626649D01*
X187536609Y-93645308D01*
X187535819Y-93663921D01*
X187535052Y-93682467D01*
X187534307Y-93700965D01*
X187533584Y-93719396D01*
X187532884Y-93737778D01*
X187532206Y-93756092D01*
X187531550Y-93774357D01*
X187530916Y-93792554D01*
X187530304Y-93810700D01*
X187529714Y-93828778D01*
X187529146Y-93846804D01*
X187528600Y-93864762D01*
X187528076Y-93882667D01*
X187527573Y-93900503D01*
X187527092Y-93918285D01*
X187526633Y-93935998D01*
X187526195Y-93953656D01*
X187525779Y-93971245D01*
X187525384Y-93988778D01*
X187525011Y-94006241D01*
X187524659Y-94023647D01*
X187524328Y-94040983D01*
X187524018Y-94058260D01*
X187523730Y-94075468D01*
X187523462Y-94092616D01*
X187523216Y-94109694D01*
X187522990Y-94126711D01*
X187522785Y-94143657D01*
X187522601Y-94160542D01*
X187522438Y-94177356D01*
X187522295Y-94194107D01*
X187522173Y-94210787D01*
X187522071Y-94227403D01*
X187521990Y-94243948D01*
X187521929Y-94260428D01*
X187521888Y-94276836D01*
X187521867Y-94293177D01*
X187521866Y-94309447D01*
X187521885Y-94325650D01*
X187521924Y-94341780D01*
X187521983Y-94357842D01*
X187522062Y-94373832D01*
X187522160Y-94389752D01*
X187522277Y-94405600D01*
X187522415Y-94421376D01*
X187522571Y-94437080D01*
X187522747Y-94452712D01*
X187522941Y-94468272D01*
X187523155Y-94483758D01*
X187523388Y-94499171D01*
X187523639Y-94514509D01*
X187523910Y-94529775D01*
X187524199Y-94544965D01*
X187524506Y-94560081D01*
X187524832Y-94575121D01*
X187525176Y-94590088D01*
X187525539Y-94604977D01*
X187525920Y-94619792D01*
X187526318Y-94634528D01*
X187526735Y-94649191D01*
X187527169Y-94663773D01*
X187527621Y-94678281D01*
X187528090Y-94692709D01*
X187528577Y-94707062D01*
X187529082Y-94721333D01*
X187529603Y-94735530D01*
X187530141Y-94749643D01*
X187530697Y-94763683D01*
X187531269Y-94777637D01*
X187531858Y-94791518D01*
X187532464Y-94805313D01*
X187533086Y-94819034D01*
X187533724Y-94832667D01*
X187534379Y-94846227D01*
X187535050Y-94859699D01*
X187535736Y-94873096D01*
X187536439Y-94886405D01*
X187537157Y-94899639D01*
X187537890Y-94912784D01*
X187538639Y-94925854D01*
X187539403Y-94938833D01*
X187540183Y-94951738D01*
X187540977Y-94964550D01*
X187541787Y-94977289D01*
X187542610Y-94989935D01*
X187543449Y-95002506D01*
X187544302Y-95014984D01*
X187545169Y-95027387D01*
X187546050Y-95039696D01*
X187546945Y-95051930D01*
X187547854Y-95064069D01*
X187548777Y-95076134D01*
X187549713Y-95088102D01*
X187550663Y-95099996D01*
X187551625Y-95111793D01*
X187552601Y-95123516D01*
X187553589Y-95135141D01*
X187554591Y-95146692D01*
X187555604Y-95158144D01*
X187556631Y-95169523D01*
X187557669Y-95180802D01*
X187558721Y-95192008D01*
X187559782Y-95203113D01*
X187560857Y-95214145D01*
X187561942Y-95225075D01*
X187563040Y-95235933D01*
X187564148Y-95246689D01*
X187565269Y-95257373D01*
X187566398Y-95267954D01*
X187567540Y-95278462D01*
X187568691Y-95288868D01*
X187569854Y-95299201D01*
X187571026Y-95309431D01*
X187572209Y-95319589D01*
X187573401Y-95329643D01*
X187574604Y-95339625D01*
X187575814Y-95349503D01*
X187577036Y-95359310D01*
X187578265Y-95369011D01*
X187579506Y-95378642D01*
X187580752Y-95388168D01*
X187582010Y-95397623D01*
X187583274Y-95406973D01*
X187584549Y-95416252D01*
X187585829Y-95425426D01*
X187587119Y-95434530D01*
X187588415Y-95443528D01*
X187589721Y-95452456D01*
X187591032Y-95461279D01*
X187592353Y-95470033D01*
X187593677Y-95478680D01*
X187595012Y-95487259D01*
X187596350Y-95495732D01*
X187597698Y-95504136D01*
X187599049Y-95512435D01*
X187600410Y-95520666D01*
X187601772Y-95528790D01*
X187603145Y-95536848D01*
X187604519Y-95544800D01*
X187605902Y-95552685D01*
X187607287Y-95560465D01*
X187608680Y-95568178D01*
X187610075Y-95575786D01*
X187611478Y-95583328D01*
X187612881Y-95590765D01*
X187614293Y-95598138D01*
X187615705Y-95605405D01*
X187617125Y-95612608D01*
X187618545Y-95619706D01*
X187619972Y-95626741D01*
X187621399Y-95633671D01*
X187622833Y-95640539D01*
X187624266Y-95647303D01*
X187625706Y-95654004D01*
X187627145Y-95660603D01*
X187628590Y-95667139D01*
X187630033Y-95673574D01*
X187631484Y-95679947D01*
X187632931Y-95686218D01*
X187634385Y-95692429D01*
X187635836Y-95698539D01*
X187637293Y-95704589D01*
X187638747Y-95710539D01*
X187640207Y-95716430D01*
X187641663Y-95722222D01*
X187643125Y-95727955D01*
X187644583Y-95733590D01*
X187646046Y-95739167D01*
X187647504Y-95744646D01*
X187648968Y-95750069D01*
X187650427Y-95755395D01*
X187651891Y-95760665D01*
X187653349Y-95765839D01*
X187654812Y-95770958D01*
X187656269Y-95775982D01*
X187657732Y-95780952D01*
X187659187Y-95785829D01*
X187660648Y-95790651D01*
X187662101Y-95795382D01*
X187663559Y-95800059D01*
X187665010Y-95804645D01*
X187666465Y-95809180D01*
X187667912Y-95813624D01*
X187669364Y-95818017D01*
X187670808Y-95822321D01*
X187672255Y-95826575D01*
X187673695Y-95830741D01*
X187675138Y-95834858D01*
X187676572Y-95838889D01*
X187678010Y-95842871D01*
X187679439Y-95846769D01*
X187680872Y-95850618D01*
X187682295Y-95854384D01*
X187683721Y-95858103D01*
X187685138Y-95861740D01*
X187686558Y-95865331D01*
X187687968Y-95868842D01*
X187689382Y-95872307D01*
X187690784Y-95875693D01*
X187692190Y-95879035D01*
X187693586Y-95882299D01*
X187694984Y-95885520D01*
X187696371Y-95888664D01*
X187697761Y-95891766D01*
X187699140Y-95894793D01*
X187700522Y-95897779D01*
X187701892Y-95900691D01*
X187703265Y-95903562D01*
X187704626Y-95906363D01*
X187705989Y-95909122D01*
X187707341Y-95911813D01*
X187708695Y-95914463D01*
X187710037Y-95917046D01*
X187711382Y-95919590D01*
X187712714Y-95922067D01*
X187714048Y-95924507D01*
X187715370Y-95926882D01*
X187716694Y-95929220D01*
X187718006Y-95931494D01*
X187719319Y-95933732D01*
X187720620Y-95935909D01*
X187721923Y-95938051D01*
X187723213Y-95940132D01*
X187724505Y-95942179D01*
X187725784Y-95944168D01*
X187727065Y-95946122D01*
X187728333Y-95948020D01*
X187729603Y-95949885D01*
X187730860Y-95951695D01*
X187732118Y-95953472D01*
X187733364Y-95955196D01*
X187734611Y-95956888D01*
X187735845Y-95958529D01*
X187737080Y-95960138D01*
X187738303Y-95961698D01*
X187739527Y-95963227D01*
X187740739Y-95964708D01*
X187741951Y-95966158D01*
X187743151Y-95967563D01*
X187744352Y-95968938D01*
X187745541Y-95970268D01*
X187746731Y-95971569D01*
X187747908Y-95972827D01*
X187749086Y-95974056D01*
X187750252Y-95975244D01*
X187751420Y-95976404D01*
X187752575Y-95977524D01*
X187753731Y-95978617D01*
X187754875Y-95979671D01*
X187756020Y-95980699D01*
X187757153Y-95981689D01*
X187758288Y-95982654D01*
X187759410Y-95983582D01*
X187760534Y-95984486D01*
X187761647Y-95985354D01*
X187762760Y-95986198D01*
X187763863Y-95987008D01*
X187764967Y-95987794D01*
X187766060Y-95988548D01*
X187767154Y-95989278D01*
X187768237Y-95989978D01*
X187769322Y-95990654D01*
X187770397Y-95991300D01*
X187771472Y-95991923D01*
X187772539Y-95992518D01*
X187773606Y-95993091D01*
X187774664Y-95993635D01*
X187775723Y-95994158D01*
X187776774Y-95994654D01*
X187777825Y-95995129D01*
X187778869Y-95995578D01*
X187779913Y-95996005D01*
X187780950Y-95996408D01*
X187781988Y-95996789D01*
X187783019Y-95997147D01*
X187784051Y-95997484D01*
X187785077Y-95997798D01*
X187786104Y-95998091D01*
X187787125Y-95998361D01*
X187788146Y-95998611D01*
X187789163Y-95998840D01*
X187790181Y-95999047D01*
X187791195Y-95999234D01*
X187792209Y-95999400D01*
X187793220Y-95999546D01*
X187794231Y-95999671D01*
X187795240Y-95999776D01*
X187796249Y-95999861D01*
X187797256Y-95999926D01*
X187798264Y-95999970D01*
X187800000Y-96000000D01*
X192600000Y-99000000D02*
X192579881Y-98993439D01*
X192559817Y-98986875D01*
X192539796Y-98980304D01*
X192519830Y-98973730D01*
X192499905Y-98967149D01*
X192480037Y-98960565D01*
X192460210Y-98953974D01*
X192440438Y-98947381D01*
X192420708Y-98940780D01*
X192401033Y-98934176D01*
X192381399Y-98927566D01*
X192361821Y-98920953D01*
X192342284Y-98914333D01*
X192322803Y-98907710D01*
X192303362Y-98901081D01*
X192283977Y-98894449D01*
X192264633Y-98887810D01*
X192245343Y-98881169D01*
X192226095Y-98874520D01*
X192206902Y-98867870D01*
X192187749Y-98861213D01*
X192168651Y-98854553D01*
X192149594Y-98847887D01*
X192130592Y-98841219D01*
X192111630Y-98834543D01*
X192092724Y-98827866D01*
X192073857Y-98821182D01*
X192055045Y-98814496D01*
X192036274Y-98807804D01*
X192017557Y-98801109D01*
X191998880Y-98794408D01*
X191980258Y-98787705D01*
X191961676Y-98780996D01*
X191943148Y-98774284D01*
X191924661Y-98767566D01*
X191906227Y-98760847D01*
X191887834Y-98754121D01*
X191869495Y-98747393D01*
X191851195Y-98740659D01*
X191832950Y-98733923D01*
X191814744Y-98727181D01*
X191796593Y-98720437D01*
X191778481Y-98713687D01*
X191760423Y-98706936D01*
X191742404Y-98700178D01*
X191724440Y-98693419D01*
X191706514Y-98686653D01*
X191688643Y-98679887D01*
X191670811Y-98673114D01*
X191653032Y-98666340D01*
X191635293Y-98659559D01*
X191617607Y-98652778D01*
X191599960Y-98645990D01*
X191582367Y-98639202D01*
X191564813Y-98632407D01*
X191547312Y-98625612D01*
X191529850Y-98618810D01*
X191512442Y-98612007D01*
X191495072Y-98605198D01*
X191477755Y-98598389D01*
X191460477Y-98591573D01*
X191443253Y-98584757D01*
X191426066Y-98577935D01*
X191408933Y-98571112D01*
X191391838Y-98564283D01*
X191374797Y-98557454D01*
X191357793Y-98550618D01*
X191340843Y-98543783D01*
X191323930Y-98536941D01*
X191307071Y-98530099D01*
X191290250Y-98523251D01*
X191273481Y-98516403D01*
X191256750Y-98509549D01*
X191240073Y-98502695D01*
X191223432Y-98495835D01*
X191206845Y-98488975D01*
X191190295Y-98482109D01*
X191173798Y-98475243D01*
X191157339Y-98468371D01*
X191140932Y-98461500D01*
X191124562Y-98454622D01*
X191108245Y-98447745D01*
X191091965Y-98440862D01*
X191075738Y-98433980D01*
X191059548Y-98427091D01*
X191043410Y-98420204D01*
X191027310Y-98413310D01*
X191011261Y-98406417D01*
X190995250Y-98399518D01*
X190979291Y-98392620D01*
X190963368Y-98385716D01*
X190947498Y-98378813D01*
X190931664Y-98371904D01*
X190915883Y-98364997D01*
X190900138Y-98358083D01*
X190884445Y-98351170D01*
X190868789Y-98344252D01*
X190853184Y-98337335D01*
X190837616Y-98330412D01*
X190822100Y-98323490D01*
X190806620Y-98316563D01*
X190791192Y-98309637D01*
X190775800Y-98302705D01*
X190760460Y-98295775D01*
X190745155Y-98288839D01*
X190729903Y-98281905D01*
X190714686Y-98274965D01*
X190699521Y-98268026D01*
X190684392Y-98261082D01*
X190669314Y-98254140D01*
X190654272Y-98247192D01*
X190639281Y-98240246D01*
X190624326Y-98233295D01*
X190609423Y-98226345D01*
X190594554Y-98219390D01*
X190579738Y-98212437D01*
X190564956Y-98205478D01*
X190550226Y-98198522D01*
X190535530Y-98191560D01*
X190520887Y-98184600D01*
X190506278Y-98177635D01*
X190491720Y-98170672D01*
X190477197Y-98163703D01*
X190462726Y-98156737D01*
X190448289Y-98149766D01*
X190433903Y-98142797D01*
X190419552Y-98135823D01*
X190405252Y-98128851D01*
X190390986Y-98121874D01*
X190376772Y-98114900D01*
X190362592Y-98107920D01*
X190348463Y-98100944D01*
X190334367Y-98093962D01*
X190320323Y-98086982D01*
X190306313Y-98079998D01*
X190292354Y-98073017D01*
X190278429Y-98066030D01*
X190264555Y-98059046D01*
X190250715Y-98052057D01*
X190236925Y-98045072D01*
X190223169Y-98038081D01*
X190209464Y-98031094D01*
X190195792Y-98024101D01*
X190182171Y-98017112D01*
X190168584Y-98010117D01*
X190155047Y-98003126D01*
X190141543Y-97996130D01*
X190128090Y-97989138D01*
X190114671Y-97982140D01*
X190101301Y-97975147D01*
X190087965Y-97968148D01*
X190074680Y-97961153D01*
X190061427Y-97954153D01*
X190048225Y-97947156D01*
X190035055Y-97940155D01*
X190021936Y-97933158D01*
X190008850Y-97926156D01*
X189995814Y-97919158D01*
X189982810Y-97912155D01*
X189969857Y-97905156D01*
X189956937Y-97898153D01*
X189944066Y-97891153D01*
X189931228Y-97884149D01*
X189918440Y-97877149D01*
X189905684Y-97870145D01*
X189892979Y-97863145D01*
X189880305Y-97856139D01*
X189867682Y-97849139D01*
X189855091Y-97842134D01*
X189842549Y-97835134D01*
X189830040Y-97828128D01*
X189817580Y-97821128D01*
X189805153Y-97814123D01*
X189792775Y-97807123D01*
X189780429Y-97800118D01*
X189768132Y-97793118D01*
X189755867Y-97786114D01*
X189743653Y-97779114D01*
X189731469Y-97772110D01*
X189719335Y-97765112D01*
X189707233Y-97758108D01*
X189695180Y-97751110D01*
X189683158Y-97744108D01*
X189671186Y-97737111D01*
X189659245Y-97730109D01*
X189647354Y-97723113D01*
X189635494Y-97716112D01*
X189623683Y-97709118D01*
X189611903Y-97702118D01*
X189600173Y-97695125D01*
X189588473Y-97688126D01*
X189576823Y-97681134D01*
X189565203Y-97674137D01*
X189553633Y-97667147D01*
X189542094Y-97660152D01*
X189530603Y-97653163D01*
X189519143Y-97646170D01*
X189507733Y-97639183D01*
X189485022Y-97625207D01*
X189462469Y-97611235D01*
X189440075Y-97597267D01*
X189417839Y-97583305D01*
X189395761Y-97569347D01*
X189373841Y-97555395D01*
X189352078Y-97541448D01*
X189330472Y-97527508D01*
X189309023Y-97513573D01*
X189287730Y-97499646D01*
X189266593Y-97485725D01*
X189245611Y-97471811D01*
X189224785Y-97457905D01*
X189204115Y-97444007D01*
X189183599Y-97430117D01*
X189163238Y-97416236D01*
X189143031Y-97402363D01*
X189122978Y-97388500D01*
X189103079Y-97374646D01*
X189083333Y-97360801D01*
X189063740Y-97346967D01*
X189044300Y-97333144D01*
X189025013Y-97319331D01*
X189005878Y-97305529D01*
X188986895Y-97291739D01*
X188968064Y-97277961D01*
X188949384Y-97264195D01*
X188930855Y-97250441D01*
X188912478Y-97236701D01*
X188894251Y-97222973D01*
X188876174Y-97209260D01*
X188858248Y-97195560D01*
X188840472Y-97181875D01*
X188822845Y-97168205D01*
X188805368Y-97154550D01*
X188788040Y-97140910D01*
X188770861Y-97127287D01*
X188753831Y-97113680D01*
X188736949Y-97100090D01*
X188720215Y-97086517D01*
X188703630Y-97072961D01*
X188687192Y-97059424D01*
X188670902Y-97045905D01*
X188654759Y-97032405D01*
X188638763Y-97018925D01*
X188622914Y-97005464D01*
X188607213Y-96992024D01*
X188591657Y-96978604D01*
X188576248Y-96965206D01*
X188560985Y-96951829D01*
X188545868Y-96938475D01*
X188530897Y-96925143D01*
X188516071Y-96911835D01*
X188501391Y-96898550D01*
X188486856Y-96885290D01*
X188472466Y-96872054D01*
X188458221Y-96858844D01*
X188444121Y-96845659D01*
X188430165Y-96832501D01*
X188416354Y-96819370D01*
X188402687Y-96806267D01*
X188389165Y-96793192D01*
X188375786Y-96780145D01*
X188362552Y-96767129D01*
X188349461Y-96754142D01*
X188336515Y-96741186D01*
X188323711Y-96728262D01*
X188311052Y-96715369D01*
X188298536Y-96702510D01*
X188286163Y-96689684D01*
X188273933Y-96676892D01*
X188261847Y-96664135D01*
X188249904Y-96651414D01*
X188238105Y-96638730D01*
X188226448Y-96626083D01*
X188214934Y-96613474D01*
X188203564Y-96600905D01*
X188192337Y-96588375D01*
X188181253Y-96575887D01*
X188170312Y-96563440D01*
X188159514Y-96551036D01*
X188148859Y-96538676D01*
X188138348Y-96526361D01*
X188127980Y-96514091D01*
X188117756Y-96501869D01*
X188107675Y-96489695D01*
X188097737Y-96477570D01*
X188087944Y-96465496D01*
X188078294Y-96453473D01*
X188068788Y-96441504D01*
X188059427Y-96429589D01*
X188050210Y-96417730D01*
X188041138Y-96405928D01*
X188032211Y-96394185D01*
X188023429Y-96382503D01*
X188014793Y-96370882D01*
X188006302Y-96359326D01*
X187997957Y-96347835D01*
X187989760Y-96336411D01*
X187981709Y-96325057D01*
X187973805Y-96313775D01*
X187966050Y-96302566D01*
X187958443Y-96291433D01*
X187950985Y-96280379D01*
X187943676Y-96269405D01*
X187936518Y-96258516D01*
X187929510Y-96247712D01*
X187922655Y-96236998D01*
X187915952Y-96226377D01*
X187909402Y-96215852D01*
X187903007Y-96205426D01*
X187896768Y-96195104D01*
X187890685Y-96184890D01*
X187884760Y-96174788D01*
X187878994Y-96164803D01*
X187873389Y-96154940D01*
X187867947Y-96145205D01*
X187862668Y-96135603D01*
X187857556Y-96126143D01*
X187852612Y-96116831D01*
X187847839Y-96107675D01*
X187843240Y-96098684D01*
X187838817Y-96089869D01*
X187834574Y-96081242D01*
X187830515Y-96072815D01*
X187826645Y-96064603D01*
X187822969Y-96056624D01*
X187819494Y-96048898D01*
X187816226Y-96041451D01*
X187813175Y-96034313D01*
X187810353Y-96027523D01*
X187807775Y-96021129D01*
X187805462Y-96015202D01*
X187803443Y-96009840D01*
X187801767Y-96005206D01*
X187800529Y-96001616D01*
X187800000Y-96000000D01*
X193000000Y-100000000D02*
X192980552Y-99941781D01*
X192961085Y-99883759D01*
X192941600Y-99825931D01*
X192922094Y-99768290D01*
X192902566Y-99710832D01*
X192883014Y-99653550D01*
X192863436Y-99596439D01*
X192843830Y-99539493D01*
X192824195Y-99482705D01*
X192804529Y-99426068D01*
X192784828Y-99369577D01*
X192765091Y-99313223D01*
X192745316Y-99257000D01*
X192725499Y-99200899D01*
X192705639Y-99144912D01*
X192685732Y-99089031D01*
X192665774Y-99033246D01*
X192645764Y-98977548D01*
X192625696Y-98921926D01*
X192605568Y-98866371D01*
X192585376Y-98810870D01*
X192565114Y-98755412D01*
X192544779Y-98699983D01*
X192524365Y-98644571D01*
X192503867Y-98589160D01*
X192483279Y-98533734D01*
X192462595Y-98478277D01*
X192441808Y-98422770D01*
X192420910Y-98367194D01*
X192399893Y-98311527D01*
X192378748Y-98255745D01*
X192357466Y-98199823D01*
X192336034Y-98143733D01*
X192314442Y-98087443D01*
X192292675Y-98030920D01*
X192270719Y-97974124D01*
X192248556Y-97917012D01*
X192226167Y-97859537D01*
X192203530Y-97801643D01*
X192180620Y-97743266D01*
X192157407Y-97684335D01*
X192133858Y-97624764D01*
X192109932Y-97564453D01*
X192085581Y-97503285D01*
X192060747Y-97441116D01*
X192035358Y-97377770D01*
X192009325Y-97313026D01*
X191982533Y-97246603D01*
X191954830Y-97178129D01*
X191926007Y-97107096D01*
X191895769Y-97032778D01*
X191863660Y-96954066D01*
X191828924Y-96869114D01*
X191790106Y-96774372D01*
X191743594Y-96661037D01*
X191713296Y-96587264D01*
X191662912Y-96464563D01*
X191638111Y-96404108D01*
X191613572Y-96344225D01*
X191589297Y-96284893D01*
X191565286Y-96226093D01*
X191541541Y-96167807D01*
X191518064Y-96110013D01*
X191494855Y-96052693D01*
X191483351Y-96024205D01*
X191471915Y-95995827D01*
X191460547Y-95967559D01*
X191449246Y-95939396D01*
X191438014Y-95911338D01*
X191426850Y-95883381D01*
X191415754Y-95855522D01*
X191404726Y-95827761D01*
X191393767Y-95800093D01*
X191382877Y-95772517D01*
X191372056Y-95745030D01*
X191361304Y-95717630D01*
X191350621Y-95690314D01*
X191340007Y-95663080D01*
X191329463Y-95635926D01*
X191318989Y-95608848D01*
X191308584Y-95581845D01*
X191298250Y-95554914D01*
X191287986Y-95528053D01*
X191277792Y-95501260D01*
X191267668Y-95474530D01*
X191257615Y-95447864D01*
X191247633Y-95421257D01*
X191237721Y-95394708D01*
X191227881Y-95368214D01*
X191218112Y-95341772D01*
X191208414Y-95315381D01*
X191198788Y-95289038D01*
X191189233Y-95262739D01*
X191179750Y-95236484D01*
X191170339Y-95210269D01*
X191161001Y-95184092D01*
X191151734Y-95157951D01*
X191142540Y-95131843D01*
X191133419Y-95105766D01*
X191124370Y-95079717D01*
X191115394Y-95053693D01*
X191106491Y-95027693D01*
X191097662Y-95001714D01*
X191088906Y-94975754D01*
X191080223Y-94949810D01*
X191071614Y-94923879D01*
X191063078Y-94897960D01*
X191054617Y-94872049D01*
X191046230Y-94846144D01*
X191037917Y-94820244D01*
X191029678Y-94794345D01*
X191021514Y-94768445D01*
X191013424Y-94742542D01*
X191005410Y-94716632D01*
X190997470Y-94690715D01*
X190989606Y-94664787D01*
X190981817Y-94638845D01*
X190974103Y-94612888D01*
X190966465Y-94586913D01*
X190958903Y-94560918D01*
X190951417Y-94534899D01*
X190947702Y-94521881D01*
X190944007Y-94508856D01*
X190940330Y-94495823D01*
X190936673Y-94482784D01*
X190933035Y-94469737D01*
X190929415Y-94456682D01*
X190925815Y-94443619D01*
X190922234Y-94430548D01*
X190918673Y-94417468D01*
X190915130Y-94404378D01*
X190911607Y-94391280D01*
X190908102Y-94378171D01*
X190904618Y-94365053D01*
X190901152Y-94351925D01*
X190897706Y-94338785D01*
X190894279Y-94325635D01*
X190890871Y-94312474D01*
X190887483Y-94299301D01*
X190884114Y-94286116D01*
X190880764Y-94272920D01*
X190877434Y-94259710D01*
X190874123Y-94246488D01*
X190870832Y-94233253D01*
X190867560Y-94220005D01*
X190864307Y-94206743D01*
X190861074Y-94193467D01*
X190857861Y-94180177D01*
X190854667Y-94166872D01*
X190851493Y-94153553D01*
X190848338Y-94140218D01*
X190845203Y-94126868D01*
X190842087Y-94113502D01*
X190838991Y-94100119D01*
X190835915Y-94086721D01*
X190832858Y-94073306D01*
X190829821Y-94059874D01*
X190826804Y-94046424D01*
X190823807Y-94032957D01*
X190820829Y-94019472D01*
X190817871Y-94005969D01*
X190814933Y-93992447D01*
X190812014Y-93978907D01*
X190809116Y-93965347D01*
X190806237Y-93951768D01*
X190803378Y-93938169D01*
X190800539Y-93924550D01*
X190797720Y-93910911D01*
X190794921Y-93897251D01*
X190792141Y-93883570D01*
X190789382Y-93869868D01*
X190786643Y-93856144D01*
X190783923Y-93842399D01*
X190781224Y-93828631D01*
X190778545Y-93814841D01*
X190775885Y-93801028D01*
X190773246Y-93787192D01*
X190770627Y-93773332D01*
X190768028Y-93759449D01*
X190765449Y-93745542D01*
X190762890Y-93731611D01*
X190760352Y-93717654D01*
X190757833Y-93703673D01*
X190755335Y-93689667D01*
X190752857Y-93675636D01*
X190750399Y-93661578D01*
X190747962Y-93647494D01*
X190745545Y-93633384D01*
X190743148Y-93619247D01*
X190740771Y-93605083D01*
X190738415Y-93590892D01*
X190736079Y-93576673D01*
X190733763Y-93562426D01*
X190731468Y-93548151D01*
X190729193Y-93533847D01*
X190726939Y-93519515D01*
X190724705Y-93505153D01*
X190722492Y-93490762D01*
X190720299Y-93476340D01*
X190718126Y-93461889D01*
X190715975Y-93447408D01*
X190713843Y-93432895D01*
X190711732Y-93418352D01*
X190709642Y-93403778D01*
X190707573Y-93389171D01*
X190705524Y-93374533D01*
X190703495Y-93359863D01*
X190701487Y-93345160D01*
X190699500Y-93330424D01*
X190697534Y-93315656D01*
X190695588Y-93300853D01*
X190693664Y-93286017D01*
X190691759Y-93271147D01*
X190689876Y-93256243D01*
X190688014Y-93241303D01*
X190686172Y-93226329D01*
X190684351Y-93211320D01*
X190682551Y-93196275D01*
X190680771Y-93181194D01*
X190679013Y-93166077D01*
X190677276Y-93150924D01*
X190675559Y-93135733D01*
X190673864Y-93120506D01*
X190672189Y-93105241D01*
X190670535Y-93089939D01*
X190668903Y-93074598D01*
X190667291Y-93059219D01*
X190665701Y-93043802D01*
X190664131Y-93028346D01*
X190662583Y-93012850D01*
X190661055Y-92997315D01*
X190659549Y-92981740D01*
X190658064Y-92966125D01*
X190656600Y-92950469D01*
X190655157Y-92934773D01*
X190653736Y-92919035D01*
X190652335Y-92903257D01*
X190650956Y-92887436D01*
X190649598Y-92871574D01*
X190648262Y-92855669D01*
X190646946Y-92839722D01*
X190645652Y-92823732D01*
X190644379Y-92807698D01*
X190643128Y-92791621D01*
X190641898Y-92775501D01*
X190640689Y-92759336D01*
X190639502Y-92743127D01*
X190638336Y-92726873D01*
X190637192Y-92710574D01*
X190636069Y-92694230D01*
X190634968Y-92677840D01*
X190633888Y-92661404D01*
X190632829Y-92644922D01*
X190631792Y-92628394D01*
X190630777Y-92611818D01*
X190629783Y-92595196D01*
X190628811Y-92578526D01*
X190627860Y-92561808D01*
X190626931Y-92545042D01*
X190626024Y-92528228D01*
X190625138Y-92511365D01*
X190624274Y-92494453D01*
X190623432Y-92477492D01*
X190622612Y-92460481D01*
X190621813Y-92443420D01*
X190621036Y-92426310D01*
X190620280Y-92409148D01*
X190619547Y-92391936D01*
X190618835Y-92374673D01*
X190618145Y-92357358D01*
X190617478Y-92339992D01*
X190616831Y-92322573D01*
X190616207Y-92305103D01*
X190615605Y-92287579D01*
X190615025Y-92270003D01*
X190614466Y-92252373D01*
X190613930Y-92234690D01*
X190613415Y-92216953D01*
X190612923Y-92199162D01*
X190612453Y-92181317D01*
X190612004Y-92163416D01*
X190611578Y-92145461D01*
X190611174Y-92127450D01*
X190610792Y-92109384D01*
X190610432Y-92091261D01*
X190610094Y-92073082D01*
X190609778Y-92054847D01*
X190609485Y-92036555D01*
X190609214Y-92018205D01*
X190608964Y-91999799D01*
X190608738Y-91981334D01*
X190608533Y-91962811D01*
X190608351Y-91944230D01*
X190608191Y-91925590D01*
X190608053Y-91906891D01*
X190607938Y-91888132D01*
X190607845Y-91869314D01*
X190607774Y-91850436D01*
X190607726Y-91831498D01*
X190607700Y-91812499D01*
X190607697Y-91793439D01*
X190607716Y-91774319D01*
X190607757Y-91755136D01*
X190607821Y-91735892D01*
X190607908Y-91716586D01*
X190608017Y-91697218D01*
X190608148Y-91677787D01*
X190608302Y-91658292D01*
X190608479Y-91638735D01*
X190608678Y-91619114D01*
X190608900Y-91599429D01*
X190609145Y-91579680D01*
X190609412Y-91559866D01*
X190609702Y-91539988D01*
X190610014Y-91520044D01*
X190610349Y-91500035D01*
X190610707Y-91479960D01*
X190611088Y-91459819D01*
X190611492Y-91439612D01*
X190611918Y-91419338D01*
X190612367Y-91398997D01*
X190612839Y-91378589D01*
X190613334Y-91358114D01*
X190613852Y-91337570D01*
X190614392Y-91316959D01*
X190614956Y-91296279D01*
X190615542Y-91275530D01*
X190616151Y-91254712D01*
X190616784Y-91233825D01*
X190617439Y-91212868D01*
X190618117Y-91191840D01*
X190618818Y-91170743D01*
X190619543Y-91149575D01*
X190620290Y-91128336D01*
X190621061Y-91107026D01*
X190621854Y-91085645D01*
X190622671Y-91064191D01*
X190623510Y-91042666D01*
X190624373Y-91021068D01*
X190625259Y-90999397D01*
X190626169Y-90977653D01*
X190627101Y-90955836D01*
X190628057Y-90933946D01*
X190630038Y-90889942D01*
X190632112Y-90845640D01*
X190634280Y-90801037D01*
X190636541Y-90756132D01*
X190638896Y-90710920D01*
X190641344Y-90665401D01*
X190643887Y-90619571D01*
X190646523Y-90573429D01*
X190649253Y-90526971D01*
X190652078Y-90480195D01*
X190654998Y-90433099D01*
X190658012Y-90385681D01*
X190661121Y-90337937D01*
X190664324Y-90289866D01*
X190667623Y-90241465D01*
X190671018Y-90192731D01*
X190674507Y-90143663D01*
X190678092Y-90094258D01*
X190681773Y-90044512D01*
X190685550Y-89994425D01*
X190689423Y-89943993D01*
X190693392Y-89893214D01*
X190697457Y-89842086D01*
X190701619Y-89790606D01*
X190705878Y-89738771D01*
X190710233Y-89686580D01*
X190714685Y-89634030D01*
X190719235Y-89581118D01*
X190723881Y-89527842D01*
X190728625Y-89474199D01*
X190733467Y-89420188D01*
X190738406Y-89365805D01*
X190743443Y-89311048D01*
X190748578Y-89255915D01*
X190753811Y-89200404D01*
X190759143Y-89144511D01*
X190764573Y-89088235D01*
X190770101Y-89031573D01*
X190775729Y-88974522D01*
X190781455Y-88917081D01*
X190787281Y-88859246D01*
X190793205Y-88801015D01*
X190799229Y-88742387D01*
X190805353Y-88683357D01*
X190811576Y-88623925D01*
X190817899Y-88564087D01*
X190824322Y-88503841D01*
X190830845Y-88443185D01*
X190837469Y-88382116D01*
X190844193Y-88320632D01*
X190851017Y-88258731D01*
X190857943Y-88196409D01*
X190864969Y-88133664D01*
X190872096Y-88070495D01*
X190879325Y-88006898D01*
X190886654Y-87942871D01*
X190894086Y-87878413D01*
X190901619Y-87813519D01*
X190909254Y-87748188D01*
X190916990Y-87682418D01*
X190924829Y-87616205D01*
X190932770Y-87549548D01*
X190940814Y-87482445D01*
X190948960Y-87414891D01*
X190957209Y-87346887D01*
X190965561Y-87278427D01*
X190974016Y-87209512D01*
X190982574Y-87140137D01*
X190991235Y-87070300D01*
X191000000Y-87000000D01*
X193000000Y-100000000D02*
X194000000Y-114000000D01*
X193000000Y-116000000D02*
X193012971Y-115986973D01*
X193025857Y-115973918D01*
X193038658Y-115960835D01*
X193051375Y-115947725D01*
X193064007Y-115934587D01*
X193076556Y-115921421D01*
X193089020Y-115908228D01*
X193101400Y-115895008D01*
X193113696Y-115881761D01*
X193125909Y-115868488D01*
X193138037Y-115855187D01*
X193150083Y-115841860D01*
X193162044Y-115828506D01*
X193173922Y-115815126D01*
X193185717Y-115801719D01*
X193197429Y-115788287D01*
X193209057Y-115774829D01*
X193220603Y-115761345D01*
X193232065Y-115747835D01*
X193243444Y-115734300D01*
X193254741Y-115720739D01*
X193265955Y-115707153D01*
X193277086Y-115693543D01*
X193288134Y-115679907D01*
X193299100Y-115666247D01*
X193309983Y-115652563D01*
X193320784Y-115638854D01*
X193331503Y-115625120D01*
X193342139Y-115611363D01*
X193352692Y-115597582D01*
X193363164Y-115583778D01*
X193373553Y-115569950D01*
X193383860Y-115556098D01*
X193394085Y-115542224D01*
X193404228Y-115528327D01*
X193414288Y-115514407D01*
X193424267Y-115500465D01*
X193434163Y-115486500D01*
X193443978Y-115472514D01*
X193453710Y-115458506D01*
X193463360Y-115444476D01*
X193472929Y-115430425D01*
X193482415Y-115416352D01*
X193491819Y-115402259D01*
X193501142Y-115388145D01*
X193510382Y-115374011D01*
X193519540Y-115359857D01*
X193528617Y-115345683D01*
X193537611Y-115331489D01*
X193546523Y-115317277D01*
X193555353Y-115303045D01*
X193564101Y-115288794D01*
X193572767Y-115274525D01*
X193581350Y-115260238D01*
X193589852Y-115245934D01*
X193598271Y-115231612D01*
X193606608Y-115217272D01*
X193614862Y-115202916D01*
X193623034Y-115188544D01*
X193631124Y-115174156D01*
X193639131Y-115159752D01*
X193647055Y-115145333D01*
X193654897Y-115130899D01*
X193662656Y-115116451D01*
X193670333Y-115101988D01*
X193677926Y-115087512D01*
X193685436Y-115073024D01*
X193692864Y-115058522D01*
X193700208Y-115044008D01*
X193707469Y-115029483D01*
X193714646Y-115014947D01*
X193721740Y-115000400D01*
X193728751Y-114985843D01*
X193735677Y-114971276D01*
X193742520Y-114956701D01*
X193749279Y-114942118D01*
X193755954Y-114927526D01*
X193762544Y-114912928D01*
X193769051Y-114898324D01*
X193775472Y-114883714D01*
X193781809Y-114869099D01*
X193788062Y-114854480D01*
X193794229Y-114839858D01*
X193800311Y-114825233D01*
X193806308Y-114810606D01*
X193812219Y-114795979D01*
X193818045Y-114781351D01*
X193823784Y-114766725D01*
X193829438Y-114752100D01*
X193835005Y-114737479D01*
X193840486Y-114722861D01*
X193845881Y-114708249D01*
X193851188Y-114693642D01*
X193856408Y-114679044D01*
X193861541Y-114664453D01*
X193866587Y-114649873D01*
X193871544Y-114635304D01*
X193876414Y-114620748D01*
X193881195Y-114606206D01*
X193885888Y-114591679D01*
X193890491Y-114577170D01*
X193895006Y-114562679D01*
X193899432Y-114548209D01*
X193903767Y-114533761D01*
X193908013Y-114519338D01*
X193912168Y-114504941D01*
X193916233Y-114490573D01*
X193920207Y-114476235D01*
X193924090Y-114461931D01*
X193927881Y-114447661D01*
X193931581Y-114433430D01*
X193935188Y-114419240D01*
X193938703Y-114405093D01*
X193942124Y-114390993D01*
X193945453Y-114376942D01*
X193948687Y-114362945D01*
X193951828Y-114349005D01*
X193954874Y-114335126D01*
X193957825Y-114321312D01*
X193960681Y-114307567D01*
X193963442Y-114293897D01*
X193966106Y-114280305D01*
X193968673Y-114266798D01*
X193971144Y-114253382D01*
X193973517Y-114240062D01*
X193975791Y-114226846D01*
X193977968Y-114213740D01*
X193980045Y-114200754D01*
X193982023Y-114187896D01*
X193983901Y-114175176D01*
X193985678Y-114162604D01*
X193987354Y-114150193D01*
X193988928Y-114137955D01*
X193990400Y-114125906D01*
X193991770Y-114114063D01*
X193993035Y-114102445D01*
X193994197Y-114091075D01*
X193995254Y-114079978D01*
X193996206Y-114069186D01*
X193997052Y-114058736D01*
X193997791Y-114048674D01*
X193998424Y-114039058D01*
X193998949Y-114029964D01*
X193999366Y-114021497D01*
X193999677Y-114013812D01*
X193999880Y-114007162D01*
X193999982Y-114002055D01*
X194000000Y-114000000D01*
D13*
G36*
X172252198Y-114410732D02*
G01*
X171902442Y-114410732D01*
X171902442Y-114075020D01*
X172252198Y-114075020D01*
X172252198Y-114410732D01*
G37*
G36*
X175272466Y-115682222D02*
G01*
X168532418Y-115682222D01*
X168532418Y-114060976D01*
X168754640Y-114060976D01*
X169803907Y-114060976D01*
X169803907Y-115110244D01*
X169454152Y-115110244D01*
X169454152Y-114410732D01*
X168754640Y-114410732D01*
X168754640Y-115110244D01*
X169104396Y-115110244D01*
X169104396Y-115460000D01*
X170153663Y-115460000D01*
X170153663Y-115110244D01*
X170503419Y-115110244D01*
X170503419Y-114060976D01*
X171202930Y-114060976D01*
X171202930Y-114410732D01*
X171202930Y-115460000D01*
X171902442Y-115460000D01*
X171902442Y-114760488D01*
X172252198Y-114760488D01*
X172252198Y-115460000D01*
X172951709Y-115460000D01*
X172951709Y-114060976D01*
X173651221Y-114060976D01*
X174000976Y-114060976D01*
X174000976Y-115460000D01*
X174700488Y-115460000D01*
X174700488Y-114060976D01*
X175050244Y-114060976D01*
X175050244Y-113711221D01*
X173651221Y-113711221D01*
X173651221Y-114060976D01*
X172951709Y-114060976D01*
X172601953Y-114060976D01*
X172601953Y-113711221D01*
X171552686Y-113711221D01*
X171552686Y-114060976D01*
X171202930Y-114060976D01*
X170503419Y-114060976D01*
X170153663Y-114060976D01*
X170153663Y-113711221D01*
X168754640Y-113711221D01*
X168754640Y-114060976D01*
X168532418Y-114060976D01*
X168532418Y-113488999D01*
X175272466Y-113488999D01*
X175272466Y-115682222D01*
G37*
G36*
X178702442Y-111896200D02*
G01*
X178352686Y-111896200D01*
X178352686Y-110875020D01*
X178702442Y-110875020D01*
X178702442Y-111896200D01*
G37*
G36*
X181150732Y-111210732D02*
G01*
X180815020Y-111210732D01*
X180815020Y-110860976D01*
X181150732Y-110860976D01*
X181150732Y-111210732D01*
G37*
G36*
X182072466Y-112482222D02*
G01*
X168337303Y-112482222D01*
X168337303Y-110860976D01*
X168559525Y-110860976D01*
X168909281Y-110860976D01*
X168909281Y-112260000D01*
X169608792Y-112260000D01*
X169608792Y-110860976D01*
X169958548Y-110860976D01*
X170658060Y-110860976D01*
X171357571Y-110860976D01*
X171357571Y-111210732D01*
X170658060Y-111210732D01*
X170658060Y-111560488D01*
X171357571Y-111560488D01*
X171357571Y-111910244D01*
X170658060Y-111910244D01*
X170658060Y-112260000D01*
X172057083Y-112260000D01*
X172057083Y-110860976D01*
X172756594Y-110860976D01*
X173106350Y-110860976D01*
X173106350Y-111210732D01*
X173456106Y-111210732D01*
X173456106Y-111560488D01*
X173106350Y-111560488D01*
X173106350Y-111910244D01*
X172756594Y-111910244D01*
X172756594Y-112260000D01*
X173456106Y-112260000D01*
X173456106Y-111910244D01*
X173805861Y-111910244D01*
X173805861Y-112260000D01*
X174505373Y-112260000D01*
X174505373Y-110860976D01*
X175204884Y-110860976D01*
X175204884Y-111210732D01*
X175904396Y-111210732D01*
X175904396Y-110860976D01*
X176254152Y-110860976D01*
X176254152Y-111910244D01*
X175904396Y-111910244D01*
X175904396Y-111560488D01*
X175204884Y-111560488D01*
X175204884Y-111910244D01*
X175554640Y-111910244D01*
X175554640Y-112260000D01*
X176603907Y-112260000D01*
X176603907Y-111910244D01*
X176953663Y-111910244D01*
X176953663Y-110860976D01*
X177653175Y-110860976D01*
X177653175Y-111896200D01*
X177653175Y-111910244D01*
X178002930Y-111910244D01*
X178002930Y-112260000D01*
X179052198Y-112260000D01*
X179052198Y-111910244D01*
X179401953Y-111910244D01*
X179401953Y-110860976D01*
X180101465Y-110860976D01*
X180101465Y-111210732D01*
X180451221Y-111210732D01*
X180451221Y-111560488D01*
X181150732Y-111560488D01*
X181150732Y-112260000D01*
X181850244Y-112260000D01*
X181850244Y-110511221D01*
X180451221Y-110511221D01*
X180451221Y-110860976D01*
X180101465Y-110860976D01*
X179401953Y-110860976D01*
X179052198Y-110860976D01*
X179052198Y-110511221D01*
X178002930Y-110511221D01*
X178002930Y-110860976D01*
X177653175Y-110860976D01*
X176953663Y-110860976D01*
X176603907Y-110860976D01*
X176603907Y-110511221D01*
X175554640Y-110511221D01*
X175554640Y-110860976D01*
X175204884Y-110860976D01*
X174505373Y-110860976D01*
X174505373Y-110511221D01*
X173805861Y-110511221D01*
X173805861Y-110860976D01*
X173456106Y-110860976D01*
X173456106Y-110511221D01*
X172756594Y-110511221D01*
X172756594Y-110860976D01*
X172057083Y-110860976D01*
X172057083Y-110511221D01*
X170658060Y-110511221D01*
X170658060Y-110860976D01*
X169958548Y-110860976D01*
X169958548Y-110511221D01*
X168559525Y-110511221D01*
X168559525Y-110860976D01*
X168337303Y-110860976D01*
X168337303Y-110288999D01*
X182072466Y-110288999D01*
X182072466Y-112482222D01*
G37*
%TO.C,D5*%
D14*
X172270290Y-87336840D02*
G75*
G02*
X172170288Y-87336840I-50001J0D01*
G01*
X172170288Y-87336840D02*
G75*
G02*
X172270290Y-87336840I50001J0D01*
G01*
%TD*%
M02*
