%TF.GenerationSoftware,KiCad,Pcbnew,10.0.1*%
%TF.CreationDate,2026-04-26T21:51:13+02:00*%
%TF.ProjectId,sao_laser_tag,73616f5f-6c61-4736-9572-5f7461672e6b,rev?*%
%TF.SameCoordinates,Original*%
%TF.FileFunction,Copper,L2,Bot*%
%TF.FilePolarity,Positive*%
%FSLAX46Y46*%
G04 Gerber Fmt 4.6, Leading zero omitted, Abs format (unit mm)*
G04 Created by KiCad (PCBNEW 10.0.1) date 2026-04-26 21:51:13*
%MOMM*%
%LPD*%
G01*
G04 APERTURE LIST*
G04 Aperture macros list*
%AMRoundRect*
0 Rectangle with rounded corners*
0 $1 Rounding radius*
0 $2 $3 $4 $5 $6 $7 $8 $9 X,Y pos of 4 corners*
0 Add a 4 corners polygon primitive as box body*
4,1,4,$2,$3,$4,$5,$6,$7,$8,$9,$2,$3,0*
0 Add four circle primitives for the rounded corners*
1,1,$1+$1,$2,$3*
1,1,$1+$1,$4,$5*
1,1,$1+$1,$6,$7*
1,1,$1+$1,$8,$9*
0 Add four rect primitives between the rounded corners*
20,1,$1+$1,$2,$3,$4,$5,0*
20,1,$1+$1,$4,$5,$6,$7,0*
20,1,$1+$1,$6,$7,$8,$9,0*
20,1,$1+$1,$8,$9,$2,$3,0*%
G04 Aperture macros list end*
%TA.AperFunction,SMDPad,CuDef*%
%ADD10RoundRect,0.237500X-0.291601X-0.232446X0.283311X-0.242481X0.291601X0.232446X-0.283311X0.242481X0*%
%TD*%
%TA.AperFunction,ComponentPad*%
%ADD11RoundRect,0.250200X0.649800X0.649800X-0.649800X0.649800X-0.649800X-0.649800X0.649800X-0.649800X0*%
%TD*%
%TA.AperFunction,ComponentPad*%
%ADD12C,1.800000*%
%TD*%
%TA.AperFunction,ComponentPad*%
%ADD13R,1.727200X1.727200*%
%TD*%
%TA.AperFunction,ComponentPad*%
%ADD14C,1.727200*%
%TD*%
%TA.AperFunction,ComponentPad*%
%ADD15O,1.727200X1.727200*%
%TD*%
%TA.AperFunction,ViaPad*%
%ADD16C,0.600000*%
%TD*%
%TA.AperFunction,Conductor*%
%ADD17C,0.200000*%
%TD*%
%TA.AperFunction,Conductor*%
%ADD18C,0.600000*%
%TD*%
G04 APERTURE END LIST*
D10*
%TO.P,D5,1,K_1*%
%TO.N,GND*%
X173245133Y-87354728D03*
%TO.P,D5,2,A_2*%
%TO.N,Net-(D5-A)*%
X174994867Y-87385272D03*
%TD*%
D11*
%TO.P,U2,1,OUT_1*%
%TO.N,/RECEIVER_OUT*%
X177600000Y-100500000D03*
D12*
%TO.P,U2,2,GND_2*%
%TO.N,GND*%
X175060000Y-100500000D03*
%TO.P,U2,3,Vs_3*%
%TO.N,Net-(U2-Vs)*%
X172520000Y-100500000D03*
%TD*%
D13*
%TO.P,X1,1,VCC_1*%
%TO.N,+3.3V*%
X177580000Y-105350000D03*
D14*
%TO.P,X1,2,GND_2*%
%TO.N,GND*%
X177580000Y-107890000D03*
D15*
%TO.P,X1,3,SDA_3*%
%TO.N,/I2C_SDA*%
X175040000Y-105350000D03*
%TO.P,X1,4,SCL_4*%
%TO.N,/I2C_SCL*%
X175040000Y-107890000D03*
D14*
%TO.P,X1,5,GPIO1_5*%
%TO.N,/BUTTON_INPUT*%
X172500000Y-105350000D03*
%TO.P,X1,6,GPIO2_6*%
%TO.N,/I_GOT_HIT_SIGNAL*%
X172500000Y-107890000D03*
%TD*%
D16*
%TO.N,GND*%
X175200000Y-103700000D03*
X170600000Y-93200000D03*
X179500000Y-104200000D03*
X171500000Y-81600000D03*
X180200000Y-91500000D03*
X171300000Y-98800000D03*
X183200000Y-94600000D03*
X166660000Y-98620000D03*
X182670000Y-82560000D03*
X170550000Y-94710000D03*
X183630000Y-87570000D03*
X177160000Y-90440000D03*
X170000000Y-106520000D03*
X171890000Y-117260000D03*
X183200000Y-91500000D03*
X166940000Y-109450000D03*
X183910000Y-108390000D03*
%TO.N,/I_GOT_HIT_SIGNAL*%
X180340000Y-88360000D03*
X181900000Y-94200000D03*
%TO.N,/TRANSMIT_OUT*%
X183830000Y-100780000D03*
X168430000Y-107420000D03*
%TO.N,/BUTTON_INPUT*%
X163920000Y-111380000D03*
X184440000Y-99350000D03*
%TO.N,Net-(D5-A)*%
X176000000Y-87350000D03*
%TD*%
%TO.N,/I_GOT_HIT_SIGNAL*%
D17*
X181900000Y-94200000D02*
X181900000Y-94600000D01*
X181900000Y-94600000D02*
X177500000Y-99000000D01*
X177500000Y-99000000D02*
X176800000Y-99000000D01*
X173800000Y-104094421D02*
X173800000Y-105800000D01*
X176800000Y-99000000D02*
X176300000Y-99500000D01*
X176300000Y-99500000D02*
X176300000Y-101594421D01*
X176300000Y-101594421D02*
X173800000Y-104094421D01*
X173800000Y-105800000D02*
X172500000Y-107100000D01*
X172500000Y-107100000D02*
X172500000Y-107890000D01*
%TO.N,/BUTTON_INPUT*%
X184440000Y-99350000D02*
X184320000Y-99230000D01*
X184320000Y-99230000D02*
X183170000Y-99230000D01*
X171000000Y-108700000D02*
X171000000Y-106450000D01*
X183170000Y-99230000D02*
X182500000Y-99900000D01*
X182500000Y-99900000D02*
X182500000Y-106100000D01*
X182500000Y-106100000D02*
X178300000Y-110300000D01*
X178300000Y-110300000D02*
X172600000Y-110300000D01*
X172600000Y-110300000D02*
X171000000Y-108700000D01*
X171000000Y-106450000D02*
X172100000Y-105350000D01*
X172100000Y-105350000D02*
X172500000Y-105350000D01*
%TO.N,/I_GOT_HIT_SIGNAL*%
X180340000Y-88360000D02*
X180340000Y-89120000D01*
X180340000Y-89120000D02*
X181900000Y-90680000D01*
X181900000Y-90680000D02*
X181900000Y-94200000D01*
%TO.N,/TRANSMIT_OUT*%
X183830000Y-106930000D02*
X183830000Y-100780000D01*
X171710000Y-111400000D02*
X179360000Y-111400000D01*
X168430000Y-107420000D02*
X168430000Y-108120000D01*
X179360000Y-111400000D02*
X183830000Y-106930000D01*
X168430000Y-108120000D02*
X171710000Y-111400000D01*
%TO.N,/BUTTON_INPUT*%
X163920000Y-109750000D02*
X168320000Y-105350000D01*
X168320000Y-105350000D02*
X172500000Y-105350000D01*
X163920000Y-111380000D02*
X163920000Y-109750000D01*
%TO.N,GND*%
D18*
X173230405Y-87340000D02*
X173245133Y-87354728D01*
%TO.N,Net-(D5-A)*%
X176000000Y-87350000D02*
X175030139Y-87350000D01*
X175030139Y-87350000D02*
X174994867Y-87385272D01*
%TD*%
%TA.AperFunction,Conductor*%
%TO.N,GND*%
G36*
X187531400Y-78266469D02*
G01*
X187538961Y-78266913D01*
X188112906Y-78318294D01*
X188120286Y-78319180D01*
X188706747Y-78407588D01*
X188713984Y-78408901D01*
X189309549Y-78535246D01*
X189316596Y-78536957D01*
X189515134Y-78591378D01*
X189918989Y-78702079D01*
X189925762Y-78704146D01*
X190533451Y-78908924D01*
X190539983Y-78911333D01*
X191151730Y-79156679D01*
X191157984Y-79159389D01*
X191348460Y-79248274D01*
X191376368Y-79261297D01*
X191428794Y-79307484D01*
X191447928Y-79374683D01*
X191446974Y-79389045D01*
X190512511Y-86864749D01*
X190511394Y-86870648D01*
X190503246Y-86938845D01*
X190503165Y-86939511D01*
X190494623Y-87007851D01*
X190494286Y-87013830D01*
X190383857Y-87938069D01*
X190382547Y-87949027D01*
X190381345Y-87952152D01*
X190374756Y-88014228D01*
X190374660Y-88015038D01*
X190374649Y-88015139D01*
X190368750Y-88064521D01*
X190367285Y-88076780D01*
X190366626Y-88090837D01*
X190280162Y-88905565D01*
X190278893Y-88917517D01*
X190277416Y-88921558D01*
X190271954Y-88982899D01*
X190271843Y-88983950D01*
X190265442Y-89044276D01*
X190265495Y-89046386D01*
X190265045Y-89060496D01*
X190201401Y-89775370D01*
X190201402Y-89775371D01*
X190200220Y-89788641D01*
X190198456Y-89793812D01*
X190194386Y-89854184D01*
X190194268Y-89855513D01*
X190189020Y-89914468D01*
X190189236Y-89919577D01*
X190189065Y-89933132D01*
X190146931Y-90558225D01*
X190145947Y-90572820D01*
X190143915Y-90579342D01*
X190141524Y-90638438D01*
X190141410Y-90640141D01*
X190137545Y-90697479D01*
X190138062Y-90705593D01*
X190137259Y-90705644D01*
X190138275Y-90718804D01*
X190129717Y-90930461D01*
X190115565Y-91280444D01*
X190113334Y-91288533D01*
X190112909Y-91346124D01*
X190112826Y-91348178D01*
X190110580Y-91403729D01*
X190111315Y-91411826D01*
X190110784Y-91411874D01*
X190112318Y-91426167D01*
X190108764Y-91907991D01*
X190108662Y-91921821D01*
X190106373Y-91931621D01*
X190108177Y-91987547D01*
X190108159Y-91990025D01*
X190107766Y-92043533D01*
X190108768Y-92051601D01*
X190108513Y-92051632D01*
X190110745Y-92067098D01*
X190124509Y-92493598D01*
X190124942Y-92507023D01*
X190122810Y-92518518D01*
X190127062Y-92572690D01*
X190127155Y-92575571D01*
X190128816Y-92627042D01*
X190130131Y-92635031D01*
X190133257Y-92651622D01*
X190163164Y-93032639D01*
X190163164Y-93032640D01*
X190164188Y-93045693D01*
X190162473Y-93058608D01*
X190169327Y-93111171D01*
X190169578Y-93114362D01*
X190169577Y-93114364D01*
X190173480Y-93164072D01*
X190173528Y-93164296D01*
X190179522Y-93189344D01*
X190214253Y-93455631D01*
X190226156Y-93546894D01*
X190225085Y-93560633D01*
X190234653Y-93612052D01*
X190235089Y-93615391D01*
X190235088Y-93615393D01*
X190241417Y-93663913D01*
X190241419Y-93663920D01*
X190241751Y-93664723D01*
X190249036Y-93689343D01*
X190308034Y-94006387D01*
X190310401Y-94019112D01*
X190310075Y-94032756D01*
X190322419Y-94083691D01*
X190323031Y-94086980D01*
X190323036Y-94087000D01*
X190332016Y-94135252D01*
X190332017Y-94135256D01*
X190332323Y-94135895D01*
X190340946Y-94160140D01*
X190402105Y-94412485D01*
X190416140Y-94470393D01*
X190416457Y-94482910D01*
X190431619Y-94534264D01*
X190432341Y-94537242D01*
X190444231Y-94586301D01*
X190445325Y-94589133D01*
X190453971Y-94609969D01*
X190538329Y-94895681D01*
X190542214Y-94908839D01*
X190542913Y-94919303D01*
X190560820Y-94971858D01*
X190561551Y-94974333D01*
X190576560Y-95025165D01*
X190579860Y-95032593D01*
X190579688Y-95032669D01*
X190586461Y-95047107D01*
X190687282Y-95342986D01*
X190688048Y-95350811D01*
X190708489Y-95405225D01*
X190709108Y-95407042D01*
X190709109Y-95407044D01*
X190727250Y-95460283D01*
X190730851Y-95467562D01*
X190730291Y-95467838D01*
X190736682Y-95480274D01*
X190845476Y-95769879D01*
X190845477Y-95769879D01*
X190850495Y-95783238D01*
X190851255Y-95789429D01*
X190873646Y-95844866D01*
X190874185Y-95846300D01*
X190874185Y-95846301D01*
X190894649Y-95900775D01*
X190898040Y-95907129D01*
X190903616Y-95919066D01*
X191129263Y-96477717D01*
X191224635Y-96713838D01*
X191224666Y-96714081D01*
X191249406Y-96775164D01*
X191263493Y-96810041D01*
X191276695Y-96842724D01*
X191277158Y-96843684D01*
X191681932Y-97843058D01*
X191682900Y-97845523D01*
X192109716Y-98967615D01*
X192110897Y-98970856D01*
X192500081Y-100086463D01*
X192506686Y-100118472D01*
X193496892Y-113981345D01*
X193496555Y-114002884D01*
X193483889Y-114125867D01*
X193481572Y-114140136D01*
X193435179Y-114348303D01*
X193431552Y-114361234D01*
X193350258Y-114600413D01*
X193345375Y-114612615D01*
X193229706Y-114862399D01*
X193223693Y-114873792D01*
X193182203Y-114943383D01*
X193073605Y-115125536D01*
X193073446Y-115125802D01*
X193066460Y-115136272D01*
X192880595Y-115386345D01*
X192872834Y-115395778D01*
X192654888Y-115635568D01*
X192644231Y-115645965D01*
X192608027Y-115677269D01*
X192599321Y-115684140D01*
X192511630Y-115747204D01*
X192505626Y-115751262D01*
X192343107Y-115854293D01*
X192338503Y-115857073D01*
X192121405Y-115981849D01*
X192117741Y-115983873D01*
X191846286Y-116127928D01*
X191843150Y-116129536D01*
X191522447Y-116288213D01*
X191519674Y-116289543D01*
X191164527Y-116454429D01*
X191161980Y-116455576D01*
X190767221Y-116628152D01*
X190763661Y-116629643D01*
X189891522Y-116979003D01*
X189887131Y-116980666D01*
X188935011Y-117320831D01*
X188930815Y-117322246D01*
X187919754Y-117643245D01*
X187915654Y-117644470D01*
X186863086Y-117939086D01*
X186859028Y-117940148D01*
X185777762Y-118203705D01*
X185773711Y-118204621D01*
X184673150Y-118434131D01*
X184669088Y-118434907D01*
X183556438Y-118628461D01*
X183552349Y-118629102D01*
X182432979Y-118785542D01*
X182428859Y-118786048D01*
X181306908Y-118904716D01*
X181302751Y-118905085D01*
X180181497Y-118985647D01*
X180177305Y-118985877D01*
X179806866Y-118999911D01*
X179802172Y-119000000D01*
X176877408Y-119000000D01*
X176873620Y-118999942D01*
X176870742Y-118999854D01*
X176831044Y-118998640D01*
X176826763Y-118998435D01*
X175727870Y-118926761D01*
X175723570Y-118926405D01*
X174633169Y-118817076D01*
X174628859Y-118816568D01*
X173547534Y-118669766D01*
X173543221Y-118669103D01*
X172471436Y-118484989D01*
X172467132Y-118484171D01*
X171405173Y-118262859D01*
X171400887Y-118261886D01*
X170348938Y-118003444D01*
X170344680Y-118002317D01*
X169302809Y-117706746D01*
X169298590Y-117705468D01*
X168266758Y-117372690D01*
X168262590Y-117371264D01*
X167240794Y-117001161D01*
X167236686Y-116999590D01*
X166224865Y-116591958D01*
X166220829Y-116590248D01*
X165542995Y-116288904D01*
X165218888Y-116144816D01*
X165214964Y-116142988D01*
X164222723Y-115659374D01*
X164218883Y-115657419D01*
X163560102Y-115307314D01*
X163236253Y-115135206D01*
X163232489Y-115133120D01*
X163099003Y-115056124D01*
X163099002Y-115056124D01*
X162913800Y-114949297D01*
X187241166Y-114949297D01*
X187241167Y-114949302D01*
X187241167Y-114949307D01*
X187267640Y-115171321D01*
X187330140Y-115385994D01*
X187426976Y-115587523D01*
X187555530Y-115770457D01*
X187712325Y-115929850D01*
X187712328Y-115929852D01*
X187712330Y-115929854D01*
X187893122Y-116061391D01*
X187893124Y-116061392D01*
X187993435Y-116111636D01*
X188093034Y-116161525D01*
X188306652Y-116227542D01*
X188528201Y-116257659D01*
X188751690Y-116251060D01*
X188751694Y-116251059D01*
X188751697Y-116251059D01*
X188971066Y-116207926D01*
X188971066Y-116207925D01*
X188971076Y-116207924D01*
X189068058Y-116171514D01*
X189071133Y-116170407D01*
X191910566Y-115191294D01*
X191920765Y-115190161D01*
X191972718Y-115169862D01*
X192025451Y-115151679D01*
X192025452Y-115151677D01*
X192025455Y-115151677D01*
X192032730Y-115148046D01*
X192032837Y-115148261D01*
X192046744Y-115140966D01*
X192086282Y-115125536D01*
X192278387Y-115011140D01*
X192449148Y-114866808D01*
X192593946Y-114696442D01*
X192708866Y-114504650D01*
X192790801Y-114296617D01*
X192837535Y-114077969D01*
X192843769Y-113942397D01*
X192847805Y-113854627D01*
X192847804Y-113854625D01*
X192847805Y-113854618D01*
X192821332Y-113632604D01*
X192758832Y-113417931D01*
X192661996Y-113216402D01*
X192533442Y-113033468D01*
X192376647Y-112874075D01*
X192376643Y-112874072D01*
X192376641Y-112874070D01*
X192195849Y-112742533D01*
X192195847Y-112742532D01*
X191995942Y-112642402D01*
X191995941Y-112642401D01*
X191995938Y-112642400D01*
X191782320Y-112576383D01*
X191782315Y-112576382D01*
X191782314Y-112576382D01*
X191560768Y-112546265D01*
X191337274Y-112552865D01*
X191117899Y-112595999D01*
X191117890Y-112596002D01*
X191020965Y-112632389D01*
X191017807Y-112633526D01*
X188191429Y-113608138D01*
X188178400Y-113612630D01*
X188168207Y-113613764D01*
X188116291Y-113634046D01*
X188113922Y-113634864D01*
X188113892Y-113634876D01*
X188063522Y-113652245D01*
X188056256Y-113655873D01*
X188056149Y-113655659D01*
X188042240Y-113662951D01*
X188002694Y-113678386D01*
X187859913Y-113763410D01*
X187836294Y-113777476D01*
X187810582Y-113792787D01*
X187810579Y-113792789D01*
X187639835Y-113937106D01*
X187639820Y-113937120D01*
X187495027Y-114107481D01*
X187495022Y-114107488D01*
X187380105Y-114299274D01*
X187380105Y-114299275D01*
X187298170Y-114507309D01*
X187251436Y-114725960D01*
X187241166Y-114949297D01*
X162913800Y-114949297D01*
X162562543Y-114746688D01*
X162514307Y-114696141D01*
X162500500Y-114639276D01*
X162500500Y-111307525D01*
X163369500Y-111307525D01*
X163369500Y-111452475D01*
X163407016Y-111592485D01*
X163407017Y-111592488D01*
X163479488Y-111718011D01*
X163479490Y-111718013D01*
X163479491Y-111718015D01*
X163581985Y-111820509D01*
X163581986Y-111820510D01*
X163581988Y-111820511D01*
X163707511Y-111892982D01*
X163707512Y-111892982D01*
X163707515Y-111892984D01*
X163847525Y-111930500D01*
X163847528Y-111930500D01*
X163992472Y-111930500D01*
X163992475Y-111930500D01*
X164132485Y-111892984D01*
X164258015Y-111820509D01*
X164360509Y-111718015D01*
X164432984Y-111592485D01*
X164470500Y-111452475D01*
X164470500Y-111307525D01*
X164432984Y-111167515D01*
X164360509Y-111041985D01*
X164306819Y-110988295D01*
X164273334Y-110926972D01*
X164270500Y-110900614D01*
X164270500Y-109946544D01*
X164290185Y-109879505D01*
X164306819Y-109858863D01*
X166818157Y-107347525D01*
X167879500Y-107347525D01*
X167879500Y-107492475D01*
X167916112Y-107629112D01*
X167917017Y-107632488D01*
X167989488Y-107758011D01*
X167989493Y-107758017D01*
X168043181Y-107811705D01*
X168076666Y-107873028D01*
X168079500Y-107899386D01*
X168079500Y-108166144D01*
X168091067Y-108209311D01*
X168099424Y-108240500D01*
X168099424Y-108240502D01*
X168103385Y-108255287D01*
X168149527Y-108335208D01*
X168149529Y-108335211D01*
X168149530Y-108335212D01*
X171494787Y-111680469D01*
X171559818Y-111718015D01*
X171574712Y-111726614D01*
X171663856Y-111750500D01*
X171663858Y-111750500D01*
X179406142Y-111750500D01*
X179406144Y-111750500D01*
X179495288Y-111726614D01*
X179510182Y-111718015D01*
X179510183Y-111718015D01*
X179575205Y-111680474D01*
X179575204Y-111680474D01*
X179575212Y-111680470D01*
X180604919Y-110650763D01*
X186454089Y-110650763D01*
X186454090Y-110650768D01*
X186454090Y-110650773D01*
X186480563Y-110872787D01*
X186543063Y-111087460D01*
X186639899Y-111288989D01*
X186768453Y-111471923D01*
X186925248Y-111631316D01*
X186925251Y-111631318D01*
X186925253Y-111631320D01*
X187106045Y-111762857D01*
X187106047Y-111762858D01*
X187206358Y-111813102D01*
X187305957Y-111862991D01*
X187519575Y-111929008D01*
X187741124Y-111959125D01*
X187964613Y-111952526D01*
X187964617Y-111952525D01*
X187964620Y-111952525D01*
X188183989Y-111909392D01*
X188183989Y-111909391D01*
X188183999Y-111909390D01*
X188280981Y-111872980D01*
X188284056Y-111871873D01*
X191123489Y-110892760D01*
X191133688Y-110891627D01*
X191185641Y-110871328D01*
X191238374Y-110853145D01*
X191238375Y-110853143D01*
X191238378Y-110853143D01*
X191245653Y-110849512D01*
X191245760Y-110849727D01*
X191259667Y-110842432D01*
X191299205Y-110827002D01*
X191491310Y-110712606D01*
X191662071Y-110568274D01*
X191806869Y-110397908D01*
X191921789Y-110206116D01*
X192003724Y-109998083D01*
X192050458Y-109779435D01*
X192054270Y-109696524D01*
X192060728Y-109556093D01*
X192060727Y-109556091D01*
X192060728Y-109556084D01*
X192034255Y-109334070D01*
X191971755Y-109119397D01*
X191874919Y-108917868D01*
X191746365Y-108734934D01*
X191589570Y-108575541D01*
X191589566Y-108575538D01*
X191589564Y-108575536D01*
X191408772Y-108443999D01*
X191408770Y-108443998D01*
X191208865Y-108343868D01*
X191208864Y-108343867D01*
X191208861Y-108343866D01*
X190995243Y-108277849D01*
X190995238Y-108277848D01*
X190995237Y-108277848D01*
X190773691Y-108247731D01*
X190550197Y-108254331D01*
X190330822Y-108297465D01*
X190330813Y-108297468D01*
X190233888Y-108333855D01*
X190230730Y-108334992D01*
X187404352Y-109309604D01*
X187391323Y-109314096D01*
X187381130Y-109315230D01*
X187329214Y-109335512D01*
X187326845Y-109336330D01*
X187326815Y-109336342D01*
X187276445Y-109353711D01*
X187269179Y-109357339D01*
X187269072Y-109357125D01*
X187255163Y-109364417D01*
X187215617Y-109379852D01*
X187072836Y-109464876D01*
X187049217Y-109478942D01*
X187023505Y-109494253D01*
X187023502Y-109494255D01*
X186852758Y-109638572D01*
X186852743Y-109638586D01*
X186707950Y-109808947D01*
X186707945Y-109808954D01*
X186593028Y-110000740D01*
X186593028Y-110000741D01*
X186511093Y-110208775D01*
X186464359Y-110427426D01*
X186454089Y-110650763D01*
X180604919Y-110650763D01*
X184110470Y-107145212D01*
X184156614Y-107065288D01*
X184180500Y-106976143D01*
X184180500Y-106883856D01*
X184180500Y-101259386D01*
X184200185Y-101192347D01*
X184216819Y-101171705D01*
X184270509Y-101118015D01*
X184342984Y-100992485D01*
X184380500Y-100852475D01*
X184380500Y-100707525D01*
X184350719Y-100596381D01*
X188699500Y-100596381D01*
X188699500Y-103803618D01*
X188733610Y-104008034D01*
X188800898Y-104204037D01*
X188800900Y-104204043D01*
X188899534Y-104386302D01*
X188899537Y-104386306D01*
X189026818Y-104549836D01*
X189026821Y-104549840D01*
X189179296Y-104690204D01*
X189295440Y-104766084D01*
X189352788Y-104803551D01*
X189542572Y-104886798D01*
X189743469Y-104937672D01*
X189812312Y-104943376D01*
X189949994Y-104954786D01*
X189950000Y-104954786D01*
X189950006Y-104954786D01*
X190073918Y-104944517D01*
X190156531Y-104937672D01*
X190357428Y-104886798D01*
X190547212Y-104803551D01*
X190720706Y-104690202D01*
X190873176Y-104549843D01*
X191000465Y-104386303D01*
X191099100Y-104204042D01*
X191166390Y-104008032D01*
X191200500Y-103803619D01*
X191200500Y-103700000D01*
X191200500Y-103634108D01*
X191200500Y-100634108D01*
X191200500Y-100596381D01*
X191166390Y-100391968D01*
X191099100Y-100195958D01*
X191000465Y-100013697D01*
X190996703Y-100008863D01*
X190873181Y-99850163D01*
X190873178Y-99850159D01*
X190720703Y-99709795D01*
X190547211Y-99596448D01*
X190357428Y-99513202D01*
X190156527Y-99462327D01*
X189950006Y-99445214D01*
X189949994Y-99445214D01*
X189743472Y-99462327D01*
X189542571Y-99513202D01*
X189352788Y-99596448D01*
X189179296Y-99709795D01*
X189026821Y-99850159D01*
X189026818Y-99850163D01*
X188899537Y-100013693D01*
X188899534Y-100013697D01*
X188800900Y-100195956D01*
X188800898Y-100195962D01*
X188733610Y-100391965D01*
X188699500Y-100596381D01*
X184350719Y-100596381D01*
X184342984Y-100567515D01*
X184294724Y-100483927D01*
X184270511Y-100441988D01*
X184270506Y-100441982D01*
X184168017Y-100339493D01*
X184168011Y-100339488D01*
X184042488Y-100267017D01*
X184042489Y-100267017D01*
X184031006Y-100263940D01*
X183902475Y-100229500D01*
X183757525Y-100229500D01*
X183628993Y-100263940D01*
X183617511Y-100267017D01*
X183491988Y-100339488D01*
X183491982Y-100339493D01*
X183389493Y-100441982D01*
X183389488Y-100441988D01*
X183317017Y-100567511D01*
X183317016Y-100567515D01*
X183279500Y-100707525D01*
X183279500Y-100852475D01*
X183315881Y-100988249D01*
X183317017Y-100992488D01*
X183389488Y-101118011D01*
X183389493Y-101118017D01*
X183443181Y-101171705D01*
X183476666Y-101233028D01*
X183479500Y-101259386D01*
X183479500Y-106733456D01*
X183459815Y-106800495D01*
X183443181Y-106821137D01*
X179251137Y-111013181D01*
X179189814Y-111046666D01*
X179163456Y-111049500D01*
X171906544Y-111049500D01*
X171839505Y-111029815D01*
X171818863Y-111013181D01*
X168816819Y-108011137D01*
X168802115Y-107984209D01*
X168785523Y-107958391D01*
X168784631Y-107952190D01*
X168783334Y-107949814D01*
X168780500Y-107923456D01*
X168780500Y-107899386D01*
X168800185Y-107832347D01*
X168816819Y-107811705D01*
X168826206Y-107802318D01*
X168870509Y-107758015D01*
X168942984Y-107632485D01*
X168980500Y-107492475D01*
X168980500Y-107347525D01*
X168942984Y-107207515D01*
X168935814Y-107195097D01*
X168870511Y-107081988D01*
X168870506Y-107081982D01*
X168768017Y-106979493D01*
X168768011Y-106979488D01*
X168642488Y-106907017D01*
X168642489Y-106907017D01*
X168631006Y-106903940D01*
X168502475Y-106869500D01*
X168357525Y-106869500D01*
X168228993Y-106903940D01*
X168217511Y-106907017D01*
X168091988Y-106979488D01*
X168091982Y-106979493D01*
X167989493Y-107081982D01*
X167989488Y-107081988D01*
X167917017Y-107207511D01*
X167917016Y-107207515D01*
X167879500Y-107347525D01*
X166818157Y-107347525D01*
X168428863Y-105736819D01*
X168490186Y-105703334D01*
X168516544Y-105700500D01*
X170954456Y-105700500D01*
X171021495Y-105720185D01*
X171067250Y-105772989D01*
X171077194Y-105842147D01*
X171048169Y-105905703D01*
X171042137Y-105912181D01*
X170719531Y-106234786D01*
X170719527Y-106234791D01*
X170675335Y-106311336D01*
X170675334Y-106311338D01*
X170673387Y-106314709D01*
X170673385Y-106314714D01*
X170649500Y-106403856D01*
X170649500Y-108746146D01*
X170660786Y-108788267D01*
X170660787Y-108788267D01*
X170673386Y-108835289D01*
X170673387Y-108835290D01*
X170719527Y-108915208D01*
X170719529Y-108915211D01*
X170719530Y-108915212D01*
X172384788Y-110580470D01*
X172453311Y-110620031D01*
X172453313Y-110620033D01*
X172464708Y-110626612D01*
X172464709Y-110626612D01*
X172464712Y-110626614D01*
X172553856Y-110650500D01*
X172553857Y-110650500D01*
X172553858Y-110650500D01*
X178346142Y-110650500D01*
X178346144Y-110650500D01*
X178435288Y-110626614D01*
X178446690Y-110620031D01*
X178515212Y-110580470D01*
X182780470Y-106315212D01*
X182826614Y-106235288D01*
X182836126Y-106199788D01*
X182844233Y-106169532D01*
X182844233Y-106169530D01*
X182850500Y-106146144D01*
X182850500Y-100096544D01*
X182870185Y-100029505D01*
X182886819Y-100008863D01*
X183278863Y-99616819D01*
X183340186Y-99583334D01*
X183366544Y-99580500D01*
X183865826Y-99580500D01*
X183932865Y-99600185D01*
X183973212Y-99642499D01*
X183999491Y-99688015D01*
X184101985Y-99790509D01*
X184101986Y-99790510D01*
X184101988Y-99790511D01*
X184227511Y-99862982D01*
X184227512Y-99862982D01*
X184227515Y-99862984D01*
X184367525Y-99900500D01*
X184367528Y-99900500D01*
X184512472Y-99900500D01*
X184512475Y-99900500D01*
X184652485Y-99862984D01*
X184778015Y-99790509D01*
X184880509Y-99688015D01*
X184952984Y-99562485D01*
X184990500Y-99422475D01*
X184990500Y-99277525D01*
X184952984Y-99137515D01*
X184880509Y-99011985D01*
X184778015Y-98909491D01*
X184778013Y-98909490D01*
X184778011Y-98909488D01*
X184652488Y-98837017D01*
X184652489Y-98837017D01*
X184641006Y-98833940D01*
X184512475Y-98799500D01*
X184367525Y-98799500D01*
X184227515Y-98837016D01*
X184182704Y-98862887D01*
X184120705Y-98879500D01*
X183123856Y-98879500D01*
X183034712Y-98903386D01*
X183034709Y-98903387D01*
X182954791Y-98949527D01*
X182954786Y-98949531D01*
X182219529Y-99684788D01*
X182197350Y-99723206D01*
X182197348Y-99723208D01*
X182173388Y-99764706D01*
X182173387Y-99764709D01*
X182173386Y-99764711D01*
X182173386Y-99764712D01*
X182171021Y-99773538D01*
X182149500Y-99853856D01*
X182149500Y-105903456D01*
X182129815Y-105970495D01*
X182113181Y-105991137D01*
X178191137Y-109913181D01*
X178129814Y-109946666D01*
X178103456Y-109949500D01*
X172796544Y-109949500D01*
X172729505Y-109929815D01*
X172708863Y-109913181D01*
X171903824Y-109108142D01*
X171870339Y-109046819D01*
X171875323Y-108977127D01*
X171917195Y-108921194D01*
X171982659Y-108896777D01*
X172047801Y-108909977D01*
X172072334Y-108922477D01*
X172239110Y-108976666D01*
X172239111Y-108976666D01*
X172239114Y-108976667D01*
X172412318Y-109004100D01*
X172412319Y-109004100D01*
X172587681Y-109004100D01*
X172587682Y-109004100D01*
X172760886Y-108976667D01*
X172760889Y-108976666D01*
X172760890Y-108976666D01*
X172927663Y-108922478D01*
X172927663Y-108922477D01*
X172927666Y-108922477D01*
X173083916Y-108842864D01*
X173225787Y-108739788D01*
X173349788Y-108615787D01*
X173452864Y-108473916D01*
X173532477Y-108317666D01*
X173543273Y-108284439D01*
X173586666Y-108150890D01*
X173586666Y-108150889D01*
X173586667Y-108150886D01*
X173614100Y-107977682D01*
X173614100Y-107802318D01*
X173925900Y-107802318D01*
X173925900Y-107977681D01*
X173953333Y-108150887D01*
X173953333Y-108150890D01*
X174007521Y-108317663D01*
X174071892Y-108443998D01*
X174087136Y-108473916D01*
X174190212Y-108615787D01*
X174314213Y-108739788D01*
X174456084Y-108842864D01*
X174603282Y-108917865D01*
X174612336Y-108922478D01*
X174779110Y-108976666D01*
X174779111Y-108976666D01*
X174779114Y-108976667D01*
X174952318Y-109004100D01*
X174952319Y-109004100D01*
X175127681Y-109004100D01*
X175127682Y-109004100D01*
X175300886Y-108976667D01*
X175300889Y-108976666D01*
X175300890Y-108976666D01*
X175467663Y-108922478D01*
X175467663Y-108922477D01*
X175467666Y-108922477D01*
X175623916Y-108842864D01*
X175765787Y-108739788D01*
X175889788Y-108615787D01*
X175992864Y-108473916D01*
X176066450Y-108329493D01*
X176114424Y-108278698D01*
X176182245Y-108261902D01*
X176248380Y-108284439D01*
X176291832Y-108339154D01*
X176294865Y-108347468D01*
X176316301Y-108413441D01*
X176413743Y-108604681D01*
X176454992Y-108661453D01*
X176454992Y-108661454D01*
X177090504Y-108025941D01*
X177106619Y-108086081D01*
X177173498Y-108201920D01*
X177268080Y-108296502D01*
X177383919Y-108363381D01*
X177444057Y-108379494D01*
X176808545Y-109015006D01*
X176865317Y-109056255D01*
X177056554Y-109153696D01*
X177260688Y-109220024D01*
X177472677Y-109253600D01*
X177687323Y-109253600D01*
X177899311Y-109220024D01*
X178103445Y-109153696D01*
X178294682Y-109056255D01*
X178351453Y-109015007D01*
X178351453Y-109015006D01*
X177715942Y-108379495D01*
X177776081Y-108363381D01*
X177891920Y-108296502D01*
X177986502Y-108201920D01*
X178053381Y-108086081D01*
X178069495Y-108025942D01*
X178705006Y-108661453D01*
X178705007Y-108661453D01*
X178746255Y-108604682D01*
X178843696Y-108413445D01*
X178910024Y-108209311D01*
X178943600Y-107997323D01*
X178943600Y-107782676D01*
X178910024Y-107570688D01*
X178843696Y-107366554D01*
X178746255Y-107175317D01*
X178705006Y-107118545D01*
X178069494Y-107754057D01*
X178053381Y-107693919D01*
X177986502Y-107578080D01*
X177891920Y-107483498D01*
X177776081Y-107416619D01*
X177715940Y-107400504D01*
X178351454Y-106764992D01*
X178294678Y-106723742D01*
X178245305Y-106698585D01*
X178194508Y-106650611D01*
X178177713Y-106582790D01*
X178200250Y-106516655D01*
X178254965Y-106473203D01*
X178301599Y-106464100D01*
X178468276Y-106464100D01*
X178468277Y-106464099D01*
X178541340Y-106449566D01*
X178624201Y-106394201D01*
X178679566Y-106311340D01*
X178679566Y-106311338D01*
X178679568Y-106311336D01*
X178679567Y-106311335D01*
X178694099Y-106238278D01*
X178694100Y-106238276D01*
X178694100Y-104461723D01*
X178694099Y-104461721D01*
X178679567Y-104388664D01*
X178679566Y-104388660D01*
X178670968Y-104375792D01*
X178624201Y-104305799D01*
X178541340Y-104250434D01*
X178541339Y-104250433D01*
X178541335Y-104250432D01*
X178468277Y-104235900D01*
X178468274Y-104235900D01*
X176691726Y-104235900D01*
X176691723Y-104235900D01*
X176618664Y-104250432D01*
X176618660Y-104250433D01*
X176535799Y-104305799D01*
X176480433Y-104388660D01*
X176480432Y-104388664D01*
X176465900Y-104461721D01*
X176465900Y-106238278D01*
X176480432Y-106311335D01*
X176480432Y-106311336D01*
X176480433Y-106311338D01*
X176480434Y-106311340D01*
X176535799Y-106394201D01*
X176599355Y-106436667D01*
X176618660Y-106449566D01*
X176618664Y-106449567D01*
X176691721Y-106464099D01*
X176691724Y-106464100D01*
X176858401Y-106464100D01*
X176925440Y-106483785D01*
X176971195Y-106536589D01*
X176981139Y-106605747D01*
X176952114Y-106669303D01*
X176914695Y-106698585D01*
X176865319Y-106723742D01*
X176808545Y-106764992D01*
X176808544Y-106764992D01*
X177444057Y-107400504D01*
X177383919Y-107416619D01*
X177268080Y-107483498D01*
X177173498Y-107578080D01*
X177106619Y-107693919D01*
X177090504Y-107754057D01*
X176454992Y-107118544D01*
X176454992Y-107118545D01*
X176413744Y-107175317D01*
X176316301Y-107366558D01*
X176294865Y-107432531D01*
X176255427Y-107490206D01*
X176191068Y-107517403D01*
X176122222Y-107505487D01*
X176070747Y-107458242D01*
X176066450Y-107450506D01*
X175992864Y-107306084D01*
X175889788Y-107164213D01*
X175765787Y-107040212D01*
X175623916Y-106937136D01*
X175519348Y-106883856D01*
X175467663Y-106857521D01*
X175300889Y-106803333D01*
X175170983Y-106782758D01*
X175127682Y-106775900D01*
X174952318Y-106775900D01*
X174896012Y-106784818D01*
X174779112Y-106803333D01*
X174779109Y-106803333D01*
X174612336Y-106857521D01*
X174456083Y-106937136D01*
X174314211Y-107040213D01*
X174190213Y-107164211D01*
X174087136Y-107306083D01*
X174007521Y-107462336D01*
X173953333Y-107629109D01*
X173953333Y-107629112D01*
X173925900Y-107802318D01*
X173614100Y-107802318D01*
X173586667Y-107629114D01*
X173586666Y-107629110D01*
X173586666Y-107629109D01*
X173532478Y-107462336D01*
X173473979Y-107347525D01*
X173452864Y-107306084D01*
X173349788Y-107164213D01*
X173228309Y-107042734D01*
X173194824Y-106981411D01*
X173199808Y-106911719D01*
X173228309Y-106867372D01*
X173597875Y-106497806D01*
X174017374Y-106078307D01*
X174078695Y-106044824D01*
X174148387Y-106049808D01*
X174192734Y-106078309D01*
X174314213Y-106199788D01*
X174456084Y-106302864D01*
X174612334Y-106382477D01*
X174612336Y-106382478D01*
X174779110Y-106436666D01*
X174779111Y-106436666D01*
X174779114Y-106436667D01*
X174952318Y-106464100D01*
X174952319Y-106464100D01*
X175127681Y-106464100D01*
X175127682Y-106464100D01*
X175300886Y-106436667D01*
X175300889Y-106436666D01*
X175300890Y-106436666D01*
X175467663Y-106382478D01*
X175467663Y-106382477D01*
X175467666Y-106382477D01*
X175623916Y-106302864D01*
X175765787Y-106199788D01*
X175889788Y-106075787D01*
X175992864Y-105933916D01*
X176072477Y-105777666D01*
X176126667Y-105610886D01*
X176154100Y-105437682D01*
X176154100Y-105262318D01*
X176126667Y-105089114D01*
X176126666Y-105089110D01*
X176126666Y-105089109D01*
X176072478Y-104922336D01*
X176072475Y-104922331D01*
X175992864Y-104766084D01*
X175889788Y-104624213D01*
X175765787Y-104500212D01*
X175623916Y-104397136D01*
X175582026Y-104375792D01*
X175467663Y-104317521D01*
X175300889Y-104263333D01*
X175170983Y-104242758D01*
X175127682Y-104235900D01*
X174952318Y-104235900D01*
X174894583Y-104245044D01*
X174779112Y-104263333D01*
X174779109Y-104263333D01*
X174612336Y-104317521D01*
X174456083Y-104397136D01*
X174347386Y-104476110D01*
X174335525Y-104480341D01*
X174326011Y-104488586D01*
X174303245Y-104491859D01*
X174281579Y-104499590D01*
X174269314Y-104496738D01*
X174256853Y-104498530D01*
X174235930Y-104488975D01*
X174213525Y-104483765D01*
X174204749Y-104474735D01*
X174193297Y-104469505D01*
X174180861Y-104450155D01*
X174164830Y-104433659D01*
X174161425Y-104419911D01*
X174155523Y-104410727D01*
X174150500Y-104375792D01*
X174150500Y-104290965D01*
X174170185Y-104223926D01*
X174186819Y-104203284D01*
X174755995Y-103634108D01*
X176580470Y-101809633D01*
X176626614Y-101729709D01*
X176631798Y-101710359D01*
X176668159Y-101650703D01*
X176731005Y-101620172D01*
X176794907Y-101626273D01*
X176842671Y-101644088D01*
X176842674Y-101644089D01*
X176869505Y-101646973D01*
X176902289Y-101650499D01*
X176902306Y-101650500D01*
X178297694Y-101650500D01*
X178297710Y-101650499D01*
X178324332Y-101647636D01*
X178357326Y-101644089D01*
X178357330Y-101644087D01*
X178357332Y-101644087D01*
X178421450Y-101620172D01*
X178492228Y-101593773D01*
X178607489Y-101507489D01*
X178693773Y-101392228D01*
X178744089Y-101257326D01*
X178747636Y-101224332D01*
X178750499Y-101197710D01*
X178750500Y-101197693D01*
X178750500Y-99802306D01*
X178750499Y-99802289D01*
X178746458Y-99764709D01*
X178744089Y-99742674D01*
X178744087Y-99742670D01*
X178744087Y-99742667D01*
X178693773Y-99607772D01*
X178673357Y-99580500D01*
X178607489Y-99492511D01*
X178492228Y-99406227D01*
X178492226Y-99406226D01*
X178492228Y-99406226D01*
X178357332Y-99355912D01*
X178357327Y-99355911D01*
X178297710Y-99349500D01*
X178297694Y-99349500D01*
X177945544Y-99349500D01*
X177878505Y-99329815D01*
X177832750Y-99277011D01*
X177822806Y-99207853D01*
X177851831Y-99144297D01*
X177857863Y-99137819D01*
X180018973Y-96976709D01*
X182180470Y-94815212D01*
X182226614Y-94735288D01*
X182248533Y-94653482D01*
X182280623Y-94597900D01*
X182340509Y-94538015D01*
X182412984Y-94412485D01*
X182450500Y-94272475D01*
X182450500Y-94127525D01*
X182412984Y-93987515D01*
X182347512Y-93874115D01*
X182340511Y-93861988D01*
X182340506Y-93861982D01*
X182286819Y-93808295D01*
X182253334Y-93746972D01*
X182250500Y-93720614D01*
X182250500Y-90633858D01*
X182250500Y-90633856D01*
X182226614Y-90544712D01*
X182180470Y-90464788D01*
X180726819Y-89011137D01*
X180712115Y-88984209D01*
X180695523Y-88958391D01*
X180694631Y-88952190D01*
X180693334Y-88949814D01*
X180690500Y-88923456D01*
X180690500Y-88839386D01*
X180710185Y-88772347D01*
X180726819Y-88751705D01*
X180780509Y-88698015D01*
X180852984Y-88572485D01*
X180890500Y-88432475D01*
X180890500Y-88287525D01*
X180852984Y-88147515D01*
X180835073Y-88116493D01*
X180780511Y-88021988D01*
X180780506Y-88021982D01*
X180678017Y-87919493D01*
X180678011Y-87919488D01*
X180552488Y-87847017D01*
X180552489Y-87847017D01*
X180541006Y-87843940D01*
X180412475Y-87809500D01*
X180267525Y-87809500D01*
X180138993Y-87843940D01*
X180127511Y-87847017D01*
X180001988Y-87919488D01*
X180001982Y-87919493D01*
X179899493Y-88021982D01*
X179899488Y-88021988D01*
X179827017Y-88147511D01*
X179827016Y-88147515D01*
X179789500Y-88287525D01*
X179789500Y-88432475D01*
X179827016Y-88572485D01*
X179827017Y-88572488D01*
X179899488Y-88698011D01*
X179899493Y-88698017D01*
X179953181Y-88751705D01*
X179986666Y-88813028D01*
X179989500Y-88839386D01*
X179989500Y-89166143D01*
X180013386Y-89255287D01*
X180013387Y-89255290D01*
X180059527Y-89335208D01*
X180059531Y-89335213D01*
X181513181Y-90788863D01*
X181546666Y-90850186D01*
X181549500Y-90876544D01*
X181549500Y-93720614D01*
X181529815Y-93787653D01*
X181513181Y-93808295D01*
X181459493Y-93861982D01*
X181459488Y-93861988D01*
X181387017Y-93987511D01*
X181387016Y-93987515D01*
X181349500Y-94127525D01*
X181349500Y-94272475D01*
X181387016Y-94412485D01*
X181387017Y-94412487D01*
X181414410Y-94459934D01*
X181430882Y-94527834D01*
X181408029Y-94593861D01*
X181394703Y-94609614D01*
X177391137Y-98613181D01*
X177329814Y-98646666D01*
X177303456Y-98649500D01*
X176753856Y-98649500D01*
X176664712Y-98673386D01*
X176664709Y-98673387D01*
X176584791Y-98719527D01*
X176584786Y-98719531D01*
X176019533Y-99284783D01*
X176019528Y-99284790D01*
X176014418Y-99293641D01*
X175963850Y-99341855D01*
X175895242Y-99355076D01*
X175834147Y-99331956D01*
X175793760Y-99302613D01*
X175597410Y-99202567D01*
X175387835Y-99134473D01*
X175170181Y-99100000D01*
X174949819Y-99100000D01*
X174732164Y-99134473D01*
X174522589Y-99202567D01*
X174326233Y-99302616D01*
X174262485Y-99348931D01*
X174262485Y-99348932D01*
X174971414Y-100057861D01*
X174886306Y-100080667D01*
X174783694Y-100139910D01*
X174699910Y-100223694D01*
X174640667Y-100326306D01*
X174617861Y-100411414D01*
X173908932Y-99702485D01*
X173908931Y-99702485D01*
X173862616Y-99766233D01*
X173760475Y-99966696D01*
X173712500Y-100017492D01*
X173644679Y-100034287D01*
X173578544Y-100011749D01*
X173539505Y-99966696D01*
X173537821Y-99963391D01*
X173503996Y-99897006D01*
X173469960Y-99850159D01*
X173397558Y-99750505D01*
X173397554Y-99750500D01*
X173269499Y-99622445D01*
X173269494Y-99622441D01*
X173122997Y-99516006D01*
X173122996Y-99516005D01*
X173122994Y-99516004D01*
X173071300Y-99489664D01*
X172961639Y-99433788D01*
X172961636Y-99433787D01*
X172789410Y-99377829D01*
X172610551Y-99349500D01*
X172610546Y-99349500D01*
X172429454Y-99349500D01*
X172429449Y-99349500D01*
X172250589Y-99377829D01*
X172078363Y-99433787D01*
X172078360Y-99433788D01*
X171917002Y-99516006D01*
X171770505Y-99622441D01*
X171770500Y-99622445D01*
X171642445Y-99750500D01*
X171642441Y-99750505D01*
X171536006Y-99897002D01*
X171453788Y-100058360D01*
X171453787Y-100058363D01*
X171397829Y-100230589D01*
X171369500Y-100409448D01*
X171369500Y-100590551D01*
X171397829Y-100769410D01*
X171453787Y-100941636D01*
X171453788Y-100941639D01*
X171536006Y-101102997D01*
X171642441Y-101249494D01*
X171642445Y-101249499D01*
X171770500Y-101377554D01*
X171770505Y-101377558D01*
X171869167Y-101449239D01*
X171917006Y-101483996D01*
X172022484Y-101537740D01*
X172078360Y-101566211D01*
X172078363Y-101566212D01*
X172164476Y-101594191D01*
X172250591Y-101622171D01*
X172333429Y-101635291D01*
X172429449Y-101650500D01*
X172429454Y-101650500D01*
X172610551Y-101650500D01*
X172697259Y-101636765D01*
X172789409Y-101622171D01*
X172961639Y-101566211D01*
X173122994Y-101483996D01*
X173269501Y-101377553D01*
X173397553Y-101249501D01*
X173503996Y-101102994D01*
X173539506Y-101033301D01*
X173587479Y-100982507D01*
X173655300Y-100965712D01*
X173721435Y-100988249D01*
X173760475Y-101033303D01*
X173862611Y-101233756D01*
X173908932Y-101297513D01*
X174617861Y-100588584D01*
X174640667Y-100673694D01*
X174699910Y-100776306D01*
X174783694Y-100860090D01*
X174886306Y-100919333D01*
X174971413Y-100942137D01*
X174262485Y-101651065D01*
X174262485Y-101651066D01*
X174326243Y-101697388D01*
X174522589Y-101797432D01*
X174732164Y-101865526D01*
X174949819Y-101900000D01*
X175170180Y-101900000D01*
X175183630Y-101897869D01*
X175252924Y-101906820D01*
X175306378Y-101951814D01*
X175327021Y-102018564D01*
X175308299Y-102085879D01*
X175290715Y-102108022D01*
X173519531Y-103879207D01*
X173519527Y-103879212D01*
X173498247Y-103916072D01*
X173498247Y-103916073D01*
X173473386Y-103959131D01*
X173449500Y-104048277D01*
X173449500Y-104424563D01*
X173429815Y-104491602D01*
X173377011Y-104537357D01*
X173307853Y-104547301D01*
X173244297Y-104518276D01*
X173237819Y-104512244D01*
X173225788Y-104500213D01*
X173210320Y-104488975D01*
X173083916Y-104397136D01*
X173042026Y-104375792D01*
X172927663Y-104317521D01*
X172760889Y-104263333D01*
X172630983Y-104242758D01*
X172587682Y-104235900D01*
X172412318Y-104235900D01*
X172354583Y-104245044D01*
X172239112Y-104263333D01*
X172239109Y-104263333D01*
X172072336Y-104317521D01*
X171916083Y-104397136D01*
X171774211Y-104500213D01*
X171650213Y-104624211D01*
X171547136Y-104766083D01*
X171467524Y-104922331D01*
X171467273Y-104922938D01*
X171467115Y-104923133D01*
X171465311Y-104926675D01*
X171464567Y-104926296D01*
X171423439Y-104977347D01*
X171357148Y-104999420D01*
X171352706Y-104999500D01*
X168273856Y-104999500D01*
X168184712Y-105023386D01*
X168184709Y-105023387D01*
X168104791Y-105069527D01*
X168104786Y-105069531D01*
X163639531Y-109534786D01*
X163639527Y-109534791D01*
X163623891Y-109561876D01*
X163623889Y-109561879D01*
X163593388Y-109614706D01*
X163593387Y-109614709D01*
X163569500Y-109703856D01*
X163569500Y-110900614D01*
X163549815Y-110967653D01*
X163533181Y-110988295D01*
X163479493Y-111041982D01*
X163479488Y-111041988D01*
X163407017Y-111167511D01*
X163407016Y-111167515D01*
X163369500Y-111307525D01*
X162500500Y-111307525D01*
X162500500Y-98040529D01*
X162501540Y-98024506D01*
X162502261Y-98018973D01*
X162506330Y-97999768D01*
X162532040Y-97913032D01*
X162538773Y-97895385D01*
X162601470Y-97762510D01*
X162609746Y-97747695D01*
X162718111Y-97581583D01*
X162727183Y-97569386D01*
X162888057Y-97378750D01*
X162897376Y-97368863D01*
X163122779Y-97154575D01*
X163129622Y-97148532D01*
X163256562Y-97044532D01*
X163261013Y-97041054D01*
X163413642Y-96927343D01*
X163417973Y-96924261D01*
X163586088Y-96810024D01*
X163590291Y-96807291D01*
X163779339Y-96689837D01*
X163783425Y-96687408D01*
X163989692Y-96570032D01*
X163993604Y-96567898D01*
X164166403Y-96477716D01*
X164178845Y-96472983D01*
X164178557Y-96472257D01*
X164186115Y-96469257D01*
X164186122Y-96469256D01*
X164236206Y-96441337D01*
X164239138Y-96439755D01*
X164289984Y-96413221D01*
X164295131Y-96408494D01*
X164301232Y-96405094D01*
X164343573Y-96364011D01*
X164387053Y-96324087D01*
X164390801Y-96318189D01*
X164395814Y-96313326D01*
X164426083Y-96262679D01*
X164457744Y-96212868D01*
X164459837Y-96206202D01*
X164463422Y-96200206D01*
X164479553Y-96143443D01*
X164497241Y-96087141D01*
X164497241Y-96087134D01*
X164498439Y-96080296D01*
X164499445Y-96073448D01*
X164499448Y-96073441D01*
X164500338Y-96014450D01*
X164502852Y-95955477D01*
X164501332Y-95948655D01*
X164522328Y-94558198D01*
X164522381Y-94555996D01*
X164525307Y-94467246D01*
X164580829Y-92783400D01*
X164580920Y-92781244D01*
X164591454Y-92572703D01*
X164674651Y-90925575D01*
X164674784Y-90923345D01*
X164799740Y-89113501D01*
X164799920Y-89111227D01*
X164869091Y-88333940D01*
X173478077Y-88333940D01*
X173564705Y-88335453D01*
X173564720Y-88335453D01*
X173665877Y-88326900D01*
X173665880Y-88326900D01*
X173830457Y-88275535D01*
X173830458Y-88275535D01*
X173978746Y-88187604D01*
X174102761Y-88067843D01*
X174102764Y-88067839D01*
X174157696Y-87982164D01*
X174210451Y-87936353D01*
X174279599Y-87926335D01*
X174343186Y-87955293D01*
X174347222Y-87959113D01*
X174415702Y-88012266D01*
X174459472Y-88046241D01*
X174590075Y-88097567D01*
X174648082Y-88104829D01*
X175316328Y-88116494D01*
X175374554Y-88111260D01*
X175506868Y-88064523D01*
X175506871Y-88064520D01*
X175506873Y-88064520D01*
X175620653Y-87982403D01*
X175620653Y-87982402D01*
X175620657Y-87982400D01*
X175646995Y-87948467D01*
X175703651Y-87907579D01*
X175744950Y-87900500D01*
X176072472Y-87900500D01*
X176072475Y-87900500D01*
X176212485Y-87862984D01*
X176338015Y-87790509D01*
X176440509Y-87688015D01*
X176512984Y-87562485D01*
X176550500Y-87422475D01*
X176550500Y-87277525D01*
X176512984Y-87137515D01*
X176491557Y-87100403D01*
X176440511Y-87011988D01*
X176440506Y-87011982D01*
X176338017Y-86909493D01*
X176338011Y-86909488D01*
X176212488Y-86837017D01*
X176212489Y-86837017D01*
X176201006Y-86833940D01*
X176072475Y-86799500D01*
X176072472Y-86799500D01*
X175669617Y-86799500D01*
X175602578Y-86779815D01*
X175593584Y-86773454D01*
X175587633Y-86768835D01*
X175530262Y-86724303D01*
X175483742Y-86706021D01*
X175399660Y-86672977D01*
X175380323Y-86670556D01*
X175341652Y-86665715D01*
X175341649Y-86665714D01*
X175341646Y-86665714D01*
X174673410Y-86654050D01*
X174673405Y-86654050D01*
X174615181Y-86659283D01*
X174482863Y-86706022D01*
X174482860Y-86706023D01*
X174361886Y-86793333D01*
X174360502Y-86791415D01*
X174309925Y-86817891D01*
X174240331Y-86811683D01*
X174185142Y-86768835D01*
X174179040Y-86759525D01*
X174127127Y-86671978D01*
X174007368Y-86547964D01*
X174007362Y-86547959D01*
X173862232Y-86454907D01*
X173699550Y-86397831D01*
X173598756Y-86385752D01*
X173598740Y-86385751D01*
X173512110Y-86384238D01*
X173495095Y-87359091D01*
X173478077Y-88333940D01*
X164869091Y-88333940D01*
X164932320Y-87623434D01*
X172215287Y-87623434D01*
X172215287Y-87623451D01*
X172223840Y-87724610D01*
X172275204Y-87889183D01*
X172363138Y-88037477D01*
X172482897Y-88161491D01*
X172482903Y-88161496D01*
X172628033Y-88254548D01*
X172790715Y-88311624D01*
X172891510Y-88323703D01*
X172891526Y-88323704D01*
X172978154Y-88325215D01*
X172990807Y-87600326D01*
X172990807Y-87600325D01*
X172215926Y-87586799D01*
X172215925Y-87586800D01*
X172215287Y-87623434D01*
X164932320Y-87623434D01*
X164951905Y-87403349D01*
X164952161Y-87400793D01*
X164986927Y-87086877D01*
X172224651Y-87086877D01*
X172999533Y-87100403D01*
X172999534Y-87100403D01*
X173012187Y-86375514D01*
X173012187Y-86375513D01*
X172925560Y-86374002D01*
X172925544Y-86374002D01*
X172824388Y-86382555D01*
X172824385Y-86382555D01*
X172659808Y-86433920D01*
X172659807Y-86433920D01*
X172511519Y-86521851D01*
X172387504Y-86641612D01*
X172387499Y-86641618D01*
X172294451Y-86786742D01*
X172294445Y-86786754D01*
X172237371Y-86949425D01*
X172225293Y-87050222D01*
X172225291Y-87050242D01*
X172224651Y-87086877D01*
X164986927Y-87086877D01*
X165127169Y-85820577D01*
X165127513Y-85817767D01*
X165321849Y-84375423D01*
X165322308Y-84372332D01*
X165532475Y-83070323D01*
X165533098Y-83066791D01*
X165553605Y-82959614D01*
X165565012Y-82899999D01*
X184599999Y-82899999D01*
X184600000Y-82900000D01*
X187799998Y-83300000D01*
X187799998Y-83299999D01*
X187800000Y-83300000D01*
X189400000Y-80100000D01*
X188800000Y-79900000D01*
X188799997Y-79899999D01*
X186199999Y-79699999D01*
X186199999Y-79700000D01*
X184599999Y-82899999D01*
X165565012Y-82899999D01*
X165718085Y-82100000D01*
X166799999Y-82100000D01*
X167849979Y-82199999D01*
X167849999Y-82199999D01*
X167850000Y-82200000D01*
X167850001Y-82200000D01*
X168899999Y-82200000D01*
X168900000Y-82200000D01*
X169700000Y-79750000D01*
X169699998Y-79750000D01*
X168399998Y-79900000D01*
X168399996Y-79900000D01*
X167099999Y-80150000D01*
X166799999Y-82100000D01*
X165718085Y-82100000D01*
X165755891Y-81902416D01*
X165756693Y-81898565D01*
X165989104Y-80866482D01*
X165990155Y-80862178D01*
X166229348Y-79955420D01*
X166230729Y-79950592D01*
X166391924Y-79427634D01*
X166430481Y-79369371D01*
X166466401Y-79348240D01*
X166729697Y-79248271D01*
X166736701Y-79245849D01*
X167265249Y-79080631D01*
X167271716Y-79078800D01*
X167898171Y-78919821D01*
X167904226Y-78918446D01*
X168606633Y-78777540D01*
X168612392Y-78776528D01*
X169377735Y-78660596D01*
X169383274Y-78659884D01*
X170203534Y-78573412D01*
X170208802Y-78572972D01*
X170969265Y-78525984D01*
X171037391Y-78541497D01*
X171086315Y-78591378D01*
X171100505Y-78659792D01*
X171087821Y-78705203D01*
X170582371Y-79716101D01*
X170576407Y-79728028D01*
X170568842Y-79737425D01*
X170547028Y-79786785D01*
X170545703Y-79789436D01*
X170545703Y-79789437D01*
X170522872Y-79835099D01*
X170522868Y-79835113D01*
X170520449Y-79846933D01*
X170515575Y-79857964D01*
X170507279Y-79911287D01*
X170506691Y-79914164D01*
X170506687Y-79914188D01*
X170496450Y-79964213D01*
X170496450Y-79964219D01*
X170497173Y-79976258D01*
X170495319Y-79988183D01*
X170501109Y-80041852D01*
X170501287Y-80044805D01*
X170501288Y-80044808D01*
X170504346Y-80095760D01*
X170505428Y-80101357D01*
X170508119Y-80113704D01*
X170509456Y-80119205D01*
X170520370Y-80147403D01*
X170528948Y-80169566D01*
X170546021Y-80220783D01*
X170552667Y-80230850D01*
X170557024Y-80242105D01*
X170587142Y-80283318D01*
X170590506Y-80288159D01*
X170618633Y-80330760D01*
X170622366Y-80335064D01*
X170635525Y-80349525D01*
X170720547Y-80465870D01*
X170737176Y-80495933D01*
X170759258Y-80518841D01*
X170778033Y-80544533D01*
X170778034Y-80544534D01*
X170798709Y-80561182D01*
X170810217Y-80571707D01*
X170927709Y-80693597D01*
X170927708Y-80693597D01*
X170933997Y-80700121D01*
X170951071Y-80723975D01*
X170979527Y-80747355D01*
X170984516Y-80752531D01*
X170984525Y-80752539D01*
X171005096Y-80773879D01*
X171005101Y-80773883D01*
X171022465Y-80784338D01*
X171037224Y-80794760D01*
X171169856Y-80903733D01*
X171169855Y-80903733D01*
X171177740Y-80910211D01*
X171194015Y-80928811D01*
X171228444Y-80951871D01*
X171260464Y-80978179D01*
X171273679Y-80984175D01*
X171291443Y-80994066D01*
X171438523Y-81092577D01*
X171438522Y-81092577D01*
X171447821Y-81098805D01*
X171462702Y-81113238D01*
X171502363Y-81135336D01*
X171540087Y-81160602D01*
X171549119Y-81163679D01*
X171569483Y-81172732D01*
X171741404Y-81268519D01*
X171754714Y-81279762D01*
X171798780Y-81300486D01*
X171802499Y-81302558D01*
X171802500Y-81302559D01*
X171818701Y-81311585D01*
X171841309Y-81324182D01*
X171846549Y-81325500D01*
X171869062Y-81333540D01*
X172056316Y-81421608D01*
X172068086Y-81430434D01*
X172115762Y-81449566D01*
X172118991Y-81451085D01*
X172118998Y-81451088D01*
X172162259Y-81471434D01*
X172164253Y-81471792D01*
X172188503Y-81478758D01*
X172378414Y-81554969D01*
X172378415Y-81554969D01*
X172390691Y-81559895D01*
X172401052Y-81566895D01*
X172451675Y-81584368D01*
X172501388Y-81604318D01*
X172501391Y-81604318D01*
X172501393Y-81604319D01*
X172504376Y-81605083D01*
X172526302Y-81610126D01*
X172742776Y-81684845D01*
X172751896Y-81690462D01*
X172804923Y-81706296D01*
X172857227Y-81724350D01*
X172857228Y-81724350D01*
X172865192Y-81725977D01*
X172865161Y-81726127D01*
X172881012Y-81729017D01*
X173097412Y-81793638D01*
X173097411Y-81793638D01*
X173110859Y-81797653D01*
X173118899Y-81802210D01*
X173173867Y-81816468D01*
X173228277Y-81832716D01*
X173228282Y-81832716D01*
X173236307Y-81834006D01*
X173236244Y-81834393D01*
X173251098Y-81836501D01*
X173493186Y-81899298D01*
X173500297Y-81903036D01*
X173556842Y-81915810D01*
X173612972Y-81930370D01*
X173612976Y-81930369D01*
X173612977Y-81930370D01*
X173621043Y-81931367D01*
X173620969Y-81931958D01*
X173634993Y-81933465D01*
X173684870Y-81944732D01*
X173887968Y-81990615D01*
X173894281Y-81993714D01*
X173952135Y-82005111D01*
X174009655Y-82018106D01*
X174009663Y-82018105D01*
X174017753Y-82018847D01*
X174017682Y-82019617D01*
X174030989Y-82020645D01*
X174157108Y-82045491D01*
X174282243Y-82070144D01*
X174282242Y-82070144D01*
X174296087Y-82072871D01*
X174304259Y-82076532D01*
X174360594Y-82085580D01*
X174416596Y-82096613D01*
X174416601Y-82096612D01*
X174424709Y-82097129D01*
X174424680Y-82097568D01*
X174439458Y-82098246D01*
X175128174Y-82208865D01*
X175137268Y-82212524D01*
X175193083Y-82219291D01*
X175248611Y-82228210D01*
X175248613Y-82228209D01*
X175248615Y-82228210D01*
X175256740Y-82228441D01*
X175256731Y-82228740D01*
X175272161Y-82228878D01*
X175982939Y-82315058D01*
X175990351Y-82317775D01*
X176048231Y-82322974D01*
X176105929Y-82329970D01*
X176105929Y-82329969D01*
X176105931Y-82329970D01*
X176114059Y-82329887D01*
X176114065Y-82330509D01*
X176128051Y-82330144D01*
X176841410Y-82394225D01*
X176847528Y-82396294D01*
X176906950Y-82400113D01*
X176966236Y-82405439D01*
X176966242Y-82405437D01*
X176974035Y-82405116D01*
X176987110Y-82405264D01*
X177687475Y-82450281D01*
X177692572Y-82451886D01*
X177753162Y-82454503D01*
X177813658Y-82458392D01*
X177813665Y-82458390D01*
X177818428Y-82458072D01*
X177832046Y-82457911D01*
X178504817Y-82486976D01*
X178509079Y-82488237D01*
X178570541Y-82489816D01*
X178632034Y-82492473D01*
X178632044Y-82492470D01*
X178634480Y-82492257D01*
X178648529Y-82491820D01*
X179278364Y-82508005D01*
X179283300Y-82509357D01*
X179344196Y-82509696D01*
X179378100Y-82510567D01*
X179404995Y-82511259D01*
X179404995Y-82511258D01*
X179404996Y-82511259D01*
X179404996Y-82511258D01*
X179409161Y-82510819D01*
X179422878Y-82510135D01*
X180618136Y-82516802D01*
X180622563Y-82517930D01*
X180683914Y-82517169D01*
X180745345Y-82517512D01*
X180745352Y-82517510D01*
X180748102Y-82517164D01*
X180762074Y-82516199D01*
X181576882Y-82506098D01*
X181577095Y-82506152D01*
X181642660Y-82505282D01*
X181708437Y-82504467D01*
X181708439Y-82504466D01*
X181716067Y-82504372D01*
X181717020Y-82504295D01*
X181973265Y-82500898D01*
X182005551Y-82504788D01*
X182038869Y-82500028D01*
X182072522Y-82499582D01*
X182095860Y-82492994D01*
X182111998Y-82489580D01*
X182136012Y-82486151D01*
X182159626Y-82476063D01*
X182174647Y-82470761D01*
X182199353Y-82463790D01*
X182227299Y-82447157D01*
X182257202Y-82434384D01*
X182283677Y-82413602D01*
X182312597Y-82396390D01*
X182329520Y-82379011D01*
X182341784Y-82367991D01*
X182360865Y-82353014D01*
X182381061Y-82326085D01*
X182404539Y-82301977D01*
X182420421Y-82273604D01*
X185268808Y-78475754D01*
X185324777Y-78433935D01*
X185339157Y-78429558D01*
X185498062Y-78391553D01*
X185506531Y-78389839D01*
X185930800Y-78319247D01*
X185938951Y-78318167D01*
X186429315Y-78269727D01*
X186437216Y-78269201D01*
X186967476Y-78250922D01*
X186975193Y-78250898D01*
X187531400Y-78266469D01*
G37*
%TD.AperFunction*%
%TD*%
M02*
