%TF.GenerationSoftware,KiCad,Pcbnew,10.0.1*%
%TF.CreationDate,2026-04-26T21:51:14+02:00*%
%TF.ProjectId,sao_laser_tag,73616f5f-6c61-4736-9572-5f7461672e6b,rev?*%
%TF.SameCoordinates,Original*%
%TF.FileFunction,Legend,Top*%
%TF.FilePolarity,Positive*%
%FSLAX46Y46*%
G04 Gerber Fmt 4.6, Leading zero omitted, Abs format (unit mm)*
G04 Created by KiCad (PCBNEW 10.0.1) date 2026-04-26 21:51:14*
%MOMM*%
%LPD*%
G01*
G04 APERTURE LIST*
%ADD10C,0.150000*%
%ADD11C,0.120000*%
%ADD12C,0.100000*%
G04 APERTURE END LIST*
D10*
G36*
X177022388Y-118183502D02*
G01*
X177016380Y-118201524D01*
X176936363Y-118281542D01*
X176885916Y-118298358D01*
X176857728Y-118298358D01*
X176807280Y-118281542D01*
X176674734Y-118148996D01*
X176657918Y-118098548D01*
X176657918Y-118070360D01*
X176674734Y-118019912D01*
X176754752Y-117939894D01*
X176772772Y-117933887D01*
X177022388Y-118183502D01*
G37*
G36*
X178932424Y-115891305D02*
G01*
X179064970Y-116023851D01*
X179081786Y-116074299D01*
X179081786Y-116102487D01*
X179064970Y-116152935D01*
X178984952Y-116232953D01*
X178966931Y-116238960D01*
X178717315Y-115989344D01*
X178723322Y-115971323D01*
X178803340Y-115891306D01*
X178853789Y-115874490D01*
X178881977Y-115874490D01*
X178932424Y-115891305D01*
G37*
G36*
X180166830Y-114656898D02*
G01*
X180299375Y-114789444D01*
X180316192Y-114839893D01*
X180316192Y-114868081D01*
X180299375Y-114918529D01*
X180245622Y-114972283D01*
X180195175Y-114989099D01*
X180166987Y-114989099D01*
X180116539Y-114972283D01*
X179983993Y-114839737D01*
X179967177Y-114789289D01*
X179967177Y-114761101D01*
X179983993Y-114710653D01*
X180037747Y-114656899D01*
X180088195Y-114640083D01*
X180116383Y-114640083D01*
X180166830Y-114656898D01*
G37*
G36*
X182578385Y-112186510D02*
G01*
X182454387Y-112372507D01*
X182426542Y-112344662D01*
X182413783Y-112306383D01*
X182426542Y-112268103D01*
X182506559Y-112188087D01*
X182544837Y-112175327D01*
X182578385Y-112186510D01*
G37*
G36*
X183273211Y-111932680D02*
G01*
X183267204Y-111950700D01*
X183187186Y-112030719D01*
X183136738Y-112047535D01*
X183108550Y-112047535D01*
X183058102Y-112030719D01*
X182925556Y-111898173D01*
X182908741Y-111847725D01*
X182908741Y-111819538D01*
X182925557Y-111769089D01*
X183005574Y-111689071D01*
X183023595Y-111683064D01*
X183273211Y-111932680D01*
G37*
G36*
X185235776Y-109587954D02*
G01*
X185368322Y-109720500D01*
X185385138Y-109770948D01*
X185385138Y-109799136D01*
X185368322Y-109849584D01*
X185288304Y-109929602D01*
X185270283Y-109935608D01*
X185020667Y-109685992D01*
X185026674Y-109667972D01*
X185106692Y-109587954D01*
X185157140Y-109571138D01*
X185185328Y-109571138D01*
X185235776Y-109587954D01*
G37*
G36*
X185734791Y-109088939D02*
G01*
X185867337Y-109221485D01*
X185884153Y-109271933D01*
X185884153Y-109300121D01*
X185867337Y-109350568D01*
X185813583Y-109404321D01*
X185763135Y-109421138D01*
X185734947Y-109421138D01*
X185684498Y-109404321D01*
X185551952Y-109271776D01*
X185535137Y-109221329D01*
X185535137Y-109193141D01*
X185551953Y-109142693D01*
X185605707Y-109088939D01*
X185656155Y-109072123D01*
X185684343Y-109072123D01*
X185734791Y-109088939D01*
G37*
G36*
X187095787Y-107669108D02*
G01*
X186971789Y-107855105D01*
X186943942Y-107827258D01*
X186931183Y-107788981D01*
X186943943Y-107750703D01*
X187023961Y-107670685D01*
X187062239Y-107657925D01*
X187095787Y-107669108D01*
G37*
G36*
X189103810Y-106102080D02*
G01*
X189097802Y-106120103D01*
X188991522Y-106226384D01*
X188953244Y-106239143D01*
X188914966Y-106226384D01*
X188887476Y-106198894D01*
X188874716Y-106160616D01*
X188887476Y-106122338D01*
X189005771Y-106004042D01*
X189103810Y-106102080D01*
G37*
G36*
X189602825Y-105603066D02*
G01*
X189596819Y-105621087D01*
X189516801Y-105701105D01*
X189466353Y-105717921D01*
X189438165Y-105717921D01*
X189387717Y-105701105D01*
X189255171Y-105568559D01*
X189238355Y-105518111D01*
X189238355Y-105489923D01*
X189255171Y-105439475D01*
X189335189Y-105359457D01*
X189353209Y-105353450D01*
X189602825Y-105603066D01*
G37*
G36*
X190127378Y-105792920D02*
G01*
X177055669Y-118864629D01*
X176249229Y-118058190D01*
X176507918Y-118058190D01*
X176507918Y-118110718D01*
X176508647Y-118118123D01*
X176508507Y-118120098D01*
X176509097Y-118122695D01*
X176509359Y-118125350D01*
X176510117Y-118127181D01*
X176511767Y-118134435D01*
X176538031Y-118213227D01*
X176544025Y-118226652D01*
X176545790Y-118228687D01*
X176546822Y-118231178D01*
X176556149Y-118242543D01*
X176713733Y-118400127D01*
X176725098Y-118409454D01*
X176727586Y-118410484D01*
X176729623Y-118412251D01*
X176743049Y-118418245D01*
X176821841Y-118444509D01*
X176829094Y-118446158D01*
X176830926Y-118446917D01*
X176833580Y-118447178D01*
X176836178Y-118447769D01*
X176838152Y-118447628D01*
X176845558Y-118448358D01*
X176898086Y-118448358D01*
X176905491Y-118447628D01*
X176907466Y-118447769D01*
X176910063Y-118447178D01*
X176912718Y-118446917D01*
X176914549Y-118446158D01*
X176921803Y-118444509D01*
X177000595Y-118418245D01*
X177014020Y-118412251D01*
X177016055Y-118410485D01*
X177018546Y-118409454D01*
X177029911Y-118400127D01*
X177134461Y-118295575D01*
X177147700Y-118308815D01*
X177164517Y-118359264D01*
X177164517Y-118387452D01*
X177147701Y-118437900D01*
X177093947Y-118491654D01*
X177031952Y-118512319D01*
X177018526Y-118518313D01*
X176996419Y-118537487D01*
X176983333Y-118563660D01*
X176981258Y-118592850D01*
X176990512Y-118620613D01*
X177009686Y-118642720D01*
X177035859Y-118655806D01*
X177065049Y-118657881D01*
X177079386Y-118654621D01*
X177158178Y-118628357D01*
X177171603Y-118622363D01*
X177173638Y-118620597D01*
X177176129Y-118619566D01*
X177187494Y-118610239D01*
X177266286Y-118531447D01*
X177275614Y-118520081D01*
X177276644Y-118517592D01*
X177278410Y-118515557D01*
X177284404Y-118502131D01*
X177310668Y-118423339D01*
X177312317Y-118416085D01*
X177313076Y-118414254D01*
X177313337Y-118411599D01*
X177313928Y-118409002D01*
X177313787Y-118407027D01*
X177314517Y-118399622D01*
X177314517Y-118347094D01*
X177313787Y-118339688D01*
X177313928Y-118337714D01*
X177313337Y-118335116D01*
X177313076Y-118332462D01*
X177312317Y-118330630D01*
X177310668Y-118323377D01*
X177284404Y-118244585D01*
X177278410Y-118231159D01*
X177276644Y-118229123D01*
X177275614Y-118226635D01*
X177266286Y-118215269D01*
X176819799Y-117768781D01*
X176808434Y-117759454D01*
X176781398Y-117748255D01*
X176752135Y-117748255D01*
X176725098Y-117759453D01*
X176704406Y-117780146D01*
X176695555Y-117801512D01*
X176690521Y-117803191D01*
X176677095Y-117809185D01*
X176675059Y-117810950D01*
X176672571Y-117811981D01*
X176661205Y-117821309D01*
X176556149Y-117926365D01*
X176546822Y-117937730D01*
X176545790Y-117940220D01*
X176544025Y-117942256D01*
X176538031Y-117955681D01*
X176511767Y-118034473D01*
X176510117Y-118041726D01*
X176509359Y-118043558D01*
X176509097Y-118046212D01*
X176508507Y-118048810D01*
X176508647Y-118050784D01*
X176507918Y-118058190D01*
X176249229Y-118058190D01*
X176065382Y-117874343D01*
X176395181Y-117544544D01*
X176955846Y-117544544D01*
X176955846Y-117573806D01*
X176967045Y-117600843D01*
X176976372Y-117612208D01*
X177344068Y-117979904D01*
X177355434Y-117989232D01*
X177382470Y-118000430D01*
X177411733Y-118000430D01*
X177438769Y-117989232D01*
X177459462Y-117968539D01*
X177470660Y-117941503D01*
X177470660Y-117912240D01*
X177459462Y-117885204D01*
X177450134Y-117873838D01*
X177082438Y-117506142D01*
X177071073Y-117496815D01*
X177044036Y-117485616D01*
X177014774Y-117485616D01*
X176987737Y-117496815D01*
X176967045Y-117517507D01*
X176955846Y-117544544D01*
X176395181Y-117544544D01*
X176564398Y-117375327D01*
X176770557Y-117375327D01*
X176770557Y-117427855D01*
X176771998Y-117442487D01*
X176783197Y-117469523D01*
X176803889Y-117490215D01*
X176830925Y-117501414D01*
X176845557Y-117502855D01*
X176898085Y-117502855D01*
X176912717Y-117501414D01*
X176939753Y-117490216D01*
X176960446Y-117469523D01*
X176971644Y-117442487D01*
X176973085Y-117427855D01*
X176973085Y-117375327D01*
X176971644Y-117360695D01*
X176960445Y-117333659D01*
X176939753Y-117312967D01*
X176912717Y-117301768D01*
X176898085Y-117300327D01*
X176845557Y-117300327D01*
X176830925Y-117301768D01*
X176803889Y-117312967D01*
X176783197Y-117333659D01*
X176771998Y-117360695D01*
X176770557Y-117375327D01*
X176564398Y-117375327D01*
X176841669Y-117098056D01*
X177034638Y-117098056D01*
X177034638Y-117127318D01*
X177045837Y-117154355D01*
X177055164Y-117165720D01*
X177185979Y-117296535D01*
X177160220Y-117322294D01*
X177150893Y-117333659D01*
X177139694Y-117360696D01*
X177139694Y-117389958D01*
X177150893Y-117416995D01*
X177171585Y-117437687D01*
X177198622Y-117448886D01*
X177227884Y-117448886D01*
X177254921Y-117437687D01*
X177266286Y-117428360D01*
X177292045Y-117402601D01*
X177527916Y-117638472D01*
X177539281Y-117647799D01*
X177541769Y-117648829D01*
X177543806Y-117650596D01*
X177557232Y-117656590D01*
X177636024Y-117682854D01*
X177638842Y-117683494D01*
X177639931Y-117684039D01*
X177641828Y-117684173D01*
X177650361Y-117686114D01*
X177659741Y-117685447D01*
X177669121Y-117686114D01*
X177677653Y-117684173D01*
X177679551Y-117684039D01*
X177680639Y-117683494D01*
X177683458Y-117682854D01*
X177762250Y-117656590D01*
X177775675Y-117650596D01*
X177777710Y-117648830D01*
X177780201Y-117647799D01*
X177791566Y-117638472D01*
X177844094Y-117585944D01*
X177853422Y-117574579D01*
X177864620Y-117547542D01*
X177864620Y-117518279D01*
X177853422Y-117491243D01*
X177832729Y-117470550D01*
X177805693Y-117459352D01*
X177776430Y-117459352D01*
X177749393Y-117470550D01*
X177738028Y-117479878D01*
X177698019Y-117519887D01*
X177659741Y-117532646D01*
X177621463Y-117519887D01*
X177398111Y-117296535D01*
X177476398Y-117218248D01*
X177485725Y-117206883D01*
X177496924Y-117179847D01*
X177496924Y-117150584D01*
X177485725Y-117123547D01*
X177465033Y-117102855D01*
X177437996Y-117091656D01*
X177408733Y-117091656D01*
X177381697Y-117102855D01*
X177370332Y-117112182D01*
X177292045Y-117190469D01*
X177161230Y-117059654D01*
X177149865Y-117050327D01*
X177122828Y-117039128D01*
X177093566Y-117039128D01*
X177066529Y-117050327D01*
X177045837Y-117071019D01*
X177034638Y-117098056D01*
X176841669Y-117098056D01*
X177156836Y-116782889D01*
X177349806Y-116782889D01*
X177349806Y-116812151D01*
X177361005Y-116839188D01*
X177370332Y-116850553D01*
X177921875Y-117402096D01*
X177933241Y-117411424D01*
X177960277Y-117422622D01*
X177989540Y-117422622D01*
X178016576Y-117411424D01*
X178037269Y-117390731D01*
X178048467Y-117363695D01*
X178048467Y-117334432D01*
X178037269Y-117307396D01*
X178027941Y-117296030D01*
X177734741Y-117002830D01*
X177734741Y-116993538D01*
X177751557Y-116943089D01*
X177805310Y-116889335D01*
X177843588Y-116876576D01*
X177881866Y-116889336D01*
X178158251Y-117165721D01*
X178169616Y-117175048D01*
X178196653Y-117186247D01*
X178225915Y-117186247D01*
X178252952Y-117175048D01*
X178273644Y-117154356D01*
X178284843Y-117127319D01*
X178284843Y-117098057D01*
X178273644Y-117071020D01*
X178264317Y-117059655D01*
X177975413Y-116770751D01*
X177964048Y-116761424D01*
X177961557Y-116760392D01*
X177959522Y-116758627D01*
X177946097Y-116752633D01*
X177867305Y-116726369D01*
X177864486Y-116725728D01*
X177863398Y-116725184D01*
X177861500Y-116725049D01*
X177852968Y-116723109D01*
X177843588Y-116723775D01*
X177834208Y-116723109D01*
X177825675Y-116725049D01*
X177823778Y-116725184D01*
X177822689Y-116725728D01*
X177819871Y-116726369D01*
X177741079Y-116752633D01*
X177727653Y-116758627D01*
X177725616Y-116760393D01*
X177723128Y-116761424D01*
X177711763Y-116770751D01*
X177632972Y-116849543D01*
X177623644Y-116860909D01*
X177622612Y-116863399D01*
X177620848Y-116865434D01*
X177614854Y-116878859D01*
X177613833Y-116881922D01*
X177476398Y-116744487D01*
X177465033Y-116735160D01*
X177437996Y-116723961D01*
X177408734Y-116723961D01*
X177381697Y-116735160D01*
X177361005Y-116755852D01*
X177349806Y-116782889D01*
X177156836Y-116782889D01*
X177472003Y-116467722D01*
X178032669Y-116467722D01*
X178032669Y-116496984D01*
X178043868Y-116524021D01*
X178053195Y-116535386D01*
X178342098Y-116824289D01*
X178353464Y-116833617D01*
X178355952Y-116834647D01*
X178357988Y-116836413D01*
X178371414Y-116842407D01*
X178450206Y-116868671D01*
X178453024Y-116869311D01*
X178454113Y-116869856D01*
X178456010Y-116869990D01*
X178464543Y-116871931D01*
X178473923Y-116871264D01*
X178483303Y-116871931D01*
X178491835Y-116869990D01*
X178493733Y-116869856D01*
X178494821Y-116869311D01*
X178497640Y-116868671D01*
X178576432Y-116842407D01*
X178589857Y-116836413D01*
X178591892Y-116834647D01*
X178594383Y-116833616D01*
X178605748Y-116824289D01*
X178684540Y-116745497D01*
X178693868Y-116734131D01*
X178694898Y-116731642D01*
X178696664Y-116729607D01*
X178702658Y-116716181D01*
X178712308Y-116687231D01*
X178724931Y-116687231D01*
X178751967Y-116676032D01*
X178772660Y-116655340D01*
X178783858Y-116628303D01*
X178783858Y-116599040D01*
X178772659Y-116572004D01*
X178763332Y-116560639D01*
X178395636Y-116192944D01*
X178384271Y-116183616D01*
X178357234Y-116172418D01*
X178327971Y-116172418D01*
X178300935Y-116183617D01*
X178280242Y-116204309D01*
X178269044Y-116231346D01*
X178269044Y-116260609D01*
X178280243Y-116287645D01*
X178289570Y-116299010D01*
X178582771Y-116592210D01*
X178582771Y-116601502D01*
X178565955Y-116651950D01*
X178512201Y-116705704D01*
X178473923Y-116718463D01*
X178435645Y-116705704D01*
X178159261Y-116429320D01*
X178147896Y-116419993D01*
X178120859Y-116408794D01*
X178091597Y-116408794D01*
X178064560Y-116419993D01*
X178043868Y-116440685D01*
X178032669Y-116467722D01*
X177472003Y-116467722D01*
X178154866Y-115784859D01*
X178347836Y-115784859D01*
X178347836Y-115814121D01*
X178359035Y-115841158D01*
X178368362Y-115852523D01*
X178919905Y-116404066D01*
X178931271Y-116413394D01*
X178958307Y-116424592D01*
X178987570Y-116424592D01*
X179014606Y-116413394D01*
X179035299Y-116392701D01*
X179044148Y-116371334D01*
X179049183Y-116369656D01*
X179062608Y-116363662D01*
X179064643Y-116361896D01*
X179067134Y-116360865D01*
X179078499Y-116351538D01*
X179183555Y-116246482D01*
X179192883Y-116235116D01*
X179193913Y-116232627D01*
X179195679Y-116230592D01*
X179201673Y-116217166D01*
X179227937Y-116138374D01*
X179229586Y-116131120D01*
X179230345Y-116129289D01*
X179230606Y-116126634D01*
X179231197Y-116124037D01*
X179231056Y-116122062D01*
X179231786Y-116114657D01*
X179231786Y-116062129D01*
X179231056Y-116054723D01*
X179231197Y-116052749D01*
X179230606Y-116050151D01*
X179230345Y-116047497D01*
X179229586Y-116045665D01*
X179227937Y-116038412D01*
X179201673Y-115959620D01*
X179195679Y-115946194D01*
X179193914Y-115944159D01*
X179192883Y-115941669D01*
X179183555Y-115930304D01*
X179052740Y-115799490D01*
X179344426Y-115799490D01*
X179344426Y-115852018D01*
X179345867Y-115866650D01*
X179357066Y-115893686D01*
X179377758Y-115914378D01*
X179404794Y-115925577D01*
X179419426Y-115927018D01*
X179471954Y-115927018D01*
X179486586Y-115925577D01*
X179513622Y-115914379D01*
X179534315Y-115893686D01*
X179545513Y-115866650D01*
X179546954Y-115852018D01*
X179546954Y-115799490D01*
X179545513Y-115784858D01*
X179534314Y-115757822D01*
X179513622Y-115737130D01*
X179486586Y-115725931D01*
X179471954Y-115724490D01*
X179419426Y-115724490D01*
X179404794Y-115725931D01*
X179377758Y-115737130D01*
X179357066Y-115757822D01*
X179345867Y-115784858D01*
X179344426Y-115799490D01*
X179052740Y-115799490D01*
X179025971Y-115772721D01*
X179014605Y-115763393D01*
X179012116Y-115762362D01*
X179010081Y-115760597D01*
X178996655Y-115754603D01*
X178917864Y-115728339D01*
X178910609Y-115726689D01*
X178908779Y-115725931D01*
X178906125Y-115725669D01*
X178903528Y-115725079D01*
X178901552Y-115725219D01*
X178894147Y-115724490D01*
X178841619Y-115724490D01*
X178834213Y-115725219D01*
X178832239Y-115725079D01*
X178829641Y-115725669D01*
X178826987Y-115725931D01*
X178825155Y-115726689D01*
X178817902Y-115728339D01*
X178739110Y-115754603D01*
X178725684Y-115760597D01*
X178723648Y-115762362D01*
X178721160Y-115763393D01*
X178709794Y-115772721D01*
X178605242Y-115877271D01*
X178474428Y-115746457D01*
X178463063Y-115737130D01*
X178436026Y-115725931D01*
X178406764Y-115725931D01*
X178379727Y-115737130D01*
X178359035Y-115757822D01*
X178347836Y-115784859D01*
X178154866Y-115784859D01*
X178718043Y-115221682D01*
X179344426Y-115221682D01*
X179344426Y-115274210D01*
X179345155Y-115281615D01*
X179345015Y-115283590D01*
X179345605Y-115286187D01*
X179345867Y-115288842D01*
X179346625Y-115290673D01*
X179348275Y-115297927D01*
X179374539Y-115376719D01*
X179380533Y-115390144D01*
X179382298Y-115392179D01*
X179383330Y-115394670D01*
X179392657Y-115406035D01*
X179550241Y-115563619D01*
X179561606Y-115572946D01*
X179564094Y-115573976D01*
X179566131Y-115575743D01*
X179579557Y-115581737D01*
X179658349Y-115608001D01*
X179665602Y-115609650D01*
X179667434Y-115610409D01*
X179670088Y-115610670D01*
X179672686Y-115611261D01*
X179674660Y-115611120D01*
X179682066Y-115611850D01*
X179734594Y-115611850D01*
X179741999Y-115611120D01*
X179743975Y-115611261D01*
X179746572Y-115610670D01*
X179749226Y-115610409D01*
X179751056Y-115609650D01*
X179758311Y-115608001D01*
X179837102Y-115581737D01*
X179850528Y-115575743D01*
X179852564Y-115573976D01*
X179855053Y-115572946D01*
X179866418Y-115563619D01*
X179971474Y-115458563D01*
X179980802Y-115447197D01*
X179981832Y-115444708D01*
X179983598Y-115442673D01*
X179989592Y-115429247D01*
X180015856Y-115350455D01*
X180019116Y-115336118D01*
X180017041Y-115306928D01*
X180003955Y-115280755D01*
X179981848Y-115261581D01*
X179954085Y-115252327D01*
X179924895Y-115254402D01*
X179898722Y-115267488D01*
X179879548Y-115289596D01*
X179873554Y-115303021D01*
X179852889Y-115365016D01*
X179772870Y-115445034D01*
X179722424Y-115461850D01*
X179694236Y-115461850D01*
X179643788Y-115445034D01*
X179511242Y-115312488D01*
X179494426Y-115262040D01*
X179494426Y-115233852D01*
X179511242Y-115183404D01*
X179591258Y-115103387D01*
X179653255Y-115082722D01*
X179666680Y-115076728D01*
X179688787Y-115057555D01*
X179701874Y-115031382D01*
X179703950Y-115002192D01*
X179694696Y-114974429D01*
X179675522Y-114952322D01*
X179649349Y-114939235D01*
X179620159Y-114937160D01*
X179605822Y-114940419D01*
X179527030Y-114966682D01*
X179513604Y-114972676D01*
X179511567Y-114974442D01*
X179509079Y-114975473D01*
X179497713Y-114984801D01*
X179392657Y-115089857D01*
X179383330Y-115101222D01*
X179382298Y-115103712D01*
X179380533Y-115105748D01*
X179374539Y-115119173D01*
X179348275Y-115197965D01*
X179346625Y-115205218D01*
X179345867Y-115207050D01*
X179345605Y-115209704D01*
X179345015Y-115212302D01*
X179345155Y-115214276D01*
X179344426Y-115221682D01*
X178718043Y-115221682D01*
X179190794Y-114748931D01*
X179817177Y-114748931D01*
X179817177Y-114801459D01*
X179817906Y-114808864D01*
X179817766Y-114810839D01*
X179818356Y-114813436D01*
X179818618Y-114816091D01*
X179819376Y-114817922D01*
X179821026Y-114825176D01*
X179847290Y-114903968D01*
X179853284Y-114917393D01*
X179855049Y-114919428D01*
X179856081Y-114921919D01*
X179865408Y-114933284D01*
X180022992Y-115090868D01*
X180034357Y-115100195D01*
X180036845Y-115101225D01*
X180038882Y-115102992D01*
X180052308Y-115108986D01*
X180131100Y-115135250D01*
X180138353Y-115136899D01*
X180140185Y-115137658D01*
X180142839Y-115137919D01*
X180145437Y-115138510D01*
X180147411Y-115138369D01*
X180154817Y-115139099D01*
X180207345Y-115139099D01*
X180214750Y-115138369D01*
X180216725Y-115138510D01*
X180219322Y-115137919D01*
X180221977Y-115137658D01*
X180223808Y-115136899D01*
X180231062Y-115135250D01*
X180309854Y-115108986D01*
X180323279Y-115102992D01*
X180325314Y-115101226D01*
X180327805Y-115100195D01*
X180339170Y-115090868D01*
X180417961Y-115012076D01*
X180427289Y-115000710D01*
X180428319Y-114998221D01*
X180430085Y-114996186D01*
X180436079Y-114982760D01*
X180462343Y-114903968D01*
X180463992Y-114896714D01*
X180464751Y-114894883D01*
X180465012Y-114892228D01*
X180465603Y-114889631D01*
X180465462Y-114887656D01*
X180466192Y-114880251D01*
X180466192Y-114827723D01*
X180465462Y-114820317D01*
X180465603Y-114818343D01*
X180465012Y-114815745D01*
X180464751Y-114813091D01*
X180463992Y-114811259D01*
X180462343Y-114804006D01*
X180436079Y-114725214D01*
X180430085Y-114711788D01*
X180428319Y-114709752D01*
X180427289Y-114707264D01*
X180417961Y-114695898D01*
X180260378Y-114538314D01*
X180249013Y-114528987D01*
X180246522Y-114527955D01*
X180244487Y-114526190D01*
X180231062Y-114520196D01*
X180152270Y-114493932D01*
X180145016Y-114492282D01*
X180143185Y-114491524D01*
X180140530Y-114491262D01*
X180137933Y-114490672D01*
X180135958Y-114490812D01*
X180128553Y-114490083D01*
X180076025Y-114490083D01*
X180068619Y-114490812D01*
X180066645Y-114490672D01*
X180064047Y-114491262D01*
X180061393Y-114491524D01*
X180059561Y-114492282D01*
X180052308Y-114493932D01*
X179973516Y-114520196D01*
X179960090Y-114526190D01*
X179958054Y-114527955D01*
X179955566Y-114528986D01*
X179944200Y-114538314D01*
X179865408Y-114617106D01*
X179856081Y-114628471D01*
X179855049Y-114630961D01*
X179853284Y-114632997D01*
X179847290Y-114646422D01*
X179821026Y-114725214D01*
X179819376Y-114732467D01*
X179818618Y-114734299D01*
X179818356Y-114736953D01*
X179817766Y-114739551D01*
X179817906Y-114741525D01*
X179817177Y-114748931D01*
X179190794Y-114748931D01*
X179704440Y-114235285D01*
X180265105Y-114235285D01*
X180265105Y-114264547D01*
X180276304Y-114291584D01*
X180285631Y-114302949D01*
X180653327Y-114670645D01*
X180664693Y-114679973D01*
X180691729Y-114691171D01*
X180720992Y-114691171D01*
X180748028Y-114679973D01*
X180768721Y-114659280D01*
X180779919Y-114632244D01*
X180779919Y-114602981D01*
X180768721Y-114575945D01*
X180759393Y-114564579D01*
X180466192Y-114271378D01*
X180466192Y-114262086D01*
X180483008Y-114211638D01*
X180536762Y-114157884D01*
X180575040Y-114145124D01*
X180613318Y-114157884D01*
X180889703Y-114434269D01*
X180901068Y-114443596D01*
X180928105Y-114454795D01*
X180957367Y-114454795D01*
X180984404Y-114443596D01*
X181005096Y-114422904D01*
X181016295Y-114395867D01*
X181016295Y-114366605D01*
X181005096Y-114339568D01*
X180995769Y-114328203D01*
X180719384Y-114051818D01*
X180706624Y-114013540D01*
X180719383Y-113975262D01*
X180773137Y-113921509D01*
X180811416Y-113908749D01*
X180849694Y-113921509D01*
X181126078Y-114197893D01*
X181137444Y-114207221D01*
X181164480Y-114218419D01*
X181193743Y-114218419D01*
X181220779Y-114207221D01*
X181241472Y-114186528D01*
X181252670Y-114159492D01*
X181252670Y-114130229D01*
X181241472Y-114103193D01*
X181232144Y-114091827D01*
X180943241Y-113802924D01*
X180931876Y-113793597D01*
X180929385Y-113792565D01*
X180927350Y-113790800D01*
X180913925Y-113784806D01*
X180835133Y-113758542D01*
X180832314Y-113757901D01*
X180831226Y-113757357D01*
X180829328Y-113757222D01*
X180820796Y-113755282D01*
X180811416Y-113755948D01*
X180802036Y-113755282D01*
X180793503Y-113757222D01*
X180791606Y-113757357D01*
X180790517Y-113757901D01*
X180787699Y-113758542D01*
X180708907Y-113784806D01*
X180695481Y-113790800D01*
X180693445Y-113792565D01*
X180690957Y-113793596D01*
X180679591Y-113802924D01*
X180600799Y-113881715D01*
X180591472Y-113893080D01*
X180590440Y-113895570D01*
X180588675Y-113897606D01*
X180582681Y-113911031D01*
X180556417Y-113989823D01*
X180555776Y-113992641D01*
X180555232Y-113993730D01*
X180555231Y-113993731D01*
X180555230Y-113993732D01*
X180554141Y-113994276D01*
X180551323Y-113994917D01*
X180472531Y-114021181D01*
X180459105Y-114027175D01*
X180457069Y-114028940D01*
X180454581Y-114029971D01*
X180443215Y-114039299D01*
X180364423Y-114118091D01*
X180355096Y-114129456D01*
X180354064Y-114131946D01*
X180352299Y-114133982D01*
X180346305Y-114147407D01*
X180336655Y-114176357D01*
X180324033Y-114176357D01*
X180296996Y-114187556D01*
X180276304Y-114208248D01*
X180265105Y-114235285D01*
X179704440Y-114235285D01*
X181029193Y-112910532D01*
X181182903Y-112910532D01*
X181184359Y-112925163D01*
X181420735Y-114107041D01*
X181425018Y-114121106D01*
X181441302Y-114145421D01*
X181465650Y-114161653D01*
X181494357Y-114167332D01*
X181523053Y-114161593D01*
X181547368Y-114145309D01*
X181563600Y-114120961D01*
X181569279Y-114092254D01*
X181567823Y-114077623D01*
X181331447Y-112895745D01*
X181327164Y-112881680D01*
X181310880Y-112857365D01*
X181286532Y-112841133D01*
X181257825Y-112835454D01*
X181229129Y-112841193D01*
X181204814Y-112857477D01*
X181188582Y-112881825D01*
X181182903Y-112910532D01*
X181029193Y-112910532D01*
X181196235Y-112743490D01*
X181446132Y-112743490D01*
X181446798Y-112752870D01*
X181446132Y-112762250D01*
X181448072Y-112770782D01*
X181448207Y-112772680D01*
X181448751Y-112773768D01*
X181449392Y-112776587D01*
X181475656Y-112855379D01*
X181481650Y-112868804D01*
X181483415Y-112870839D01*
X181484447Y-112873330D01*
X181493774Y-112884695D01*
X181545796Y-112936717D01*
X181520038Y-112962476D01*
X181510711Y-112973841D01*
X181499512Y-113000877D01*
X181499512Y-113030140D01*
X181510710Y-113057177D01*
X181531403Y-113077869D01*
X181558439Y-113089068D01*
X181587702Y-113089068D01*
X181614739Y-113077870D01*
X181626104Y-113068542D01*
X181651862Y-113042783D01*
X181966525Y-113357446D01*
X181977890Y-113366774D01*
X182004927Y-113377972D01*
X182034190Y-113377972D01*
X182061226Y-113366774D01*
X182081919Y-113346081D01*
X182093117Y-113319045D01*
X182093117Y-113289782D01*
X182081919Y-113262745D01*
X182072591Y-113251380D01*
X181757928Y-112936717D01*
X181836216Y-112858431D01*
X181845544Y-112847065D01*
X181856742Y-112820029D01*
X181856742Y-112790766D01*
X181845544Y-112763730D01*
X181824851Y-112743037D01*
X181797815Y-112731839D01*
X181768552Y-112731839D01*
X181741516Y-112743037D01*
X181730150Y-112752365D01*
X181651862Y-112830651D01*
X181612359Y-112791148D01*
X181599599Y-112752870D01*
X181612359Y-112714592D01*
X181652368Y-112674583D01*
X181661696Y-112663218D01*
X181672894Y-112636181D01*
X181672894Y-112606919D01*
X181893471Y-112606919D01*
X181893471Y-112636181D01*
X181904670Y-112663218D01*
X181913997Y-112674583D01*
X182281693Y-113042279D01*
X182293059Y-113051607D01*
X182320095Y-113062805D01*
X182349358Y-113062805D01*
X182376394Y-113051607D01*
X182397087Y-113030914D01*
X182408285Y-113003878D01*
X182408285Y-112974615D01*
X182397087Y-112947579D01*
X182387759Y-112936213D01*
X182137638Y-112686092D01*
X182120822Y-112635644D01*
X182120822Y-112607456D01*
X182137638Y-112557008D01*
X182177647Y-112516999D01*
X182186975Y-112505634D01*
X182198173Y-112478597D01*
X182198173Y-112449334D01*
X182186975Y-112422298D01*
X182166282Y-112401605D01*
X182139246Y-112390407D01*
X182109983Y-112390407D01*
X182082946Y-112401605D01*
X182071581Y-112410933D01*
X182019053Y-112463461D01*
X182009726Y-112474826D01*
X182008694Y-112477316D01*
X182006929Y-112479352D01*
X182000935Y-112492777D01*
X181982424Y-112548307D01*
X181981661Y-112547991D01*
X181952399Y-112547991D01*
X181925362Y-112559190D01*
X181904670Y-112579882D01*
X181893471Y-112606919D01*
X181672894Y-112606919D01*
X181672894Y-112606918D01*
X181661696Y-112579882D01*
X181641003Y-112559189D01*
X181613967Y-112547991D01*
X181584704Y-112547991D01*
X181557667Y-112559189D01*
X181546302Y-112568517D01*
X181493774Y-112621045D01*
X181484447Y-112632410D01*
X181483415Y-112634900D01*
X181481650Y-112636936D01*
X181475656Y-112650361D01*
X181449392Y-112729153D01*
X181448751Y-112731971D01*
X181448207Y-112733060D01*
X181448072Y-112734957D01*
X181446132Y-112743490D01*
X181196235Y-112743490D01*
X181642721Y-112297004D01*
X182260315Y-112297004D01*
X182260981Y-112306383D01*
X182260315Y-112315762D01*
X182262255Y-112324297D01*
X182262390Y-112326194D01*
X182262933Y-112327280D01*
X182263574Y-112330099D01*
X182289838Y-112408892D01*
X182295832Y-112422317D01*
X182297597Y-112424352D01*
X182298629Y-112426843D01*
X182307956Y-112438208D01*
X182518068Y-112648319D01*
X182529434Y-112657647D01*
X182531922Y-112658677D01*
X182533958Y-112660443D01*
X182547384Y-112666437D01*
X182626176Y-112692701D01*
X182628994Y-112693341D01*
X182630083Y-112693886D01*
X182631980Y-112694020D01*
X182640513Y-112695961D01*
X182649893Y-112695294D01*
X182659273Y-112695961D01*
X182667805Y-112694020D01*
X182669703Y-112693886D01*
X182670791Y-112693341D01*
X182673610Y-112692701D01*
X182752402Y-112666437D01*
X182765827Y-112660443D01*
X182767862Y-112658677D01*
X182770353Y-112657646D01*
X182781718Y-112648319D01*
X182886774Y-112543263D01*
X182896102Y-112531897D01*
X182897132Y-112529408D01*
X182898898Y-112527373D01*
X182904892Y-112513947D01*
X182931156Y-112435156D01*
X182934416Y-112420820D01*
X182932342Y-112391630D01*
X182919255Y-112365456D01*
X182897148Y-112346282D01*
X182869386Y-112337028D01*
X182840195Y-112339103D01*
X182814022Y-112352189D01*
X182794848Y-112374296D01*
X182788854Y-112387722D01*
X182768189Y-112449715D01*
X182688171Y-112529734D01*
X182649893Y-112542493D01*
X182611614Y-112529733D01*
X182562554Y-112480674D01*
X182738561Y-112216666D01*
X182745478Y-112203692D01*
X182746903Y-112196484D01*
X182749716Y-112189695D01*
X182749716Y-112182268D01*
X182751157Y-112174984D01*
X182749716Y-112167779D01*
X182749716Y-112160432D01*
X182746874Y-112153570D01*
X182745418Y-112146290D01*
X182741331Y-112140187D01*
X182738518Y-112133395D01*
X182729190Y-112122030D01*
X182676662Y-112069502D01*
X182665297Y-112060175D01*
X182662806Y-112059143D01*
X182660771Y-112057378D01*
X182647346Y-112051384D01*
X182568554Y-112025120D01*
X182565735Y-112024479D01*
X182564647Y-112023935D01*
X182562749Y-112023800D01*
X182554217Y-112021860D01*
X182544837Y-112022526D01*
X182535457Y-112021860D01*
X182526924Y-112023800D01*
X182525027Y-112023935D01*
X182523938Y-112024479D01*
X182521120Y-112025120D01*
X182442328Y-112051384D01*
X182428902Y-112057378D01*
X182426866Y-112059143D01*
X182424378Y-112060174D01*
X182413012Y-112069502D01*
X182307956Y-112174558D01*
X182298629Y-112185923D01*
X182297597Y-112188413D01*
X182295832Y-112190449D01*
X182289838Y-112203874D01*
X182263574Y-112282667D01*
X182262933Y-112285485D01*
X182262390Y-112286572D01*
X182262255Y-112288468D01*
X182260315Y-112297004D01*
X181642721Y-112297004D01*
X182132357Y-111807368D01*
X182758741Y-111807368D01*
X182758741Y-111859896D01*
X182759470Y-111867301D01*
X182759330Y-111869277D01*
X182759920Y-111871874D01*
X182760182Y-111874528D01*
X182760940Y-111876358D01*
X182762590Y-111883613D01*
X182788854Y-111962404D01*
X182794848Y-111975830D01*
X182796613Y-111977865D01*
X182797644Y-111980354D01*
X182806972Y-111991720D01*
X182964555Y-112149304D01*
X182975920Y-112158632D01*
X182978410Y-112159663D01*
X182980445Y-112161428D01*
X182993871Y-112167422D01*
X183072663Y-112193686D01*
X183079916Y-112195335D01*
X183081748Y-112196094D01*
X183084402Y-112196355D01*
X183087000Y-112196946D01*
X183088974Y-112196805D01*
X183096380Y-112197535D01*
X183148908Y-112197535D01*
X183156313Y-112196805D01*
X183158288Y-112196946D01*
X183160885Y-112196355D01*
X183163540Y-112196094D01*
X183165371Y-112195335D01*
X183172625Y-112193686D01*
X183251417Y-112167422D01*
X183264842Y-112161428D01*
X183266877Y-112159662D01*
X183269368Y-112158631D01*
X183280733Y-112149304D01*
X183385789Y-112044248D01*
X183395117Y-112032882D01*
X183396147Y-112030393D01*
X183397913Y-112028358D01*
X183403907Y-112014932D01*
X183405585Y-112009897D01*
X183426952Y-112001048D01*
X183447645Y-111980355D01*
X183458843Y-111953319D01*
X183458843Y-111924056D01*
X183447645Y-111897020D01*
X183438317Y-111885654D01*
X182886774Y-111334111D01*
X182875409Y-111324784D01*
X182848372Y-111313585D01*
X182819110Y-111313585D01*
X182792073Y-111324784D01*
X182771381Y-111345476D01*
X182760182Y-111372513D01*
X182760182Y-111401775D01*
X182771381Y-111428812D01*
X182780708Y-111440177D01*
X182911522Y-111570991D01*
X182806972Y-111675543D01*
X182797644Y-111686909D01*
X182796612Y-111689399D01*
X182794848Y-111691434D01*
X182788854Y-111704859D01*
X182762590Y-111783651D01*
X182760940Y-111790904D01*
X182760182Y-111792736D01*
X182759920Y-111795390D01*
X182759330Y-111797988D01*
X182759470Y-111799962D01*
X182758741Y-111807368D01*
X182132357Y-111807368D01*
X182829851Y-111109874D01*
X183022821Y-111109874D01*
X183022821Y-111139136D01*
X183034020Y-111166173D01*
X183043347Y-111177538D01*
X183594890Y-111729081D01*
X183606256Y-111738409D01*
X183633292Y-111749607D01*
X183662555Y-111749607D01*
X183689591Y-111738409D01*
X183710284Y-111717716D01*
X183721482Y-111690680D01*
X183721482Y-111661417D01*
X183710284Y-111634381D01*
X183700956Y-111623015D01*
X183579905Y-111501964D01*
X183847428Y-111540182D01*
X183862117Y-111540825D01*
X183890465Y-111533562D01*
X183913875Y-111516004D01*
X183928785Y-111490824D01*
X183932924Y-111461854D01*
X183925661Y-111433506D01*
X183908103Y-111410096D01*
X183882923Y-111395186D01*
X183868642Y-111391690D01*
X183565340Y-111348361D01*
X183565340Y-111098241D01*
X183563899Y-111083609D01*
X183552700Y-111056573D01*
X183532008Y-111035881D01*
X183504972Y-111024682D01*
X183475708Y-111024682D01*
X183448672Y-111035881D01*
X183427980Y-111056573D01*
X183416781Y-111083609D01*
X183415340Y-111098241D01*
X183415340Y-111337399D01*
X183149413Y-111071472D01*
X183138048Y-111062145D01*
X183111011Y-111050946D01*
X183081749Y-111050946D01*
X183054712Y-111062145D01*
X183034020Y-111082837D01*
X183022821Y-111109874D01*
X182829851Y-111109874D01*
X183092491Y-110847234D01*
X183653157Y-110847234D01*
X183653157Y-110876496D01*
X183664356Y-110903533D01*
X183673683Y-110914898D01*
X184041378Y-111282593D01*
X184052743Y-111291920D01*
X184079779Y-111303119D01*
X184109042Y-111303119D01*
X184136079Y-111291920D01*
X184156771Y-111271228D01*
X184167970Y-111244191D01*
X184167970Y-111214928D01*
X184156771Y-111187892D01*
X184147444Y-111176527D01*
X183897322Y-110926405D01*
X183880507Y-110875959D01*
X183880507Y-110847771D01*
X183897323Y-110797323D01*
X183937332Y-110757314D01*
X183946660Y-110745949D01*
X183957858Y-110718912D01*
X183957858Y-110689649D01*
X183946660Y-110662613D01*
X183925967Y-110641920D01*
X183898931Y-110630722D01*
X183869668Y-110630722D01*
X183842631Y-110641920D01*
X183831266Y-110651248D01*
X183778738Y-110703776D01*
X183769411Y-110715141D01*
X183768379Y-110717631D01*
X183766614Y-110719667D01*
X183760620Y-110733092D01*
X183742109Y-110788622D01*
X183741347Y-110788306D01*
X183712085Y-110788306D01*
X183685048Y-110799505D01*
X183664356Y-110820197D01*
X183653157Y-110847234D01*
X183092491Y-110847234D01*
X183433923Y-110505802D01*
X183994588Y-110505802D01*
X183994588Y-110535064D01*
X184005787Y-110562101D01*
X184015114Y-110573466D01*
X184382810Y-110941162D01*
X184394176Y-110950490D01*
X184421212Y-110961688D01*
X184450475Y-110961688D01*
X184477511Y-110950490D01*
X184498204Y-110929797D01*
X184509402Y-110902761D01*
X184509402Y-110873498D01*
X184498204Y-110846462D01*
X184488876Y-110835096D01*
X184121180Y-110467400D01*
X184109815Y-110458073D01*
X184082778Y-110446874D01*
X184053516Y-110446874D01*
X184026479Y-110458073D01*
X184005787Y-110478765D01*
X183994588Y-110505802D01*
X183433923Y-110505802D01*
X183603139Y-110336586D01*
X183809299Y-110336586D01*
X183809299Y-110389113D01*
X183810740Y-110403744D01*
X183810740Y-110403745D01*
X183821939Y-110430781D01*
X183842631Y-110451473D01*
X183869667Y-110462672D01*
X183884299Y-110464113D01*
X183936827Y-110464113D01*
X183951459Y-110462672D01*
X183978495Y-110451473D01*
X183999187Y-110430781D01*
X183999188Y-110430780D01*
X184010386Y-110403744D01*
X184011827Y-110389113D01*
X184011827Y-110336586D01*
X184010386Y-110321954D01*
X183999187Y-110294918D01*
X183978495Y-110274226D01*
X183951459Y-110263027D01*
X183936827Y-110261586D01*
X183884299Y-110261586D01*
X183869667Y-110263027D01*
X183842631Y-110274226D01*
X183821938Y-110294919D01*
X183817726Y-110305088D01*
X183810740Y-110321954D01*
X183809299Y-110336586D01*
X183603139Y-110336586D01*
X184285925Y-109653800D01*
X184439635Y-109653800D01*
X184441091Y-109668431D01*
X184677467Y-110850310D01*
X184681749Y-110864375D01*
X184698033Y-110888690D01*
X184722381Y-110904922D01*
X184751088Y-110910601D01*
X184779784Y-110904862D01*
X184804099Y-110888579D01*
X184820331Y-110864230D01*
X184826010Y-110835523D01*
X184824554Y-110820893D01*
X184593447Y-109665355D01*
X184835035Y-109665355D01*
X184835035Y-109694618D01*
X184846234Y-109721654D01*
X184855561Y-109733019D01*
X185407105Y-110284562D01*
X185418470Y-110293889D01*
X185445506Y-110305088D01*
X185474769Y-110305088D01*
X185501806Y-110293889D01*
X185522498Y-110273196D01*
X185533697Y-110246160D01*
X185533697Y-110216897D01*
X185522498Y-110189861D01*
X185513171Y-110178496D01*
X185382356Y-110047681D01*
X185486907Y-109943131D01*
X185496235Y-109931765D01*
X185497265Y-109929276D01*
X185499031Y-109927241D01*
X185505025Y-109913815D01*
X185531289Y-109835023D01*
X185532938Y-109827769D01*
X185533697Y-109825938D01*
X185533958Y-109823283D01*
X185534549Y-109820686D01*
X185534408Y-109818711D01*
X185535138Y-109811306D01*
X185535138Y-109758778D01*
X185534408Y-109751372D01*
X185534549Y-109749398D01*
X185533958Y-109746800D01*
X185533697Y-109744146D01*
X185532938Y-109742314D01*
X185531289Y-109735061D01*
X185505025Y-109656269D01*
X185499031Y-109642843D01*
X185497264Y-109640806D01*
X185496234Y-109638318D01*
X185486907Y-109626953D01*
X185329323Y-109469369D01*
X185317958Y-109460042D01*
X185315467Y-109459010D01*
X185313432Y-109457245D01*
X185300007Y-109451251D01*
X185221215Y-109424987D01*
X185213961Y-109423337D01*
X185212130Y-109422579D01*
X185209475Y-109422317D01*
X185206878Y-109421727D01*
X185204903Y-109421867D01*
X185197498Y-109421138D01*
X185144970Y-109421138D01*
X185137564Y-109421867D01*
X185135590Y-109421727D01*
X185132992Y-109422317D01*
X185130338Y-109422579D01*
X185128506Y-109423337D01*
X185121253Y-109424987D01*
X185042461Y-109451251D01*
X185029035Y-109457245D01*
X185026999Y-109459010D01*
X185024511Y-109460041D01*
X185013145Y-109469369D01*
X184908089Y-109574425D01*
X184898762Y-109585790D01*
X184897730Y-109588280D01*
X184895965Y-109590316D01*
X184889971Y-109603741D01*
X184888292Y-109608775D01*
X184866926Y-109617626D01*
X184846234Y-109638318D01*
X184835035Y-109665355D01*
X184593447Y-109665355D01*
X184588179Y-109639013D01*
X184583896Y-109624948D01*
X184567612Y-109600633D01*
X184543264Y-109584401D01*
X184514557Y-109578722D01*
X184485861Y-109584461D01*
X184461546Y-109600745D01*
X184445314Y-109625093D01*
X184439635Y-109653800D01*
X184285925Y-109653800D01*
X184758754Y-109180971D01*
X185385137Y-109180971D01*
X185385137Y-109233499D01*
X185385866Y-109240904D01*
X185385726Y-109242879D01*
X185386316Y-109245476D01*
X185386578Y-109248131D01*
X185387336Y-109249962D01*
X185388986Y-109257216D01*
X185415250Y-109336008D01*
X185421244Y-109349433D01*
X185423009Y-109351468D01*
X185424041Y-109353959D01*
X185433368Y-109365324D01*
X185590952Y-109522907D01*
X185602318Y-109532235D01*
X185604806Y-109533265D01*
X185606842Y-109535031D01*
X185620268Y-109541025D01*
X185699060Y-109567289D01*
X185706313Y-109568938D01*
X185708145Y-109569697D01*
X185710799Y-109569958D01*
X185713397Y-109570549D01*
X185715371Y-109570408D01*
X185722777Y-109571138D01*
X185775305Y-109571138D01*
X185782710Y-109570408D01*
X185784685Y-109570549D01*
X185787282Y-109569958D01*
X185789937Y-109569697D01*
X185791768Y-109568938D01*
X185799022Y-109567289D01*
X185877814Y-109541025D01*
X185891239Y-109535031D01*
X185893273Y-109533266D01*
X185895764Y-109532235D01*
X185907130Y-109522907D01*
X185985922Y-109444116D01*
X185995249Y-109432751D01*
X185996279Y-109430262D01*
X185998046Y-109428226D01*
X186004040Y-109414800D01*
X186030304Y-109336008D01*
X186031953Y-109328754D01*
X186032712Y-109326923D01*
X186032973Y-109324268D01*
X186033564Y-109321671D01*
X186033423Y-109319696D01*
X186034153Y-109312291D01*
X186034153Y-109259763D01*
X186033423Y-109252357D01*
X186033564Y-109250383D01*
X186032973Y-109247785D01*
X186032712Y-109245131D01*
X186031953Y-109243299D01*
X186030304Y-109236046D01*
X186004040Y-109157254D01*
X185998046Y-109143828D01*
X185996279Y-109141791D01*
X185995249Y-109139303D01*
X185985922Y-109127938D01*
X185828338Y-108970354D01*
X185816973Y-108961027D01*
X185814482Y-108959995D01*
X185812447Y-108958230D01*
X185799022Y-108952236D01*
X185720230Y-108925972D01*
X185712976Y-108924322D01*
X185711145Y-108923564D01*
X185708490Y-108923302D01*
X185705893Y-108922712D01*
X185703918Y-108922852D01*
X185696513Y-108922123D01*
X185643985Y-108922123D01*
X185636579Y-108922852D01*
X185634605Y-108922712D01*
X185632007Y-108923302D01*
X185629353Y-108923564D01*
X185627521Y-108924322D01*
X185620268Y-108925972D01*
X185541476Y-108952236D01*
X185528050Y-108958230D01*
X185526014Y-108959995D01*
X185523526Y-108961026D01*
X185512160Y-108970354D01*
X185433368Y-109049146D01*
X185424041Y-109060511D01*
X185423009Y-109063001D01*
X185421244Y-109065037D01*
X185415250Y-109078462D01*
X185388986Y-109157254D01*
X185387336Y-109164507D01*
X185386578Y-109166339D01*
X185386316Y-109168993D01*
X185385726Y-109171591D01*
X185385866Y-109173565D01*
X185385137Y-109180971D01*
X184758754Y-109180971D01*
X185257769Y-108681956D01*
X185884153Y-108681956D01*
X185884153Y-108734484D01*
X185884882Y-108741889D01*
X185884742Y-108743864D01*
X185885332Y-108746461D01*
X185885594Y-108749116D01*
X185886352Y-108750947D01*
X185888002Y-108758201D01*
X185914266Y-108836993D01*
X185920260Y-108850418D01*
X185922025Y-108852453D01*
X185923057Y-108854944D01*
X185932384Y-108866309D01*
X186089967Y-109023892D01*
X186101332Y-109033219D01*
X186103820Y-109034249D01*
X186105857Y-109036016D01*
X186119283Y-109042010D01*
X186198075Y-109068274D01*
X186205328Y-109069923D01*
X186207160Y-109070682D01*
X186209814Y-109070943D01*
X186212412Y-109071534D01*
X186214386Y-109071393D01*
X186221792Y-109072123D01*
X186274320Y-109072123D01*
X186281725Y-109071393D01*
X186283700Y-109071534D01*
X186286297Y-109070943D01*
X186288952Y-109070682D01*
X186290783Y-109069923D01*
X186298037Y-109068274D01*
X186376829Y-109042010D01*
X186390254Y-109036016D01*
X186392289Y-109034250D01*
X186394780Y-109033219D01*
X186406145Y-109023892D01*
X186511201Y-108918836D01*
X186520529Y-108907470D01*
X186521559Y-108904981D01*
X186523325Y-108902946D01*
X186529319Y-108889520D01*
X186555583Y-108810729D01*
X186558843Y-108796393D01*
X186556769Y-108767203D01*
X186543682Y-108741029D01*
X186521575Y-108721855D01*
X186493813Y-108712601D01*
X186464622Y-108714676D01*
X186438449Y-108727762D01*
X186419275Y-108749869D01*
X186413281Y-108763295D01*
X186392616Y-108825288D01*
X186312598Y-108905307D01*
X186262150Y-108922123D01*
X186233962Y-108922123D01*
X186183514Y-108905307D01*
X186050969Y-108772762D01*
X186034153Y-108722314D01*
X186034153Y-108694126D01*
X186050969Y-108643677D01*
X186130986Y-108563659D01*
X186192981Y-108542995D01*
X186206406Y-108537001D01*
X186228514Y-108517827D01*
X186241600Y-108491654D01*
X186243675Y-108462464D01*
X186234421Y-108434701D01*
X186215247Y-108412594D01*
X186189074Y-108399508D01*
X186159884Y-108397433D01*
X186145547Y-108400693D01*
X186066755Y-108426957D01*
X186053329Y-108432951D01*
X186051292Y-108434717D01*
X186048804Y-108435748D01*
X186037439Y-108445075D01*
X185932384Y-108550131D01*
X185923056Y-108561497D01*
X185922024Y-108563987D01*
X185920260Y-108566022D01*
X185914266Y-108579447D01*
X185888002Y-108658239D01*
X185886352Y-108665492D01*
X185885594Y-108667324D01*
X185885332Y-108669978D01*
X185884742Y-108672576D01*
X185884882Y-108674550D01*
X185884153Y-108681956D01*
X185257769Y-108681956D01*
X185928999Y-108010726D01*
X186121969Y-108010726D01*
X186121969Y-108039988D01*
X186133168Y-108067025D01*
X186142495Y-108078390D01*
X186694038Y-108629933D01*
X186705404Y-108639261D01*
X186732440Y-108650459D01*
X186761703Y-108650459D01*
X186788739Y-108639261D01*
X186809432Y-108618568D01*
X186820630Y-108591532D01*
X186820630Y-108562269D01*
X186809432Y-108535233D01*
X186800104Y-108523867D01*
X186679053Y-108402816D01*
X186946576Y-108441034D01*
X186961265Y-108441677D01*
X186989613Y-108434414D01*
X187013023Y-108416856D01*
X187027933Y-108391676D01*
X187032072Y-108362706D01*
X187024809Y-108334358D01*
X187007251Y-108310947D01*
X186982071Y-108296038D01*
X186967790Y-108292542D01*
X186664487Y-108249213D01*
X186664487Y-107999093D01*
X186663046Y-107984461D01*
X186651847Y-107957425D01*
X186631155Y-107936733D01*
X186604119Y-107925534D01*
X186574855Y-107925534D01*
X186547819Y-107936733D01*
X186527127Y-107957425D01*
X186515928Y-107984461D01*
X186514487Y-107999093D01*
X186514487Y-108238250D01*
X186248561Y-107972324D01*
X186237196Y-107962997D01*
X186210159Y-107951798D01*
X186180897Y-107951798D01*
X186153860Y-107962997D01*
X186133168Y-107983689D01*
X186121969Y-108010726D01*
X185928999Y-108010726D01*
X186160124Y-107779601D01*
X186777716Y-107779601D01*
X186778382Y-107788981D01*
X186777716Y-107798361D01*
X186779656Y-107806893D01*
X186779791Y-107808791D01*
X186780335Y-107809879D01*
X186780976Y-107812698D01*
X186807240Y-107891490D01*
X186813234Y-107904915D01*
X186814999Y-107906950D01*
X186816031Y-107909441D01*
X186825358Y-107920806D01*
X186930467Y-108025915D01*
X186930469Y-108025917D01*
X186930470Y-108025918D01*
X187035470Y-108130917D01*
X187046836Y-108140245D01*
X187049324Y-108141275D01*
X187051360Y-108143041D01*
X187064786Y-108149035D01*
X187143578Y-108175299D01*
X187146396Y-108175939D01*
X187147485Y-108176484D01*
X187149382Y-108176618D01*
X187157915Y-108178559D01*
X187167295Y-108177892D01*
X187176675Y-108178559D01*
X187185207Y-108176618D01*
X187187105Y-108176484D01*
X187188193Y-108175939D01*
X187191012Y-108175299D01*
X187269804Y-108149035D01*
X187283229Y-108143041D01*
X187285263Y-108141276D01*
X187287754Y-108140245D01*
X187299120Y-108130917D01*
X187404176Y-108025862D01*
X187413503Y-108014497D01*
X187414533Y-108012008D01*
X187416300Y-108009972D01*
X187422294Y-107996546D01*
X187448558Y-107917754D01*
X187451818Y-107903417D01*
X187449743Y-107874227D01*
X187436657Y-107848054D01*
X187414550Y-107828880D01*
X187386787Y-107819626D01*
X187357597Y-107821701D01*
X187331424Y-107834787D01*
X187312250Y-107856895D01*
X187306256Y-107870320D01*
X187285591Y-107932314D01*
X187205573Y-108012331D01*
X187167295Y-108025091D01*
X187129016Y-108012331D01*
X187079957Y-107963272D01*
X187255917Y-107699331D01*
X187255920Y-107699329D01*
X187255921Y-107699325D01*
X187255963Y-107699263D01*
X187262880Y-107686289D01*
X187264305Y-107679083D01*
X187267118Y-107672293D01*
X187267118Y-107664866D01*
X187268559Y-107657582D01*
X187267118Y-107650377D01*
X187267118Y-107643030D01*
X187264276Y-107636169D01*
X187262820Y-107628887D01*
X187258732Y-107622782D01*
X187255920Y-107615993D01*
X187246592Y-107604628D01*
X187246539Y-107604575D01*
X187246537Y-107604572D01*
X187246534Y-107604570D01*
X187194064Y-107552100D01*
X187182699Y-107542773D01*
X187180208Y-107541741D01*
X187178173Y-107539976D01*
X187164748Y-107533982D01*
X187085956Y-107507718D01*
X187083137Y-107507077D01*
X187082049Y-107506533D01*
X187080151Y-107506398D01*
X187071619Y-107504458D01*
X187062239Y-107505124D01*
X187052859Y-107504458D01*
X187044326Y-107506398D01*
X187042429Y-107506533D01*
X187041340Y-107507077D01*
X187038522Y-107507718D01*
X186959730Y-107533982D01*
X186946304Y-107539976D01*
X186944268Y-107541741D01*
X186941780Y-107542772D01*
X186930414Y-107552100D01*
X186825358Y-107657156D01*
X186816031Y-107668521D01*
X186814999Y-107671011D01*
X186813234Y-107673047D01*
X186807240Y-107686472D01*
X186780976Y-107765264D01*
X186780335Y-107768082D01*
X186779791Y-107769171D01*
X186779656Y-107771068D01*
X186777716Y-107779601D01*
X186160124Y-107779601D01*
X186848238Y-107091487D01*
X187041208Y-107091487D01*
X187041208Y-107120749D01*
X187052407Y-107147786D01*
X187061734Y-107159151D01*
X187192548Y-107289965D01*
X187166790Y-107315725D01*
X187157462Y-107327090D01*
X187146264Y-107354127D01*
X187146264Y-107383390D01*
X187157463Y-107410426D01*
X187178155Y-107431119D01*
X187205192Y-107442317D01*
X187234455Y-107442317D01*
X187261491Y-107431118D01*
X187272856Y-107421791D01*
X187298614Y-107396031D01*
X187534485Y-107631902D01*
X187545850Y-107641230D01*
X187548340Y-107642261D01*
X187550375Y-107644026D01*
X187563801Y-107650020D01*
X187642593Y-107676284D01*
X187645411Y-107676924D01*
X187646500Y-107677469D01*
X187648397Y-107677603D01*
X187656930Y-107679544D01*
X187666310Y-107678877D01*
X187675690Y-107679544D01*
X187684222Y-107677603D01*
X187686120Y-107677469D01*
X187687208Y-107676924D01*
X187690027Y-107676284D01*
X187768819Y-107650020D01*
X187782244Y-107644026D01*
X187784279Y-107642260D01*
X187786770Y-107641229D01*
X187798135Y-107631902D01*
X187850663Y-107579374D01*
X187859991Y-107568009D01*
X187871189Y-107540972D01*
X187871189Y-107511709D01*
X187859991Y-107484673D01*
X187839298Y-107463980D01*
X187812262Y-107452782D01*
X187782999Y-107452782D01*
X187755962Y-107463980D01*
X187744597Y-107473308D01*
X187704588Y-107513317D01*
X187666310Y-107526076D01*
X187628032Y-107513317D01*
X187404680Y-107289965D01*
X187482967Y-107211679D01*
X187492295Y-107200313D01*
X187503493Y-107173277D01*
X187503493Y-107144014D01*
X187492615Y-107117751D01*
X187697807Y-107117751D01*
X187697807Y-107147013D01*
X187709006Y-107174050D01*
X187729698Y-107194742D01*
X187756735Y-107205941D01*
X187785997Y-107205941D01*
X187813034Y-107194742D01*
X187824399Y-107185415D01*
X188244622Y-106765192D01*
X188253949Y-106753827D01*
X188265148Y-106726791D01*
X188265148Y-106697528D01*
X188253949Y-106670491D01*
X188233257Y-106649799D01*
X188206220Y-106638600D01*
X188176957Y-106638600D01*
X188149921Y-106649799D01*
X188138556Y-106659126D01*
X187718333Y-107079349D01*
X187709006Y-107090714D01*
X187697807Y-107117751D01*
X187492615Y-107117751D01*
X187492295Y-107116978D01*
X187471602Y-107096285D01*
X187444566Y-107085087D01*
X187415303Y-107085087D01*
X187388267Y-107096285D01*
X187376901Y-107105613D01*
X187298614Y-107183899D01*
X187167800Y-107053085D01*
X187156435Y-107043758D01*
X187129398Y-107032559D01*
X187100136Y-107032559D01*
X187073099Y-107043758D01*
X187052407Y-107064450D01*
X187041208Y-107091487D01*
X186848238Y-107091487D01*
X187846268Y-106093457D01*
X188039238Y-106093457D01*
X188039238Y-106122719D01*
X188050437Y-106149756D01*
X188059764Y-106161121D01*
X188190578Y-106291935D01*
X188164820Y-106317694D01*
X188155493Y-106329059D01*
X188144294Y-106356095D01*
X188144294Y-106385358D01*
X188155492Y-106412395D01*
X188176185Y-106433087D01*
X188203221Y-106444286D01*
X188232484Y-106444286D01*
X188259521Y-106433088D01*
X188270886Y-106423760D01*
X188296644Y-106398001D01*
X188532515Y-106633872D01*
X188543880Y-106643200D01*
X188546370Y-106644231D01*
X188548405Y-106645996D01*
X188561831Y-106651990D01*
X188640623Y-106678254D01*
X188643441Y-106678894D01*
X188644530Y-106679439D01*
X188646427Y-106679573D01*
X188654960Y-106681514D01*
X188664340Y-106680847D01*
X188673720Y-106681514D01*
X188682252Y-106679573D01*
X188684150Y-106679439D01*
X188685238Y-106678894D01*
X188688057Y-106678254D01*
X188766849Y-106651990D01*
X188780274Y-106645996D01*
X188782309Y-106644230D01*
X188784800Y-106643199D01*
X188796165Y-106633872D01*
X188848693Y-106581344D01*
X188858021Y-106569979D01*
X188869219Y-106542942D01*
X188869219Y-106513679D01*
X188858021Y-106486643D01*
X188837328Y-106465950D01*
X188810292Y-106454752D01*
X188781029Y-106454752D01*
X188753992Y-106465950D01*
X188742627Y-106475278D01*
X188702618Y-106515287D01*
X188664340Y-106528046D01*
X188626062Y-106515287D01*
X188402710Y-106291935D01*
X188480998Y-106213649D01*
X188490326Y-106202283D01*
X188501524Y-106175247D01*
X188501524Y-106145984D01*
X188490326Y-106118948D01*
X188469633Y-106098255D01*
X188442597Y-106087057D01*
X188413334Y-106087057D01*
X188386298Y-106098255D01*
X188374932Y-106107583D01*
X188296644Y-106185869D01*
X188165830Y-106055055D01*
X188154465Y-106045728D01*
X188127428Y-106034529D01*
X188098166Y-106034529D01*
X188071129Y-106045728D01*
X188050437Y-106066420D01*
X188039238Y-106093457D01*
X187846268Y-106093457D01*
X187946073Y-105993652D01*
X188563665Y-105993652D01*
X188565740Y-106022842D01*
X188578826Y-106049015D01*
X188600933Y-106068189D01*
X188628696Y-106077443D01*
X188657886Y-106075368D01*
X188684059Y-106062282D01*
X188703233Y-106040175D01*
X188709227Y-106026749D01*
X188729892Y-105964754D01*
X188809910Y-105884736D01*
X188848188Y-105871976D01*
X188886465Y-105884735D01*
X188893698Y-105891969D01*
X188887692Y-105909990D01*
X188768891Y-106028791D01*
X188759564Y-106040156D01*
X188758532Y-106042646D01*
X188756767Y-106044682D01*
X188750773Y-106058107D01*
X188724509Y-106136899D01*
X188723868Y-106139717D01*
X188723324Y-106140806D01*
X188723189Y-106142703D01*
X188721249Y-106151236D01*
X188721915Y-106160616D01*
X188721249Y-106169996D01*
X188723189Y-106178528D01*
X188723324Y-106180426D01*
X188723868Y-106181514D01*
X188724509Y-106184333D01*
X188750773Y-106263125D01*
X188756767Y-106276550D01*
X188758532Y-106278585D01*
X188759564Y-106281076D01*
X188768891Y-106292441D01*
X188821419Y-106344969D01*
X188832784Y-106354297D01*
X188835274Y-106355328D01*
X188837309Y-106357093D01*
X188850735Y-106363087D01*
X188929527Y-106389351D01*
X188932345Y-106389991D01*
X188933434Y-106390536D01*
X188935331Y-106390670D01*
X188943864Y-106392611D01*
X188953244Y-106391944D01*
X188962624Y-106392611D01*
X188971156Y-106390670D01*
X188973054Y-106390536D01*
X188974142Y-106389991D01*
X188976961Y-106389351D01*
X189055753Y-106363087D01*
X189069178Y-106357093D01*
X189071213Y-106355327D01*
X189073704Y-106354296D01*
X189085069Y-106344969D01*
X189216389Y-106213649D01*
X189225717Y-106202283D01*
X189226747Y-106199794D01*
X189228514Y-106197758D01*
X189234508Y-106184332D01*
X189236186Y-106179297D01*
X189257550Y-106170448D01*
X189278243Y-106149756D01*
X189289442Y-106122719D01*
X189289442Y-106093456D01*
X189278243Y-106066420D01*
X189268916Y-106055055D01*
X188980013Y-105766151D01*
X188968648Y-105756824D01*
X188966157Y-105755792D01*
X188964122Y-105754027D01*
X188950697Y-105748033D01*
X188871905Y-105721769D01*
X188869086Y-105721128D01*
X188867998Y-105720584D01*
X188866100Y-105720449D01*
X188857568Y-105718509D01*
X188848188Y-105719175D01*
X188838808Y-105718509D01*
X188830275Y-105720449D01*
X188828378Y-105720584D01*
X188827289Y-105721128D01*
X188824471Y-105721769D01*
X188745679Y-105748033D01*
X188732253Y-105754027D01*
X188730217Y-105755792D01*
X188727729Y-105756823D01*
X188716363Y-105766151D01*
X188611307Y-105871207D01*
X188601980Y-105882572D01*
X188600948Y-105885062D01*
X188599183Y-105887098D01*
X188593189Y-105900523D01*
X188566925Y-105979315D01*
X188563665Y-105993652D01*
X187946073Y-105993652D01*
X188461972Y-105477753D01*
X189088355Y-105477753D01*
X189088355Y-105530281D01*
X189089084Y-105537686D01*
X189088944Y-105539661D01*
X189089534Y-105542258D01*
X189089796Y-105544913D01*
X189090554Y-105546744D01*
X189092204Y-105553998D01*
X189118468Y-105632790D01*
X189124462Y-105646215D01*
X189126227Y-105648250D01*
X189127259Y-105650741D01*
X189136586Y-105662106D01*
X189294170Y-105819690D01*
X189305535Y-105829017D01*
X189308023Y-105830047D01*
X189310060Y-105831814D01*
X189323486Y-105837808D01*
X189402278Y-105864072D01*
X189409531Y-105865721D01*
X189411363Y-105866480D01*
X189414017Y-105866741D01*
X189416615Y-105867332D01*
X189418589Y-105867191D01*
X189425995Y-105867921D01*
X189478523Y-105867921D01*
X189485928Y-105867191D01*
X189487903Y-105867332D01*
X189490500Y-105866741D01*
X189493155Y-105866480D01*
X189494986Y-105865721D01*
X189502240Y-105864072D01*
X189581032Y-105837808D01*
X189594457Y-105831814D01*
X189596492Y-105830048D01*
X189598983Y-105829017D01*
X189610348Y-105819690D01*
X189714898Y-105715139D01*
X189728137Y-105728378D01*
X189744954Y-105778827D01*
X189744954Y-105807014D01*
X189728137Y-105857462D01*
X189674384Y-105911216D01*
X189612390Y-105931881D01*
X189598964Y-105937875D01*
X189576857Y-105957049D01*
X189563771Y-105983222D01*
X189561696Y-106012412D01*
X189570950Y-106040175D01*
X189590124Y-106062282D01*
X189616297Y-106075368D01*
X189645487Y-106077443D01*
X189659824Y-106074183D01*
X189738616Y-106047919D01*
X189752041Y-106041925D01*
X189754076Y-106040159D01*
X189756567Y-106039128D01*
X189767932Y-106029801D01*
X189846723Y-105951009D01*
X189856051Y-105939643D01*
X189857081Y-105937154D01*
X189858847Y-105935119D01*
X189864841Y-105921693D01*
X189891105Y-105842901D01*
X189892754Y-105835647D01*
X189893513Y-105833816D01*
X189893774Y-105831161D01*
X189894365Y-105828564D01*
X189894224Y-105826589D01*
X189894954Y-105819184D01*
X189894954Y-105766657D01*
X189894224Y-105759251D01*
X189894365Y-105757277D01*
X189893774Y-105754679D01*
X189893513Y-105752025D01*
X189892754Y-105750193D01*
X189891105Y-105742940D01*
X189864841Y-105664148D01*
X189858847Y-105650722D01*
X189857081Y-105648686D01*
X189856051Y-105646198D01*
X189846723Y-105634832D01*
X189400236Y-105188344D01*
X189388871Y-105179017D01*
X189361835Y-105167818D01*
X189332572Y-105167818D01*
X189305535Y-105179016D01*
X189284843Y-105199709D01*
X189275992Y-105221075D01*
X189270958Y-105222754D01*
X189257532Y-105228748D01*
X189255496Y-105230513D01*
X189253008Y-105231544D01*
X189241642Y-105240872D01*
X189136586Y-105345928D01*
X189127259Y-105357293D01*
X189126227Y-105359783D01*
X189124462Y-105361819D01*
X189118468Y-105375244D01*
X189092204Y-105454036D01*
X189090554Y-105461289D01*
X189089796Y-105463121D01*
X189089534Y-105465775D01*
X189088944Y-105468373D01*
X189089084Y-105470347D01*
X189088355Y-105477753D01*
X188461972Y-105477753D01*
X189137091Y-104802634D01*
X190127378Y-105792920D01*
G37*
X178618086Y-118975886D02*
X178066542Y-118424342D01*
X178329182Y-118686982D02*
X178644350Y-118371814D01*
X178933253Y-118660718D02*
X178381710Y-118109175D01*
X179432269Y-118161703D02*
X179143365Y-117872799D01*
X179143365Y-117872799D02*
X179064573Y-117846535D01*
X179064573Y-117846535D02*
X178985781Y-117872799D01*
X178985781Y-117872799D02*
X178880725Y-117977855D01*
X178880725Y-117977855D02*
X178854461Y-118056647D01*
X179406005Y-118135439D02*
X179379741Y-118214231D01*
X179379741Y-118214231D02*
X179248421Y-118345550D01*
X179248421Y-118345550D02*
X179169629Y-118371814D01*
X179169629Y-118371814D02*
X179090837Y-118345550D01*
X179090837Y-118345550D02*
X179038309Y-118293022D01*
X179038309Y-118293022D02*
X179012045Y-118214231D01*
X179012045Y-118214231D02*
X179038309Y-118135439D01*
X179038309Y-118135439D02*
X179169629Y-118004119D01*
X179169629Y-118004119D02*
X179195893Y-117925327D01*
X179905020Y-117636424D02*
X179878756Y-117715215D01*
X179878756Y-117715215D02*
X179773700Y-117820271D01*
X179773700Y-117820271D02*
X179694908Y-117846535D01*
X179694908Y-117846535D02*
X179642380Y-117846535D01*
X179642380Y-117846535D02*
X179563588Y-117820271D01*
X179563588Y-117820271D02*
X179406005Y-117662688D01*
X179406005Y-117662688D02*
X179379741Y-117583896D01*
X179379741Y-117583896D02*
X179379741Y-117531368D01*
X179379741Y-117531368D02*
X179406005Y-117452576D01*
X179406005Y-117452576D02*
X179511060Y-117347520D01*
X179511060Y-117347520D02*
X179589852Y-117321256D01*
X180167659Y-117426312D02*
X179616116Y-116874769D01*
X180010075Y-117163672D02*
X180377771Y-117216200D01*
X180010075Y-116848505D02*
X180010075Y-117268728D01*
X180850523Y-116743449D02*
X180561619Y-116454545D01*
X180561619Y-116454545D02*
X180482827Y-116428281D01*
X180482827Y-116428281D02*
X180404035Y-116454545D01*
X180404035Y-116454545D02*
X180298979Y-116559601D01*
X180298979Y-116559601D02*
X180272715Y-116638393D01*
X180824259Y-116717185D02*
X180797995Y-116795977D01*
X180797995Y-116795977D02*
X180666675Y-116927296D01*
X180666675Y-116927296D02*
X180587883Y-116953560D01*
X180587883Y-116953560D02*
X180509091Y-116927296D01*
X180509091Y-116927296D02*
X180456563Y-116874769D01*
X180456563Y-116874769D02*
X180430299Y-116795977D01*
X180430299Y-116795977D02*
X180456563Y-116717185D01*
X180456563Y-116717185D02*
X180587883Y-116585865D01*
X180587883Y-116585865D02*
X180614147Y-116507073D01*
X181349538Y-116244434D02*
X180797995Y-115692890D01*
X181323274Y-116218170D02*
X181297010Y-116296961D01*
X181297010Y-116296961D02*
X181191954Y-116402017D01*
X181191954Y-116402017D02*
X181113162Y-116428281D01*
X181113162Y-116428281D02*
X181060634Y-116428281D01*
X181060634Y-116428281D02*
X180981842Y-116402017D01*
X180981842Y-116402017D02*
X180824258Y-116244434D01*
X180824258Y-116244434D02*
X180797995Y-116165642D01*
X180797995Y-116165642D02*
X180797995Y-116113114D01*
X180797995Y-116113114D02*
X180824258Y-116034322D01*
X180824258Y-116034322D02*
X180929314Y-115929266D01*
X180929314Y-115929266D02*
X181008106Y-115903002D01*
X181848553Y-115745418D02*
X181559649Y-115456515D01*
X181559649Y-115456515D02*
X181480857Y-115430251D01*
X181480857Y-115430251D02*
X181402066Y-115456515D01*
X181402066Y-115456515D02*
X181297010Y-115561571D01*
X181297010Y-115561571D02*
X181270746Y-115640363D01*
X181822289Y-115719154D02*
X181796025Y-115797946D01*
X181796025Y-115797946D02*
X181664705Y-115929266D01*
X181664705Y-115929266D02*
X181585913Y-115955530D01*
X181585913Y-115955530D02*
X181507121Y-115929266D01*
X181507121Y-115929266D02*
X181454593Y-115876738D01*
X181454593Y-115876738D02*
X181428330Y-115797946D01*
X181428330Y-115797946D02*
X181454593Y-115719154D01*
X181454593Y-115719154D02*
X181585913Y-115587835D01*
X181585913Y-115587835D02*
X181612177Y-115509043D01*
X181690969Y-115167611D02*
X182189984Y-115403987D01*
X181953609Y-114904972D02*
X182189984Y-115403987D01*
X182189984Y-115403987D02*
X182268776Y-115587835D01*
X182268776Y-115587835D02*
X182268776Y-115640363D01*
X182268776Y-115640363D02*
X182242512Y-115719155D01*
X182426360Y-114169580D02*
X182426360Y-114117052D01*
X182426360Y-114117052D02*
X182452624Y-114038260D01*
X182452624Y-114038260D02*
X182583944Y-113906941D01*
X182583944Y-113906941D02*
X182662736Y-113880677D01*
X182662736Y-113880677D02*
X182715264Y-113880677D01*
X182715264Y-113880677D02*
X182794056Y-113906941D01*
X182794056Y-113906941D02*
X182846584Y-113959468D01*
X182846584Y-113959468D02*
X182899112Y-114064524D01*
X182899112Y-114064524D02*
X182899112Y-114694860D01*
X182899112Y-114694860D02*
X183240543Y-114353428D01*
X183030432Y-113460453D02*
X183082959Y-113407925D01*
X183082959Y-113407925D02*
X183161751Y-113381661D01*
X183161751Y-113381661D02*
X183214279Y-113381661D01*
X183214279Y-113381661D02*
X183293071Y-113407925D01*
X183293071Y-113407925D02*
X183424391Y-113486717D01*
X183424391Y-113486717D02*
X183555711Y-113618037D01*
X183555711Y-113618037D02*
X183634503Y-113749357D01*
X183634503Y-113749357D02*
X183660767Y-113828149D01*
X183660767Y-113828149D02*
X183660767Y-113880677D01*
X183660767Y-113880677D02*
X183634503Y-113959469D01*
X183634503Y-113959469D02*
X183581975Y-114011997D01*
X183581975Y-114011997D02*
X183503183Y-114038260D01*
X183503183Y-114038260D02*
X183450655Y-114038260D01*
X183450655Y-114038260D02*
X183371863Y-114011997D01*
X183371863Y-114011997D02*
X183240543Y-113933205D01*
X183240543Y-113933205D02*
X183109223Y-113801885D01*
X183109223Y-113801885D02*
X183030432Y-113670565D01*
X183030432Y-113670565D02*
X183004168Y-113591773D01*
X183004168Y-113591773D02*
X183004168Y-113539245D01*
X183004168Y-113539245D02*
X183030432Y-113460453D01*
X183476919Y-113119022D02*
X183476919Y-113066494D01*
X183476919Y-113066494D02*
X183503183Y-112987702D01*
X183503183Y-112987702D02*
X183634503Y-112856382D01*
X183634503Y-112856382D02*
X183713295Y-112830118D01*
X183713295Y-112830118D02*
X183765822Y-112830118D01*
X183765822Y-112830118D02*
X183844614Y-112856382D01*
X183844614Y-112856382D02*
X183897142Y-112908910D01*
X183897142Y-112908910D02*
X183949670Y-113013966D01*
X183949670Y-113013966D02*
X183949670Y-113644301D01*
X183949670Y-113644301D02*
X184291102Y-113302870D01*
X184212310Y-112278575D02*
X184107254Y-112383631D01*
X184107254Y-112383631D02*
X184080990Y-112462423D01*
X184080990Y-112462423D02*
X184080990Y-112514951D01*
X184080990Y-112514951D02*
X184107254Y-112646270D01*
X184107254Y-112646270D02*
X184186046Y-112777590D01*
X184186046Y-112777590D02*
X184396158Y-112987702D01*
X184396158Y-112987702D02*
X184474949Y-113013966D01*
X184474949Y-113013966D02*
X184527477Y-113013966D01*
X184527477Y-113013966D02*
X184606269Y-112987702D01*
X184606269Y-112987702D02*
X184711325Y-112882646D01*
X184711325Y-112882646D02*
X184737589Y-112803854D01*
X184737589Y-112803854D02*
X184737589Y-112751326D01*
X184737589Y-112751326D02*
X184711325Y-112672534D01*
X184711325Y-112672534D02*
X184580005Y-112541215D01*
X184580005Y-112541215D02*
X184501213Y-112514951D01*
X184501213Y-112514951D02*
X184448686Y-112514951D01*
X184448686Y-112514951D02*
X184369894Y-112541215D01*
X184369894Y-112541215D02*
X184264838Y-112646270D01*
X184264838Y-112646270D02*
X184238574Y-112725062D01*
X184238574Y-112725062D02*
X184238574Y-112777590D01*
X184238574Y-112777590D02*
X184264838Y-112856382D01*
X168323160Y-114996726D02*
X168437446Y-115034821D01*
X168437446Y-115034821D02*
X168475541Y-115072917D01*
X168475541Y-115072917D02*
X168513637Y-115149107D01*
X168513637Y-115149107D02*
X168513637Y-115263393D01*
X168513637Y-115263393D02*
X168475541Y-115339583D01*
X168475541Y-115339583D02*
X168437446Y-115377679D01*
X168437446Y-115377679D02*
X168361256Y-115415774D01*
X168361256Y-115415774D02*
X168056494Y-115415774D01*
X168056494Y-115415774D02*
X168056494Y-114615774D01*
X168056494Y-114615774D02*
X168323160Y-114615774D01*
X168323160Y-114615774D02*
X168399351Y-114653869D01*
X168399351Y-114653869D02*
X168437446Y-114691964D01*
X168437446Y-114691964D02*
X168475541Y-114768155D01*
X168475541Y-114768155D02*
X168475541Y-114844345D01*
X168475541Y-114844345D02*
X168437446Y-114920536D01*
X168437446Y-114920536D02*
X168399351Y-114958631D01*
X168399351Y-114958631D02*
X168323160Y-114996726D01*
X168323160Y-114996726D02*
X168056494Y-114996726D01*
X168856494Y-114615774D02*
X168856494Y-115263393D01*
X168856494Y-115263393D02*
X168894589Y-115339583D01*
X168894589Y-115339583D02*
X168932684Y-115377679D01*
X168932684Y-115377679D02*
X169008875Y-115415774D01*
X169008875Y-115415774D02*
X169161256Y-115415774D01*
X169161256Y-115415774D02*
X169237446Y-115377679D01*
X169237446Y-115377679D02*
X169275541Y-115339583D01*
X169275541Y-115339583D02*
X169313637Y-115263393D01*
X169313637Y-115263393D02*
X169313637Y-114615774D01*
X169580303Y-114615774D02*
X170037446Y-114615774D01*
X169808874Y-115415774D02*
X169808874Y-114615774D01*
X170189827Y-114615774D02*
X170646970Y-114615774D01*
X170418398Y-115415774D02*
X170418398Y-114615774D01*
X171066018Y-114615774D02*
X171218399Y-114615774D01*
X171218399Y-114615774D02*
X171294589Y-114653869D01*
X171294589Y-114653869D02*
X171370780Y-114730059D01*
X171370780Y-114730059D02*
X171408875Y-114882440D01*
X171408875Y-114882440D02*
X171408875Y-115149107D01*
X171408875Y-115149107D02*
X171370780Y-115301488D01*
X171370780Y-115301488D02*
X171294589Y-115377679D01*
X171294589Y-115377679D02*
X171218399Y-115415774D01*
X171218399Y-115415774D02*
X171066018Y-115415774D01*
X171066018Y-115415774D02*
X170989827Y-115377679D01*
X170989827Y-115377679D02*
X170913637Y-115301488D01*
X170913637Y-115301488D02*
X170875541Y-115149107D01*
X170875541Y-115149107D02*
X170875541Y-114882440D01*
X170875541Y-114882440D02*
X170913637Y-114730059D01*
X170913637Y-114730059D02*
X170989827Y-114653869D01*
X170989827Y-114653869D02*
X171066018Y-114615774D01*
X171751732Y-115415774D02*
X171751732Y-114615774D01*
X171751732Y-114615774D02*
X172208875Y-115415774D01*
X172208875Y-115415774D02*
X172208875Y-114615774D01*
X170570779Y-116703869D02*
X170494589Y-116665774D01*
X170494589Y-116665774D02*
X170380303Y-116665774D01*
X170380303Y-116665774D02*
X170266017Y-116703869D01*
X170266017Y-116703869D02*
X170189827Y-116780059D01*
X170189827Y-116780059D02*
X170151732Y-116856250D01*
X170151732Y-116856250D02*
X170113636Y-117008631D01*
X170113636Y-117008631D02*
X170113636Y-117122917D01*
X170113636Y-117122917D02*
X170151732Y-117275298D01*
X170151732Y-117275298D02*
X170189827Y-117351488D01*
X170189827Y-117351488D02*
X170266017Y-117427679D01*
X170266017Y-117427679D02*
X170380303Y-117465774D01*
X170380303Y-117465774D02*
X170456494Y-117465774D01*
X170456494Y-117465774D02*
X170570779Y-117427679D01*
X170570779Y-117427679D02*
X170608875Y-117389583D01*
X170608875Y-117389583D02*
X170608875Y-117122917D01*
X170608875Y-117122917D02*
X170456494Y-117122917D01*
X170951732Y-117465774D02*
X170951732Y-116665774D01*
X170951732Y-116665774D02*
X171408875Y-117465774D01*
X171408875Y-117465774D02*
X171408875Y-116665774D01*
X171789827Y-117465774D02*
X171789827Y-116665774D01*
X171789827Y-116665774D02*
X171980303Y-116665774D01*
X171980303Y-116665774D02*
X172094589Y-116703869D01*
X172094589Y-116703869D02*
X172170779Y-116780059D01*
X172170779Y-116780059D02*
X172208874Y-116856250D01*
X172208874Y-116856250D02*
X172246970Y-117008631D01*
X172246970Y-117008631D02*
X172246970Y-117122917D01*
X172246970Y-117122917D02*
X172208874Y-117275298D01*
X172208874Y-117275298D02*
X172170779Y-117351488D01*
X172170779Y-117351488D02*
X172094589Y-117427679D01*
X172094589Y-117427679D02*
X171980303Y-117465774D01*
X171980303Y-117465774D02*
X171789827Y-117465774D01*
X170799350Y-113315774D02*
X170418398Y-113315774D01*
X170418398Y-113315774D02*
X170418398Y-112515774D01*
X171066017Y-112896726D02*
X171332683Y-112896726D01*
X171446969Y-113315774D02*
X171066017Y-113315774D01*
X171066017Y-113315774D02*
X171066017Y-112515774D01*
X171066017Y-112515774D02*
X171446969Y-112515774D01*
X171789827Y-113315774D02*
X171789827Y-112515774D01*
X171789827Y-112515774D02*
X171980303Y-112515774D01*
X171980303Y-112515774D02*
X172094589Y-112553869D01*
X172094589Y-112553869D02*
X172170779Y-112630059D01*
X172170779Y-112630059D02*
X172208874Y-112706250D01*
X172208874Y-112706250D02*
X172246970Y-112858631D01*
X172246970Y-112858631D02*
X172246970Y-112972917D01*
X172246970Y-112972917D02*
X172208874Y-113125298D01*
X172208874Y-113125298D02*
X172170779Y-113201488D01*
X172170779Y-113201488D02*
X172094589Y-113277679D01*
X172094589Y-113277679D02*
X171980303Y-113315774D01*
X171980303Y-113315774D02*
X171789827Y-113315774D01*
X171008207Y-102182390D02*
X170932017Y-102144295D01*
X170932017Y-102144295D02*
X170817731Y-102144295D01*
X170817731Y-102144295D02*
X170703445Y-102182390D01*
X170703445Y-102182390D02*
X170627255Y-102258580D01*
X170627255Y-102258580D02*
X170589160Y-102334771D01*
X170589160Y-102334771D02*
X170551064Y-102487152D01*
X170551064Y-102487152D02*
X170551064Y-102601438D01*
X170551064Y-102601438D02*
X170589160Y-102753819D01*
X170589160Y-102753819D02*
X170627255Y-102830009D01*
X170627255Y-102830009D02*
X170703445Y-102906200D01*
X170703445Y-102906200D02*
X170817731Y-102944295D01*
X170817731Y-102944295D02*
X170893922Y-102944295D01*
X170893922Y-102944295D02*
X171008207Y-102906200D01*
X171008207Y-102906200D02*
X171046303Y-102868104D01*
X171046303Y-102868104D02*
X171046303Y-102601438D01*
X171046303Y-102601438D02*
X170893922Y-102601438D01*
X171389160Y-102944295D02*
X171389160Y-102144295D01*
X171389160Y-102144295D02*
X171693922Y-102144295D01*
X171693922Y-102144295D02*
X171770112Y-102182390D01*
X171770112Y-102182390D02*
X171808207Y-102220485D01*
X171808207Y-102220485D02*
X171846303Y-102296676D01*
X171846303Y-102296676D02*
X171846303Y-102410961D01*
X171846303Y-102410961D02*
X171808207Y-102487152D01*
X171808207Y-102487152D02*
X171770112Y-102525247D01*
X171770112Y-102525247D02*
X171693922Y-102563342D01*
X171693922Y-102563342D02*
X171389160Y-102563342D01*
X172189160Y-102944295D02*
X172189160Y-102144295D01*
X172722493Y-102144295D02*
X172874874Y-102144295D01*
X172874874Y-102144295D02*
X172951064Y-102182390D01*
X172951064Y-102182390D02*
X173027255Y-102258580D01*
X173027255Y-102258580D02*
X173065350Y-102410961D01*
X173065350Y-102410961D02*
X173065350Y-102677628D01*
X173065350Y-102677628D02*
X173027255Y-102830009D01*
X173027255Y-102830009D02*
X172951064Y-102906200D01*
X172951064Y-102906200D02*
X172874874Y-102944295D01*
X172874874Y-102944295D02*
X172722493Y-102944295D01*
X172722493Y-102944295D02*
X172646302Y-102906200D01*
X172646302Y-102906200D02*
X172570112Y-102830009D01*
X172570112Y-102830009D02*
X172532016Y-102677628D01*
X172532016Y-102677628D02*
X172532016Y-102410961D01*
X172532016Y-102410961D02*
X172570112Y-102258580D01*
X172570112Y-102258580D02*
X172646302Y-102182390D01*
X172646302Y-102182390D02*
X172722493Y-102144295D01*
X173827254Y-102944295D02*
X173370111Y-102944295D01*
X173598683Y-102944295D02*
X173598683Y-102144295D01*
X173598683Y-102144295D02*
X173522492Y-102258580D01*
X173522492Y-102258580D02*
X173446302Y-102334771D01*
X173446302Y-102334771D02*
X173370111Y-102372866D01*
X171058207Y-110208634D02*
X170982017Y-110170539D01*
X170982017Y-110170539D02*
X170867731Y-110170539D01*
X170867731Y-110170539D02*
X170753445Y-110208634D01*
X170753445Y-110208634D02*
X170677255Y-110284824D01*
X170677255Y-110284824D02*
X170639160Y-110361015D01*
X170639160Y-110361015D02*
X170601064Y-110513396D01*
X170601064Y-110513396D02*
X170601064Y-110627682D01*
X170601064Y-110627682D02*
X170639160Y-110780063D01*
X170639160Y-110780063D02*
X170677255Y-110856253D01*
X170677255Y-110856253D02*
X170753445Y-110932444D01*
X170753445Y-110932444D02*
X170867731Y-110970539D01*
X170867731Y-110970539D02*
X170943922Y-110970539D01*
X170943922Y-110970539D02*
X171058207Y-110932444D01*
X171058207Y-110932444D02*
X171096303Y-110894348D01*
X171096303Y-110894348D02*
X171096303Y-110627682D01*
X171096303Y-110627682D02*
X170943922Y-110627682D01*
X171439160Y-110970539D02*
X171439160Y-110170539D01*
X171439160Y-110170539D02*
X171743922Y-110170539D01*
X171743922Y-110170539D02*
X171820112Y-110208634D01*
X171820112Y-110208634D02*
X171858207Y-110246729D01*
X171858207Y-110246729D02*
X171896303Y-110322920D01*
X171896303Y-110322920D02*
X171896303Y-110437205D01*
X171896303Y-110437205D02*
X171858207Y-110513396D01*
X171858207Y-110513396D02*
X171820112Y-110551491D01*
X171820112Y-110551491D02*
X171743922Y-110589586D01*
X171743922Y-110589586D02*
X171439160Y-110589586D01*
X172239160Y-110970539D02*
X172239160Y-110170539D01*
X172772493Y-110170539D02*
X172924874Y-110170539D01*
X172924874Y-110170539D02*
X173001064Y-110208634D01*
X173001064Y-110208634D02*
X173077255Y-110284824D01*
X173077255Y-110284824D02*
X173115350Y-110437205D01*
X173115350Y-110437205D02*
X173115350Y-110703872D01*
X173115350Y-110703872D02*
X173077255Y-110856253D01*
X173077255Y-110856253D02*
X173001064Y-110932444D01*
X173001064Y-110932444D02*
X172924874Y-110970539D01*
X172924874Y-110970539D02*
X172772493Y-110970539D01*
X172772493Y-110970539D02*
X172696302Y-110932444D01*
X172696302Y-110932444D02*
X172620112Y-110856253D01*
X172620112Y-110856253D02*
X172582016Y-110703872D01*
X172582016Y-110703872D02*
X172582016Y-110437205D01*
X172582016Y-110437205D02*
X172620112Y-110284824D01*
X172620112Y-110284824D02*
X172696302Y-110208634D01*
X172696302Y-110208634D02*
X172772493Y-110170539D01*
X173420111Y-110246729D02*
X173458207Y-110208634D01*
X173458207Y-110208634D02*
X173534397Y-110170539D01*
X173534397Y-110170539D02*
X173724873Y-110170539D01*
X173724873Y-110170539D02*
X173801064Y-110208634D01*
X173801064Y-110208634D02*
X173839159Y-110246729D01*
X173839159Y-110246729D02*
X173877254Y-110322920D01*
X173877254Y-110322920D02*
X173877254Y-110399110D01*
X173877254Y-110399110D02*
X173839159Y-110513396D01*
X173839159Y-110513396D02*
X173382016Y-110970539D01*
X173382016Y-110970539D02*
X173877254Y-110970539D01*
X174472492Y-110956200D02*
X174586778Y-110994295D01*
X174586778Y-110994295D02*
X174777254Y-110994295D01*
X174777254Y-110994295D02*
X174853445Y-110956200D01*
X174853445Y-110956200D02*
X174891540Y-110918104D01*
X174891540Y-110918104D02*
X174929635Y-110841914D01*
X174929635Y-110841914D02*
X174929635Y-110765723D01*
X174929635Y-110765723D02*
X174891540Y-110689533D01*
X174891540Y-110689533D02*
X174853445Y-110651438D01*
X174853445Y-110651438D02*
X174777254Y-110613342D01*
X174777254Y-110613342D02*
X174624873Y-110575247D01*
X174624873Y-110575247D02*
X174548683Y-110537152D01*
X174548683Y-110537152D02*
X174510588Y-110499057D01*
X174510588Y-110499057D02*
X174472492Y-110422866D01*
X174472492Y-110422866D02*
X174472492Y-110346676D01*
X174472492Y-110346676D02*
X174510588Y-110270485D01*
X174510588Y-110270485D02*
X174548683Y-110232390D01*
X174548683Y-110232390D02*
X174624873Y-110194295D01*
X174624873Y-110194295D02*
X174815350Y-110194295D01*
X174815350Y-110194295D02*
X174929635Y-110232390D01*
X175729636Y-110918104D02*
X175691540Y-110956200D01*
X175691540Y-110956200D02*
X175577255Y-110994295D01*
X175577255Y-110994295D02*
X175501064Y-110994295D01*
X175501064Y-110994295D02*
X175386778Y-110956200D01*
X175386778Y-110956200D02*
X175310588Y-110880009D01*
X175310588Y-110880009D02*
X175272493Y-110803819D01*
X175272493Y-110803819D02*
X175234397Y-110651438D01*
X175234397Y-110651438D02*
X175234397Y-110537152D01*
X175234397Y-110537152D02*
X175272493Y-110384771D01*
X175272493Y-110384771D02*
X175310588Y-110308580D01*
X175310588Y-110308580D02*
X175386778Y-110232390D01*
X175386778Y-110232390D02*
X175501064Y-110194295D01*
X175501064Y-110194295D02*
X175577255Y-110194295D01*
X175577255Y-110194295D02*
X175691540Y-110232390D01*
X175691540Y-110232390D02*
X175729636Y-110270485D01*
X176453445Y-110994295D02*
X176072493Y-110994295D01*
X176072493Y-110994295D02*
X176072493Y-110194295D01*
X174479635Y-102906200D02*
X174593921Y-102944295D01*
X174593921Y-102944295D02*
X174784397Y-102944295D01*
X174784397Y-102944295D02*
X174860588Y-102906200D01*
X174860588Y-102906200D02*
X174898683Y-102868104D01*
X174898683Y-102868104D02*
X174936778Y-102791914D01*
X174936778Y-102791914D02*
X174936778Y-102715723D01*
X174936778Y-102715723D02*
X174898683Y-102639533D01*
X174898683Y-102639533D02*
X174860588Y-102601438D01*
X174860588Y-102601438D02*
X174784397Y-102563342D01*
X174784397Y-102563342D02*
X174632016Y-102525247D01*
X174632016Y-102525247D02*
X174555826Y-102487152D01*
X174555826Y-102487152D02*
X174517731Y-102449057D01*
X174517731Y-102449057D02*
X174479635Y-102372866D01*
X174479635Y-102372866D02*
X174479635Y-102296676D01*
X174479635Y-102296676D02*
X174517731Y-102220485D01*
X174517731Y-102220485D02*
X174555826Y-102182390D01*
X174555826Y-102182390D02*
X174632016Y-102144295D01*
X174632016Y-102144295D02*
X174822493Y-102144295D01*
X174822493Y-102144295D02*
X174936778Y-102182390D01*
X175279636Y-102944295D02*
X175279636Y-102144295D01*
X175279636Y-102144295D02*
X175470112Y-102144295D01*
X175470112Y-102144295D02*
X175584398Y-102182390D01*
X175584398Y-102182390D02*
X175660588Y-102258580D01*
X175660588Y-102258580D02*
X175698683Y-102334771D01*
X175698683Y-102334771D02*
X175736779Y-102487152D01*
X175736779Y-102487152D02*
X175736779Y-102601438D01*
X175736779Y-102601438D02*
X175698683Y-102753819D01*
X175698683Y-102753819D02*
X175660588Y-102830009D01*
X175660588Y-102830009D02*
X175584398Y-102906200D01*
X175584398Y-102906200D02*
X175470112Y-102944295D01*
X175470112Y-102944295D02*
X175279636Y-102944295D01*
X176041540Y-102715723D02*
X176422493Y-102715723D01*
X175965350Y-102944295D02*
X176232017Y-102144295D01*
X176232017Y-102144295D02*
X176498683Y-102944295D01*
X177429635Y-110282390D02*
X177353445Y-110244295D01*
X177353445Y-110244295D02*
X177239159Y-110244295D01*
X177239159Y-110244295D02*
X177124873Y-110282390D01*
X177124873Y-110282390D02*
X177048683Y-110358580D01*
X177048683Y-110358580D02*
X177010588Y-110434771D01*
X177010588Y-110434771D02*
X176972492Y-110587152D01*
X176972492Y-110587152D02*
X176972492Y-110701438D01*
X176972492Y-110701438D02*
X177010588Y-110853819D01*
X177010588Y-110853819D02*
X177048683Y-110930009D01*
X177048683Y-110930009D02*
X177124873Y-111006200D01*
X177124873Y-111006200D02*
X177239159Y-111044295D01*
X177239159Y-111044295D02*
X177315350Y-111044295D01*
X177315350Y-111044295D02*
X177429635Y-111006200D01*
X177429635Y-111006200D02*
X177467731Y-110968104D01*
X177467731Y-110968104D02*
X177467731Y-110701438D01*
X177467731Y-110701438D02*
X177315350Y-110701438D01*
X177810588Y-111044295D02*
X177810588Y-110244295D01*
X177810588Y-110244295D02*
X178267731Y-111044295D01*
X178267731Y-111044295D02*
X178267731Y-110244295D01*
X178648683Y-111044295D02*
X178648683Y-110244295D01*
X178648683Y-110244295D02*
X178839159Y-110244295D01*
X178839159Y-110244295D02*
X178953445Y-110282390D01*
X178953445Y-110282390D02*
X179029635Y-110358580D01*
X179029635Y-110358580D02*
X179067730Y-110434771D01*
X179067730Y-110434771D02*
X179105826Y-110587152D01*
X179105826Y-110587152D02*
X179105826Y-110701438D01*
X179105826Y-110701438D02*
X179067730Y-110853819D01*
X179067730Y-110853819D02*
X179029635Y-110930009D01*
X179029635Y-110930009D02*
X178953445Y-111006200D01*
X178953445Y-111006200D02*
X178839159Y-111044295D01*
X178839159Y-111044295D02*
X178648683Y-111044295D01*
X176998683Y-102144295D02*
X177265350Y-102944295D01*
X177265350Y-102944295D02*
X177532016Y-102144295D01*
X178255826Y-102868104D02*
X178217730Y-102906200D01*
X178217730Y-102906200D02*
X178103445Y-102944295D01*
X178103445Y-102944295D02*
X178027254Y-102944295D01*
X178027254Y-102944295D02*
X177912968Y-102906200D01*
X177912968Y-102906200D02*
X177836778Y-102830009D01*
X177836778Y-102830009D02*
X177798683Y-102753819D01*
X177798683Y-102753819D02*
X177760587Y-102601438D01*
X177760587Y-102601438D02*
X177760587Y-102487152D01*
X177760587Y-102487152D02*
X177798683Y-102334771D01*
X177798683Y-102334771D02*
X177836778Y-102258580D01*
X177836778Y-102258580D02*
X177912968Y-102182390D01*
X177912968Y-102182390D02*
X178027254Y-102144295D01*
X178027254Y-102144295D02*
X178103445Y-102144295D01*
X178103445Y-102144295D02*
X178217730Y-102182390D01*
X178217730Y-102182390D02*
X178255826Y-102220485D01*
X179055826Y-102868104D02*
X179017730Y-102906200D01*
X179017730Y-102906200D02*
X178903445Y-102944295D01*
X178903445Y-102944295D02*
X178827254Y-102944295D01*
X178827254Y-102944295D02*
X178712968Y-102906200D01*
X178712968Y-102906200D02*
X178636778Y-102830009D01*
X178636778Y-102830009D02*
X178598683Y-102753819D01*
X178598683Y-102753819D02*
X178560587Y-102601438D01*
X178560587Y-102601438D02*
X178560587Y-102487152D01*
X178560587Y-102487152D02*
X178598683Y-102334771D01*
X178598683Y-102334771D02*
X178636778Y-102258580D01*
X178636778Y-102258580D02*
X178712968Y-102182390D01*
X178712968Y-102182390D02*
X178827254Y-102144295D01*
X178827254Y-102144295D02*
X178903445Y-102144295D01*
X178903445Y-102144295D02*
X179017730Y-102182390D01*
X179017730Y-102182390D02*
X179055826Y-102220485D01*
X47095238Y-69759875D02*
X47666666Y-69759875D01*
X47380952Y-70759875D02*
X47380952Y-69759875D01*
X48000000Y-70759875D02*
X48000000Y-69759875D01*
X48428571Y-70759875D02*
X48428571Y-70236065D01*
X48428571Y-70236065D02*
X48380952Y-70140827D01*
X48380952Y-70140827D02*
X48285714Y-70093208D01*
X48285714Y-70093208D02*
X48142857Y-70093208D01*
X48142857Y-70093208D02*
X48047619Y-70140827D01*
X48047619Y-70140827D02*
X48000000Y-70188446D01*
X48904762Y-70759875D02*
X48904762Y-70093208D01*
X48904762Y-69759875D02*
X48857143Y-69807494D01*
X48857143Y-69807494D02*
X48904762Y-69855113D01*
X48904762Y-69855113D02*
X48952381Y-69807494D01*
X48952381Y-69807494D02*
X48904762Y-69759875D01*
X48904762Y-69759875D02*
X48904762Y-69855113D01*
X49333333Y-70712256D02*
X49428571Y-70759875D01*
X49428571Y-70759875D02*
X49619047Y-70759875D01*
X49619047Y-70759875D02*
X49714285Y-70712256D01*
X49714285Y-70712256D02*
X49761904Y-70617017D01*
X49761904Y-70617017D02*
X49761904Y-70569398D01*
X49761904Y-70569398D02*
X49714285Y-70474160D01*
X49714285Y-70474160D02*
X49619047Y-70426541D01*
X49619047Y-70426541D02*
X49476190Y-70426541D01*
X49476190Y-70426541D02*
X49380952Y-70378922D01*
X49380952Y-70378922D02*
X49333333Y-70283684D01*
X49333333Y-70283684D02*
X49333333Y-70236065D01*
X49333333Y-70236065D02*
X49380952Y-70140827D01*
X49380952Y-70140827D02*
X49476190Y-70093208D01*
X49476190Y-70093208D02*
X49619047Y-70093208D01*
X49619047Y-70093208D02*
X49714285Y-70140827D01*
X50857143Y-70093208D02*
X51047619Y-70759875D01*
X51047619Y-70759875D02*
X51238095Y-70283684D01*
X51238095Y-70283684D02*
X51428571Y-70759875D01*
X51428571Y-70759875D02*
X51619047Y-70093208D01*
X52428571Y-70759875D02*
X52428571Y-70236065D01*
X52428571Y-70236065D02*
X52380952Y-70140827D01*
X52380952Y-70140827D02*
X52285714Y-70093208D01*
X52285714Y-70093208D02*
X52095238Y-70093208D01*
X52095238Y-70093208D02*
X52000000Y-70140827D01*
X52428571Y-70712256D02*
X52333333Y-70759875D01*
X52333333Y-70759875D02*
X52095238Y-70759875D01*
X52095238Y-70759875D02*
X52000000Y-70712256D01*
X52000000Y-70712256D02*
X51952381Y-70617017D01*
X51952381Y-70617017D02*
X51952381Y-70521779D01*
X51952381Y-70521779D02*
X52000000Y-70426541D01*
X52000000Y-70426541D02*
X52095238Y-70378922D01*
X52095238Y-70378922D02*
X52333333Y-70378922D01*
X52333333Y-70378922D02*
X52428571Y-70331303D01*
X52809524Y-70093208D02*
X53047619Y-70759875D01*
X53285714Y-70093208D02*
X53047619Y-70759875D01*
X53047619Y-70759875D02*
X52952381Y-70997970D01*
X52952381Y-70997970D02*
X52904762Y-71045589D01*
X52904762Y-71045589D02*
X52809524Y-71093208D01*
X54857143Y-70093208D02*
X54857143Y-70759875D01*
X54428572Y-70093208D02*
X54428572Y-70617017D01*
X54428572Y-70617017D02*
X54476191Y-70712256D01*
X54476191Y-70712256D02*
X54571429Y-70759875D01*
X54571429Y-70759875D02*
X54714286Y-70759875D01*
X54714286Y-70759875D02*
X54809524Y-70712256D01*
X54809524Y-70712256D02*
X54857143Y-70664636D01*
X55333334Y-70093208D02*
X55333334Y-71093208D01*
X55333334Y-70140827D02*
X55428572Y-70093208D01*
X55428572Y-70093208D02*
X55619048Y-70093208D01*
X55619048Y-70093208D02*
X55714286Y-70140827D01*
X55714286Y-70140827D02*
X55761905Y-70188446D01*
X55761905Y-70188446D02*
X55809524Y-70283684D01*
X55809524Y-70283684D02*
X55809524Y-70569398D01*
X55809524Y-70569398D02*
X55761905Y-70664636D01*
X55761905Y-70664636D02*
X55714286Y-70712256D01*
X55714286Y-70712256D02*
X55619048Y-70759875D01*
X55619048Y-70759875D02*
X55428572Y-70759875D01*
X55428572Y-70759875D02*
X55333334Y-70712256D01*
X46047618Y-71369819D02*
X46619046Y-71369819D01*
X46333332Y-72369819D02*
X46333332Y-71369819D01*
X46952380Y-72369819D02*
X46952380Y-71369819D01*
X47380951Y-72369819D02*
X47380951Y-71846009D01*
X47380951Y-71846009D02*
X47333332Y-71750771D01*
X47333332Y-71750771D02*
X47238094Y-71703152D01*
X47238094Y-71703152D02*
X47095237Y-71703152D01*
X47095237Y-71703152D02*
X46999999Y-71750771D01*
X46999999Y-71750771D02*
X46952380Y-71798390D01*
X47857142Y-72369819D02*
X47857142Y-71703152D01*
X47857142Y-71369819D02*
X47809523Y-71417438D01*
X47809523Y-71417438D02*
X47857142Y-71465057D01*
X47857142Y-71465057D02*
X47904761Y-71417438D01*
X47904761Y-71417438D02*
X47857142Y-71369819D01*
X47857142Y-71369819D02*
X47857142Y-71465057D01*
X48285713Y-72322200D02*
X48380951Y-72369819D01*
X48380951Y-72369819D02*
X48571427Y-72369819D01*
X48571427Y-72369819D02*
X48666665Y-72322200D01*
X48666665Y-72322200D02*
X48714284Y-72226961D01*
X48714284Y-72226961D02*
X48714284Y-72179342D01*
X48714284Y-72179342D02*
X48666665Y-72084104D01*
X48666665Y-72084104D02*
X48571427Y-72036485D01*
X48571427Y-72036485D02*
X48428570Y-72036485D01*
X48428570Y-72036485D02*
X48333332Y-71988866D01*
X48333332Y-71988866D02*
X48285713Y-71893628D01*
X48285713Y-71893628D02*
X48285713Y-71846009D01*
X48285713Y-71846009D02*
X48333332Y-71750771D01*
X48333332Y-71750771D02*
X48428570Y-71703152D01*
X48428570Y-71703152D02*
X48571427Y-71703152D01*
X48571427Y-71703152D02*
X48666665Y-71750771D01*
X49857142Y-72322200D02*
X49952380Y-72369819D01*
X49952380Y-72369819D02*
X50142856Y-72369819D01*
X50142856Y-72369819D02*
X50238094Y-72322200D01*
X50238094Y-72322200D02*
X50285713Y-72226961D01*
X50285713Y-72226961D02*
X50285713Y-72179342D01*
X50285713Y-72179342D02*
X50238094Y-72084104D01*
X50238094Y-72084104D02*
X50142856Y-72036485D01*
X50142856Y-72036485D02*
X49999999Y-72036485D01*
X49999999Y-72036485D02*
X49904761Y-71988866D01*
X49904761Y-71988866D02*
X49857142Y-71893628D01*
X49857142Y-71893628D02*
X49857142Y-71846009D01*
X49857142Y-71846009D02*
X49904761Y-71750771D01*
X49904761Y-71750771D02*
X49999999Y-71703152D01*
X49999999Y-71703152D02*
X50142856Y-71703152D01*
X50142856Y-71703152D02*
X50238094Y-71750771D01*
X50714285Y-72369819D02*
X50714285Y-71703152D01*
X50714285Y-71369819D02*
X50666666Y-71417438D01*
X50666666Y-71417438D02*
X50714285Y-71465057D01*
X50714285Y-71465057D02*
X50761904Y-71417438D01*
X50761904Y-71417438D02*
X50714285Y-71369819D01*
X50714285Y-71369819D02*
X50714285Y-71465057D01*
X51619046Y-72369819D02*
X51619046Y-71369819D01*
X51619046Y-72322200D02*
X51523808Y-72369819D01*
X51523808Y-72369819D02*
X51333332Y-72369819D01*
X51333332Y-72369819D02*
X51238094Y-72322200D01*
X51238094Y-72322200D02*
X51190475Y-72274580D01*
X51190475Y-72274580D02*
X51142856Y-72179342D01*
X51142856Y-72179342D02*
X51142856Y-71893628D01*
X51142856Y-71893628D02*
X51190475Y-71798390D01*
X51190475Y-71798390D02*
X51238094Y-71750771D01*
X51238094Y-71750771D02*
X51333332Y-71703152D01*
X51333332Y-71703152D02*
X51523808Y-71703152D01*
X51523808Y-71703152D02*
X51619046Y-71750771D01*
X52476189Y-72322200D02*
X52380951Y-72369819D01*
X52380951Y-72369819D02*
X52190475Y-72369819D01*
X52190475Y-72369819D02*
X52095237Y-72322200D01*
X52095237Y-72322200D02*
X52047618Y-72226961D01*
X52047618Y-72226961D02*
X52047618Y-71846009D01*
X52047618Y-71846009D02*
X52095237Y-71750771D01*
X52095237Y-71750771D02*
X52190475Y-71703152D01*
X52190475Y-71703152D02*
X52380951Y-71703152D01*
X52380951Y-71703152D02*
X52476189Y-71750771D01*
X52476189Y-71750771D02*
X52523808Y-71846009D01*
X52523808Y-71846009D02*
X52523808Y-71941247D01*
X52523808Y-71941247D02*
X52047618Y-72036485D01*
X53571428Y-71703152D02*
X53952380Y-71703152D01*
X53714285Y-72369819D02*
X53714285Y-71512676D01*
X53714285Y-71512676D02*
X53761904Y-71417438D01*
X53761904Y-71417438D02*
X53857142Y-71369819D01*
X53857142Y-71369819D02*
X53952380Y-71369819D01*
X54285714Y-72369819D02*
X54285714Y-71703152D01*
X54285714Y-71893628D02*
X54333333Y-71798390D01*
X54333333Y-71798390D02*
X54380952Y-71750771D01*
X54380952Y-71750771D02*
X54476190Y-71703152D01*
X54476190Y-71703152D02*
X54571428Y-71703152D01*
X55047619Y-72369819D02*
X54952381Y-72322200D01*
X54952381Y-72322200D02*
X54904762Y-72274580D01*
X54904762Y-72274580D02*
X54857143Y-72179342D01*
X54857143Y-72179342D02*
X54857143Y-71893628D01*
X54857143Y-71893628D02*
X54904762Y-71798390D01*
X54904762Y-71798390D02*
X54952381Y-71750771D01*
X54952381Y-71750771D02*
X55047619Y-71703152D01*
X55047619Y-71703152D02*
X55190476Y-71703152D01*
X55190476Y-71703152D02*
X55285714Y-71750771D01*
X55285714Y-71750771D02*
X55333333Y-71798390D01*
X55333333Y-71798390D02*
X55380952Y-71893628D01*
X55380952Y-71893628D02*
X55380952Y-72179342D01*
X55380952Y-72179342D02*
X55333333Y-72274580D01*
X55333333Y-72274580D02*
X55285714Y-72322200D01*
X55285714Y-72322200D02*
X55190476Y-72369819D01*
X55190476Y-72369819D02*
X55047619Y-72369819D01*
X55809524Y-71703152D02*
X55809524Y-72369819D01*
X55809524Y-71798390D02*
X55857143Y-71750771D01*
X55857143Y-71750771D02*
X55952381Y-71703152D01*
X55952381Y-71703152D02*
X56095238Y-71703152D01*
X56095238Y-71703152D02*
X56190476Y-71750771D01*
X56190476Y-71750771D02*
X56238095Y-71846009D01*
X56238095Y-71846009D02*
X56238095Y-72369819D01*
X56571429Y-71703152D02*
X56952381Y-71703152D01*
X56714286Y-71369819D02*
X56714286Y-72226961D01*
X56714286Y-72226961D02*
X56761905Y-72322200D01*
X56761905Y-72322200D02*
X56857143Y-72369819D01*
X56857143Y-72369819D02*
X56952381Y-72369819D01*
X184250057Y-85495238D02*
X184202438Y-85590476D01*
X184202438Y-85590476D02*
X184107200Y-85685714D01*
X184107200Y-85685714D02*
X183964342Y-85828571D01*
X183964342Y-85828571D02*
X183916723Y-85923809D01*
X183916723Y-85923809D02*
X183916723Y-86019047D01*
X184154819Y-85971428D02*
X184107200Y-86066666D01*
X184107200Y-86066666D02*
X184011961Y-86161904D01*
X184011961Y-86161904D02*
X183821485Y-86209523D01*
X183821485Y-86209523D02*
X183488152Y-86209523D01*
X183488152Y-86209523D02*
X183297676Y-86161904D01*
X183297676Y-86161904D02*
X183202438Y-86066666D01*
X183202438Y-86066666D02*
X183154819Y-85971428D01*
X183154819Y-85971428D02*
X183154819Y-85780952D01*
X183154819Y-85780952D02*
X183202438Y-85685714D01*
X183202438Y-85685714D02*
X183297676Y-85590476D01*
X183297676Y-85590476D02*
X183488152Y-85542857D01*
X183488152Y-85542857D02*
X183821485Y-85542857D01*
X183821485Y-85542857D02*
X184011961Y-85590476D01*
X184011961Y-85590476D02*
X184107200Y-85685714D01*
X184107200Y-85685714D02*
X184154819Y-85780952D01*
X184154819Y-85780952D02*
X184154819Y-85971428D01*
X183154819Y-84685714D02*
X183154819Y-84876190D01*
X183154819Y-84876190D02*
X183202438Y-84971428D01*
X183202438Y-84971428D02*
X183250057Y-85019047D01*
X183250057Y-85019047D02*
X183392914Y-85114285D01*
X183392914Y-85114285D02*
X183583390Y-85161904D01*
X183583390Y-85161904D02*
X183964342Y-85161904D01*
X183964342Y-85161904D02*
X184059580Y-85114285D01*
X184059580Y-85114285D02*
X184107200Y-85066666D01*
X184107200Y-85066666D02*
X184154819Y-84971428D01*
X184154819Y-84971428D02*
X184154819Y-84780952D01*
X184154819Y-84780952D02*
X184107200Y-84685714D01*
X184107200Y-84685714D02*
X184059580Y-84638095D01*
X184059580Y-84638095D02*
X183964342Y-84590476D01*
X183964342Y-84590476D02*
X183726247Y-84590476D01*
X183726247Y-84590476D02*
X183631009Y-84638095D01*
X183631009Y-84638095D02*
X183583390Y-84685714D01*
X183583390Y-84685714D02*
X183535771Y-84780952D01*
X183535771Y-84780952D02*
X183535771Y-84971428D01*
X183535771Y-84971428D02*
X183583390Y-85066666D01*
X183583390Y-85066666D02*
X183631009Y-85114285D01*
X183631009Y-85114285D02*
X183726247Y-85161904D01*
X185507295Y-96209523D02*
X186154914Y-96209523D01*
X186154914Y-96209523D02*
X186231104Y-96171428D01*
X186231104Y-96171428D02*
X186269200Y-96133333D01*
X186269200Y-96133333D02*
X186307295Y-96057142D01*
X186307295Y-96057142D02*
X186307295Y-95904761D01*
X186307295Y-95904761D02*
X186269200Y-95828571D01*
X186269200Y-95828571D02*
X186231104Y-95790476D01*
X186231104Y-95790476D02*
X186154914Y-95752380D01*
X186154914Y-95752380D02*
X185507295Y-95752380D01*
X186307295Y-94952381D02*
X186307295Y-95409524D01*
X186307295Y-95180952D02*
X185507295Y-95180952D01*
X185507295Y-95180952D02*
X185621580Y-95257143D01*
X185621580Y-95257143D02*
X185697771Y-95333333D01*
X185697771Y-95333333D02*
X185735866Y-95409524D01*
X166254167Y-97986104D02*
X166216071Y-98024200D01*
X166216071Y-98024200D02*
X166101786Y-98062295D01*
X166101786Y-98062295D02*
X166025595Y-98062295D01*
X166025595Y-98062295D02*
X165911309Y-98024200D01*
X165911309Y-98024200D02*
X165835119Y-97948009D01*
X165835119Y-97948009D02*
X165797024Y-97871819D01*
X165797024Y-97871819D02*
X165758928Y-97719438D01*
X165758928Y-97719438D02*
X165758928Y-97605152D01*
X165758928Y-97605152D02*
X165797024Y-97452771D01*
X165797024Y-97452771D02*
X165835119Y-97376580D01*
X165835119Y-97376580D02*
X165911309Y-97300390D01*
X165911309Y-97300390D02*
X166025595Y-97262295D01*
X166025595Y-97262295D02*
X166101786Y-97262295D01*
X166101786Y-97262295D02*
X166216071Y-97300390D01*
X166216071Y-97300390D02*
X166254167Y-97338485D01*
X166520833Y-97262295D02*
X167016071Y-97262295D01*
X167016071Y-97262295D02*
X166749405Y-97567057D01*
X166749405Y-97567057D02*
X166863690Y-97567057D01*
X166863690Y-97567057D02*
X166939881Y-97605152D01*
X166939881Y-97605152D02*
X166977976Y-97643247D01*
X166977976Y-97643247D02*
X167016071Y-97719438D01*
X167016071Y-97719438D02*
X167016071Y-97909914D01*
X167016071Y-97909914D02*
X166977976Y-97986104D01*
X166977976Y-97986104D02*
X166939881Y-98024200D01*
X166939881Y-98024200D02*
X166863690Y-98062295D01*
X166863690Y-98062295D02*
X166635119Y-98062295D01*
X166635119Y-98062295D02*
X166558928Y-98024200D01*
X166558928Y-98024200D02*
X166520833Y-97986104D01*
X170909524Y-82062295D02*
X170909524Y-81262295D01*
X170909524Y-81262295D02*
X171100000Y-81262295D01*
X171100000Y-81262295D02*
X171214286Y-81300390D01*
X171214286Y-81300390D02*
X171290476Y-81376580D01*
X171290476Y-81376580D02*
X171328571Y-81452771D01*
X171328571Y-81452771D02*
X171366667Y-81605152D01*
X171366667Y-81605152D02*
X171366667Y-81719438D01*
X171366667Y-81719438D02*
X171328571Y-81871819D01*
X171328571Y-81871819D02*
X171290476Y-81948009D01*
X171290476Y-81948009D02*
X171214286Y-82024200D01*
X171214286Y-82024200D02*
X171100000Y-82062295D01*
X171100000Y-82062295D02*
X170909524Y-82062295D01*
X171633333Y-81262295D02*
X172128571Y-81262295D01*
X172128571Y-81262295D02*
X171861905Y-81567057D01*
X171861905Y-81567057D02*
X171976190Y-81567057D01*
X171976190Y-81567057D02*
X172052381Y-81605152D01*
X172052381Y-81605152D02*
X172090476Y-81643247D01*
X172090476Y-81643247D02*
X172128571Y-81719438D01*
X172128571Y-81719438D02*
X172128571Y-81909914D01*
X172128571Y-81909914D02*
X172090476Y-81986104D01*
X172090476Y-81986104D02*
X172052381Y-82024200D01*
X172052381Y-82024200D02*
X171976190Y-82062295D01*
X171976190Y-82062295D02*
X171747619Y-82062295D01*
X171747619Y-82062295D02*
X171671428Y-82024200D01*
X171671428Y-82024200D02*
X171633333Y-81986104D01*
X166304167Y-100086104D02*
X166266071Y-100124200D01*
X166266071Y-100124200D02*
X166151786Y-100162295D01*
X166151786Y-100162295D02*
X166075595Y-100162295D01*
X166075595Y-100162295D02*
X165961309Y-100124200D01*
X165961309Y-100124200D02*
X165885119Y-100048009D01*
X165885119Y-100048009D02*
X165847024Y-99971819D01*
X165847024Y-99971819D02*
X165808928Y-99819438D01*
X165808928Y-99819438D02*
X165808928Y-99705152D01*
X165808928Y-99705152D02*
X165847024Y-99552771D01*
X165847024Y-99552771D02*
X165885119Y-99476580D01*
X165885119Y-99476580D02*
X165961309Y-99400390D01*
X165961309Y-99400390D02*
X166075595Y-99362295D01*
X166075595Y-99362295D02*
X166151786Y-99362295D01*
X166151786Y-99362295D02*
X166266071Y-99400390D01*
X166266071Y-99400390D02*
X166304167Y-99438485D01*
X166608928Y-99438485D02*
X166647024Y-99400390D01*
X166647024Y-99400390D02*
X166723214Y-99362295D01*
X166723214Y-99362295D02*
X166913690Y-99362295D01*
X166913690Y-99362295D02*
X166989881Y-99400390D01*
X166989881Y-99400390D02*
X167027976Y-99438485D01*
X167027976Y-99438485D02*
X167066071Y-99514676D01*
X167066071Y-99514676D02*
X167066071Y-99590866D01*
X167066071Y-99590866D02*
X167027976Y-99705152D01*
X167027976Y-99705152D02*
X166570833Y-100162295D01*
X166570833Y-100162295D02*
X167066071Y-100162295D01*
X179186104Y-97133332D02*
X179224200Y-97171428D01*
X179224200Y-97171428D02*
X179262295Y-97285713D01*
X179262295Y-97285713D02*
X179262295Y-97361904D01*
X179262295Y-97361904D02*
X179224200Y-97476190D01*
X179224200Y-97476190D02*
X179148009Y-97552380D01*
X179148009Y-97552380D02*
X179071819Y-97590475D01*
X179071819Y-97590475D02*
X178919438Y-97628571D01*
X178919438Y-97628571D02*
X178805152Y-97628571D01*
X178805152Y-97628571D02*
X178652771Y-97590475D01*
X178652771Y-97590475D02*
X178576580Y-97552380D01*
X178576580Y-97552380D02*
X178500390Y-97476190D01*
X178500390Y-97476190D02*
X178462295Y-97361904D01*
X178462295Y-97361904D02*
X178462295Y-97285713D01*
X178462295Y-97285713D02*
X178500390Y-97171428D01*
X178500390Y-97171428D02*
X178538485Y-97133332D01*
X179262295Y-96371428D02*
X179262295Y-96828571D01*
X179262295Y-96599999D02*
X178462295Y-96599999D01*
X178462295Y-96599999D02*
X178576580Y-96676190D01*
X178576580Y-96676190D02*
X178652771Y-96752380D01*
X178652771Y-96752380D02*
X178690866Y-96828571D01*
X167166667Y-108912295D02*
X166900000Y-108531342D01*
X166709524Y-108912295D02*
X166709524Y-108112295D01*
X166709524Y-108112295D02*
X167014286Y-108112295D01*
X167014286Y-108112295D02*
X167090476Y-108150390D01*
X167090476Y-108150390D02*
X167128571Y-108188485D01*
X167128571Y-108188485D02*
X167166667Y-108264676D01*
X167166667Y-108264676D02*
X167166667Y-108378961D01*
X167166667Y-108378961D02*
X167128571Y-108455152D01*
X167128571Y-108455152D02*
X167090476Y-108493247D01*
X167090476Y-108493247D02*
X167014286Y-108531342D01*
X167014286Y-108531342D02*
X166709524Y-108531342D01*
X167890476Y-108112295D02*
X167509524Y-108112295D01*
X167509524Y-108112295D02*
X167471428Y-108493247D01*
X167471428Y-108493247D02*
X167509524Y-108455152D01*
X167509524Y-108455152D02*
X167585714Y-108417057D01*
X167585714Y-108417057D02*
X167776190Y-108417057D01*
X167776190Y-108417057D02*
X167852381Y-108455152D01*
X167852381Y-108455152D02*
X167890476Y-108493247D01*
X167890476Y-108493247D02*
X167928571Y-108569438D01*
X167928571Y-108569438D02*
X167928571Y-108759914D01*
X167928571Y-108759914D02*
X167890476Y-108836104D01*
X167890476Y-108836104D02*
X167852381Y-108874200D01*
X167852381Y-108874200D02*
X167776190Y-108912295D01*
X167776190Y-108912295D02*
X167585714Y-108912295D01*
X167585714Y-108912295D02*
X167509524Y-108874200D01*
X167509524Y-108874200D02*
X167471428Y-108836104D01*
X167139991Y-110557959D02*
X166873324Y-110177006D01*
X166682848Y-110557959D02*
X166682848Y-109757959D01*
X166682848Y-109757959D02*
X166987610Y-109757959D01*
X166987610Y-109757959D02*
X167063800Y-109796054D01*
X167063800Y-109796054D02*
X167101895Y-109834149D01*
X167101895Y-109834149D02*
X167139991Y-109910340D01*
X167139991Y-109910340D02*
X167139991Y-110024625D01*
X167139991Y-110024625D02*
X167101895Y-110100816D01*
X167101895Y-110100816D02*
X167063800Y-110138911D01*
X167063800Y-110138911D02*
X166987610Y-110177006D01*
X166987610Y-110177006D02*
X166682848Y-110177006D01*
X167520943Y-110557959D02*
X167673324Y-110557959D01*
X167673324Y-110557959D02*
X167749514Y-110519864D01*
X167749514Y-110519864D02*
X167787610Y-110481768D01*
X167787610Y-110481768D02*
X167863800Y-110367483D01*
X167863800Y-110367483D02*
X167901895Y-110215102D01*
X167901895Y-110215102D02*
X167901895Y-109910340D01*
X167901895Y-109910340D02*
X167863800Y-109834149D01*
X167863800Y-109834149D02*
X167825705Y-109796054D01*
X167825705Y-109796054D02*
X167749514Y-109757959D01*
X167749514Y-109757959D02*
X167597133Y-109757959D01*
X167597133Y-109757959D02*
X167520943Y-109796054D01*
X167520943Y-109796054D02*
X167482848Y-109834149D01*
X167482848Y-109834149D02*
X167444752Y-109910340D01*
X167444752Y-109910340D02*
X167444752Y-110100816D01*
X167444752Y-110100816D02*
X167482848Y-110177006D01*
X167482848Y-110177006D02*
X167520943Y-110215102D01*
X167520943Y-110215102D02*
X167597133Y-110253197D01*
X167597133Y-110253197D02*
X167749514Y-110253197D01*
X167749514Y-110253197D02*
X167825705Y-110215102D01*
X167825705Y-110215102D02*
X167863800Y-110177006D01*
X167863800Y-110177006D02*
X167901895Y-110100816D01*
X164673809Y-101888485D02*
X164597619Y-101850390D01*
X164597619Y-101850390D02*
X164521428Y-101774200D01*
X164521428Y-101774200D02*
X164407142Y-101659914D01*
X164407142Y-101659914D02*
X164330952Y-101621819D01*
X164330952Y-101621819D02*
X164254761Y-101621819D01*
X164292857Y-101812295D02*
X164216666Y-101774200D01*
X164216666Y-101774200D02*
X164140476Y-101698009D01*
X164140476Y-101698009D02*
X164102380Y-101545628D01*
X164102380Y-101545628D02*
X164102380Y-101278961D01*
X164102380Y-101278961D02*
X164140476Y-101126580D01*
X164140476Y-101126580D02*
X164216666Y-101050390D01*
X164216666Y-101050390D02*
X164292857Y-101012295D01*
X164292857Y-101012295D02*
X164445238Y-101012295D01*
X164445238Y-101012295D02*
X164521428Y-101050390D01*
X164521428Y-101050390D02*
X164597619Y-101126580D01*
X164597619Y-101126580D02*
X164635714Y-101278961D01*
X164635714Y-101278961D02*
X164635714Y-101545628D01*
X164635714Y-101545628D02*
X164597619Y-101698009D01*
X164597619Y-101698009D02*
X164521428Y-101774200D01*
X164521428Y-101774200D02*
X164445238Y-101812295D01*
X164445238Y-101812295D02*
X164292857Y-101812295D01*
X165359523Y-101012295D02*
X164978571Y-101012295D01*
X164978571Y-101012295D02*
X164940475Y-101393247D01*
X164940475Y-101393247D02*
X164978571Y-101355152D01*
X164978571Y-101355152D02*
X165054761Y-101317057D01*
X165054761Y-101317057D02*
X165245237Y-101317057D01*
X165245237Y-101317057D02*
X165321428Y-101355152D01*
X165321428Y-101355152D02*
X165359523Y-101393247D01*
X165359523Y-101393247D02*
X165397618Y-101469438D01*
X165397618Y-101469438D02*
X165397618Y-101659914D01*
X165397618Y-101659914D02*
X165359523Y-101736104D01*
X165359523Y-101736104D02*
X165321428Y-101774200D01*
X165321428Y-101774200D02*
X165245237Y-101812295D01*
X165245237Y-101812295D02*
X165054761Y-101812295D01*
X165054761Y-101812295D02*
X164978571Y-101774200D01*
X164978571Y-101774200D02*
X164940475Y-101736104D01*
X177562295Y-97033332D02*
X177181342Y-97299999D01*
X177562295Y-97490475D02*
X176762295Y-97490475D01*
X176762295Y-97490475D02*
X176762295Y-97185713D01*
X176762295Y-97185713D02*
X176800390Y-97109523D01*
X176800390Y-97109523D02*
X176838485Y-97071428D01*
X176838485Y-97071428D02*
X176914676Y-97033332D01*
X176914676Y-97033332D02*
X177028961Y-97033332D01*
X177028961Y-97033332D02*
X177105152Y-97071428D01*
X177105152Y-97071428D02*
X177143247Y-97109523D01*
X177143247Y-97109523D02*
X177181342Y-97185713D01*
X177181342Y-97185713D02*
X177181342Y-97490475D01*
X177562295Y-96271428D02*
X177562295Y-96728571D01*
X177562295Y-96499999D02*
X176762295Y-96499999D01*
X176762295Y-96499999D02*
X176876580Y-96576190D01*
X176876580Y-96576190D02*
X176952771Y-96652380D01*
X176952771Y-96652380D02*
X176990866Y-96728571D01*
X180366667Y-91726104D02*
X180328571Y-91764200D01*
X180328571Y-91764200D02*
X180214286Y-91802295D01*
X180214286Y-91802295D02*
X180138095Y-91802295D01*
X180138095Y-91802295D02*
X180023809Y-91764200D01*
X180023809Y-91764200D02*
X179947619Y-91688009D01*
X179947619Y-91688009D02*
X179909524Y-91611819D01*
X179909524Y-91611819D02*
X179871428Y-91459438D01*
X179871428Y-91459438D02*
X179871428Y-91345152D01*
X179871428Y-91345152D02*
X179909524Y-91192771D01*
X179909524Y-91192771D02*
X179947619Y-91116580D01*
X179947619Y-91116580D02*
X180023809Y-91040390D01*
X180023809Y-91040390D02*
X180138095Y-91002295D01*
X180138095Y-91002295D02*
X180214286Y-91002295D01*
X180214286Y-91002295D02*
X180328571Y-91040390D01*
X180328571Y-91040390D02*
X180366667Y-91078485D01*
X181052381Y-91268961D02*
X181052381Y-91802295D01*
X180861905Y-90964200D02*
X180671428Y-91535628D01*
X180671428Y-91535628D02*
X181166667Y-91535628D01*
X189609524Y-82062295D02*
X189609524Y-81262295D01*
X189609524Y-81262295D02*
X189800000Y-81262295D01*
X189800000Y-81262295D02*
X189914286Y-81300390D01*
X189914286Y-81300390D02*
X189990476Y-81376580D01*
X189990476Y-81376580D02*
X190028571Y-81452771D01*
X190028571Y-81452771D02*
X190066667Y-81605152D01*
X190066667Y-81605152D02*
X190066667Y-81719438D01*
X190066667Y-81719438D02*
X190028571Y-81871819D01*
X190028571Y-81871819D02*
X189990476Y-81948009D01*
X189990476Y-81948009D02*
X189914286Y-82024200D01*
X189914286Y-82024200D02*
X189800000Y-82062295D01*
X189800000Y-82062295D02*
X189609524Y-82062295D01*
X190752381Y-81528961D02*
X190752381Y-82062295D01*
X190561905Y-81224200D02*
X190371428Y-81795628D01*
X190371428Y-81795628D02*
X190866667Y-81795628D01*
X170266667Y-83562295D02*
X170000000Y-83181342D01*
X169809524Y-83562295D02*
X169809524Y-82762295D01*
X169809524Y-82762295D02*
X170114286Y-82762295D01*
X170114286Y-82762295D02*
X170190476Y-82800390D01*
X170190476Y-82800390D02*
X170228571Y-82838485D01*
X170228571Y-82838485D02*
X170266667Y-82914676D01*
X170266667Y-82914676D02*
X170266667Y-83028961D01*
X170266667Y-83028961D02*
X170228571Y-83105152D01*
X170228571Y-83105152D02*
X170190476Y-83143247D01*
X170190476Y-83143247D02*
X170114286Y-83181342D01*
X170114286Y-83181342D02*
X169809524Y-83181342D01*
X170952381Y-82762295D02*
X170800000Y-82762295D01*
X170800000Y-82762295D02*
X170723809Y-82800390D01*
X170723809Y-82800390D02*
X170685714Y-82838485D01*
X170685714Y-82838485D02*
X170609524Y-82952771D01*
X170609524Y-82952771D02*
X170571428Y-83105152D01*
X170571428Y-83105152D02*
X170571428Y-83409914D01*
X170571428Y-83409914D02*
X170609524Y-83486104D01*
X170609524Y-83486104D02*
X170647619Y-83524200D01*
X170647619Y-83524200D02*
X170723809Y-83562295D01*
X170723809Y-83562295D02*
X170876190Y-83562295D01*
X170876190Y-83562295D02*
X170952381Y-83524200D01*
X170952381Y-83524200D02*
X170990476Y-83486104D01*
X170990476Y-83486104D02*
X171028571Y-83409914D01*
X171028571Y-83409914D02*
X171028571Y-83219438D01*
X171028571Y-83219438D02*
X170990476Y-83143247D01*
X170990476Y-83143247D02*
X170952381Y-83105152D01*
X170952381Y-83105152D02*
X170876190Y-83067057D01*
X170876190Y-83067057D02*
X170723809Y-83067057D01*
X170723809Y-83067057D02*
X170647619Y-83105152D01*
X170647619Y-83105152D02*
X170609524Y-83143247D01*
X170609524Y-83143247D02*
X170571428Y-83219438D01*
X189766667Y-84962295D02*
X189500000Y-84581342D01*
X189309524Y-84962295D02*
X189309524Y-84162295D01*
X189309524Y-84162295D02*
X189614286Y-84162295D01*
X189614286Y-84162295D02*
X189690476Y-84200390D01*
X189690476Y-84200390D02*
X189728571Y-84238485D01*
X189728571Y-84238485D02*
X189766667Y-84314676D01*
X189766667Y-84314676D02*
X189766667Y-84428961D01*
X189766667Y-84428961D02*
X189728571Y-84505152D01*
X189728571Y-84505152D02*
X189690476Y-84543247D01*
X189690476Y-84543247D02*
X189614286Y-84581342D01*
X189614286Y-84581342D02*
X189309524Y-84581342D01*
X190033333Y-84162295D02*
X190566667Y-84162295D01*
X190566667Y-84162295D02*
X190223809Y-84962295D01*
%TO.C,Q6*%
D11*
X179710000Y-85540000D02*
X179710000Y-86340000D01*
X179710000Y-85540000D02*
X179710000Y-84740000D01*
X179710000Y-84740000D02*
X180640000Y-84740000D01*
X182870000Y-84740000D02*
X182870000Y-86200000D01*
X182870000Y-84740000D02*
X181940000Y-84740000D01*
X179680000Y-86840000D02*
X179350000Y-87080000D01*
X179350000Y-86600000D01*
X179680000Y-86840000D01*
G36*
X179680000Y-86840000D02*
G01*
X179350000Y-87080000D01*
X179350000Y-86600000D01*
X179680000Y-86840000D01*
G37*
%TO.C,U1*%
X179985000Y-93540000D02*
X180105000Y-93540000D01*
X179985000Y-97660000D02*
X179985000Y-93540000D01*
X180105000Y-97660000D02*
X179985000Y-97660000D01*
X184985000Y-93540000D02*
X185105000Y-93540000D01*
X185105000Y-93540000D02*
X185105000Y-97660000D01*
X185105000Y-97660000D02*
X184985000Y-97660000D01*
X185325000Y-93180000D02*
X184995000Y-92940000D01*
X185325000Y-92700000D01*
X185325000Y-93180000D01*
G36*
X185325000Y-93180000D02*
G01*
X184995000Y-92940000D01*
X185325000Y-92700000D01*
X185325000Y-93180000D01*
G37*
%TO.C,C3*%
X169311252Y-96965000D02*
X168788748Y-96965000D01*
X169311252Y-98435000D02*
X168788748Y-98435000D01*
%TO.C,BZ1*%
D12*
X169150000Y-88600000D02*
X171950000Y-88600000D01*
X170550000Y-86600000D02*
X169150000Y-88600000D01*
X171950000Y-88600000D02*
X170550000Y-86600000D01*
%TO.C,D3*%
D11*
X170583317Y-82084998D02*
X170583316Y-79814999D01*
%TO.C,C2*%
X169311252Y-99065000D02*
X168788748Y-99065000D01*
X169311252Y-100535000D02*
X168788748Y-100535000D01*
%TO.C,R10*%
X178047500Y-85514724D02*
X178047500Y-85005276D01*
X179092500Y-85514724D02*
X179092500Y-85005276D01*
%TO.C,C1*%
X178390000Y-94453733D02*
X178390000Y-94746267D01*
X179410000Y-94453733D02*
X179410000Y-94746267D01*
%TO.C,R5*%
X164670276Y-108027500D02*
X165179724Y-108027500D01*
X164670276Y-109072500D02*
X165179724Y-109072500D01*
%TO.C,R9*%
X165154724Y-109627500D02*
X164645276Y-109627500D01*
X165154724Y-110672500D02*
X164645276Y-110672500D01*
%TO.C,Q5*%
X163320000Y-105560000D02*
X163320000Y-104100000D01*
X163320000Y-105560000D02*
X164250000Y-105560000D01*
X166480000Y-104760000D02*
X166480000Y-103960000D01*
X166480000Y-104760000D02*
X166480000Y-105560000D01*
X166480000Y-105560000D02*
X165550000Y-105560000D01*
X166840000Y-103700000D02*
X166510000Y-103460000D01*
X166840000Y-103220000D01*
X166840000Y-103700000D01*
G36*
X166840000Y-103700000D02*
G01*
X166510000Y-103460000D01*
X166840000Y-103220000D01*
X166840000Y-103700000D01*
G37*
%TO.C,R1*%
X176677500Y-94854724D02*
X176677500Y-94345276D01*
X177722500Y-94854724D02*
X177722500Y-94345276D01*
%TO.C,C4*%
X178183767Y-91030000D02*
X177891233Y-91030000D01*
X178183767Y-92050000D02*
X177891233Y-92050000D01*
%TO.C,D4*%
X184465000Y-80365000D02*
X184464999Y-82635000D01*
%TO.C,R6*%
X167645276Y-82677500D02*
X168154724Y-82677500D01*
X167645276Y-83722500D02*
X168154724Y-83722500D01*
%TO.C,R7*%
X187554724Y-84077500D02*
X187045276Y-84077500D01*
X187554724Y-85122500D02*
X187045276Y-85122500D01*
%TD*%
M02*
