%TF.GenerationSoftware,KiCad,Pcbnew,10.0.1*%
%TF.CreationDate,2026-04-26T21:51:14+02:00*%
%TF.ProjectId,sao_laser_tag,73616f5f-6c61-4736-9572-5f7461672e6b,rev?*%
%TF.SameCoordinates,Original*%
%TF.FileFunction,Profile,NP*%
%FSLAX46Y46*%
G04 Gerber Fmt 4.6, Leading zero omitted, Abs format (unit mm)*
G04 Created by KiCad (PCBNEW 10.0.1) date 2026-04-26 21:51:14*
%MOMM*%
%LPD*%
G01*
G04 APERTURE LIST*
%ADD10C,0.050000*%
%TA.AperFunction,Profile*%
%ADD11C,0.050000*%
%TD*%
G04 APERTURE END LIST*
D10*
X162000000Y-98000000D02*
X162000000Y-114000000D01*
X162000000Y-114000000D02*
X162000000Y-115000000D01*
X162000000Y-115000000D02*
X162044362Y-115026570D01*
X162088744Y-115053060D01*
X162133147Y-115079469D01*
X162177572Y-115105797D01*
X162222017Y-115132045D01*
X162266483Y-115158213D01*
X162310970Y-115184300D01*
X162355479Y-115210307D01*
X162400008Y-115236233D01*
X162444558Y-115262079D01*
X162489129Y-115287845D01*
X162533721Y-115313531D01*
X162578335Y-115339136D01*
X162622969Y-115364662D01*
X162667624Y-115390107D01*
X162712301Y-115415472D01*
X162756998Y-115440758D01*
X162801717Y-115465963D01*
X162846456Y-115491089D01*
X162891217Y-115516135D01*
X162935999Y-115541101D01*
X162980802Y-115565987D01*
X163025626Y-115590793D01*
X163070471Y-115615520D01*
X163115337Y-115640167D01*
X163160225Y-115664735D01*
X163205133Y-115689223D01*
X163250063Y-115713631D01*
X163295014Y-115737961D01*
X163339986Y-115762210D01*
X163384980Y-115786380D01*
X163429995Y-115810471D01*
X163475030Y-115834483D01*
X163520087Y-115858415D01*
X163565166Y-115882268D01*
X163610265Y-115906042D01*
X163655386Y-115929737D01*
X163700528Y-115953353D01*
X163745692Y-115976889D01*
X163790877Y-116000347D01*
X163836083Y-116023725D01*
X163881310Y-116047024D01*
X163926559Y-116070245D01*
X163971829Y-116093387D01*
X164017120Y-116116449D01*
X164062433Y-116139433D01*
X164107767Y-116162338D01*
X164153123Y-116185165D01*
X164198500Y-116207913D01*
X164243898Y-116230581D01*
X164289318Y-116253172D01*
X164334759Y-116275683D01*
X164380221Y-116298117D01*
X164425705Y-116320471D01*
X164471211Y-116342747D01*
X164516738Y-116364944D01*
X164562286Y-116387063D01*
X164607856Y-116409104D01*
X164653447Y-116431066D01*
X164699060Y-116452950D01*
X164744695Y-116474755D01*
X164790351Y-116496483D01*
X164836028Y-116518131D01*
X164881727Y-116539702D01*
X164927448Y-116561194D01*
X164973190Y-116582609D01*
X165018954Y-116603945D01*
X165064739Y-116625203D01*
X165110546Y-116646382D01*
X165156374Y-116667484D01*
X165202224Y-116688508D01*
X165248096Y-116709453D01*
X165293990Y-116730321D01*
X165339905Y-116751111D01*
X165385841Y-116771822D01*
X165431800Y-116792456D01*
X165477780Y-116813012D01*
X165523782Y-116833490D01*
X165569805Y-116853890D01*
X165615850Y-116874212D01*
X165661917Y-116894457D01*
X165708006Y-116914624D01*
X165754116Y-116934713D01*
X165800248Y-116954724D01*
X165846402Y-116974658D01*
X165892578Y-116994514D01*
X165938775Y-117014292D01*
X165984994Y-117033992D01*
X166031235Y-117053615D01*
X166077498Y-117073161D01*
X166123783Y-117092629D01*
X166170089Y-117112019D01*
X166216417Y-117131332D01*
X166262767Y-117150567D01*
X166309139Y-117169725D01*
X166355533Y-117188805D01*
X166401949Y-117207808D01*
X166448386Y-117226734D01*
X166494846Y-117245582D01*
X166541327Y-117264353D01*
X166587830Y-117283046D01*
X166634355Y-117301662D01*
X166680902Y-117320201D01*
X166727471Y-117338662D01*
X166774062Y-117357046D01*
X166820675Y-117375353D01*
X166867310Y-117393582D01*
X166913966Y-117411734D01*
X166960645Y-117429809D01*
X167007346Y-117447807D01*
X167054068Y-117465728D01*
X167100813Y-117483571D01*
X167147580Y-117501338D01*
X167194368Y-117519027D01*
X167241179Y-117536639D01*
X167288012Y-117554174D01*
X167334866Y-117571631D01*
X167381743Y-117589012D01*
X167428642Y-117606315D01*
X167475563Y-117623542D01*
X167522506Y-117640691D01*
X167569470Y-117657764D01*
X167616457Y-117674759D01*
X167663467Y-117691677D01*
X167710498Y-117708519D01*
X167757551Y-117725283D01*
X167804626Y-117741970D01*
X167851724Y-117758581D01*
X167898843Y-117775114D01*
X167945985Y-117791570D01*
X167993148Y-117807950D01*
X168040334Y-117824252D01*
X168087542Y-117840478D01*
X168134772Y-117856627D01*
X168182024Y-117872698D01*
X168229299Y-117888693D01*
X168276595Y-117904611D01*
X168323914Y-117920452D01*
X168371255Y-117936216D01*
X168418618Y-117951904D01*
X168466003Y-117967514D01*
X168513410Y-117983047D01*
X168560839Y-117998504D01*
X168608291Y-118013884D01*
X168655765Y-118029187D01*
X168703261Y-118044413D01*
X168750779Y-118059563D01*
X168798319Y-118074635D01*
X168845881Y-118089631D01*
X168893466Y-118104550D01*
X168941073Y-118119392D01*
X168988702Y-118134157D01*
X169036353Y-118148845D01*
X169084026Y-118163457D01*
X169131722Y-118177992D01*
X169179439Y-118192450D01*
X169227179Y-118206831D01*
X169274941Y-118221135D01*
X169322726Y-118235363D01*
X169370532Y-118249514D01*
X169418361Y-118263588D01*
X169466212Y-118277585D01*
X169514085Y-118291505D01*
X169561980Y-118305349D01*
X169609898Y-118319116D01*
X169657837Y-118332806D01*
X169705799Y-118346419D01*
X169753783Y-118359955D01*
X169801789Y-118373415D01*
X169849818Y-118386798D01*
X169897868Y-118400104D01*
X169945941Y-118413333D01*
X169994036Y-118426486D01*
X170042153Y-118439561D01*
X170090292Y-118452560D01*
X170138453Y-118465482D01*
X170186637Y-118478327D01*
X170234843Y-118491096D01*
X170283070Y-118503787D01*
X170331320Y-118516402D01*
X170379593Y-118528940D01*
X170427887Y-118541401D01*
X170476203Y-118553785D01*
X170524542Y-118566093D01*
X170572902Y-118578323D01*
X170621285Y-118590477D01*
X170669690Y-118602554D01*
X170718117Y-118614554D01*
X170766566Y-118626477D01*
X170815037Y-118638323D01*
X170863530Y-118650092D01*
X170912046Y-118661785D01*
X170960583Y-118673400D01*
X171009142Y-118684939D01*
X171057724Y-118696401D01*
X171106327Y-118707785D01*
X171154953Y-118719093D01*
X171203600Y-118730324D01*
X171252270Y-118741478D01*
X171300961Y-118752555D01*
X171349674Y-118763555D01*
X171398410Y-118774478D01*
X171447167Y-118785324D01*
X171495946Y-118796093D01*
X171544748Y-118806785D01*
X171593571Y-118817400D01*
X171642416Y-118827938D01*
X171691283Y-118838399D01*
X171740172Y-118848782D01*
X171789082Y-118859089D01*
X171838015Y-118869319D01*
X171886969Y-118879471D01*
X171935945Y-118889547D01*
X171984943Y-118899545D01*
X172033963Y-118909466D01*
X172083004Y-118919310D01*
X172132068Y-118929077D01*
X172181152Y-118938767D01*
X172230259Y-118948380D01*
X172279388Y-118957915D01*
X172328538Y-118967373D01*
X172377709Y-118976754D01*
X172426903Y-118986058D01*
X172476117Y-118995284D01*
X172525354Y-119004433D01*
X172574612Y-119013505D01*
X172623892Y-119022500D01*
X172673193Y-119031417D01*
X172722515Y-119040257D01*
X172771860Y-119049019D01*
X172821225Y-119057704D01*
X172870612Y-119066312D01*
X172920021Y-119074843D01*
X172969450Y-119083296D01*
X173018901Y-119091671D01*
X173068374Y-119099969D01*
X173117868Y-119108190D01*
X173167383Y-119116333D01*
X173216919Y-119124399D01*
X173266477Y-119132387D01*
X173316055Y-119140297D01*
X173365655Y-119148130D01*
X173415276Y-119155886D01*
X173464918Y-119163564D01*
X173514581Y-119171164D01*
X173564266Y-119178686D01*
X173613971Y-119186131D01*
X173663697Y-119193499D01*
X173713444Y-119200788D01*
X173763212Y-119208000D01*
X173813001Y-119215134D01*
X173862811Y-119222190D01*
X173912641Y-119229169D01*
X173962492Y-119236070D01*
X174012364Y-119242893D01*
X174062257Y-119249638D01*
X174112170Y-119256305D01*
X174162104Y-119262895D01*
X174212059Y-119269406D01*
X174262034Y-119275840D01*
X174312029Y-119282195D01*
X174362045Y-119288473D01*
X174412082Y-119294673D01*
X174462139Y-119300794D01*
X174512216Y-119306838D01*
X174562313Y-119312803D01*
X174612430Y-119318691D01*
X174662568Y-119324500D01*
X174712726Y-119330232D01*
X174762904Y-119335885D01*
X174813102Y-119341460D01*
X174863320Y-119346957D01*
X174913558Y-119352375D01*
X174963816Y-119357715D01*
X175014093Y-119362978D01*
X175064391Y-119368161D01*
X175114708Y-119373267D01*
X175165045Y-119378294D01*
X175215402Y-119383243D01*
X175265778Y-119388113D01*
X175316173Y-119392905D01*
X175366588Y-119397619D01*
X175417023Y-119402254D01*
X175467477Y-119406811D01*
X175517950Y-119411289D01*
X175568442Y-119415688D01*
X175618953Y-119420009D01*
X175669484Y-119424252D01*
X175720034Y-119428416D01*
X175770602Y-119432501D01*
X175821190Y-119436508D01*
X175871796Y-119440436D01*
X175922421Y-119444285D01*
X175973065Y-119448056D01*
X176023728Y-119451747D01*
X176074409Y-119455360D01*
X176125109Y-119458895D01*
X176175827Y-119462350D01*
X176226563Y-119465727D01*
X176277318Y-119469024D01*
X176328091Y-119472243D01*
X176378882Y-119475383D01*
X176429691Y-119478444D01*
X176480518Y-119481426D01*
X176531363Y-119484329D01*
X176582226Y-119487153D01*
X176633107Y-119489897D01*
X176684005Y-119492563D01*
X176734921Y-119495150D01*
X176785854Y-119497658D01*
X176836805Y-119500086D01*
X176887773Y-119502435D01*
X176938759Y-119504705D01*
X176989762Y-119506896D01*
X177040781Y-119509008D01*
X177091818Y-119511040D01*
X177142871Y-119512993D01*
X177193942Y-119514867D01*
X177245029Y-119516661D01*
X177296132Y-119518376D01*
X177347253Y-119520011D01*
X177398389Y-119521568D01*
X177449542Y-119523044D01*
X177500711Y-119524442D01*
X177551897Y-119525759D01*
X177603098Y-119526997D01*
X177654315Y-119528156D01*
X177705548Y-119529235D01*
X177756797Y-119530235D01*
X177808061Y-119531154D01*
X177859341Y-119531995D01*
X177910636Y-119532755D01*
X177961946Y-119533436D01*
X178013272Y-119534037D01*
X178064612Y-119534559D01*
X178115968Y-119535000D01*
X178167338Y-119535362D01*
X178218723Y-119535644D01*
X178270122Y-119535847D01*
X178321536Y-119535969D01*
X178372964Y-119536012D01*
X178424407Y-119535974D01*
X178475863Y-119535857D01*
X178527334Y-119535660D01*
X178578818Y-119535383D01*
X178630316Y-119535026D01*
X178681827Y-119534589D01*
X178733352Y-119534071D01*
X178784890Y-119533474D01*
X178836441Y-119532797D01*
X178888005Y-119532040D01*
X178939582Y-119531202D01*
X178991172Y-119530285D01*
X179042774Y-119529287D01*
X179094389Y-119528210D01*
X179146016Y-119527052D01*
X179197655Y-119525813D01*
X179249305Y-119524495D01*
X179300968Y-119523097D01*
X179352643Y-119521618D01*
X179404328Y-119520059D01*
X179456026Y-119518419D01*
X179507734Y-119516700D01*
X179559453Y-119514900D01*
X179611183Y-119513019D01*
X179662924Y-119511059D01*
X179714675Y-119509018D01*
X179766437Y-119506897D01*
X179818209Y-119504695D01*
X179869990Y-119502413D01*
X179921782Y-119500050D01*
X179973583Y-119497608D01*
X180025394Y-119495084D01*
X180077213Y-119492481D01*
X180129042Y-119489796D01*
X180180880Y-119487032D01*
X180232726Y-119484187D01*
X180284581Y-119481261D01*
X180336444Y-119478255D01*
X180388315Y-119475168D01*
X180440194Y-119472001D01*
X180492081Y-119468754D01*
X180543975Y-119465426D01*
X180595877Y-119462017D01*
X180647785Y-119458528D01*
X180699701Y-119454959D01*
X180751622Y-119451308D01*
X180803551Y-119447578D01*
X180855485Y-119443766D01*
X180907426Y-119439875D01*
X180959372Y-119435902D01*
X181011324Y-119431850D01*
X181063281Y-119427716D01*
X181115242Y-119423502D01*
X181167209Y-119419208D01*
X181219181Y-119414833D01*
X181271156Y-119410378D01*
X181323136Y-119405842D01*
X181375119Y-119401225D01*
X181427106Y-119396528D01*
X181479096Y-119391751D01*
X181531090Y-119386893D01*
X181583086Y-119381954D01*
X181635084Y-119376935D01*
X181687085Y-119371836D01*
X181739088Y-119366656D01*
X181791092Y-119361395D01*
X181843098Y-119356055D01*
X181895105Y-119350634D01*
X181947113Y-119345132D01*
X181999122Y-119339550D01*
X182051130Y-119333888D01*
X182103139Y-119328145D01*
X182155147Y-119322322D01*
X182207155Y-119316419D01*
X182259161Y-119310435D01*
X182311167Y-119304372D01*
X182363171Y-119298228D01*
X182415173Y-119292003D01*
X182467172Y-119285699D01*
X182519170Y-119279315D01*
X182571164Y-119272850D01*
X182623155Y-119266305D01*
X182675143Y-119259680D01*
X182727126Y-119252976D01*
X182779106Y-119246191D01*
X182831081Y-119239326D01*
X182883051Y-119232382D01*
X182935015Y-119225357D01*
X182986974Y-119218253D01*
X183038927Y-119211069D01*
X183090874Y-119203805D01*
X183142814Y-119196461D01*
X183194746Y-119189038D01*
X183246671Y-119181536D01*
X183298588Y-119173953D01*
X183350497Y-119166292D01*
X183402397Y-119158550D01*
X183454288Y-119150730D01*
X183506169Y-119142830D01*
X183558040Y-119134851D01*
X183609901Y-119126793D01*
X183661751Y-119118655D01*
X183713590Y-119110439D01*
X183765417Y-119102143D01*
X183817232Y-119093769D01*
X183869034Y-119085315D01*
X183920823Y-119076783D01*
X183972599Y-119068173D01*
X184024360Y-119059483D01*
X184076107Y-119050715D01*
X184127840Y-119041869D01*
X184179557Y-119032944D01*
X184231257Y-119023941D01*
X184282942Y-119014860D01*
X184334609Y-119005701D01*
X184386259Y-118996464D01*
X184437892Y-118987148D01*
X184489505Y-118977755D01*
X184541100Y-118968285D01*
X184592675Y-118958737D01*
X184644230Y-118949111D01*
X184695764Y-118939408D01*
X184747277Y-118929627D01*
X184798769Y-118919770D01*
X184850237Y-118909836D01*
X184901683Y-118899824D01*
X184953106Y-118889736D01*
X185004504Y-118879571D01*
X185055878Y-118869330D01*
X185107226Y-118859013D01*
X185158549Y-118848619D01*
X185209844Y-118838149D01*
X185261113Y-118827603D01*
X185312353Y-118816982D01*
X185363566Y-118806285D01*
X185414748Y-118795512D01*
X185465901Y-118784664D01*
X185517024Y-118773741D01*
X185568115Y-118762743D01*
X185619174Y-118751671D01*
X185670201Y-118740523D01*
X185721194Y-118729302D01*
X185772153Y-118718006D01*
X185823078Y-118706636D01*
X185873966Y-118695192D01*
X185924819Y-118683675D01*
X185975634Y-118672084D01*
X186026411Y-118660420D01*
X186077150Y-118648683D01*
X186127849Y-118636873D01*
X186178507Y-118624990D01*
X186229125Y-118613036D01*
X186279701Y-118601009D01*
X186330234Y-118588910D01*
X186380723Y-118576740D01*
X186431167Y-118564498D01*
X186481566Y-118552186D01*
X186531919Y-118539802D01*
X186582224Y-118527348D01*
X186632482Y-118514824D01*
X186682690Y-118502229D01*
X186732848Y-118489565D01*
X186782955Y-118476832D01*
X186833010Y-118464029D01*
X186883012Y-118451158D01*
X186932961Y-118438218D01*
X186982854Y-118425210D01*
X187032691Y-118412134D01*
X187082471Y-118398990D01*
X187132192Y-118385780D01*
X187181855Y-118372502D01*
X187231457Y-118359158D01*
X187280998Y-118345748D01*
X187330476Y-118332273D01*
X187379890Y-118318732D01*
X187429239Y-118305126D01*
X187478523Y-118291455D01*
X187527739Y-118277721D01*
X187576887Y-118263922D01*
X187625964Y-118250061D01*
X187674971Y-118236136D01*
X187723906Y-118222149D01*
X187772767Y-118208100D01*
X187821553Y-118193990D01*
X187870264Y-118179819D01*
X187918896Y-118165587D01*
X187967450Y-118151295D01*
X188015923Y-118136944D01*
X188064315Y-118122533D01*
X188112624Y-118108065D01*
X188160848Y-118093538D01*
X188208986Y-118078954D01*
X188257036Y-118064313D01*
X188304998Y-118049616D01*
X188352868Y-118034863D01*
X188400647Y-118020055D01*
X188448332Y-118005193D01*
X188495921Y-117990277D01*
X188543413Y-117975307D01*
X188590807Y-117960286D01*
X188638100Y-117945212D01*
X188685291Y-117930087D01*
X188732379Y-117914912D01*
X188779360Y-117899687D01*
X188826234Y-117884414D01*
X188872999Y-117869092D01*
X188919652Y-117853722D01*
X188966193Y-117838306D01*
X189012618Y-117822844D01*
X189058927Y-117807336D01*
X189105117Y-117791785D01*
X189151185Y-117776190D01*
X189197131Y-117760553D01*
X189242952Y-117744873D01*
X189288646Y-117729154D01*
X189334210Y-117713394D01*
X189379643Y-117697595D01*
X189424942Y-117681759D01*
X189470105Y-117665886D01*
X189515130Y-117649977D01*
X189560014Y-117634032D01*
X189604756Y-117618055D01*
X189649352Y-117602044D01*
X189693800Y-117586002D01*
X189738099Y-117569929D01*
X189782244Y-117553827D01*
X189826235Y-117537696D01*
X189870067Y-117521539D01*
X189913739Y-117505356D01*
X189957248Y-117489148D01*
X190000591Y-117472917D01*
X190043765Y-117456664D01*
X190086768Y-117440391D01*
X190129597Y-117424098D01*
X190172248Y-117407788D01*
X190214720Y-117391461D01*
X190257008Y-117375119D01*
X190299111Y-117358763D01*
X190341024Y-117342396D01*
X190382746Y-117326018D01*
X190424271Y-117309631D01*
X190465599Y-117293237D01*
X190506724Y-117276837D01*
X190547644Y-117260433D01*
X190588356Y-117244027D01*
X190628856Y-117227621D01*
X190669141Y-117211216D01*
X190709207Y-117194814D01*
X190749051Y-117178416D01*
X190788669Y-117162026D01*
X190828058Y-117145644D01*
X190867213Y-117129274D01*
X190906131Y-117112915D01*
X190944809Y-117096572D01*
X190983243Y-117080246D01*
X191021428Y-117063938D01*
X191040435Y-117055788D01*
X191059361Y-117047652D01*
X191078241Y-117039513D01*
X191097038Y-117031388D01*
X191115788Y-117023263D01*
X191134455Y-117015151D01*
X191153073Y-117007039D01*
X191171607Y-116998941D01*
X191190092Y-116990844D01*
X191208492Y-116982762D01*
X191226840Y-116974681D01*
X191245104Y-116966615D01*
X191263314Y-116958551D01*
X191281440Y-116950503D01*
X191299510Y-116942457D01*
X191317495Y-116934428D01*
X191335422Y-116926402D01*
X191353265Y-116918393D01*
X191371048Y-116910389D01*
X191388746Y-116902401D01*
X191406383Y-116894419D01*
X191423933Y-116886454D01*
X191441422Y-116878495D01*
X191458823Y-116870554D01*
X191476161Y-116862620D01*
X191493410Y-116854704D01*
X191510595Y-116846796D01*
X191527692Y-116838907D01*
X191544721Y-116831027D01*
X191561662Y-116823166D01*
X191578534Y-116815315D01*
X191595317Y-116807484D01*
X191612029Y-116799663D01*
X191628652Y-116791862D01*
X191645203Y-116784073D01*
X191661663Y-116776305D01*
X191678050Y-116768549D01*
X191694346Y-116760814D01*
X191710566Y-116753093D01*
X191726695Y-116745393D01*
X191742747Y-116737709D01*
X191758707Y-116730045D01*
X191774588Y-116722398D01*
X191790377Y-116714773D01*
X191806085Y-116707165D01*
X191821701Y-116699580D01*
X191837233Y-116692012D01*
X191852674Y-116684468D01*
X191868029Y-116676943D01*
X191883291Y-116669441D01*
X191898466Y-116661960D01*
X191913549Y-116654502D01*
X191928542Y-116647066D01*
X191943443Y-116639654D01*
X191958252Y-116632265D01*
X191972968Y-116624900D01*
X191987591Y-116617560D01*
X192002121Y-116610244D01*
X192016556Y-116602953D01*
X192030897Y-116595688D01*
X192045141Y-116588449D01*
X192059292Y-116581235D01*
X192073344Y-116574049D01*
X192087302Y-116566890D01*
X192101159Y-116559759D01*
X192114922Y-116552654D01*
X192128583Y-116545579D01*
X192142150Y-116538531D01*
X192155612Y-116531515D01*
X192168980Y-116524525D01*
X192182242Y-116517568D01*
X192195410Y-116510638D01*
X192208470Y-116503743D01*
X192221435Y-116496874D01*
X192234291Y-116490041D01*
X192247052Y-116483236D01*
X192259702Y-116476468D01*
X192272258Y-116469727D01*
X192284701Y-116463024D01*
X192297048Y-116456350D01*
X192309282Y-116449715D01*
X192321421Y-116443108D01*
X192333445Y-116436542D01*
X192345373Y-116430005D01*
X192357185Y-116423509D01*
X192368901Y-116417042D01*
X192380499Y-116410619D01*
X192392003Y-116404224D01*
X192403386Y-116397874D01*
X192414675Y-116391553D01*
X192425843Y-116385278D01*
X192436916Y-116379032D01*
X192447867Y-116372833D01*
X192458724Y-116366664D01*
X192469457Y-116360543D01*
X192480096Y-116354452D01*
X192490611Y-116348409D01*
X192501031Y-116342397D01*
X192511326Y-116336435D01*
X192521528Y-116330504D01*
X192531603Y-116324623D01*
X192541585Y-116318773D01*
X192551439Y-116312976D01*
X192561201Y-116307209D01*
X192570834Y-116301495D01*
X192580375Y-116295812D01*
X192589787Y-116290184D01*
X192599107Y-116284586D01*
X192608298Y-116279044D01*
X192617397Y-116273533D01*
X192626366Y-116268077D01*
X192635245Y-116262653D01*
X192643993Y-116257286D01*
X192652651Y-116251950D01*
X192661178Y-116246672D01*
X192669616Y-116241425D01*
X192677922Y-116236237D01*
X192686140Y-116231080D01*
X192694226Y-116225982D01*
X192702225Y-116220916D01*
X192710092Y-116215909D01*
X192717872Y-116210934D01*
X192725521Y-116206020D01*
X192733084Y-116201137D01*
X192740515Y-116196315D01*
X192747861Y-116191524D01*
X192755076Y-116186795D01*
X192762208Y-116182097D01*
X192769208Y-116177461D01*
X192776125Y-116172856D01*
X192782912Y-116168314D01*
X192789617Y-116163803D01*
X192796192Y-116159355D01*
X192802687Y-116154938D01*
X192809052Y-116150584D01*
X192815338Y-116146260D01*
X192821495Y-116142001D01*
X192827574Y-116137771D01*
X192833525Y-116133606D01*
X192839399Y-116129470D01*
X192845147Y-116125399D01*
X192850818Y-116121357D01*
X192856365Y-116117380D01*
X192861836Y-116113432D01*
X192867184Y-116109549D01*
X192872458Y-116105694D01*
X192877609Y-116101904D01*
X192882688Y-116098143D01*
X192887647Y-116094446D01*
X192892533Y-116090777D01*
X192897301Y-116087173D01*
X192901998Y-116083597D01*
X192906579Y-116080084D01*
X192911090Y-116076600D01*
X192915486Y-116073179D01*
X192919814Y-116069786D01*
X192924029Y-116066456D01*
X192928178Y-116063152D01*
X192932215Y-116059912D01*
X192936187Y-116056699D01*
X192940049Y-116053548D01*
X192943848Y-116050423D01*
X192947540Y-116047361D01*
X192951170Y-116044324D01*
X192954694Y-116041348D01*
X192958158Y-116038398D01*
X192961519Y-116035509D01*
X192964821Y-116032645D01*
X192968022Y-116029841D01*
X192971165Y-116027062D01*
X192974210Y-116024342D01*
X192977199Y-116021646D01*
X192980092Y-116019009D01*
X192982930Y-116016396D01*
X192985675Y-116013840D01*
X192988366Y-116011308D01*
X192990966Y-116008832D01*
X192993514Y-116006380D01*
X192995975Y-116003984D01*
X192998384Y-116001609D01*
X193000000Y-116000000D01*
X164000000Y-96000000D02*
X163988439Y-96005791D01*
X163976923Y-96011583D01*
X163965443Y-96017379D01*
X163954007Y-96023174D01*
X163942607Y-96028974D01*
X163931251Y-96034774D01*
X163919931Y-96040579D01*
X163908655Y-96046383D01*
X163897414Y-96052191D01*
X163886217Y-96057999D01*
X163875055Y-96063811D01*
X163863937Y-96069623D01*
X163852855Y-96075439D01*
X163841816Y-96081254D01*
X163830812Y-96087074D01*
X163819852Y-96092893D01*
X163808926Y-96098716D01*
X163798044Y-96104539D01*
X163787197Y-96110366D01*
X163776393Y-96116192D01*
X163765624Y-96122022D01*
X163754898Y-96127851D01*
X163744206Y-96133685D01*
X163733558Y-96139517D01*
X163722943Y-96145354D01*
X163712373Y-96151189D01*
X163701835Y-96157029D01*
X163691342Y-96162868D01*
X163680881Y-96168710D01*
X163670464Y-96174552D01*
X163660081Y-96180397D01*
X163649740Y-96186241D01*
X163639433Y-96192090D01*
X163629169Y-96197936D01*
X163618938Y-96203787D01*
X163608750Y-96209636D01*
X163598595Y-96215490D01*
X163588482Y-96221342D01*
X163578403Y-96227197D01*
X163568366Y-96233051D01*
X163558362Y-96238909D01*
X163548401Y-96244766D01*
X163538472Y-96250626D01*
X163528585Y-96256484D01*
X163518731Y-96262347D01*
X163508920Y-96268207D01*
X163499140Y-96274071D01*
X163489403Y-96279933D01*
X163479698Y-96285799D01*
X163470035Y-96291663D01*
X163460404Y-96297531D01*
X163450816Y-96303397D01*
X163441259Y-96309267D01*
X163431744Y-96315134D01*
X163422261Y-96321005D01*
X163412819Y-96326873D01*
X163403409Y-96332746D01*
X163394041Y-96338616D01*
X163384704Y-96344490D01*
X163375409Y-96350361D01*
X163366146Y-96356236D01*
X163356923Y-96362108D01*
X163347732Y-96367985D01*
X163338583Y-96373858D01*
X163329464Y-96379735D01*
X163320387Y-96385609D01*
X163311340Y-96391487D01*
X163302335Y-96397362D01*
X163293360Y-96403241D01*
X163284427Y-96409117D01*
X163275524Y-96414996D01*
X163266662Y-96420873D01*
X163257831Y-96426753D01*
X163249040Y-96432630D01*
X163240280Y-96438510D01*
X163231561Y-96444387D01*
X163222871Y-96450268D01*
X163214223Y-96456146D01*
X163205604Y-96462027D01*
X163197026Y-96467904D01*
X163188478Y-96473786D01*
X163179971Y-96479663D01*
X163171493Y-96485545D01*
X163163056Y-96491422D01*
X163154648Y-96497303D01*
X163146281Y-96503181D01*
X163137943Y-96509062D01*
X163129645Y-96514939D01*
X163121376Y-96520820D01*
X163113148Y-96526696D01*
X163104949Y-96532577D01*
X163096790Y-96538453D01*
X163088660Y-96544333D01*
X163080570Y-96550208D01*
X163072509Y-96556087D01*
X163064488Y-96561962D01*
X163056495Y-96567841D01*
X163048542Y-96573714D01*
X163040618Y-96579592D01*
X163032734Y-96585465D01*
X163024878Y-96591342D01*
X163017061Y-96597214D01*
X163009273Y-96603090D01*
X163001525Y-96608960D01*
X162993804Y-96614835D01*
X162986123Y-96620704D01*
X162978470Y-96626578D01*
X162970857Y-96632446D01*
X162963271Y-96638318D01*
X162955725Y-96644184D01*
X162948206Y-96650055D01*
X162940726Y-96655920D01*
X162933274Y-96661788D01*
X162925862Y-96667652D01*
X162918476Y-96673519D01*
X162911130Y-96679380D01*
X162903811Y-96685245D01*
X162896531Y-96691105D01*
X162889278Y-96696968D01*
X162882064Y-96702826D01*
X162874877Y-96708687D01*
X162867729Y-96714542D01*
X162860608Y-96720401D01*
X162853525Y-96726254D01*
X162846469Y-96732111D01*
X162839452Y-96737961D01*
X162832461Y-96743816D01*
X162825510Y-96749664D01*
X162818584Y-96755516D01*
X162811697Y-96761361D01*
X162798014Y-96773053D01*
X162784460Y-96784739D01*
X162771035Y-96796420D01*
X162757738Y-96808094D01*
X162744569Y-96819762D01*
X162731527Y-96831424D01*
X162718612Y-96843079D01*
X162705824Y-96854727D01*
X162693162Y-96866367D01*
X162680626Y-96878000D01*
X162668215Y-96889625D01*
X162655930Y-96901243D01*
X162643769Y-96912851D01*
X162631732Y-96924452D01*
X162619818Y-96936044D01*
X162608029Y-96947626D01*
X162596362Y-96959200D01*
X162584818Y-96970764D01*
X162573396Y-96982318D01*
X162562095Y-96993862D01*
X162550917Y-97005395D01*
X162539859Y-97016918D01*
X162528922Y-97028431D01*
X162518106Y-97039932D01*
X162507409Y-97051421D01*
X162496832Y-97062899D01*
X162486375Y-97074365D01*
X162476036Y-97085818D01*
X162465816Y-97097259D01*
X162455714Y-97108687D01*
X162445730Y-97120102D01*
X162435863Y-97131503D01*
X162426113Y-97142890D01*
X162416481Y-97154263D01*
X162406964Y-97165622D01*
X162397564Y-97176966D01*
X162388280Y-97188294D01*
X162379112Y-97199607D01*
X162370058Y-97210904D01*
X162361120Y-97222185D01*
X162352295Y-97233450D01*
X162343586Y-97244697D01*
X162334990Y-97255927D01*
X162326508Y-97267139D01*
X162318139Y-97278333D01*
X162309883Y-97289509D01*
X162301741Y-97300665D01*
X162293710Y-97311802D01*
X162285792Y-97322919D01*
X162277986Y-97334016D01*
X162270292Y-97345093D01*
X162262709Y-97356148D01*
X162255237Y-97367181D01*
X162247876Y-97378192D01*
X162240626Y-97389180D01*
X162233486Y-97400146D01*
X162226457Y-97411087D01*
X162219537Y-97422004D01*
X162212727Y-97432896D01*
X162206027Y-97443763D01*
X162199436Y-97454603D01*
X162192954Y-97465417D01*
X162186581Y-97476204D01*
X162180317Y-97486962D01*
X162174161Y-97497692D01*
X162168114Y-97508392D01*
X162162174Y-97519062D01*
X162156343Y-97529701D01*
X162150619Y-97540308D01*
X162145003Y-97550883D01*
X162139495Y-97561424D01*
X162134094Y-97571931D01*
X162128800Y-97582403D01*
X162123613Y-97592838D01*
X162118533Y-97603237D01*
X162113559Y-97613597D01*
X162108693Y-97623917D01*
X162103933Y-97634197D01*
X162099279Y-97644436D01*
X162094732Y-97654631D01*
X162090291Y-97664782D01*
X162085957Y-97674888D01*
X162081728Y-97684946D01*
X162077606Y-97694956D01*
X162073590Y-97704916D01*
X162069680Y-97714823D01*
X162065876Y-97724678D01*
X162062177Y-97734476D01*
X162058585Y-97744218D01*
X162055099Y-97753899D01*
X162051718Y-97763519D01*
X162048444Y-97773075D01*
X162045276Y-97782565D01*
X162042213Y-97791985D01*
X162039257Y-97801332D01*
X162036407Y-97810605D01*
X162033663Y-97819800D01*
X162031025Y-97828912D01*
X162028494Y-97837938D01*
X162026070Y-97846875D01*
X162023752Y-97855718D01*
X162021541Y-97864461D01*
X162019436Y-97873100D01*
X162017439Y-97881628D01*
X162015549Y-97890040D01*
X162013766Y-97898328D01*
X162012092Y-97906485D01*
X162010524Y-97914501D01*
X162009065Y-97922367D01*
X162007715Y-97930071D01*
X162006472Y-97937600D01*
X162005339Y-97944940D01*
X162004314Y-97952071D01*
X162003399Y-97958974D01*
X162002593Y-97965622D01*
X162001897Y-97971983D01*
X162001311Y-97978016D01*
X162000835Y-97983664D01*
X162000468Y-97988848D01*
X162000209Y-97993447D01*
X162000057Y-97997243D01*
X162000000Y-98000000D01*
X166000000Y-79000000D02*
X165988276Y-79035298D01*
X165976560Y-79070825D01*
X165964853Y-79106582D01*
X165953154Y-79142570D01*
X165941464Y-79178789D01*
X165929783Y-79215241D01*
X165918112Y-79251927D01*
X165906449Y-79288847D01*
X165894796Y-79326002D01*
X165883153Y-79363393D01*
X165871520Y-79401022D01*
X165859896Y-79438889D01*
X165848283Y-79476995D01*
X165836681Y-79515340D01*
X165825089Y-79553927D01*
X165813508Y-79592755D01*
X165801938Y-79631826D01*
X165790379Y-79671140D01*
X165778832Y-79710699D01*
X165767297Y-79750503D01*
X165755773Y-79790554D01*
X165744262Y-79830852D01*
X165732762Y-79871398D01*
X165721276Y-79912193D01*
X165709802Y-79953237D01*
X165698341Y-79994533D01*
X165686892Y-80036080D01*
X165675458Y-80077880D01*
X165664037Y-80119934D01*
X165652629Y-80162242D01*
X165641236Y-80204805D01*
X165629856Y-80247625D01*
X165618491Y-80290701D01*
X165607141Y-80334036D01*
X165595806Y-80377629D01*
X165584485Y-80421483D01*
X165573180Y-80465597D01*
X165561891Y-80509972D01*
X165550617Y-80554610D01*
X165539359Y-80599511D01*
X165528117Y-80644677D01*
X165516891Y-80690108D01*
X165505683Y-80735804D01*
X165494491Y-80781768D01*
X165483316Y-80827999D01*
X165472159Y-80874498D01*
X165461019Y-80921268D01*
X165449896Y-80968307D01*
X165438792Y-81015618D01*
X165427706Y-81063200D01*
X165416639Y-81111056D01*
X165405591Y-81159185D01*
X165394561Y-81207588D01*
X165383551Y-81256267D01*
X165372560Y-81305223D01*
X165361588Y-81354455D01*
X165350637Y-81403965D01*
X165339706Y-81453754D01*
X165328795Y-81503823D01*
X165317906Y-81554172D01*
X165307037Y-81604802D01*
X165296189Y-81655714D01*
X165285363Y-81706909D01*
X165274558Y-81758387D01*
X165263776Y-81810150D01*
X165253015Y-81862198D01*
X165242277Y-81914532D01*
X165231562Y-81967153D01*
X165220870Y-82020061D01*
X165210201Y-82073258D01*
X165199556Y-82126744D01*
X165188934Y-82180519D01*
X165178337Y-82234585D01*
X165167764Y-82288942D01*
X165157215Y-82343591D01*
X165146692Y-82398534D01*
X165136193Y-82453769D01*
X165125720Y-82509299D01*
X165115273Y-82565124D01*
X165104851Y-82621244D01*
X165094456Y-82677661D01*
X165084087Y-82734374D01*
X165073745Y-82791386D01*
X165063431Y-82848696D01*
X165053143Y-82906304D01*
X165042883Y-82964213D01*
X165032651Y-83022422D01*
X165022448Y-83080931D01*
X165012272Y-83139743D01*
X165002126Y-83198856D01*
X164992009Y-83258273D01*
X164981921Y-83317992D01*
X164971862Y-83378016D01*
X164961834Y-83438344D01*
X164951836Y-83498978D01*
X164941869Y-83559917D01*
X164931932Y-83621163D01*
X164922026Y-83682715D01*
X164912152Y-83744574D01*
X164902310Y-83806742D01*
X164892500Y-83869217D01*
X164882722Y-83932002D01*
X164872976Y-83995095D01*
X164863264Y-84058499D01*
X164853585Y-84122212D01*
X164843940Y-84186236D01*
X164834328Y-84250571D01*
X164824751Y-84315218D01*
X164815208Y-84380176D01*
X164805700Y-84445446D01*
X164796228Y-84511029D01*
X164786790Y-84576924D01*
X164777389Y-84643133D01*
X164768024Y-84709655D01*
X164758695Y-84776490D01*
X164749403Y-84843640D01*
X164740148Y-84911104D01*
X164730931Y-84978882D01*
X164721751Y-85046975D01*
X164712610Y-85115382D01*
X164703507Y-85184104D01*
X164694443Y-85253142D01*
X164685418Y-85322495D01*
X164676432Y-85392163D01*
X164667486Y-85462146D01*
X164658581Y-85532444D01*
X164649715Y-85603058D01*
X164640891Y-85673988D01*
X164632108Y-85745232D01*
X164623367Y-85816792D01*
X164614667Y-85888667D01*
X164606010Y-85960857D01*
X164597395Y-86033362D01*
X164588823Y-86106182D01*
X164580294Y-86179316D01*
X164571810Y-86252765D01*
X164563369Y-86326527D01*
X164554973Y-86400604D01*
X164546621Y-86474993D01*
X164538315Y-86549695D01*
X164530054Y-86624710D01*
X164521839Y-86700037D01*
X164513670Y-86775676D01*
X164505548Y-86851625D01*
X164497473Y-86927885D01*
X164489446Y-87004455D01*
X164481466Y-87081334D01*
X164473534Y-87158521D01*
X164465651Y-87236017D01*
X164457817Y-87313818D01*
X164450032Y-87391926D01*
X164442297Y-87470339D01*
X164434612Y-87549057D01*
X164426978Y-87628077D01*
X164419394Y-87707399D01*
X164411862Y-87787022D01*
X164404382Y-87866945D01*
X164396953Y-87947167D01*
X164389577Y-88027685D01*
X164382255Y-88108500D01*
X164374985Y-88189608D01*
X164367769Y-88271010D01*
X164360608Y-88352702D01*
X164353501Y-88434685D01*
X164346449Y-88516955D01*
X164339453Y-88599510D01*
X164332513Y-88682350D01*
X164325628Y-88765472D01*
X164318801Y-88848874D01*
X164312031Y-88932554D01*
X164305318Y-89016509D01*
X164298664Y-89100737D01*
X164292068Y-89185236D01*
X164285531Y-89270003D01*
X164279053Y-89355035D01*
X164272636Y-89440330D01*
X164266278Y-89525884D01*
X164259982Y-89611695D01*
X164253746Y-89697759D01*
X164247572Y-89784073D01*
X164241461Y-89870634D01*
X164235412Y-89957437D01*
X164229426Y-90044480D01*
X164223504Y-90131758D01*
X164217646Y-90219268D01*
X164211852Y-90307004D01*
X164206124Y-90394963D01*
X164200461Y-90483140D01*
X164194864Y-90571529D01*
X164189333Y-90660127D01*
X164183869Y-90748928D01*
X164178473Y-90837926D01*
X164173145Y-90927116D01*
X164167886Y-91016491D01*
X164162695Y-91106047D01*
X164157575Y-91195775D01*
X164152524Y-91285670D01*
X164147544Y-91375724D01*
X164142635Y-91465930D01*
X164137797Y-91556281D01*
X164133032Y-91646768D01*
X164128340Y-91737383D01*
X164123720Y-91828118D01*
X164119175Y-91918962D01*
X164114704Y-92009908D01*
X164110308Y-92100943D01*
X164105988Y-92192059D01*
X164101744Y-92283244D01*
X164097576Y-92374486D01*
X164093486Y-92465773D01*
X164089474Y-92557093D01*
X164085540Y-92648432D01*
X164081685Y-92739776D01*
X164077909Y-92831111D01*
X164074214Y-92922420D01*
X164070600Y-93013687D01*
X164067068Y-93104895D01*
X164063617Y-93196026D01*
X164060249Y-93287060D01*
X164056965Y-93377976D01*
X164053765Y-93468753D01*
X164050649Y-93559368D01*
X164047619Y-93649796D01*
X164044675Y-93740011D01*
X164041817Y-93829985D01*
X164039047Y-93919688D01*
X164036365Y-94009088D01*
X164033772Y-94098152D01*
X164031268Y-94186842D01*
X164028855Y-94275120D01*
X164026532Y-94362941D01*
X164024302Y-94450260D01*
X164022163Y-94537027D01*
X164020118Y-94623188D01*
X164018167Y-94708681D01*
X164016311Y-94793442D01*
X164014550Y-94877398D01*
X164012886Y-94960468D01*
X164011319Y-95042563D01*
X164009849Y-95123583D01*
X164008479Y-95203413D01*
X164007208Y-95281924D01*
X164006038Y-95358968D01*
X164004969Y-95434369D01*
X164004003Y-95507924D01*
X164003140Y-95579388D01*
X164002380Y-95648458D01*
X164001725Y-95714758D01*
X164001176Y-95777799D01*
X164000733Y-95836917D01*
X164000395Y-95891156D01*
X164000164Y-95938997D01*
X164000036Y-95977605D01*
X164000000Y-96000000D01*
X171000000Y-80000000D02*
X172000000Y-78000000D01*
X172000000Y-78000000D02*
X171956262Y-78000040D01*
X171912605Y-78000160D01*
X171869028Y-78000359D01*
X171825532Y-78000637D01*
X171782117Y-78000995D01*
X171738783Y-78001432D01*
X171695530Y-78001948D01*
X171652360Y-78002543D01*
X171609271Y-78003216D01*
X171566264Y-78003968D01*
X171523340Y-78004798D01*
X171480499Y-78005706D01*
X171437740Y-78006693D01*
X171395065Y-78007757D01*
X171352474Y-78008899D01*
X171309966Y-78010119D01*
X171267542Y-78011415D01*
X171225202Y-78012790D01*
X171182947Y-78014241D01*
X171140777Y-78015769D01*
X171098692Y-78017374D01*
X171056692Y-78019055D01*
X171014778Y-78020813D01*
X170972950Y-78022647D01*
X170931208Y-78024557D01*
X170889553Y-78026543D01*
X170847985Y-78028604D01*
X170806504Y-78030741D01*
X170765111Y-78032954D01*
X170723805Y-78035241D01*
X170682588Y-78037604D01*
X170641459Y-78040041D01*
X170600419Y-78042553D01*
X170559469Y-78045139D01*
X170518608Y-78047800D01*
X170477836Y-78050535D01*
X170437155Y-78053343D01*
X170396565Y-78056225D01*
X170356065Y-78059181D01*
X170315657Y-78062210D01*
X170275341Y-78065312D01*
X170235117Y-78068487D01*
X170194985Y-78071734D01*
X170154946Y-78075054D01*
X170115001Y-78078446D01*
X170075149Y-78081911D01*
X170035391Y-78085447D01*
X169995728Y-78089055D01*
X169956159Y-78092734D01*
X169916687Y-78096484D01*
X169877310Y-78100305D01*
X169838029Y-78104197D01*
X169798845Y-78108160D01*
X169759758Y-78112192D01*
X169720768Y-78116295D01*
X169681877Y-78120468D01*
X169643085Y-78124710D01*
X169604391Y-78129022D01*
X169565797Y-78133402D01*
X169527304Y-78137852D01*
X169488911Y-78142370D01*
X169450619Y-78146956D01*
X169412428Y-78151610D01*
X169374340Y-78156333D01*
X169336355Y-78161122D01*
X169298472Y-78165979D01*
X169260694Y-78170903D01*
X169223020Y-78175894D01*
X169185452Y-78180951D01*
X169147989Y-78186074D01*
X169110632Y-78191264D01*
X169073382Y-78196518D01*
X169036239Y-78201838D01*
X168999205Y-78207223D01*
X168962279Y-78212673D01*
X168925463Y-78218187D01*
X168888757Y-78223765D01*
X168852162Y-78229406D01*
X168815679Y-78235111D01*
X168779307Y-78240880D01*
X168743049Y-78246710D01*
X168706905Y-78252603D01*
X168670874Y-78258559D01*
X168634960Y-78264575D01*
X168599161Y-78270653D01*
X168563479Y-78276792D01*
X168527914Y-78282992D01*
X168492469Y-78289251D01*
X168457142Y-78295570D01*
X168421936Y-78301949D01*
X168386851Y-78308387D01*
X168351888Y-78314883D01*
X168317048Y-78321437D01*
X168282331Y-78328049D01*
X168247740Y-78334718D01*
X168213275Y-78341443D01*
X168178936Y-78348225D01*
X168144725Y-78355063D01*
X168110643Y-78361956D01*
X168076691Y-78368904D01*
X168042871Y-78375907D01*
X168009182Y-78382963D01*
X167975627Y-78390072D01*
X167942207Y-78397234D01*
X167908922Y-78404449D01*
X167875775Y-78411715D01*
X167842765Y-78419032D01*
X167809896Y-78426399D01*
X167777167Y-78433817D01*
X167744581Y-78441283D01*
X167712138Y-78448799D01*
X167679840Y-78456362D01*
X167647689Y-78463972D01*
X167615686Y-78471629D01*
X167583833Y-78479332D01*
X167552131Y-78487080D01*
X167520582Y-78494872D01*
X167489188Y-78502708D01*
X167457950Y-78510586D01*
X167426870Y-78518507D01*
X167395950Y-78526469D01*
X167365192Y-78534471D01*
X167334598Y-78542512D01*
X167304170Y-78550592D01*
X167273909Y-78558709D01*
X167243819Y-78566863D01*
X167213901Y-78575052D01*
X167184157Y-78583276D01*
X167154590Y-78591533D01*
X167125203Y-78599822D01*
X167095997Y-78608143D01*
X167066976Y-78616493D01*
X167038142Y-78624871D01*
X167009498Y-78633277D01*
X166981047Y-78641709D01*
X166952791Y-78650165D01*
X166924735Y-78658645D01*
X166896881Y-78667146D01*
X166869233Y-78675666D01*
X166841793Y-78684205D01*
X166814567Y-78692761D01*
X166787557Y-78701331D01*
X166760769Y-78709915D01*
X166734205Y-78718509D01*
X166707870Y-78727111D01*
X166681769Y-78735721D01*
X166655907Y-78744334D01*
X166630289Y-78752950D01*
X166604920Y-78761565D01*
X166579806Y-78770177D01*
X166554953Y-78778782D01*
X166530367Y-78787378D01*
X166506054Y-78795962D01*
X166482023Y-78804530D01*
X166458279Y-78813078D01*
X166434832Y-78821604D01*
X166411690Y-78830102D01*
X166388862Y-78838568D01*
X166366358Y-78846997D01*
X166344189Y-78855385D01*
X166322365Y-78863725D01*
X166300901Y-78872011D01*
X166279808Y-78880238D01*
X166259103Y-78888396D01*
X166238801Y-78896480D01*
X166218921Y-78904479D01*
X166199482Y-78912383D01*
X166180509Y-78920182D01*
X166162025Y-78927863D01*
X166144061Y-78935410D01*
X166126650Y-78942809D01*
X166109832Y-78950038D01*
X166093653Y-78957074D01*
X166078171Y-78963889D01*
X166063455Y-78970448D01*
X166049597Y-78976705D01*
X166036716Y-78982599D01*
X166024982Y-78988046D01*
X166014656Y-78992913D01*
X166006198Y-78996967D01*
X166000000Y-79000000D01*
X182000000Y-82000000D02*
X181980450Y-82000039D01*
X181957464Y-82000166D01*
X181930339Y-82000396D01*
X181898098Y-82000748D01*
X181859281Y-82001252D01*
X181811462Y-82001951D01*
X181749884Y-82002927D01*
X181661610Y-82004396D01*
X181636345Y-82004822D01*
X181542249Y-82006401D01*
X181440437Y-82008061D01*
X181386720Y-82008903D01*
X181331173Y-82009746D01*
X181273828Y-82010581D01*
X181214718Y-82011402D01*
X181153876Y-82012202D01*
X181091335Y-82012975D01*
X181027128Y-82013714D01*
X180961287Y-82014411D01*
X180893845Y-82015060D01*
X180824836Y-82015655D01*
X180754292Y-82016188D01*
X180718454Y-82016429D01*
X180682245Y-82016652D01*
X180645669Y-82016857D01*
X180608729Y-82017042D01*
X180571430Y-82017206D01*
X180533776Y-82017349D01*
X180495772Y-82017470D01*
X180457420Y-82017568D01*
X180418726Y-82017641D01*
X180379693Y-82017690D01*
X180340325Y-82017714D01*
X180300628Y-82017711D01*
X180260603Y-82017681D01*
X180220257Y-82017622D01*
X180179592Y-82017535D01*
X180138614Y-82017418D01*
X180097326Y-82017270D01*
X180055731Y-82017090D01*
X180013835Y-82016878D01*
X179971642Y-82016633D01*
X179929155Y-82016354D01*
X179886379Y-82016039D01*
X179843317Y-82015689D01*
X179799974Y-82015302D01*
X179756354Y-82014878D01*
X179712461Y-82014416D01*
X179668299Y-82013914D01*
X179623873Y-82013372D01*
X179579186Y-82012789D01*
X179534242Y-82012165D01*
X179489046Y-82011497D01*
X179443601Y-82010787D01*
X179397912Y-82010032D01*
X179351983Y-82009232D01*
X179305818Y-82008386D01*
X179259421Y-82007493D01*
X179212796Y-82006552D01*
X179165947Y-82005563D01*
X179118879Y-82004524D01*
X179071595Y-82003435D01*
X179024100Y-82002295D01*
X178976398Y-82001103D01*
X178928492Y-81999859D01*
X178880387Y-81998560D01*
X178832087Y-81997207D01*
X178783596Y-81995799D01*
X178734919Y-81994334D01*
X178686058Y-81992813D01*
X178637019Y-81991233D01*
X178587806Y-81989595D01*
X178538422Y-81987897D01*
X178488872Y-81986138D01*
X178439159Y-81984319D01*
X178389289Y-81982437D01*
X178339264Y-81980492D01*
X178289090Y-81978483D01*
X178238770Y-81976410D01*
X178188308Y-81974271D01*
X178137709Y-81972065D01*
X178086976Y-81969792D01*
X178036114Y-81967451D01*
X177985126Y-81965042D01*
X177934017Y-81962562D01*
X177882792Y-81960012D01*
X177831453Y-81957390D01*
X177780005Y-81954696D01*
X177728453Y-81951928D01*
X177676800Y-81949087D01*
X177625051Y-81946170D01*
X177573209Y-81943178D01*
X177521278Y-81940109D01*
X177469264Y-81936963D01*
X177417169Y-81933738D01*
X177364998Y-81930434D01*
X177312756Y-81927050D01*
X177260445Y-81923586D01*
X177208071Y-81920039D01*
X177155637Y-81916410D01*
X177129399Y-81914564D01*
X177103148Y-81912698D01*
X177076884Y-81910810D01*
X177050607Y-81908901D01*
X177024319Y-81906971D01*
X176998019Y-81905019D01*
X176971709Y-81903046D01*
X176945388Y-81901051D01*
X176919057Y-81899035D01*
X176892717Y-81896996D01*
X176866369Y-81894936D01*
X176840012Y-81892854D01*
X176813647Y-81890750D01*
X176787276Y-81888623D01*
X176760897Y-81886474D01*
X176734513Y-81884303D01*
X176708122Y-81882109D01*
X176681727Y-81879892D01*
X176655327Y-81877653D01*
X176628922Y-81875391D01*
X176602514Y-81873106D01*
X176576103Y-81870797D01*
X176549690Y-81868466D01*
X176523274Y-81866111D01*
X176496857Y-81863733D01*
X176470439Y-81861331D01*
X176444020Y-81858906D01*
X176417601Y-81856457D01*
X176391182Y-81853984D01*
X176364765Y-81851487D01*
X176338349Y-81848966D01*
X176311935Y-81846421D01*
X176285524Y-81843852D01*
X176259116Y-81841258D01*
X176232711Y-81838640D01*
X176206310Y-81835997D01*
X176179914Y-81833330D01*
X176153523Y-81830638D01*
X176127138Y-81827920D01*
X176100758Y-81825178D01*
X176074386Y-81822411D01*
X176048020Y-81819619D01*
X176021662Y-81816801D01*
X175995313Y-81813958D01*
X175968972Y-81811089D01*
X175942640Y-81808195D01*
X175916318Y-81805275D01*
X175890006Y-81802329D01*
X175863705Y-81799357D01*
X175837415Y-81796359D01*
X175811137Y-81793335D01*
X175784871Y-81790284D01*
X175758618Y-81787208D01*
X175732379Y-81784104D01*
X175706153Y-81780974D01*
X175679941Y-81777818D01*
X175653744Y-81774634D01*
X175627563Y-81771424D01*
X175601398Y-81768187D01*
X175575248Y-81764922D01*
X175549116Y-81761631D01*
X175523001Y-81758312D01*
X175496904Y-81754965D01*
X175470826Y-81751591D01*
X175444766Y-81748189D01*
X175418726Y-81744760D01*
X175392706Y-81741303D01*
X175366707Y-81737817D01*
X175340728Y-81734304D01*
X175314771Y-81730762D01*
X175288836Y-81727192D01*
X175262923Y-81723594D01*
X175237034Y-81719967D01*
X175211168Y-81716312D01*
X175185326Y-81712628D01*
X175159509Y-81708915D01*
X175133716Y-81705173D01*
X175107950Y-81701402D01*
X175082209Y-81697602D01*
X175056495Y-81693772D01*
X175030809Y-81689914D01*
X175005150Y-81686026D01*
X174979519Y-81682108D01*
X174953917Y-81678160D01*
X174928344Y-81674183D01*
X174902801Y-81670176D01*
X174877288Y-81666139D01*
X174851805Y-81662072D01*
X174826354Y-81657974D01*
X174800935Y-81653847D01*
X174775548Y-81649688D01*
X174750194Y-81645500D01*
X174724873Y-81641280D01*
X174699586Y-81637030D01*
X174674333Y-81632749D01*
X174649115Y-81628437D01*
X174623933Y-81624095D01*
X174598786Y-81619720D01*
X174573676Y-81615315D01*
X174548602Y-81610878D01*
X174523566Y-81606410D01*
X174498568Y-81601910D01*
X174473609Y-81597379D01*
X174448688Y-81592815D01*
X174423807Y-81588220D01*
X174398966Y-81583593D01*
X174374165Y-81578933D01*
X174349405Y-81574242D01*
X174324687Y-81569518D01*
X174300011Y-81564761D01*
X174275377Y-81559972D01*
X174250786Y-81555151D01*
X174226239Y-81550296D01*
X174201736Y-81545409D01*
X174177278Y-81540489D01*
X174152864Y-81535536D01*
X174128497Y-81530549D01*
X174104175Y-81525529D01*
X174079900Y-81520476D01*
X174055672Y-81515389D01*
X174031492Y-81510269D01*
X174007360Y-81505115D01*
X173983277Y-81499927D01*
X173959243Y-81494705D01*
X173935258Y-81489450D01*
X173911324Y-81484160D01*
X173887441Y-81478835D01*
X173863609Y-81473477D01*
X173839829Y-81468084D01*
X173816100Y-81462656D01*
X173792425Y-81457194D01*
X173768803Y-81451697D01*
X173745235Y-81446165D01*
X173721721Y-81440598D01*
X173698262Y-81434996D01*
X173674859Y-81429359D01*
X173651511Y-81423686D01*
X173628220Y-81417978D01*
X173604985Y-81412235D01*
X173581808Y-81406456D01*
X173558689Y-81400641D01*
X173535628Y-81394790D01*
X173512626Y-81388903D01*
X173489684Y-81382980D01*
X173466802Y-81377022D01*
X173443980Y-81371026D01*
X173421219Y-81364995D01*
X173398520Y-81358927D01*
X173375882Y-81352822D01*
X173353308Y-81346681D01*
X173330796Y-81340503D01*
X173308348Y-81334288D01*
X173285964Y-81328036D01*
X173263644Y-81321747D01*
X173241390Y-81315420D01*
X173219201Y-81309057D01*
X173197079Y-81302655D01*
X173175023Y-81296217D01*
X173153034Y-81289740D01*
X173131113Y-81283226D01*
X173109260Y-81276674D01*
X173087475Y-81270084D01*
X173065760Y-81263456D01*
X173044115Y-81256790D01*
X173022540Y-81250086D01*
X173001035Y-81243343D01*
X172979602Y-81236561D01*
X172958241Y-81229741D01*
X172936952Y-81222883D01*
X172915735Y-81215985D01*
X172894592Y-81209049D01*
X172873523Y-81202073D01*
X172852528Y-81195058D01*
X172831608Y-81188005D01*
X172810764Y-81180911D01*
X172789995Y-81173779D01*
X172769303Y-81166606D01*
X172748687Y-81159394D01*
X172728149Y-81152143D01*
X172707689Y-81144851D01*
X172687307Y-81137519D01*
X172667004Y-81130148D01*
X172646781Y-81122736D01*
X172626638Y-81115284D01*
X172606575Y-81107791D01*
X172586593Y-81100258D01*
X172566693Y-81092684D01*
X172546875Y-81085070D01*
X172527139Y-81077414D01*
X172507486Y-81069718D01*
X172487917Y-81061981D01*
X172468432Y-81054202D01*
X172449032Y-81046383D01*
X172429716Y-81038521D01*
X172410487Y-81030619D01*
X172391343Y-81022675D01*
X172372286Y-81014689D01*
X172353316Y-81006661D01*
X172334434Y-80998591D01*
X172315640Y-80990480D01*
X172296935Y-80982326D01*
X172278319Y-80974130D01*
X172259792Y-80965892D01*
X172241356Y-80957611D01*
X172223011Y-80949288D01*
X172204757Y-80940922D01*
X172186595Y-80932513D01*
X172168525Y-80924062D01*
X172150547Y-80915567D01*
X172132663Y-80907030D01*
X172114873Y-80898449D01*
X172106014Y-80894143D01*
X172097178Y-80889825D01*
X172088365Y-80885497D01*
X172079577Y-80881158D01*
X172070812Y-80876808D01*
X172062071Y-80872447D01*
X172053354Y-80868075D01*
X172044661Y-80863692D01*
X172035993Y-80859299D01*
X172027348Y-80854894D01*
X172018728Y-80850479D01*
X172010132Y-80846052D01*
X172001560Y-80841615D01*
X171993013Y-80837166D01*
X171984490Y-80832707D01*
X171975992Y-80828236D01*
X171967518Y-80823755D01*
X171959069Y-80819262D01*
X171950645Y-80814758D01*
X171942245Y-80810244D01*
X171933871Y-80805718D01*
X171925521Y-80801181D01*
X171917197Y-80796633D01*
X171908897Y-80792074D01*
X171900623Y-80787503D01*
X171892373Y-80782922D01*
X171884149Y-80778329D01*
X171875951Y-80773726D01*
X171867777Y-80769111D01*
X171859629Y-80764484D01*
X171851507Y-80759847D01*
X171843410Y-80755198D01*
X171835339Y-80750538D01*
X171827293Y-80745867D01*
X171819274Y-80741185D01*
X171811280Y-80736491D01*
X171803312Y-80731786D01*
X171795370Y-80727070D01*
X171787454Y-80722342D01*
X171779564Y-80717603D01*
X171771700Y-80712853D01*
X171763863Y-80708091D01*
X171756051Y-80703318D01*
X171748266Y-80698534D01*
X171740508Y-80693738D01*
X171732776Y-80688930D01*
X171725070Y-80684112D01*
X171717391Y-80679282D01*
X171709739Y-80674440D01*
X171702113Y-80669587D01*
X171694515Y-80664722D01*
X171686943Y-80659846D01*
X171679398Y-80654958D01*
X171671880Y-80650059D01*
X171664389Y-80645149D01*
X171656925Y-80640226D01*
X171649488Y-80635293D01*
X171642079Y-80630347D01*
X171634697Y-80625390D01*
X171627342Y-80620422D01*
X171620015Y-80615442D01*
X171612715Y-80610450D01*
X171605442Y-80605446D01*
X171598198Y-80600431D01*
X171590981Y-80595404D01*
X171583791Y-80590366D01*
X171576630Y-80585316D01*
X171569497Y-80580254D01*
X171562391Y-80575180D01*
X171555313Y-80570095D01*
X171548264Y-80564998D01*
X171541242Y-80559889D01*
X171534249Y-80554768D01*
X171527284Y-80549636D01*
X171520348Y-80544491D01*
X171513440Y-80539335D01*
X171506560Y-80534168D01*
X171499709Y-80528988D01*
X171492886Y-80523796D01*
X171486092Y-80518593D01*
X171479327Y-80513377D01*
X171472590Y-80508150D01*
X171465883Y-80502911D01*
X171459204Y-80497660D01*
X171452554Y-80492397D01*
X171445933Y-80487122D01*
X171439342Y-80481835D01*
X171432779Y-80476536D01*
X171426246Y-80471225D01*
X171419742Y-80465902D01*
X171413267Y-80460567D01*
X171406822Y-80455220D01*
X171400406Y-80449861D01*
X171394020Y-80444490D01*
X171387664Y-80439107D01*
X171381337Y-80433712D01*
X171375040Y-80428305D01*
X171368772Y-80422885D01*
X171362535Y-80417454D01*
X171356327Y-80412010D01*
X171350150Y-80406554D01*
X171344002Y-80401086D01*
X171337885Y-80395606D01*
X171331798Y-80390114D01*
X171325741Y-80384609D01*
X171319714Y-80379092D01*
X171313718Y-80373563D01*
X171307752Y-80368022D01*
X171301817Y-80362469D01*
X171295912Y-80356903D01*
X171290038Y-80351325D01*
X171284194Y-80345734D01*
X171278382Y-80340132D01*
X171272600Y-80334517D01*
X171266849Y-80328889D01*
X171261129Y-80323250D01*
X171255440Y-80317598D01*
X171249782Y-80311933D01*
X171244156Y-80306256D01*
X171238560Y-80300567D01*
X171232996Y-80294866D01*
X171227463Y-80289152D01*
X171221962Y-80283425D01*
X171216492Y-80277686D01*
X171211053Y-80271935D01*
X171205647Y-80266171D01*
X171200271Y-80260394D01*
X171194928Y-80254605D01*
X171189616Y-80248804D01*
X171184336Y-80242990D01*
X171179088Y-80237164D01*
X171173873Y-80231325D01*
X171168689Y-80225473D01*
X171163537Y-80219609D01*
X171158417Y-80213732D01*
X171153330Y-80207842D01*
X171148275Y-80201940D01*
X171143252Y-80196026D01*
X171138262Y-80190098D01*
X171133304Y-80184158D01*
X171128379Y-80178205D01*
X171123487Y-80172240D01*
X171118627Y-80166262D01*
X171113800Y-80160271D01*
X171109005Y-80154267D01*
X171104244Y-80148251D01*
X171099515Y-80142222D01*
X171094820Y-80136180D01*
X171090157Y-80130125D01*
X171085528Y-80124058D01*
X171080932Y-80117978D01*
X171076369Y-80111885D01*
X171071840Y-80105779D01*
X171067344Y-80099660D01*
X171062881Y-80093528D01*
X171058452Y-80087384D01*
X171054056Y-80081226D01*
X171049695Y-80075056D01*
X171045366Y-80068873D01*
X171041072Y-80062676D01*
X171036811Y-80056467D01*
X171032585Y-80050245D01*
X171028392Y-80044010D01*
X171024234Y-80037762D01*
X171020109Y-80031501D01*
X171016019Y-80025227D01*
X171011962Y-80018940D01*
X171007941Y-80012639D01*
X171003953Y-80006326D01*
X171000000Y-80000000D01*
X182000000Y-82000000D02*
X185000000Y-78000000D01*
D11*
X187501895Y-109805391D02*
X190401895Y-108805391D01*
X188112923Y-111401466D02*
G75*
G02*
X187501877Y-109805345I-300023J800166D01*
G01*
X188112923Y-111401466D02*
X191012923Y-110401466D01*
X188288972Y-114103925D02*
X191188972Y-113103925D01*
X188900000Y-115700000D02*
G75*
G02*
X188289005Y-114104009I-300000J800100D01*
G01*
X188900000Y-115700000D02*
X191800000Y-114700000D01*
X189200000Y-100700000D02*
X189200000Y-103700000D01*
X189200000Y-100700000D02*
G75*
G02*
X190700000Y-100700000I750000J0D01*
G01*
X190401895Y-108805391D02*
G75*
G02*
X191012897Y-110401401I300005J-800109D01*
G01*
X190700000Y-100700000D02*
X190700000Y-103700000D01*
X190700000Y-103700000D02*
G75*
G02*
X189200000Y-103700000I-750000J0D01*
G01*
D10*
X191000000Y-87000000D02*
X192000000Y-79000000D01*
D11*
X191188972Y-113103925D02*
G75*
G02*
X191800025Y-114700065I300028J-800175D01*
G01*
D10*
X192000000Y-79000000D02*
X191970715Y-78985402D01*
X191941431Y-78970894D01*
X191912146Y-78956475D01*
X191882862Y-78942144D01*
X191853578Y-78927903D01*
X191824294Y-78913751D01*
X191795011Y-78899688D01*
X191765728Y-78885714D01*
X191736446Y-78871828D01*
X191707164Y-78858031D01*
X191677883Y-78844322D01*
X191648603Y-78830702D01*
X191619323Y-78817170D01*
X191590043Y-78803727D01*
X191560765Y-78790372D01*
X191531488Y-78777104D01*
X191502211Y-78763925D01*
X191472935Y-78750834D01*
X191443660Y-78737831D01*
X191414387Y-78724916D01*
X191385114Y-78712088D01*
X191355843Y-78699349D01*
X191326573Y-78686696D01*
X191297304Y-78674132D01*
X191268036Y-78661654D01*
X191238770Y-78649265D01*
X191209505Y-78636962D01*
X191180242Y-78624747D01*
X191150981Y-78612619D01*
X191121721Y-78600578D01*
X191092462Y-78588624D01*
X191063206Y-78576757D01*
X191033951Y-78564977D01*
X191004699Y-78553283D01*
X190975448Y-78541677D01*
X190946199Y-78530157D01*
X190916953Y-78518724D01*
X190887708Y-78507377D01*
X190858466Y-78496117D01*
X190829226Y-78484944D01*
X190799989Y-78473856D01*
X190770754Y-78462856D01*
X190741521Y-78451941D01*
X190712292Y-78441112D01*
X190683065Y-78430370D01*
X190653840Y-78419714D01*
X190624619Y-78409144D01*
X190595400Y-78398659D01*
X190566185Y-78388261D01*
X190536973Y-78377948D01*
X190507764Y-78367722D01*
X190478558Y-78357581D01*
X190449355Y-78347525D01*
X190420156Y-78337555D01*
X190390961Y-78327671D01*
X190361769Y-78317873D01*
X190332581Y-78308159D01*
X190303397Y-78298532D01*
X190274216Y-78288989D01*
X190245040Y-78279532D01*
X190215868Y-78270160D01*
X190186700Y-78260873D01*
X190157537Y-78251672D01*
X190128377Y-78242555D01*
X190099223Y-78233524D01*
X190070073Y-78224577D01*
X190040928Y-78215716D01*
X190011787Y-78206939D01*
X189982652Y-78198247D01*
X189953522Y-78189640D01*
X189924397Y-78181118D01*
X189895277Y-78172681D01*
X189866163Y-78164328D01*
X189837054Y-78156060D01*
X189807951Y-78147876D01*
X189778854Y-78139777D01*
X189749763Y-78131763D01*
X189720678Y-78123833D01*
X189691599Y-78115987D01*
X189662526Y-78108226D01*
X189633460Y-78100549D01*
X189604401Y-78092956D01*
X189575348Y-78085448D01*
X189546302Y-78078023D01*
X189517264Y-78070683D01*
X189488232Y-78063427D01*
X189459208Y-78056255D01*
X189430191Y-78049168D01*
X189401182Y-78042164D01*
X189372181Y-78035244D01*
X189343188Y-78028408D01*
X189314203Y-78021656D01*
X189285226Y-78014988D01*
X189256258Y-78008404D01*
X189227299Y-78001903D01*
X189198348Y-77995487D01*
X189169406Y-77989153D01*
X189140474Y-77982904D01*
X189111551Y-77976738D01*
X189082637Y-77970656D01*
X189053733Y-77964658D01*
X189024839Y-77958743D01*
X188995956Y-77952911D01*
X188967082Y-77947163D01*
X188938219Y-77941499D01*
X188909367Y-77935918D01*
X188880526Y-77930420D01*
X188851696Y-77925005D01*
X188822878Y-77919674D01*
X188794071Y-77914426D01*
X188765276Y-77909262D01*
X188736493Y-77904180D01*
X188707722Y-77899182D01*
X188678964Y-77894267D01*
X188650219Y-77889435D01*
X188621487Y-77884686D01*
X188592768Y-77880020D01*
X188564063Y-77875437D01*
X188535371Y-77870937D01*
X188506694Y-77866520D01*
X188478031Y-77862186D01*
X188449383Y-77857935D01*
X188420749Y-77853767D01*
X188392131Y-77849681D01*
X188363529Y-77845678D01*
X188334942Y-77841758D01*
X188306371Y-77837921D01*
X188277817Y-77834166D01*
X188249279Y-77830494D01*
X188220758Y-77826904D01*
X188192255Y-77823397D01*
X188163770Y-77819973D01*
X188135302Y-77816631D01*
X188106854Y-77813371D01*
X188078423Y-77810194D01*
X188050012Y-77807099D01*
X188021620Y-77804087D01*
X187993249Y-77801156D01*
X187964897Y-77798308D01*
X187936566Y-77795543D01*
X187908256Y-77792859D01*
X187879968Y-77790257D01*
X187851701Y-77787738D01*
X187823457Y-77785300D01*
X187795235Y-77782944D01*
X187767036Y-77780671D01*
X187738861Y-77778479D01*
X187710710Y-77776369D01*
X187682584Y-77774340D01*
X187654482Y-77772394D01*
X187626406Y-77770529D01*
X187598356Y-77768745D01*
X187570332Y-77767043D01*
X187542335Y-77765423D01*
X187514366Y-77763884D01*
X187486425Y-77762426D01*
X187458512Y-77761050D01*
X187430629Y-77759755D01*
X187402775Y-77758540D01*
X187374951Y-77757407D01*
X187347158Y-77756355D01*
X187319397Y-77755384D01*
X187291668Y-77754493D01*
X187263972Y-77753684D01*
X187236309Y-77752955D01*
X187208680Y-77752306D01*
X187181086Y-77751738D01*
X187153527Y-77751251D01*
X187126005Y-77750843D01*
X187098519Y-77750516D01*
X187071072Y-77750269D01*
X187043662Y-77750102D01*
X187016292Y-77750014D01*
X186988962Y-77750007D01*
X186961672Y-77750078D01*
X186934424Y-77750230D01*
X186907219Y-77750461D01*
X186880057Y-77750771D01*
X186852940Y-77751160D01*
X186825868Y-77751628D01*
X186798842Y-77752174D01*
X186771863Y-77752800D01*
X186744932Y-77753504D01*
X186718051Y-77754286D01*
X186691219Y-77755146D01*
X186664439Y-77756084D01*
X186637712Y-77757100D01*
X186611038Y-77758193D01*
X186584419Y-77759364D01*
X186557856Y-77760612D01*
X186531350Y-77761937D01*
X186504903Y-77763338D01*
X186478515Y-77764816D01*
X186452189Y-77766370D01*
X186425925Y-77768000D01*
X186399725Y-77769705D01*
X186373591Y-77771486D01*
X186347523Y-77773342D01*
X186321524Y-77775273D01*
X186295596Y-77777278D01*
X186269739Y-77779357D01*
X186243955Y-77781510D01*
X186218247Y-77783736D01*
X186192616Y-77786036D01*
X186167064Y-77788408D01*
X186141593Y-77790852D01*
X186116204Y-77793368D01*
X186090901Y-77795955D01*
X186065685Y-77798613D01*
X186040559Y-77801341D01*
X186015525Y-77804139D01*
X185990584Y-77807006D01*
X185965741Y-77809942D01*
X185940996Y-77812946D01*
X185916354Y-77816017D01*
X185891817Y-77819155D01*
X185867387Y-77822360D01*
X185843068Y-77825629D01*
X185818863Y-77828963D01*
X185794775Y-77832361D01*
X185770808Y-77835822D01*
X185746965Y-77839344D01*
X185723251Y-77842928D01*
X185699668Y-77846571D01*
X185676222Y-77850274D01*
X185652916Y-77854034D01*
X185629755Y-77857851D01*
X185606744Y-77861723D01*
X185583888Y-77865649D01*
X185561193Y-77869627D01*
X185538663Y-77873657D01*
X185516305Y-77877735D01*
X185494126Y-77881861D01*
X185472131Y-77886033D01*
X185450329Y-77890248D01*
X185428726Y-77894505D01*
X185407331Y-77898801D01*
X185386152Y-77903133D01*
X185365200Y-77907499D01*
X185344484Y-77911896D01*
X185324014Y-77916321D01*
X185303804Y-77920769D01*
X185283865Y-77925238D01*
X185264212Y-77929722D01*
X185244861Y-77934218D01*
X185225827Y-77938719D01*
X185207132Y-77943220D01*
X185188794Y-77947714D01*
X185170839Y-77952194D01*
X185153294Y-77956651D01*
X185136190Y-77961075D01*
X185119562Y-77965455D01*
X185103454Y-77969777D01*
X185087916Y-77974023D01*
X185073011Y-77978174D01*
X185058815Y-77982205D01*
X185045431Y-77986081D01*
X185032994Y-77989757D01*
X185021703Y-77993167D01*
X185011874Y-77996204D01*
X185004103Y-77998665D01*
X185000000Y-78000000D01*
X193000000Y-100000000D02*
X192980552Y-99941781D01*
X192961085Y-99883759D01*
X192941600Y-99825931D01*
X192922094Y-99768290D01*
X192902566Y-99710832D01*
X192883014Y-99653550D01*
X192863436Y-99596439D01*
X192843830Y-99539493D01*
X192824195Y-99482705D01*
X192804529Y-99426068D01*
X192784828Y-99369577D01*
X192765091Y-99313223D01*
X192745316Y-99257000D01*
X192725499Y-99200899D01*
X192705639Y-99144912D01*
X192685732Y-99089031D01*
X192665774Y-99033246D01*
X192645764Y-98977548D01*
X192625696Y-98921926D01*
X192605568Y-98866371D01*
X192585376Y-98810870D01*
X192565114Y-98755412D01*
X192544779Y-98699983D01*
X192524365Y-98644571D01*
X192503867Y-98589160D01*
X192483279Y-98533734D01*
X192462595Y-98478277D01*
X192441808Y-98422770D01*
X192420910Y-98367194D01*
X192399893Y-98311527D01*
X192378748Y-98255745D01*
X192357466Y-98199823D01*
X192336034Y-98143733D01*
X192314442Y-98087443D01*
X192292675Y-98030920D01*
X192270719Y-97974124D01*
X192248556Y-97917012D01*
X192226167Y-97859537D01*
X192203530Y-97801643D01*
X192180620Y-97743266D01*
X192157407Y-97684335D01*
X192133858Y-97624764D01*
X192109932Y-97564453D01*
X192085581Y-97503285D01*
X192060747Y-97441116D01*
X192035358Y-97377770D01*
X192009325Y-97313026D01*
X191982533Y-97246603D01*
X191954830Y-97178129D01*
X191926007Y-97107096D01*
X191895769Y-97032778D01*
X191863660Y-96954066D01*
X191828924Y-96869114D01*
X191790106Y-96774372D01*
X191743594Y-96661037D01*
X191713296Y-96587264D01*
X191662912Y-96464563D01*
X191638111Y-96404108D01*
X191613572Y-96344225D01*
X191589297Y-96284893D01*
X191565286Y-96226093D01*
X191541541Y-96167807D01*
X191518064Y-96110013D01*
X191494855Y-96052693D01*
X191483351Y-96024205D01*
X191471915Y-95995827D01*
X191460547Y-95967559D01*
X191449246Y-95939396D01*
X191438014Y-95911338D01*
X191426850Y-95883381D01*
X191415754Y-95855522D01*
X191404726Y-95827761D01*
X191393767Y-95800093D01*
X191382877Y-95772517D01*
X191372056Y-95745030D01*
X191361304Y-95717630D01*
X191350621Y-95690314D01*
X191340007Y-95663080D01*
X191329463Y-95635926D01*
X191318989Y-95608848D01*
X191308584Y-95581845D01*
X191298250Y-95554914D01*
X191287986Y-95528053D01*
X191277792Y-95501260D01*
X191267668Y-95474530D01*
X191257615Y-95447864D01*
X191247633Y-95421257D01*
X191237721Y-95394708D01*
X191227881Y-95368214D01*
X191218112Y-95341772D01*
X191208414Y-95315381D01*
X191198788Y-95289038D01*
X191189233Y-95262739D01*
X191179750Y-95236484D01*
X191170339Y-95210269D01*
X191161001Y-95184092D01*
X191151734Y-95157951D01*
X191142540Y-95131843D01*
X191133419Y-95105766D01*
X191124370Y-95079717D01*
X191115394Y-95053693D01*
X191106491Y-95027693D01*
X191097662Y-95001714D01*
X191088906Y-94975754D01*
X191080223Y-94949810D01*
X191071614Y-94923879D01*
X191063078Y-94897960D01*
X191054617Y-94872049D01*
X191046230Y-94846144D01*
X191037917Y-94820244D01*
X191029678Y-94794345D01*
X191021514Y-94768445D01*
X191013424Y-94742542D01*
X191005410Y-94716632D01*
X190997470Y-94690715D01*
X190989606Y-94664787D01*
X190981817Y-94638845D01*
X190974103Y-94612888D01*
X190966465Y-94586913D01*
X190958903Y-94560918D01*
X190951417Y-94534899D01*
X190947702Y-94521881D01*
X190944007Y-94508856D01*
X190940330Y-94495823D01*
X190936673Y-94482784D01*
X190933035Y-94469737D01*
X190929415Y-94456682D01*
X190925815Y-94443619D01*
X190922234Y-94430548D01*
X190918673Y-94417468D01*
X190915130Y-94404378D01*
X190911607Y-94391280D01*
X190908102Y-94378171D01*
X190904618Y-94365053D01*
X190901152Y-94351925D01*
X190897706Y-94338785D01*
X190894279Y-94325635D01*
X190890871Y-94312474D01*
X190887483Y-94299301D01*
X190884114Y-94286116D01*
X190880764Y-94272920D01*
X190877434Y-94259710D01*
X190874123Y-94246488D01*
X190870832Y-94233253D01*
X190867560Y-94220005D01*
X190864307Y-94206743D01*
X190861074Y-94193467D01*
X190857861Y-94180177D01*
X190854667Y-94166872D01*
X190851493Y-94153553D01*
X190848338Y-94140218D01*
X190845203Y-94126868D01*
X190842087Y-94113502D01*
X190838991Y-94100119D01*
X190835915Y-94086721D01*
X190832858Y-94073306D01*
X190829821Y-94059874D01*
X190826804Y-94046424D01*
X190823807Y-94032957D01*
X190820829Y-94019472D01*
X190817871Y-94005969D01*
X190814933Y-93992447D01*
X190812014Y-93978907D01*
X190809116Y-93965347D01*
X190806237Y-93951768D01*
X190803378Y-93938169D01*
X190800539Y-93924550D01*
X190797720Y-93910911D01*
X190794921Y-93897251D01*
X190792141Y-93883570D01*
X190789382Y-93869868D01*
X190786643Y-93856144D01*
X190783923Y-93842399D01*
X190781224Y-93828631D01*
X190778545Y-93814841D01*
X190775885Y-93801028D01*
X190773246Y-93787192D01*
X190770627Y-93773332D01*
X190768028Y-93759449D01*
X190765449Y-93745542D01*
X190762890Y-93731611D01*
X190760352Y-93717654D01*
X190757833Y-93703673D01*
X190755335Y-93689667D01*
X190752857Y-93675636D01*
X190750399Y-93661578D01*
X190747962Y-93647494D01*
X190745545Y-93633384D01*
X190743148Y-93619247D01*
X190740771Y-93605083D01*
X190738415Y-93590892D01*
X190736079Y-93576673D01*
X190733763Y-93562426D01*
X190731468Y-93548151D01*
X190729193Y-93533847D01*
X190726939Y-93519515D01*
X190724705Y-93505153D01*
X190722492Y-93490762D01*
X190720299Y-93476340D01*
X190718126Y-93461889D01*
X190715975Y-93447408D01*
X190713843Y-93432895D01*
X190711732Y-93418352D01*
X190709642Y-93403778D01*
X190707573Y-93389171D01*
X190705524Y-93374533D01*
X190703495Y-93359863D01*
X190701487Y-93345160D01*
X190699500Y-93330424D01*
X190697534Y-93315656D01*
X190695588Y-93300853D01*
X190693664Y-93286017D01*
X190691759Y-93271147D01*
X190689876Y-93256243D01*
X190688014Y-93241303D01*
X190686172Y-93226329D01*
X190684351Y-93211320D01*
X190682551Y-93196275D01*
X190680771Y-93181194D01*
X190679013Y-93166077D01*
X190677276Y-93150924D01*
X190675559Y-93135733D01*
X190673864Y-93120506D01*
X190672189Y-93105241D01*
X190670535Y-93089939D01*
X190668903Y-93074598D01*
X190667291Y-93059219D01*
X190665701Y-93043802D01*
X190664131Y-93028346D01*
X190662583Y-93012850D01*
X190661055Y-92997315D01*
X190659549Y-92981740D01*
X190658064Y-92966125D01*
X190656600Y-92950469D01*
X190655157Y-92934773D01*
X190653736Y-92919035D01*
X190652335Y-92903257D01*
X190650956Y-92887436D01*
X190649598Y-92871574D01*
X190648262Y-92855669D01*
X190646946Y-92839722D01*
X190645652Y-92823732D01*
X190644379Y-92807698D01*
X190643128Y-92791621D01*
X190641898Y-92775501D01*
X190640689Y-92759336D01*
X190639502Y-92743127D01*
X190638336Y-92726873D01*
X190637192Y-92710574D01*
X190636069Y-92694230D01*
X190634968Y-92677840D01*
X190633888Y-92661404D01*
X190632829Y-92644922D01*
X190631792Y-92628394D01*
X190630777Y-92611818D01*
X190629783Y-92595196D01*
X190628811Y-92578526D01*
X190627860Y-92561808D01*
X190626931Y-92545042D01*
X190626024Y-92528228D01*
X190625138Y-92511365D01*
X190624274Y-92494453D01*
X190623432Y-92477492D01*
X190622612Y-92460481D01*
X190621813Y-92443420D01*
X190621036Y-92426310D01*
X190620280Y-92409148D01*
X190619547Y-92391936D01*
X190618835Y-92374673D01*
X190618145Y-92357358D01*
X190617478Y-92339992D01*
X190616831Y-92322573D01*
X190616207Y-92305103D01*
X190615605Y-92287579D01*
X190615025Y-92270003D01*
X190614466Y-92252373D01*
X190613930Y-92234690D01*
X190613415Y-92216953D01*
X190612923Y-92199162D01*
X190612453Y-92181317D01*
X190612004Y-92163416D01*
X190611578Y-92145461D01*
X190611174Y-92127450D01*
X190610792Y-92109384D01*
X190610432Y-92091261D01*
X190610094Y-92073082D01*
X190609778Y-92054847D01*
X190609485Y-92036555D01*
X190609214Y-92018205D01*
X190608964Y-91999799D01*
X190608738Y-91981334D01*
X190608533Y-91962811D01*
X190608351Y-91944230D01*
X190608191Y-91925590D01*
X190608053Y-91906891D01*
X190607938Y-91888132D01*
X190607845Y-91869314D01*
X190607774Y-91850436D01*
X190607726Y-91831498D01*
X190607700Y-91812499D01*
X190607697Y-91793439D01*
X190607716Y-91774319D01*
X190607757Y-91755136D01*
X190607821Y-91735892D01*
X190607908Y-91716586D01*
X190608017Y-91697218D01*
X190608148Y-91677787D01*
X190608302Y-91658292D01*
X190608479Y-91638735D01*
X190608678Y-91619114D01*
X190608900Y-91599429D01*
X190609145Y-91579680D01*
X190609412Y-91559866D01*
X190609702Y-91539988D01*
X190610014Y-91520044D01*
X190610349Y-91500035D01*
X190610707Y-91479960D01*
X190611088Y-91459819D01*
X190611492Y-91439612D01*
X190611918Y-91419338D01*
X190612367Y-91398997D01*
X190612839Y-91378589D01*
X190613334Y-91358114D01*
X190613852Y-91337570D01*
X190614392Y-91316959D01*
X190614956Y-91296279D01*
X190615542Y-91275530D01*
X190616151Y-91254712D01*
X190616784Y-91233825D01*
X190617439Y-91212868D01*
X190618117Y-91191840D01*
X190618818Y-91170743D01*
X190619543Y-91149575D01*
X190620290Y-91128336D01*
X190621061Y-91107026D01*
X190621854Y-91085645D01*
X190622671Y-91064191D01*
X190623510Y-91042666D01*
X190624373Y-91021068D01*
X190625259Y-90999397D01*
X190626169Y-90977653D01*
X190627101Y-90955836D01*
X190628057Y-90933946D01*
X190630038Y-90889942D01*
X190632112Y-90845640D01*
X190634280Y-90801037D01*
X190636541Y-90756132D01*
X190638896Y-90710920D01*
X190641344Y-90665401D01*
X190643887Y-90619571D01*
X190646523Y-90573429D01*
X190649253Y-90526971D01*
X190652078Y-90480195D01*
X190654998Y-90433099D01*
X190658012Y-90385681D01*
X190661121Y-90337937D01*
X190664324Y-90289866D01*
X190667623Y-90241465D01*
X190671018Y-90192731D01*
X190674507Y-90143663D01*
X190678092Y-90094258D01*
X190681773Y-90044512D01*
X190685550Y-89994425D01*
X190689423Y-89943993D01*
X190693392Y-89893214D01*
X190697457Y-89842086D01*
X190701619Y-89790606D01*
X190705878Y-89738771D01*
X190710233Y-89686580D01*
X190714685Y-89634030D01*
X190719235Y-89581118D01*
X190723881Y-89527842D01*
X190728625Y-89474199D01*
X190733467Y-89420188D01*
X190738406Y-89365805D01*
X190743443Y-89311048D01*
X190748578Y-89255915D01*
X190753811Y-89200404D01*
X190759143Y-89144511D01*
X190764573Y-89088235D01*
X190770101Y-89031573D01*
X190775729Y-88974522D01*
X190781455Y-88917081D01*
X190787281Y-88859246D01*
X190793205Y-88801015D01*
X190799229Y-88742387D01*
X190805353Y-88683357D01*
X190811576Y-88623925D01*
X190817899Y-88564087D01*
X190824322Y-88503841D01*
X190830845Y-88443185D01*
X190837469Y-88382116D01*
X190844193Y-88320632D01*
X190851017Y-88258731D01*
X190857943Y-88196409D01*
X190864969Y-88133664D01*
X190872096Y-88070495D01*
X190879325Y-88006898D01*
X190886654Y-87942871D01*
X190894086Y-87878413D01*
X190901619Y-87813519D01*
X190909254Y-87748188D01*
X190916990Y-87682418D01*
X190924829Y-87616205D01*
X190932770Y-87549548D01*
X190940814Y-87482445D01*
X190948960Y-87414891D01*
X190957209Y-87346887D01*
X190965561Y-87278427D01*
X190974016Y-87209512D01*
X190982574Y-87140137D01*
X190991235Y-87070300D01*
X191000000Y-87000000D01*
X193000000Y-100000000D02*
X194000000Y-114000000D01*
X193000000Y-116000000D02*
X193012971Y-115986973D01*
X193025857Y-115973918D01*
X193038658Y-115960835D01*
X193051375Y-115947725D01*
X193064007Y-115934587D01*
X193076556Y-115921421D01*
X193089020Y-115908228D01*
X193101400Y-115895008D01*
X193113696Y-115881761D01*
X193125909Y-115868488D01*
X193138037Y-115855187D01*
X193150083Y-115841860D01*
X193162044Y-115828506D01*
X193173922Y-115815126D01*
X193185717Y-115801719D01*
X193197429Y-115788287D01*
X193209057Y-115774829D01*
X193220603Y-115761345D01*
X193232065Y-115747835D01*
X193243444Y-115734300D01*
X193254741Y-115720739D01*
X193265955Y-115707153D01*
X193277086Y-115693543D01*
X193288134Y-115679907D01*
X193299100Y-115666247D01*
X193309983Y-115652563D01*
X193320784Y-115638854D01*
X193331503Y-115625120D01*
X193342139Y-115611363D01*
X193352692Y-115597582D01*
X193363164Y-115583778D01*
X193373553Y-115569950D01*
X193383860Y-115556098D01*
X193394085Y-115542224D01*
X193404228Y-115528327D01*
X193414288Y-115514407D01*
X193424267Y-115500465D01*
X193434163Y-115486500D01*
X193443978Y-115472514D01*
X193453710Y-115458506D01*
X193463360Y-115444476D01*
X193472929Y-115430425D01*
X193482415Y-115416352D01*
X193491819Y-115402259D01*
X193501142Y-115388145D01*
X193510382Y-115374011D01*
X193519540Y-115359857D01*
X193528617Y-115345683D01*
X193537611Y-115331489D01*
X193546523Y-115317277D01*
X193555353Y-115303045D01*
X193564101Y-115288794D01*
X193572767Y-115274525D01*
X193581350Y-115260238D01*
X193589852Y-115245934D01*
X193598271Y-115231612D01*
X193606608Y-115217272D01*
X193614862Y-115202916D01*
X193623034Y-115188544D01*
X193631124Y-115174156D01*
X193639131Y-115159752D01*
X193647055Y-115145333D01*
X193654897Y-115130899D01*
X193662656Y-115116451D01*
X193670333Y-115101988D01*
X193677926Y-115087512D01*
X193685436Y-115073024D01*
X193692864Y-115058522D01*
X193700208Y-115044008D01*
X193707469Y-115029483D01*
X193714646Y-115014947D01*
X193721740Y-115000400D01*
X193728751Y-114985843D01*
X193735677Y-114971276D01*
X193742520Y-114956701D01*
X193749279Y-114942118D01*
X193755954Y-114927526D01*
X193762544Y-114912928D01*
X193769051Y-114898324D01*
X193775472Y-114883714D01*
X193781809Y-114869099D01*
X193788062Y-114854480D01*
X193794229Y-114839858D01*
X193800311Y-114825233D01*
X193806308Y-114810606D01*
X193812219Y-114795979D01*
X193818045Y-114781351D01*
X193823784Y-114766725D01*
X193829438Y-114752100D01*
X193835005Y-114737479D01*
X193840486Y-114722861D01*
X193845881Y-114708249D01*
X193851188Y-114693642D01*
X193856408Y-114679044D01*
X193861541Y-114664453D01*
X193866587Y-114649873D01*
X193871544Y-114635304D01*
X193876414Y-114620748D01*
X193881195Y-114606206D01*
X193885888Y-114591679D01*
X193890491Y-114577170D01*
X193895006Y-114562679D01*
X193899432Y-114548209D01*
X193903767Y-114533761D01*
X193908013Y-114519338D01*
X193912168Y-114504941D01*
X193916233Y-114490573D01*
X193920207Y-114476235D01*
X193924090Y-114461931D01*
X193927881Y-114447661D01*
X193931581Y-114433430D01*
X193935188Y-114419240D01*
X193938703Y-114405093D01*
X193942124Y-114390993D01*
X193945453Y-114376942D01*
X193948687Y-114362945D01*
X193951828Y-114349005D01*
X193954874Y-114335126D01*
X193957825Y-114321312D01*
X193960681Y-114307567D01*
X193963442Y-114293897D01*
X193966106Y-114280305D01*
X193968673Y-114266798D01*
X193971144Y-114253382D01*
X193973517Y-114240062D01*
X193975791Y-114226846D01*
X193977968Y-114213740D01*
X193980045Y-114200754D01*
X193982023Y-114187896D01*
X193983901Y-114175176D01*
X193985678Y-114162604D01*
X193987354Y-114150193D01*
X193988928Y-114137955D01*
X193990400Y-114125906D01*
X193991770Y-114114063D01*
X193993035Y-114102445D01*
X193994197Y-114091075D01*
X193995254Y-114079978D01*
X193996206Y-114069186D01*
X193997052Y-114058736D01*
X193997791Y-114048674D01*
X193998424Y-114039058D01*
X193998949Y-114029964D01*
X193999366Y-114021497D01*
X193999677Y-114013812D01*
X193999880Y-114007162D01*
X193999982Y-114002055D01*
X194000000Y-114000000D01*
M02*
